<?xml version="1.0" encoding="UTF-8" standalone="no"?>
<svg
   xmlns:dc="http://purl.org/dc/elements/1.1/"
   xmlns:cc="http://creativecommons.org/ns#"
   xmlns:rdf="http://www.w3.org/1999/02/22-rdf-syntax-ns#"
   xmlns:svg="http://www.w3.org/2000/svg"
   xmlns="http://www.w3.org/2000/svg"
   xmlns:sodipodi="http://sodipodi.sourceforge.net/DTD/sodipodi-0.dtd"
   xmlns:inkscape="http://www.inkscape.org/namespaces/inkscape"
   width="243"
   height="229"
   viewBox="0 0 243 229"
   id="svg2"
   version="1.1"
   inkscape:version="0.91 r13725"
   sodipodi:docname="intro-bg_1.svg">
  <metadata
     id="metadata50">
    <rdf:RDF>
      <cc:Work
         rdf:about="">
        <dc:format>image/svg+xml</dc:format>
        <dc:type
           rdf:resource="http://purl.org/dc/dcmitype/StillImage" />
      </cc:Work>
    </rdf:RDF>
  </metadata>
  <defs
     id="defs48" />
  <sodipodi:namedview
     pagecolor="#ffffff"
     bordercolor="#666666"
     borderopacity="1"
     objecttolerance="10"
     gridtolerance="10"
     guidetolerance="10"
     inkscape:pageopacity="0"
     inkscape:pageshadow="2"
     inkscape:window-width="1920"
     inkscape:window-height="1036"
     id="namedview46"
     showgrid="false"
     inkscape:zoom="1.0305677"
     inkscape:cx="273.93441"
     inkscape:cy="114.5"
     inkscape:window-x="1678"
     inkscape:window-y="6"
     inkscape:window-maximized="0"
     inkscape:current-layer="svg2" />
  <path
     inkscape:connector-curvature="0"
     id="path4238"
     d="m 3.3167491,226.78983 -2.0540266,-1.43869 0,-17.49573 0,-17.49572 L 18.365991,155.5312 C 27.77279,136.37555 35.646317,120.52567 35.862716,120.30927 36.557894,119.61411 99.601661,94.287134 99.898351,94.583837 100.0556,94.741079 97.69553,96.19622 94.653745,97.817475 79.37354,105.96173 59.735018,120.62629 50.080814,131.10114 l -5.843151,6.33985 -3.182604,5.30058 c -1.750429,2.91533 -3.920257,7.43486 -4.821834,10.04342 l -1.63924,4.74283 -0.0099,5.54515 -0.0099,5.54515 1.878902,4.14226 c 1.033404,2.27823 2.544329,4.87752 3.357618,5.7762 l 1.478708,1.63394 -5.688395,0 -5.688394,0 0,5.08306 0,5.08306 6.931442,0 6.931442,0 0,2.31048 0,2.31048 -9.241922,0 -9.241923,0 0,4.62096 0,4.62096 9.241923,0 9.241922,0 0,2.28287 0,2.28288 -11.783451,0.25864 -11.783452,0.25867 -0.281684,4.38991 -0.281685,4.38991 12.065136,0 12.065136,0 0,5.08306 0,5.08306 -19.202395,0 -19.2024056,0 -2.0540173,-1.43869 z m 50.3168719,0.82256 -0.616131,-0.61612 0,-19.8239 0,-19.82389 2.079432,0.5832 c 1.143688,0.32075 5.323939,1.03674 9.289436,1.59107 l 7.210012,1.00787 8.501256,-1.00491 8.501266,-1.00492 7.855633,-2.30735 c 4.320595,-1.26906 8.167545,-2.3161 8.548775,-2.32676 l 0.69315,-0.0194 -0.0409,13.16974 -0.0409,13.16974 -1.84976,-3.50498 -1.84977,-3.50498 -2.961393,-1.80567 -2.961408,-1.80567 -2.932721,-0.004 -2.932709,-0.004 -2.969153,2.49838 -2.969152,2.49838 -1.260617,3.01709 -1.260617,3.01757 0,8.80951 0,8.80951 -13.708849,0 -13.708858,0 -0.616022,-0.61553 z m 61.304749,-68.23619 0,-68.852321 4.62096,0 4.62096,0 0,68.852321 0,68.85232 -4.62096,0 -4.62096,0 0,-68.85232 z m 42.51284,60.06688 0,-8.83358 -1.26062,-3.01709 -1.26062,-3.01709 -2.96915,-2.49837 -2.96915,-2.49838 -2.93273,0.004 -2.93271,0.004 -2.9614,1.80567 -2.9614,1.80567 -1.84976,3.50498 -1.84977,3.50449 -0.0409,-13.16974 -0.0409,-13.16974 0.69315,0.0194 c 0.38123,0.0106 4.08751,1.01569 8.23618,2.2334 l 7.54303,2.21401 8.7711,1.10402 8.7711,1.10402 7.25276,-1.01363 c 3.98903,-0.55749 8.19678,-1.27822 9.35055,-1.60162 l 2.09777,-0.58799 -0.24939,20.21376 -0.24938,20.21375 -14.09393,0.25513 -14.09394,0.25511 0,-8.83358 z m 37.89189,3.70238 0,-5.08306 12.06513,0 12.06514,0 -0.28169,-4.38991 -0.28168,-4.38991 -11.78345,-0.25867 -11.78345,-0.25864 0,-2.28288 0,-2.28287 9.24192,0 9.24192,0 0,-4.62096 0,-4.62096 -9.24192,0 -9.24192,0 0,-2.31048 0,-2.31048 6.93144,0 6.93144,0 0,-5.08306 0,-5.08306 -5.68839,0 -5.6884,0 1.47872,-1.63394 c 0.81329,-0.89868 2.32421,-3.49797 3.35761,-5.7762 l 1.87891,-4.14226 -0.01,-5.54515 -0.01,-5.54515 -1.63924,-4.74283 c -0.90158,-2.60856 -3.0714,-7.12809 -4.82183,-10.04342 l -3.18258,-5.30058 -5.84315,-6.33985 c -9.65421,-10.47485 -29.29273,-25.13941 -44.57293,-33.283665 -3.04179,-1.621255 -5.3985,-3.07976 -5.23714,-3.241115 0.3092,-0.309198 63.2766,24.98135 64.00091,25.70566 0.23139,0.23139 8.11718,16.09353 17.52398,35.24918 l 17.10327,34.82849 0,17.49572 0,17.49573 -2.05403,1.4387 -2.05401,1.43869 -19.20241,0 -19.20239,0 0,-5.08306 z M 56.851132,178.40211 c -2.720406,-0.93944 -6.005309,-2.49883 -7.299788,-3.46529 l -2.353594,-1.75721 -1.767953,-3.20494 -1.767961,-3.20493 0.358254,-4.78327 0.358245,-4.78326 2.886705,-5.84495 2.886705,-5.84494 4.514097,-5.32367 c 6.098856,-7.19265 15.412034,-15.17686 26.539512,-22.75237 10.379705,-7.06643 21.995296,-13.97471 23.497096,-13.97471 l 0.994,0 0,1.70037 0,1.70036 -9.93507,6.49191 c -5.464285,3.57055 -12.886685,8.84424 -16.494214,11.7193 l -6.559141,5.22739 -3.83122,5.17122 -3.831212,5.17121 -1.024883,3.80611 -1.024883,3.80611 0.361674,5.67992 0.361673,5.67993 2.558331,3.35415 2.55833,3.35414 3.874279,1.99297 3.874279,1.99297 7.083046,0.42313 7.083056,0.42313 6.461202,-1.96253 c 3.553663,-1.0794 6.916503,-1.96253 7.472983,-1.96253 l 1.01177,0 0,2.81974 0,2.81973 -3.46572,1.44959 c -1.90615,0.79729 -7.366001,2.43961 -12.133011,3.64961 l -8.667278,2.20002 -9.816567,-0.0302 -9.816558,-0.0301 -4.946184,-1.70807 z M 148.67139,177.971 c -4.57476,-1.20897 -9.87731,-2.85099 -11.78345,-3.64891 l -3.46573,-1.45079 0,-2.81973 0,-2.81974 1.01177,0 c 0.55648,0 3.91932,0.88313 7.47298,1.96254 l 6.46121,1.96253 7.08305,-0.42313 7.08305,-0.42313 3.87428,-1.99297 3.87428,-1.99297 2.55833,-3.35414 2.55833,-3.35415 0.36167,-5.67993 0.36168,-5.67993 -1.02489,-3.80611 -1.02488,-3.80611 -3.83121,-5.17121 -3.83121,-5.17122 -6.45717,-5.14458 c -3.55144,-2.82952 -10.97384,-8.09246 -16.49421,-11.69543 l -10.03706,-6.55086 0,-1.72423 0,-1.72423 0.994,0 c 2.84012,0 26.7983,15.54135 37.08,24.05331 l 6.74933,5.58759 5.39414,6.20492 5.39413,6.20493 2.87795,5.54515 2.87797,5.54515 0.0456,6.00726 0.0457,6.00724 -2.22683,3.12223 -2.22681,3.12224 -5.16672,2.40818 -5.16672,2.40817 -11.5524,0.2451 -11.55241,0.24509 -8.31773,-2.19813 z m -71.253524,-18.04499 -3.787497,-1.72008 -0.602416,-1.56989 c -0.331332,-0.86343 -0.602426,-3.0681 -0.602426,-4.89927 l 0,-3.32939 1.9283,-3.98333 1.928299,-3.98334 5.596604,-5.06464 c 5.700094,-5.15828 21.35586,-16.20223 22.96811,-16.20223 l 0.88788,0 -0.25018,18.69004 -0.25019,18.69003 -7.393537,2.54921 -7.393536,2.54921 -4.620962,-0.003 -4.620961,-0.003 -3.787488,-1.72008 z m 63.859984,-0.82288 -7.39354,-2.54921 -0.25019,-18.69004 -0.25018,-18.69004 1.0422,0 c 1.60884,0 17.58183,11.39912 23.31415,16.63814 l 5.12138,4.68065 1.91574,3.95738 1.91573,3.95737 0,3.46574 0,3.46573 -0.89724,1.67649 -0.89722,1.67649 -3.74244,1.49743 -3.74243,1.49742 -4.37122,-0.0172 -4.3712,-0.0172 -7.39354,-2.54921 z"
     style="fill:#ffffff" />
</svg>
