<?xml version="1.0" encoding="UTF-8" standalone="no"?>
<svg
   xmlns:dc="http://purl.org/dc/elements/1.1/"
   xmlns:cc="http://creativecommons.org/ns#"
   xmlns:rdf="http://www.w3.org/1999/02/22-rdf-syntax-ns#"
   xmlns:svg="http://www.w3.org/2000/svg"
   xmlns="http://www.w3.org/2000/svg"
   xmlns:sodipodi="http://sodipodi.sourceforge.net/DTD/sodipodi-0.dtd"
   xmlns:inkscape="http://www.inkscape.org/namespaces/inkscape"
   width="302"
   height="690"
   viewBox="0 0 302 690"
   id="svg2"
   version="1.1"
   inkscape:version="0.91 r13725"
   sodipodi:docname="intro-bg_hand.svg">
  <metadata
     id="metadata88">
    <rdf:RDF>
      <cc:Work
         rdf:about="">
        <dc:format>image/svg+xml</dc:format>
        <dc:type
           rdf:resource="http://purl.org/dc/dcmitype/StillImage" />
        <dc:title />
      </cc:Work>
    </rdf:RDF>
  </metadata>
  <sodipodi:namedview
     pagecolor="#ffffff"
     bordercolor="#666666"
     borderopacity="1"
     objecttolerance="10"
     gridtolerance="10"
     guidetolerance="10"
     inkscape:pageopacity="0"
     inkscape:pageshadow="2"
     inkscape:window-width="1097"
     inkscape:window-height="681"
     id="namedview86"
     showgrid="false"
     inkscape:zoom="0.96740406"
     inkscape:cx="108.95326"
     inkscape:cy="521.75866"
     inkscape:window-x="2207"
     inkscape:window-y="178"
     inkscape:window-maximized="0"
     inkscape:current-layer="svg2" />
  <defs
     id="defs4">
    <path
       id="a"
       d="M0 .629h46.882v25.456H0z" />
    <path
       id="c"
       d="M.253.679h44.813V32.39H.253z" />
    <path
       id="e"
       d="M0 0h233.816v63.073H0z" />
    <path
       id="g"
       d="M.293.205h129.358v40.823H.293z" />
    <path
       id="i"
       d="M0 .414h130.926v26.238H0z" />
    <path
       id="k"
       d="M.293.205h129.358v40.823H.293z" />
    <path
       id="m"
       d="M0 .413h130.926v26.24H0z" />
    <path
       id="o"
       d="M.63.523h67.38v12.029H.63z" />
    <path
       id="q"
       d="M.293.205h129.358v40.823H.293z" />
    <path
       id="s"
       d="M0 .413h130.926v26.24H0z" />
    <path
       id="u"
       d="M.63.523h67.38v12.029H.63z" />
    <path
       id="w"
       d="M0 .922h98.269v40.422H0z" />
    <path
       id="y"
       d="M.056.159h61.485v87.295H.056z" />
    <path
       id="A"
       d="M.057.159H61.54v87.296H.057z" />
  </defs>
  <g
     id="g20"
     style="fill:#ffffff"
     fill-rule="evenodd"
     fill="none">
    <path
       d="M231.679 689.953l2.136-38.843c1.085-23.342-2.737-89.253-6.463-132.238-.875-10.102-1.746-18.943-2.545-25.66-.966-8.12-.244-14.033.578-19.743.838-5.84 1.782-11.466 1.127-19.02-1.136-13.11 6.82-47.882 6.82-47.882 27.277-51.113 13.07-127.687 13.07-127.687 7.388-9.12 2.273-31.922 2.273-31.922 2.273-2.28 2.273-11.4 2.273-11.4 11.366-13.681 25.005-54.153 25.005-54.153 9.092-10.26 14.207-42.182 14.207-42.182 11.934-28.502 17.617-60.424 1.705-67.834-15.912-7.41-31.824 22.801-31.824 36.482 0 13.68-21.027 51.303-23.868 59.853-2.306 6.938-15.84 22.512-20.858 28.135-.231-12.349-4.273-20.392-5.851-28.705-2.273-11.97-18.185-15.96-27.846-17.67-6.662-1.18-16.834 4.956-22.51 8.882-.228-.783-.486-1.478-.79-2.043-11.711-21.814-16.48-20.52-28.982-21.09-12.503-.57-22.163 9.69-29.551 15.39-7.388 5.7-18.185 42.752-21.595 41.612-3.41-1.14-10.797-45.602-13.07-58.713-2.274-13.11-7.388-25.081-7.956-39.332-.569-14.25-6.251-31.352-6.251-31.352C48.07 20.086 41.252-.435 20.225.135-.8.705-1.37 34.337.904 45.737c2.273 11.401 1.704 18.811 3.41 67.264 1.704 48.453 12.502 87.785 15.343 100.326 2.841 12.54 1.705 19.95 1.705 33.631 0 13.681 5.683 36.482 5.683 36.482 3.41 95.766 38.927 146.783 41.484 150.774 2.558 3.99 1.705 10.545 1.137 15.675-.35 3.163.92 8.818 1.945 12.69-.61 4.272-1.771 16.957-.809 48.304.918 29.907-7.792 110.328-11.186 140.227 0 0-1.643 22.42-1.832 38.843"
       id="path22"
       style="fill:#ffffff"
       fill="#FFF" />
    <path
       d="M150.63 249.363c-6.251 40.472 5.416 53.842 27.01 55.552 18.831 1.49 23.868-18.241 24.437-27.362.568-9.12 4.546-38.192 10.797-62.703 1.906-7.478 2.544-13.735 2.445-19.16"
       id="path24"
       style="fill:#ffffff"
       stroke-linejoin="round"
       stroke-linecap="round"
       stroke-width=".54"
       stroke="#2700C3" />
    <path
       d="M41.536 269.857s9.945 19.287 20.553 7.126c0 0 16.58-23.937 29.74-48.453 7.956-14.82 19.89-34.202 46.031-36.482 26.141-2.28 47.196-12.849 53.419-13.68 8.524-1.14 24.436 3.42 20.458 28.5-3.258 20.546-19.322 28.502-31.824 34.773-8.687 4.356-36.938 9.12-36.938 9.12s1.136 30.212-7.956 40.757M157.75 413.22c23.977-31.868 24.085-62.23 18.832-83.81-3.085-12.673-8.019-22.317-11.052-27.46M159.116 158.179c2.135 7.333 1.17 23.233.623 30.068"
       id="path26"
       style="fill:#ffffff"
       stroke-linejoin="round"
       stroke-linecap="round"
       stroke-width=".78"
       stroke="#2700C3" />
    <path
       d="M46.085 305.7s-13.972 27.86.319 58.854"
       id="path28"
       style="fill:#ffffff"
       stroke-linejoin="round"
       stroke-linecap="round"
       stroke-width=".54"
       stroke="#2700C3" />
    <path
       d="M165.99 193.473s7.388 8.55 9.377 18.241c0 0 1.989 6.27 8.808 5.415 6.82-.855 35.2-8.117 23.868-28.786-9.376-17.101-25.857-4.275-35.518-1.425-4.914 1.449-7.956 3.135-6.535 6.555zM163.053 267.292s-2.604 7.98-1.183 17.956c.733 5.15 5.257 11.97 16.054 12.54 10.798.57 14.7-4.432 16.765-9.262 1.704-3.99 3.925-15.407 2.273-21.044-2.842-9.69-29.362-13.68-33.909-.19z"
       id="path30"
       style="fill:#ffffff"
       stroke-linejoin="round"
       stroke-linecap="round"
       stroke-width=".78"
       stroke="#2700C3" />
    <path
       d="M93.913 171.717s-.702 4.183 4.224 10.264M104.142 170.957s-11.441 5.89-7.15 48.579M31.401 129.535s8.714.76 18.185-3.04"
       id="path32"
       style="fill:#ffffff"
       stroke-linejoin="round"
       stroke-linecap="round"
       stroke-width=".54"
       stroke="#2700C3" />
    <path
       d="M26.477 62.65s10.607-1.14 14.775 0"
       id="path34"
       style="fill:#ffffff"
       stroke-linejoin="round"
       stroke-linecap="round"
       stroke-width=".78"
       stroke="#2700C3" />
    <path
       d="M274.627 117.754s6.82 1.14 8.334 3.8M253.79 163.356s13.26 4.18 14.396 9.501M250.92 235.38c-.879-2.068-2.818-5.036-6.981-6.66M246.373 278.715c-1.292-1.74-3-3.588-5.086-4.868M137.86 240.5s.853 5.986 5.115 10.261M142.975 250.761c-6.536 1.425-10.798-1.425-10.798-1.425M139.652 282.248c-1.043.833-3.698 2.584-7.19 2.145M125.499 202.336c1.253 1.088 6.153 7.732 8.241 15.62M104.52 422.15c5.304 0 50.01-8.36 60.618-42.562"
       id="path36"
       style="fill:#ffffff"
       stroke-linejoin="round"
       stroke-linecap="round"
       stroke-width=".54"
       stroke="#2700C3" />
    <path
       d="M69.771 437.04c3.988 1.392 16.822 5.504 27.55 4.871"
       id="path38"
       style="fill:#ffffff"
       stroke-linejoin="round"
       stroke-linecap="round"
       stroke-width=".78"
       stroke="#2700C3" />
    <path
       d="M233.364 406.403c-3.481 4.934-9.295 11.634-17.55 16.2"
       id="path40"
       style="fill:#ffffff"
       stroke-linejoin="round"
       stroke-linecap="round"
       stroke-width=".54"
       stroke="#2700C3" />
    <path
       d="M131.04 428.99s25.005-6.08 47.737-2.28M34.811 208.579s21.216 3.04 30.309-6.08"
       id="path42"
       style="fill:#ffffff"
       stroke-linejoin="round"
       stroke-linecap="round"
       stroke-width=".78"
       stroke="#2700C3" />
    <path
       d="M84.53 249.387c.053.388.087.584.168.976.066.317.181.46.333.428.153-.03.341-.22.564-.573.212-.335.357-.675.438-1.018.082-.343.083-.669.016-.977-.083-.39-.12-.586-.173-.972l-1.347 2.136m-2.583 6.454c.677-1.889 1.028-2.827 1.75-4.684a8.091 8.091 0 0 1-.052-.36c-.813 1.292-1.222 1.943-2.042 3.253-.08-.63-.103-.943-.106-1.558 2.166-3.46 3.239-5.17 5.322-8.466.02 1.028.092 1.556.34 2.63.118.517.174 1.071.143 1.663a6.865 6.865 0 0 1-.32 1.766 7.179 7.179 0 0 1-.774 1.659c-.391.617-.778 1.01-1.147 1.175-.368.165-.689.073-.928-.276a165.423 165.423 0 0 0-1.632 4.996 15.401 15.401 0 0 1-.554-1.798M87.98 253.17l-1.139 1.782c.47.935.735 1.406 1.312 2.355l-1.004 1.564a27.825 27.825 0 0 1-1.305-2.354c-.486.762-.73 1.145-1.217 1.914.52 1.052.82 1.583 1.475 2.65l-1.076 1.679c-1.067-1.744-1.523-2.611-2.215-4.312 2.196-3.477 3.287-5.199 5.427-8.556.725 1.687 1.2 2.55 2.303 4.297-.421.65-.632.975-1.054 1.63a28.94 28.94 0 0 1-1.507-2.649M90.537 264.505c.546-1.613.82-2.418 1.369-4.025a238 238 0 0 0-2.725 2.248c.52.71.792 1.066 1.356 1.777m-.683 2.017a49.704 49.704 0 0 1-2.02-2.652c-.535.453-.8.681-1.333 1.136a37.618 37.618 0 0 1-1.192-1.79 202.205 202.205 0 0 1 7.292-5.921c.589.792.897 1.19 1.537 1.984-1.38 4.41-2.068 6.634-3.42 11.06a62.646 62.646 0 0 1-1.533-1.811c.267-.803.4-1.203.67-2.006M101.637 268.727c.195 1.141.053 2.269-.434 3.386a145.1 145.1 0 0 1-1.782-1.768 3.104 3.104 0 0 0 .026-1.52 2.775 2.775 0 0 0-.721-1.31c-.478-.498-1.006-.684-1.59-.553-.582.131-1.118.565-1.612 1.299-.493.733-.746 1.47-.755 2.208-.006.74.223 1.355.698 1.845.362.373.751.581 1.17.63.418.048.821-.053 1.211-.3.704.705 1.062 1.055 1.778 1.75-.82.776-1.716 1.162-2.68 1.159-.964-.004-1.88-.437-2.734-1.312a5.18 5.18 0 0 1-1.32-2.32 5.989 5.989 0 0 1-.065-2.726 7.37 7.37 0 0 1 1.123-2.675c.56-.84 1.184-1.446 1.88-1.815.692-.37 1.399-.473 2.126-.313.728.16 1.42.587 2.08 1.273.864.9 1.404 1.92 1.6 3.062M109.345 274.848c-.449.628-.673.94-1.117 1.566a237.3 237.3 0 0 1-1.917-1.775c-1.873 2.648-2.8 3.959-4.648 6.588-.69-.62-1.037-.934-1.727-1.567 1.85-2.655 2.777-3.98 4.649-6.645a168.408 168.408 0 0 1-1.904-1.83l1.112-1.6a251.192 251.192 0 0 0 5.552 5.263M74.309 268.635c.37-.091.814-.537 1.315-1.339.502-.801.835-1.6 1.017-2.391.182-.794.197-1.506.09-2.131a10.888 10.888 0 0 1-.111-.755c-1.26 2.02-1.892 3.03-3.151 5.05.034.304.057.454.107.759.104.627.364.898.733.807m.278 2.206c-.526.385-.998.5-1.39.344-.39-.156-.665-.592-.79-1.302-.177-1.006-.222-1.506-.218-2.489l5.501-8.815c0 .97.05 1.464.235 2.465.131.71.182 1.517.112 2.41a11.79 11.79 0 0 1-.557 2.772c-.312.95-.735 1.862-1.281 2.73-.544.869-1.085 1.496-1.612 1.885M77.895 274.932c.61-1.643.918-2.465 1.538-4.107a255.737 255.737 0 0 0-2.552 2.377c.378.691.581 1.038 1.014 1.73m-.76 2.054a28.213 28.213 0 0 1-1.51-2.582c-.497.474-.745.713-1.237 1.188a20.943 20.943 0 0 1-.798-1.743 212.486 212.486 0 0 1 6.743-6.264c.423.772.652 1.16 1.143 1.936a646.583 646.583 0 0 0-3.85 11.276 35.874 35.874 0 0 1-1.235-1.769c.297-.816.445-1.224.745-2.042M88.87 278.625a219.65 219.65 0 0 0-5.967 3.419c-.756 1.16-1.134 1.74-1.89 2.905-.585-.654-.87-.983-1.42-1.644.755-1.169 1.131-1.753 1.885-2.915a425.294 425.294 0 0 1 1.894-8.23c.572.772.872 1.159 1.495 1.928-.489 1.95-.729 2.926-1.201 4.87 1.376-.89 2.07-1.333 3.47-2.21.676.756 1.024 1.131 1.734 1.877M66.247 278.631c.042.43.07.646.144 1.079.096.573.36.553.75-.07.388-.62.509-1.227.41-1.81-.072-.422-.1-.633-.143-1.051l-1.16 1.852m-1.187 4.544c.192-.305.324-.629.399-.965.075-.337.083-.655.033-.953-.08-.47-.112-.706-.156-1.174-.48.767-.72 1.148-1.197 1.907.045.475.074.715.153 1.194.1.622.372.622.768-.01m1.001.316a6.18 6.18 0 0 1-.72 1.701c-.463.741-.888 1.116-1.256 1.124-.37.01-.645-.363-.777-1.112-.23-1.308-.287-1.958-.255-3.243 2.084-3.299 3.158-5.01 5.326-8.473-.012 1.2.053 1.81.297 3.039.137.688.163 1.42.033 2.189a6.087 6.087 0 0 1-.86 2.23c-.33.526-.639.854-.923.981-.284.128-.51.063-.664-.187a5.801 5.801 0 0 1-.2 1.751M69.27 283.088c-.463.738-.692 1.107-1.154 1.841.432.939.676 1.41 1.213 2.345l-1.01 1.608a24.372 24.372 0 0 1-1.204-2.354l-1.214 1.938c.476 1.067.75 1.603 1.357 2.666l-1.068 1.703c-.983-1.753-1.398-2.637-2.019-4.399 2.15-3.434 3.245-5.186 5.449-8.705.657 1.709 1.092 2.57 2.116 4.284l-1.072 1.702a25.349 25.349 0 0 1-1.394-2.629M70.876 290.67c.289.41.436.616.74 1.025.245.328.49.474.73.439.238-.035.476-.236.711-.605.224-.353.339-.707.344-1.065.006-.356-.116-.696-.357-1.017a37.651 37.651 0 0 1-.746-1.023c-.57.897-.854 1.348-1.422 2.246m-1.696 6.691c.402-1.94.608-2.91 1.034-4.844a20.78 20.78 0 0 1-.266-.38c-.847 1.341-1.27 2.01-2.114 3.35a33.245 33.245 0 0 1-1.083-1.69c2.213-3.521 3.332-5.294 5.57-8.838a35.58 35.58 0 0 0 1.983 2.826c.409.539.694 1.111.84 1.723.147.613.166 1.22.05 1.826a4.873 4.873 0 0 1-.695 1.727c-.413.645-.88 1.061-1.394 1.246-.514.186-1.036.102-1.548-.248a402.091 402.091 0 0 0-.931 5.123c-.6-.722-.89-1.087-1.446-1.82M73.812 299.914a56.603 56.603 0 0 0 2.043 2.077c-.43.668-.647 1.004-1.077 1.676-1.463-1.436-2.167-2.176-3.474-3.687 2.288-3.598 3.43-5.38 5.71-8.922.574.643.87.962 1.475 1.595-1.865 2.88-2.802 4.331-4.677 7.261M82.952 296.947a932.939 932.939 0 0 0-5.823 8.921 61.127 61.127 0 0 1-1.62-1.495 996.537 996.537 0 0 1 5.797-8.93c.648.61.979.91 1.646 1.504M84.612 311.789a65.855 65.855 0 0 1-1.751-1.259c.297-3.1.434-4.645.716-7.75a769.145 769.145 0 0 0-3.609 5.509 68.31 68.31 0 0 1-1.693-1.415 839.155 839.155 0 0 1 5.837-8.912c.676.583 1.02.87 1.708 1.435-.281 3.097-.418 4.633-.705 7.708 1.459-2.208 2.18-3.288 3.614-5.421.7.53 1.051.787 1.751 1.293a627.372 627.372 0 0 0-5.868 8.812"
       id="path44"
       style="fill:#ffffff"
       fill="#2700C3" />
    <path
       d="M141.039 275.593c2.279 1.575 6.365 4.567 9.779 7.983M119.443 209.065s8.987 4.359 10.177 11.484c0 0-4.494-5.498-6.767-5.741-2.273-.244 5.861 3.746 6.767 11.157M163.2 190.053s-1.136 1.71 0 3.99c1.137 2.28 7.389 7.98 8.81 16.103 1.42 8.123 8.808 9.39 8.808 9.39M165.64 201.453s3.243 1.426 4.664 8.693M171.756 201.453l27.247-11.4M185.38 198.416l22.663-10.073M165.99 193.473s9.713-3.42 13.505 5.201M182.139 202.336s2.657 5.586-1.321 14.608"
       id="path46"
       style="fill:#ffffff"
       stroke-linejoin="round"
       stroke-linecap="round"
       stroke-width=".54"
       stroke="#2700C3" />
    <path
       d="M54.943 126.494s-6.641 8.362-23.542 8.266c0 0 18.143 0 21.269-2.85M41.252 60.086s-8.188-1.995-16.712 0"
       id="path48"
       style="fill:#ffffff"
       stroke-linejoin="round"
       stroke-linecap="round"
       stroke-width=".78"
       stroke="#2700C3" />
    <path
       d="M70.876 195.753s10.612-8.424 6.006-.506c-4.607 7.917-9.298 9.548-9.298 9.548M72.813 213.71s7.612-18.84 5.676-21.657M71.61 462.392s1.234 4.98 15.725 7.831M201.844 434.311s-2.557 3.28-2.557 13.325M215.813 446.282s-1.467 1.71-3.74 17.386c-2.273 15.676 0 6.555 0 6.555M136.776 432.031s-2.558.763 0 38.192M159.791 432.031s3.978 4.995 0 34.276M224.588 479.874s1.66 3.745-13.525 4.315c0 0-4.673-1.425-4.105 19.95M187.123 273.66c3.719-.603 7.228-2.094 10.42-4.075M164.986 263.817c3.178 5.023 7.98 8.31 13.746 9.595M181.912 258.812s1.936 5.06-1.094 32.706M185.38 259.414s1.363 5.125-1.031 37.948"
       id="path50"
       style="fill:#ffffff"
       stroke-linejoin="round"
       stroke-linecap="round"
       stroke-width=".54"
       stroke="#2700C3" />
    <path
       d="M165.99 260.554s5.353-5.233 12.742-4.472c7.39.759 16.067 2.336 17.978 6.678"
       id="path52"
       style="fill:#ffffff"
       stroke-linejoin="round"
       stroke-linecap="round"
       stroke-width=".54"
       stroke="#2700C3" />
    <path
       d="M50.913 62.65s-3.784-2.627-12.104-3.008"
       id="path54"
       style="fill:#ffffff"
       stroke-linejoin="round"
       stroke-linecap="round"
       stroke-width=".78"
       stroke="#2700C3" />
    <path
       d="M241.288 238.22s6.066-.015 7.387 8.55M260.988 173.214s4.778.845 7.198 4.995M274.627 123.454h4.168s3.556-.76 5.829 3.04M132.461 439.508s12.723.396 7.956 1.104c-4.767.708-13.88 4.71-7.956 3.996 5.924-.715 7.959.142 9.025 0M165.99 439.508s-16.996.121-2.22 2.592c0 0 6.313-.707-3.096 2.593M178.777 478.013s9.997-2.28 10.754-7.79c.758-5.51 7.387-15.09 9.756-7.831 0 0 .189 4.22 1.279 7.831 1.089 3.61 10.637 5.89 12.871 7.79 2.235 1.9 7.472-2.08 5.12 1.86-2.354 3.943-7.495 4.316-7.495 4.316"
       id="path56"
       style="fill:#ffffff"
       stroke-linejoin="round"
       stroke-linecap="round"
       stroke-width=".54"
       stroke="#2700C3" />
    <path
       d="M178.777 472.862h-11.598s-3.676 2.492 1.382 5.532 16.424 6.66 17.94 12.07c1.515 5.411 3.788 10.163 2.273 13.677-1.516 3.513 3.03 12.635 3.41 15.296.378 2.66 3.71 13.98 6.78 8.51 3.069-5.47 6.479-2.05 6.1 3.65-.378 5.7-.475 9.88 1.846 15.58 2.322 5.701 3.914 11.022 6.527 0 0 0-.135-3.04 2.376-5.32 2.512-2.28 1.961-3.04-.037-11.78-1.998-8.74-8.943-21.399-4.714-41.1M220.05 231.225s-5.952-1.603-10.946 1.638M209.104 264.915s-3.915-.62-5.872 1.592M93.878 292.834s7.04 19.49-5.008 25.191c-12.048 5.7-7.375 33.632-7.375 33.632s19.779 66.694 12.383 82.654M150.817 310.044s-10.847-2.85-11.165 7.41c-.319 10.261 13.215 42.896 15.257 47.1 2.041 4.204 8.055 8.764 10.73 4.774 2.677-3.99 6.536-20.487 2.333-29.055-4.202-8.567-7.487-23.958-13.233-25.098-5.745-1.14-5.625-4.56-8.811-1.14l-3.185 3.42M217.493 413.22s-2.537 1.14 0-9.406c2.536-10.545 5.945-16.245 3.956-31.636-1.989-15.391-6.969-40.187 3.193-37.052 0 0 2.49.882 6.752-.27 4.263-1.155 6.252-.3 6.82 2.835.568 3.135-3.668 68.119-13.626 55.578 0 0-2.002-1.14-2.286 3.42-.284 4.56-4.22 11.116-4.809 19.666"
       id="path58"
       style="fill:#ffffff"
       stroke-linejoin="round"
       stroke-linecap="round"
       stroke-width=".54"
       stroke="#2700C3" />
    <path
       d="M226.28 432.031s-3.67 12.81-1.692 22.231c1.979 9.42-1.717 25.612-1.717 25.612"
       id="path60"
       style="fill:#ffffff"
       stroke-linejoin="round"
       stroke-linecap="round"
       stroke-width=".78"
       stroke="#2700C3" />
    <path
       d="M118.18 419.351s-2.147 9.26-11.24 14.96c-9.092 5.7-6.535 6.663-6.535 6.663"
       id="path62"
       style="fill:#ffffff"
       stroke-linejoin="round"
       stroke-linecap="round"
       stroke-width=".54"
       stroke="#2700C3" />
    <path
       d="M109.127 434.311s-2.755.42-3.323 5.198c-.568 4.778-2.557 14.753 7.388 25.299 9.945 10.545 10.797 11.607 5.967 15.066-4.83 3.46-13.314 11.725-13.903 30.251-.588 18.526-2.01 59.569-6.555 76.1M136.776 437.04s-.569 8.864 1.705 39.738M162.741 434.316s2.275 1.225-2.061 47.554M140.417 304.876s-4.9 4.028-4.413 9.728c.488 5.7-6.945 8.266-9.055 13.681-2.107 5.415-3.012 10.26-2.418 13.68M39.969 213.71s3.278 2.466 9.996-1.996c6.72-4.462 17.775-5.415 13.08 1.995-4.692 7.41-17.205 23.656-13.08 38.762 4.126 15.106 6.826 18.4 18.83 14.473M32.895 137.325s3.811-4.56 0 29.357c0 0-.116 9.12 4.715 12.825M44.86 184.638s17.933 2.096 20.26-2.657M65.12 179.507s9.082-6.172 7.693-2.658M37.61 7.268s-2.403-3.39-11.134 4.08c-8.732 7.47-11.345 7.41-7.494 12.54 3.853 5.131-20.015 5.701 5.558 9.976 0 0 1.42 0-3.41 2.85s0 2.566 0 2.566 2.878 10.387.728 21.867c-2.149 11.48 0 4.354 0 4.354s4.955-5.035 2.682 2.185c-2.274 7.22-1.99 13.206 0 20.616 1.989 7.41 3.02 15.391 1.936 26.507-1.084 11.115 5.451 7.697 3.746 19.952M101.72 175.71s5.483-8.364 7.625-3.993c2.142 4.37 1.574 13.381 1.574 13.381s-1.42 5.423 4.83 6.757c6.252 1.333 3.738 5.417 3.738 5.417M25.077 231.845s3.44-1.492 2.872 1.017c-.568 2.509-2.903 3.775-2.872 2.001M26.544 225.965s-1.689 1.14 0 1.71c1.69.57 1.469-1.71 1.469-1.71M119.88 140.498s-1.897.742-.372 1.67c1.525.924 1.804-1.35 1.804-1.35M114.557 146.636s-6.401 4.94 0 5.32c6.401.38 5.428-5.32 5.428-5.32s-3.445-1.936-5.428 0zM161.445 166.397s10.364-11.401 12.027-3.041c0 0-6.153 5.7-.73 8.361l5.423 2.66s3.79.007 0 7.604M178.732 155.376s-.733 3.326 4.276 2.803c5.008-.523 2.084-5.843-1.096-4.323M18.78 4.296s-1.95-2.787-4.948 1.27c-2.996 4.058 2.889 5.489 3.919 2.11M221.747 188.247s11.731-9.696 7.563 3.608c-4.166 13.304-1.996 23.564-1.996 23.564s.756 3.175 2.892 2.538c2.135-.637-4.228 14.092-4.228 14.092h-1.971"
       id="path64"
       style="fill:#ffffff"
       stroke-linejoin="round"
       stroke-linecap="round"
       stroke-width=".54"
       stroke="#2700C3" />
    <path
       d="M282.961 74.431s5.073-6.08 3.936 0c-1.136 6.081-1.895 6.58-5.304 8.802-3.41 2.22-4.315 9.06-1.969 10.58 2.348 1.52-6.744 14.167-6.744 14.167s-4.168 11.93-2.273 15.412c1.893 3.482-9.62 22.383-9.62 22.383s-9.347 10.695-7.197 14.518c2.15 3.822 3.262 6.483 0 11.424-3.263 4.94 3.758 8.367-.322 10.264-4.078 1.896-16.874 5.886-12.18 6.362 4.693.475 3.802 3.137 2.542 5.037-1.259 1.898 0 3.892 0 3.892s-8.94 16.381-13.624 20.685M260.988 181.981s4.693.157 5.45 3.117M69.338 447.637s-1.77 8.254 4.263 14.754c6.034 6.503 12.388 5.743 12.388 5.743M193.803 155.91s22.563 10.107 12.366 7.446c-10.198-2.66-18.007-3.062-18.007-3.062s13.954 2.184 18.007 6.102M291.065 73.672s-4.168-.38 0 3.04c4.166 3.42 9.755 5.374 8.335 2.656-1.42-2.717-8.02-8.52-10.188-7.639M284.624 139.035s4.878-3.241 2.439 6.74c-2.44 9.981-6.227 20.622-6.227 20.622s-1.895-5.664 0-14.422c1.893-8.76 2.28-14.71 6.227-14.855"
       id="path66"
       style="fill:#ffffff"
       stroke-linejoin="round"
       stroke-linecap="round"
       stroke-width=".54"
       stroke="#2700C3" />
    <path
       d="M143.615 426.77s11.474-2.044 21.523-1.308M166.444 303.932s8.996 16.645 10.985 29.756M149.085 273.566s1.017 22.435 15.9 29.353c0 0 20.868 7.608 30.907-6.483M139.646 245.63s.456 5.69 5.72 4.712c5.264-.98 19.577-3.144 34.547-8.701M142.473 266.458s1.449-9.898.501-15.297"
       id="path68"
       style="fill:#ffffff"
       stroke-linejoin="round"
       stroke-linecap="round"
       stroke-width="1.04"
       stroke="#2700C3" />
    <path
       d="M136.207 438.871v7.316"
       id="path70"
       style="fill:#ffffff"
       stroke-linejoin="round"
       stroke-linecap="round"
       stroke-width="2.08"
       stroke="#2700C3" />
    <path
       d="M161.861 437.04s.766 9.432.147 11.331M69.405 435.84s-.41 2.21 10.067 4.037M202.791 434.311s-1.989 3.635-2.225 6.663"
       id="path72"
       style="fill:#ffffff"
       stroke-linejoin="round"
       stroke-linecap="round"
       stroke-width="1.04"
       stroke="#2700C3" />
    <g
       id="g74"
       style="fill:#ffffff">
      <path
         d="M121.91 555.243c22.692-3.3 52.532-13.685 64.785-19.044.658 5.93.997 9.882 1.773 15.619-12.265 5.727-47.546 17.973-64.688 18.833-.5-5.622-1.361-9.468-1.87-15.408z"
         id="path76"
         style="fill:#ffffff"
         stroke-linejoin="round"
         stroke-linecap="round"
         stroke-width="1.349"
         stroke="#2700C3" />
      <path
         d="M121.91 555.243c2.862-2.656 6.618-6.108 9.668-9.324-9.142 1.698-13.865 2.134-24.125 1.562 4.166 3.627 6.127 5.229 9.94 8.222-3.276 3.893-4.913 5.68-8.146 9.095 4.79.445 10.085.374 13.618-.206M128.985 579.013c19.017-2.425 38.178-9.185 54.558-16.835 1.004 6.501 1.184 8.447 2.189 15.14-17.109 8.222-37.236 14.736-55.34 15.893-.313-4.47-.86-7.941-1.407-14.198zM188.468 551.818c-4.086 4.697-17.405 14.3-22.846 17.703M154.133 564.148c-6.771 5.457-18.435 11.787-25.27 14.865"
         id="path78"
         style="fill:#ffffff"
         stroke-linejoin="round"
         stroke-linecap="round"
         stroke-width="1.349"
         stroke="#2700C3" />
      <path
         d="M184.957 570.65c5.442-2.187 9.489-3.927 14.973-7.53a1325.434 1325.434 0 0 1-6.916 12.316 863.131 863.131 0 0 0 9.28 5.08c-9.217 4.75-14.782 6.85-23.64 9.12 2.685-4.314 4.446-8.013 7.078-12.317M131.578 545.919c.28 3.587.324 3.908.617 7.254M177.383 581.246l1.272 8.39"
         id="path80"
         style="fill:#ffffff"
         stroke-linejoin="round"
         stroke-linecap="round"
         stroke-width="1.349"
         stroke="#2700C3" />
      <path
         d="M128.618 561.329c.2 1.58.308 2.409.533 4.113.067.506-.236.841-.576.882-.303.037-.608-.225-.674-.73a522.546 522.546 0 0 1-.782-6.111c-.063-.524.333-.739.486-.758.273-.035.455.11.639.28a117.66 117.66 0 0 1 2.472 2.798 89.768 89.768 0 0 1 1.768-3.59c.265-.467 1.054-.463 1.138.235.276 2.285.442 3.546.791 6.152.07.509-.158.852-.464.908-.345.064-.65-.184-.718-.692-.228-1.71-.338-2.545-.539-4.13a133.137 133.137 0 0 0-1.282 2.574c-.278.549-.705.614-1.083.167-.69-.857-1.031-1.277-1.709-2.098M139.356 561.227a156.569 156.569 0 0 0-1.347-2.49c-.375 1.149-.56 1.74-.922 2.943a94.725 94.725 0 0 0 2.27-.453m-3.84 3.713c-.286-.077-.563-.551-.42-1.07.84-2.78 1.266-4.139 2.172-6.632.213-.588.901-.752 1.19-.245 1.28 2.047 1.947 3.19 3.308 5.563.489.82-.6 1.819-1.042.976l-.532-.938a90.473 90.473 0 0 1-3.551.703c-.125.437-.186.656-.31 1.098-.112.425-.537.62-.815.545M144.684 559.34c-.318.566-.476.852-.792 1.425.067.645.1.971.172 1.63.103.977-1.17 1.292-1.274.306-.238-2.256-.45-4.35-.623-6.331-.077-.873 1.187-1.221 1.267-.316.093 1.045.145 1.591.256 2.715.98-1.598 1.474-2.384 2.477-3.902.305-.427.65-.437.91-.256.287.2.326.56.084.919-.499.894-1.096 1.745-1.635 2.683a146.396 146.396 0 0 1 2.59 2.623c.682.816-.47 1.876-.938 1.22a186.27 186.27 0 0 0-2.494-2.717M149.921 561.571c-.337.097-.633-.152-.68-.567-.296-2.691-.437-3.999-.649-6.347a.773.773 0 0 1 .537-.81c1.372-.413 2.058-.627 3.425-1.069.877-.282.983 1.076.125 1.35-1.098.354-1.648.526-2.75.858.061.636.093.962.16 1.625.966-.29 1.447-.44 2.41-.744.849-.27 1.005 1.207.155 1.475-.963.304-1.446.453-2.412.742.073.682.11 1.031.19 1.735 1.17-.347 1.755-.526 2.921-.895.87-.275 1.116 1.263.178 1.558-1.441.452-2.163.67-3.61 1.09M157.298 555.253c-.238-2.182.764-4.25 2.922-5.039.818-.298 1.484-.282 2.23.122.277.169.356.644.13 1.023-.207.35-.613.464-.863.288-.431-.323-.838-.3-1.373-.106-1.445.528-2.033 1.927-1.882 3.306.154 1.404 1.009 2.527 2.47 2 .537-.193 1.003-.65 1.377-1.292.258-.39.68-.399.88-.179.18.201.309.617.032 1.158-.561 1.022-1.331 1.471-2.115 1.753-2.286.819-3.57-.852-3.808-3.034M167.029 548.948c-1.031.405-2.088 1.653-1.882 3.449.202 1.783 1.462 2.328 2.496 1.923 1.064-.416 2.063-1.848 1.854-3.632-.208-1.797-1.41-2.157-2.468-1.74m.903 6.812c-1.673.704-3.699-.112-4.015-2.895-.316-2.794 1.409-4.693 3.086-5.303 1.562-.57 3.375-.049 3.69 2.644.316 2.694-1.2 4.896-2.76 5.554M172.725 546.845c.197 1.906.326 2.946.597 5.077.599-.247.899-.371 1.492-.618 2.422-1.009 1.926-6.116-.599-5.073l-1.49.614m.217 6.776c-.3.123-.655.038-.723-.491-.352-2.729-.519-4.063-.75-6.43-.037-.374.265-.77.562-.892.828-.337 1.24-.506 2.06-.843 4.091-1.684 4.923 6.13.995 7.768-.853.357-1.283.534-2.144.888"
         id="path82"
         style="fill:#ffffff"
         fill="#2700C3" />
      <path
         d="M179.593 550.824c-.305.132-.586-.092-.642-.51-.36-2.714-.53-4.045-.76-6.391-.035-.372.178-.731.483-.859l3.114-1.3c.792-.329.902 1.008.13 1.334-.99.415-1.488.626-2.49 1.047.065.634.1.96.178 1.626.878-.37 1.314-.556 2.18-.924.766-.325.943 1.144.178 1.472-.865.37-1.303.558-2.18.93.085.689.13 1.039.222 1.748 1.063-.456 1.59-.682 2.635-1.134.78-.336 1.047 1.19.207 1.554-1.288.562-1.939.843-3.255 1.407M134.157 582.587c-.055-.432-.03-.862.469-.94.345-.054.435.042.734.312a208.86 208.86 0 0 0 3.803 4.355c-.222-1.818-.34-2.752-.578-4.612-.05-.396.176-.882.502-.947.349-.07.74.293.792.688.345 2.701.518 4.061.821 6.638.06.503-.202.807-.418.891-.269.104-.514.014-.83-.24a153.097 153.097 0 0 1-3.788-4.344c.23 1.843.343 2.762.555 4.543.06.507-.166.836-.513.893-.346.056-.685-.181-.745-.69a884.74 884.74 0 0 0-.804-6.547M144.767 581.3c-1.083.267-2.135 1.492-1.903 3.356.231 1.852 1.52 2.487 2.603 2.217 1.115-.278 2.202-1.497 1.968-3.344-.238-1.858-1.556-2.502-2.668-2.23m.971 6.938c-1.752.488-3.79-.403-4.151-3.298-.362-2.905 1.34-4.853 3.082-5.227 1.64-.351 3.677.69 4.033 3.475.356 2.786-1.321 4.592-2.964 5.05M151.402 579.743c-.68.186-1.018.277-1.699.454-.844.22-1.017-1.322-.171-1.542 1.835-.48 2.752-.734 4.582-1.27.858-.252 1.037 1.29.176 1.541-.642.188-.964.28-1.608.462.273 2.424.406 3.628.625 5.888.092.974-1.189 1.361-1.285.363-.218-2.267-.35-3.472-.62-5.896M165.716 578.83c.314-2.083.452-3.172.716-5.364.136-1.081 1.33-1.068 1.203.08-.357 2.856-.547 4.269-1.004 6.891-.094.685-.233.925-.552 1.052-.339.134-.47-.059-.704-.375a210.034 210.034 0 0 1-2.231-3.857c-.371 2.066-.566 3.08-.992 5.017-.115.522-.247.839-.59.965-.333.122-.533-.071-.745-.5a476.1 476.1 0 0 1-2.684-5.657c-.438-.98.715-1.797 1.097-.935.845 1.783 1.265 2.67 2.073 4.344.429-2.124.625-3.228 1.008-5.455.121-.816.709-1.073 1.06-.431a369.307 369.307 0 0 0 2.345 4.224M172.571 575.845a223.64 223.64 0 0 1-1.437-2.397 116.937 116.937 0 0 1-.73 3.313c.87-.363 1.304-.545 2.167-.916m-3.614 4.432c-.263-.003-.55-.373-.422-.904.767-2.874 1.103-4.418 1.755-7.536.152-.737.808-1.034 1.136-.472 1.438 2.248 2.152 3.359 3.47 5.29.474.663-.549 1.79-.971 1.119-.205-.297-.308-.45-.517-.758-1.344.586-2.022.877-3.387 1.445-.11.45-.168.672-.282 1.113-.105.423-.503.705-.782.703M176.518 572.843c.691-.31 1.035-.464 1.719-.775 1.152-.522.865-2.962-.358-2.414-.685.306-1.028.46-1.72.764.15.985.223 1.473.359 2.425m.43 3.228c.111.909-1.077 1.485-1.19.565-.29-2.382-.487-3.711-.9-6.405-.064-.414.131-.83.427-.959.956-.416 1.431-.625 2.374-1.044 2.25-1.003 3.296 2.71 1.555 4.507.567.494.847.734 1.397 1.186.554.585-.27 1.762-.889 1.239a59.268 59.268 0 0 1-1.625-1.665c-.558.253-.838.38-1.4.632.109.8.16 1.19.251 1.944"
         id="path84"
         style="fill:#ffffff"
         fill="#2700C3" />
    </g>
  </g>
  <flowRoot
     xml:space="preserve"
     id="flowRoot4179"
     style="font-style:normal;font-weight:normal;font-size:40px;line-height:125%;font-family:sans-serif;letter-spacing:0px;word-spacing:0px;fill:#000000;fill-opacity:1;stroke:none;stroke-width:1px;stroke-linecap:butt;stroke-linejoin:miter;stroke-opacity:1"><flowRegion
       id="flowRegion4181"><rect
         id="rect4183"
         width="76.016953"
         height="55.550846"
         x="96.483047"
         y="230.97458" /></flowRegion><flowPara
       id="flowPara4185">Global</flowPara></flowRoot>  <text
     xml:space="preserve"
     style="font-style:normal;font-weight:normal;font-size:12.47877121px;line-height:125%;font-family:sans-serif;letter-spacing:0px;word-spacing:0px;fill:#000080;fill-opacity:1;stroke:none;stroke-width:1px;stroke-linecap:butt;stroke-linejoin:miter;stroke-opacity:1"
     x="236.13036"
     y="156.71193"
     id="text4187"
     sodipodi:linespacing="125%"
     transform="matrix(0.78371349,0.60250303,-0.65450642,0.77280525,0,0)"
     inkscape:transform-center-x="-1.8683227"
     inkscape:transform-center-y="-72.981966"><tspan
       sodipodi:role="line"
       id="tspan4189"
       x="236.13036"
       y="156.71193"
       style="font-weight:bold;fill:#000080">Global</tspan><tspan
       sodipodi:role="line"
       x="236.13036"
       y="172.31039"
       id="tspan4191"
       style="font-weight:bold;fill:#000080">Fintech</tspan><tspan
       sodipodi:role="line"
       x="236.13036"
       y="187.90886"
       id="tspan4193"
       style="font-weight:bold;fill:#000080">Conference</tspan></text>
</svg>
