<?xml version="1.0" encoding="UTF-8" standalone="no"?>
<svg
   xmlns:dc="http://purl.org/dc/elements/1.1/"
   xmlns:cc="http://creativecommons.org/ns#"
   xmlns:rdf="http://www.w3.org/1999/02/22-rdf-syntax-ns#"
   xmlns:svg="http://www.w3.org/2000/svg"
   xmlns="http://www.w3.org/2000/svg"
   xmlns:sodipodi="http://sodipodi.sourceforge.net/DTD/sodipodi-0.dtd"
   xmlns:inkscape="http://www.inkscape.org/namespaces/inkscape"
   width="93"
   height="255"
   viewBox="0 0 93 255"
   id="svg2"
   version="1.1"
   inkscape:version="0.91 r13725"
   sodipodi:docname="intro-bg_2.svg">
  <metadata
     id="metadata50">
    <rdf:RDF>
      <cc:Work
         rdf:about="">
        <dc:format>image/svg+xml</dc:format>
        <dc:type
           rdf:resource="http://purl.org/dc/dcmitype/StillImage" />
      </cc:Work>
    </rdf:RDF>
  </metadata>
  <defs
     id="defs48" />
  <sodipodi:namedview
     pagecolor="#ffffff"
     bordercolor="#666666"
     borderopacity="1"
     objecttolerance="10"
     gridtolerance="10"
     guidetolerance="10"
     inkscape:pageopacity="0"
     inkscape:pageshadow="2"
     inkscape:window-width="1516"
     inkscape:window-height="828"
     id="namedview46"
     showgrid="false"
     inkscape:zoom="0.9254902"
     inkscape:cx="27.591102"
     inkscape:cy="213.94068"
     inkscape:window-x="1765"
     inkscape:window-y="9"
     inkscape:window-maximized="0"
     inkscape:current-layer="svg2" />
  <path
     inkscape:connector-curvature="0"
     id="path4261"
     d="m -1.4682325,232.41631 0,-24.12186 13.0103335,0 c 11.171198,0 13.119688,-0.10932 13.78392,-0.77359 0.425477,-0.42547 0.77359,-0.99727 0.77359,-1.27067 0,-0.27339 0.775345,-6.79264 1.72299,-14.48719 0.947644,-7.69454 2.4945,-20.359 3.437453,-28.14322 0.942958,-7.78423 1.840626,-15.0812 1.994819,-16.21549 0.250641,-1.84375 0.102535,-2.26118 -1.397276,-3.93826 -2.340308,-2.61691 -2.804289,-3.67681 -2.804289,-6.40596 0,-2.92206 1.502801,-5.34719 4.659319,-7.51893 1.626577,-1.11912 2.260175,-1.91789 2.457581,-3.09826 0.146286,-0.87471 1.156287,-9.99089 2.24445,-20.25818 l 1.978475,-18.667795 -1.229506,-1.774179 c -0.67623,-0.975798 -1.373223,-2.49277 -1.54888,-3.371054 -0.4156,-2.077975 0.927869,-5.621675 2.694979,-7.108597 0.737011,-0.620156 1.49176,-1.373078 1.677217,-1.673151 0.413326,-0.668766 3.803984,-22.333048 3.803984,-24.30517 0,-0.77904 -0.244133,-1.567312 -0.542512,-1.751715 -1.013856,-0.626598 -1.985257,-3.715149 -1.649407,-5.244252 0.178924,-0.814655 1.071059,-2.306624 1.98252,-3.315512 l 1.657203,-1.834318 0.750677,-13.001906 c 0.412873,-7.151049 0.835622,-13.946709 0.93945,-15.1014674 0.156088,-1.7360659 -0.0566,-2.408302 -1.22844,-3.882881 -2.12166,-2.6697637 -1.914808,-4.30137655 0.869383,-6.857541 l 2.286595,-2.09932 0.948525,-13.7788266 0.948527,-13.778827 -1.340009,-2.024898 c -1.215628,-1.836928 -1.288807,-2.195817 -0.788337,-3.866236 1.371628,-4.578084 9.760469,-5.68898 12.892465,-1.707286 1.67773,2.132889 1.729037,3.384533 0.231497,5.647473 l -1.35426,2.046426 0.727623,13.926821 0.727624,13.9268259 2.128852,1.8891896 c 2.641108,2.34377919 2.865649,4.280199 0.752115,6.4862464 l -1.376733,1.4369985 0.708357,15.0019516 0.708349,15.001958 2.356367,2.134226 c 2.004773,1.81579 2.394075,2.469426 2.609125,4.380639 0.234868,2.087415 0.107331,2.414429 -1.802003,4.620499 -1.808455,2.089507 -2.022274,2.587369 -1.783717,4.153272 0.149073,0.978559 0.840503,6.201505 1.536512,11.606552 l 1.265468,9.82738 2.358484,2.493746 c 3.641411,3.850258 3.713924,7.105655 0.249961,11.222337 -1.110827,1.320145 -1.248346,1.838631 -1.000235,3.771192 0.158209,1.232336 0.966603,10.092479 1.796419,19.689199 l 1.508763,17.4486 2.889302,2.735 c 4.755654,4.50169 5.093277,8.20238 1.166819,12.78956 l -1.826208,2.13352 0.563055,5.9669 c 0.509488,5.39916 1.621963,16.22778 4.530351,44.09744 0.549746,5.26799 0.99954,9.95962 0.99954,10.42585 0,1.84381 1.344219,2.39524 5.819489,2.38734 2.34977,-0.004 4.604602,-0.21729 5.010736,-0.47366 0.614103,-0.38764 0.763461,-2.37337 0.887133,-11.79456 l 0.148705,-11.32845 7.458293,-0.13581 7.4583,-0.13582 1.50023,-4.43252 c 2.00093,-5.91185 3.69304,-8.67342 7.85951,-12.82696 3.75854,-3.74689 8.8439,-7.27658 17.02416,-11.81625 2.84293,-1.57772 5.33172,-3.10226 5.53064,-3.3879 0.19892,-0.28563 0.36507,-2.47616 0.36921,-4.86783 0.006,-3.25681 0.16202,-4.29731 0.6229,-4.14459 0.41876,0.13875 0.66071,1.65682 0.75735,4.75147 0.14075,4.5081 0.15507,4.55473 1.65032,5.37529 14.65981,8.04493 19.90901,11.76199 23.85855,16.89473 2.33135,3.02976 4.5662,7.48837 5.64137,11.25471 0.34782,1.21841 0.84225,2.49219 1.09876,2.83064 0.3456,0.456 3.00037,0.61534 10.25174,0.61534 l 9.7854,0 0,12.20862 c 0,8.83922 0.16302,12.37165 0.59073,12.79936 0.43992,0.43992 5.65578,0.59074 20.42974,0.59074 l 19.839,0 0,23.13729 0,23.1373 -119.62474,0 -119.6247525,0 0,-24.12187 z M 156.32952,244.56852 c 0.15729,-0.62669 0.21359,-6.9956 0.12508,-14.15313 -0.1523,-12.32086 -0.22261,-13.16784 -1.32063,-15.90874 -4.42239,-11.03918 -16.45085,-11.62769 -21.3223,-1.04323 -1.08601,2.35965 -1.1391,3.04924 -1.28404,16.67853 -0.0831,7.81942 -0.0347,14.52061 0.10763,14.89155 0.20898,0.54462 2.48705,0.67445 11.83352,0.67445 l 11.57473,0 0.28597,-1.13943 z m -45.30554,-3.29323 1.30037,-0.4944 -0.16069,-9.56271 c -0.18081,-10.76033 -0.38877,-11.44301 -4.03823,-13.25631 -2.68387,-1.3335 -5.0586,-0.38547 -6.58346,2.62829 -1.02815,2.03202 -1.10764,2.83339 -1.10764,11.16757 0,8.03158 0.0909,9.03139 0.8615,9.48025 1.11712,0.65066 8.04502,0.67724 9.72815,0.0374 z m 14.35354,-0.16319 c 0.22516,-0.22631 0.40938,-4.43533 0.40938,-9.35338 0,-8.06848 -0.0992,-9.13426 -1.01559,-10.91105 -1.37173,-2.65963 -3.97589,-3.98952 -6.3062,-3.22045 -3.87435,1.27864 -4.69174,3.75977 -4.70999,14.29682 -0.0142,8.18697 0.10292,8.95623 1.4477,9.50959 1.06649,0.43887 9.68926,0.16636 10.1747,-0.32153 z m 55.51302,0.17749 1.26275,-0.4801 0,-8.76896 c 0,-8.11474 -0.0827,-8.93285 -1.10763,-10.96548 -1.52025,-3.01474 -4.09599,-4.32097 -6.62353,-3.35898 -0.96943,0.36898 -2.22944,1.29542 -2.80004,2.05878 -0.95856,1.28239 -1.0491,2.12335 -1.19081,11.06048 -0.13875,8.75574 -0.0715,9.73236 0.70944,10.30346 1.02906,0.75246 7.8883,0.85855 9.74982,0.1508 z m 13.60219,-0.0294 c 0.88772,-0.47512 0.9522,-1.11467 0.9522,-9.44411 0,-7.94315 -0.10974,-9.16128 -0.98948,-10.97849 -2.08087,-4.29851 -7.19399,-4.59921 -9.63431,-0.56662 -0.82715,1.36684 -0.96488,2.74214 -1.1056,11.03972 l -0.16072,9.47837 1.14529,0.45915 c 1.57063,0.62967 8.62235,0.63827 9.79262,0.0126 z M 44.067937,238.49952 c 0.690775,-0.69077 0.785673,-1.83477 0.650517,-7.84239 -0.139868,-6.2172 -0.277658,-7.19475 -1.187072,-8.42156 -2.315329,-3.12338 -5.41396,-3.19378 -7.463044,-0.16951 -1.025148,1.51301 -1.107636,2.17744 -1.107636,8.92174 0,8.49407 -0.127872,8.2821 5.010737,8.3055 2.408199,0.0112 3.504108,-0.20139 4.096498,-0.79378 z"
     style="fill:#ffffff" />
</svg>
