<?xml version="1.0" encoding="utf-8"?>
<!-- Generator: Adobe Illustrator 19.0.0, SVG Export Plug-In . SVG Version: 6.00 Build 0)  -->
<svg version="1.1" id="Layer_1" xmlns="http://www.w3.org/2000/svg" xmlns:xlink="http://www.w3.org/1999/xlink" x="0px" y="0px"
	 viewBox="0 0 236.3 116.2" style="enable-background:new 0 0 236.3 116.2;" xml:space="preserve">
<style type="text/css">
	.st0{filter:url(#Adobe_OpacityMaskFilter);}
	.st1{fill:#FFFFFF;}
	.st2{mask:url(#b_1_);fill:#FFFFFF;}
	.st3{filter:url(#Adobe_OpacityMaskFilter_1_);}
	.st4{mask:url(#d_1_);fill:#FFFFFF;}
	.st5{filter:url(#Adobe_OpacityMaskFilter_2_);}
	.st6{mask:url(#f_1_);fill:#FFFFFF;}
	.st7{filter:url(#Adobe_OpacityMaskFilter_3_);}
	.st8{mask:url(#h_1_);fill:#FFFFFF;}
	.st9{filter:url(#Adobe_OpacityMaskFilter_4_);}
	.st10{mask:url(#j_1_);fill:#FFFFFF;}
	.st11{filter:url(#Adobe_OpacityMaskFilter_5_);}
	.st12{mask:url(#l_1_);fill:#FFFFFF;}
	.st13{filter:url(#Adobe_OpacityMaskFilter_6_);}
	.st14{mask:url(#n_1_);fill:#FFFFFF;}
	.st15{filter:url(#Adobe_OpacityMaskFilter_7_);}
	.st16{mask:url(#p_1_);fill:#FFFFFF;}
	.st17{filter:url(#Adobe_OpacityMaskFilter_8_);}
	.st18{mask:url(#r_1_);fill:#FFFFFF;}
	.st19{filter:url(#Adobe_OpacityMaskFilter_9_);}
	.st20{mask:url(#t_1_);fill:#FFFFFF;}
	.st21{filter:url(#Adobe_OpacityMaskFilter_10_);}
	.st22{mask:url(#v_1_);fill:#FFFFFF;}
</style>
<g>
	<g transform="translate(39.907 19.886)">
		<defs>
			<filter id="Adobe_OpacityMaskFilter" filterUnits="userSpaceOnUse" x="-37.8" y="-4.8" width="46.9" height="25.5">
				<feColorMatrix  type="matrix" values="1 0 0 0 0  0 1 0 0 0  0 0 1 0 0  0 0 0 1 0"/>
			</filter>
		</defs>
		<mask maskUnits="userSpaceOnUse" x="-37.8" y="-4.8" width="46.9" height="25.5" id="b_1_">
			<g class="st0">
				<path id="a_1_" class="st1" d="M-37.8-4.8H9.1v25.5h-46.9V-4.8z"/>
			</g>
		</mask>
		<path class="st2" d="M9.1,18.7c-0.6,0.6-1.9,1.2-6.3,1.5c-1.7,0.1-3-0.1-3.5-0.7c-0.5-0.5-0.3-1.4-0.2-2c0.1-0.3,0.1-0.6,0.1-0.8
			c-0.1-0.4-0.3-1.7-0.8-3.3c-0.3-1-0.5-2.2-0.9-3.5c-1-3.6-3.1-3.5-3.1-3.5l-5.4-1c-0.7-1-1.3-2.1-1.9-3.1
			c-0.8-1.6-1.8-1.4-2.9-1.3c-0.7,0.1-1.4,0.2-2.5,0.1c-3-0.5-3.7-1-4-1.5C-22.8-1-27.9-3.8-30-3.8c-0.5,0-0.9,0.2-1.1,0.4
			c-0.2,0.1-1-0.1-1.6-0.3c-1.1-0.3-2.1-0.7-2.9-0.4l-1.5-0.7c0,0-0.1,0-0.1,0c-0.2,0-0.4,0.4-0.5,0.6c-0.1,0.2,0,0.4,0.2,0.5
			l1.8,0.7c0.1,0,0.2,0,0.3,0c0.5-0.2,1.6,0.1,2.5,0.3c1.2,0.3,2.1,0.5,2.4,0c0-0.1,0.2-0.1,0.4-0.1c1.8-0.1,6.6,2.6,7,3.1
			c0.5,0.7,1.5,1.3,4.6,1.7c1.2,0.2,2.1,0.1,2.8,0c1.1-0.2,1.5-0.2,2,0.9c1.1,2.1,2,3.3,2,3.4c0.1,0.1,0.1,0.1,0.2,0.2l5.7,1
			c0.1,0,1.7,0,2.5,2.9c0.3,1.3,0.7,2.4,1,3.4c0.4,1.6,0.8,2.8,0.9,3.2c0,0.1,0,0.3-0.1,0.5c-0.1,0.7-0.3,1.8,0.4,2.6
			c0.7,0.8,1.9,0.8,3.9,0.7C7.6,20.4,8.4,19.4,9.1,18.7"/>
	</g>
	<g transform="translate(228.657 51.197)">
		<defs>
			<filter id="Adobe_OpacityMaskFilter_1_" filterUnits="userSpaceOnUse" x="-37.5" y="-4.7" width="44.8" height="31.7">
				<feColorMatrix  type="matrix" values="1 0 0 0 0  0 1 0 0 0  0 0 1 0 0  0 0 0 1 0"/>
			</filter>
		</defs>
		<mask maskUnits="userSpaceOnUse" x="-37.5" y="-4.7" width="44.8" height="31.7" id="d_1_">
			<g class="st3">
				<path id="c_1_" class="st1" d="M-37.5-4.7H7.3V27h-44.8V-4.7z"/>
			</g>
		</mask>
		<path class="st4" d="M-37.5-3.1c0.2,0,1.8,1,3.1,1.5c2.8,1.2,4.6,2.1,5.2,2.1l0,0c1,0,2.1-2.6,2.8-4.2c0.7-0.2,1.5-0.3,1.9-0.2h0
			c0.1,0.3,0.3,0.5,0.6,0.8c0.5,0.5,1.2,1,1,2.3c-0.3,2.2,1.2,3.1,2.3,3.8c0.2,0.1,0.3,0.2,0.5,0.3c0.4,0.2,0.2,1,0,1.9
			c-0.3,1-0.6,2.3-0.1,3.2c0.4,0.7,0.1,2.2-0.1,3.5c-0.2,1.3-0.4,2.7-0.1,3.5c0.4,1.1,2,2,3.7,3c1.1,0.6,2.2,1.3,2.7,1.8
			c1.5,1.6,4.1,0.5,5.1,0l0.1-0.1c0.7-0.3,3-0.7,4.7,0.1l0.3,0.1c1.6,0.8,2.7,1.3,3.9,1.1c0.3-0.1,0.5,0.5,0.7,1.4
			c0.2,0.8,0.5,1.7,1,2.2c0.8,0.8,2.3-0.1,3.5-1c0.3-0.3,0.6-0.5,0.9-0.6C6,24.8,7,26.5,7.3,27l0.1-2.6c-0.2-0.6-0.3-0.9-0.2-1.5
			c0.1-0.6-0.1-0.9-0.3-1c-0.5-0.3-1.1,0.4-2.1,1.1c-0.7,0.5-2,1.5-2.3,1.2c-0.4-0.4-0.6-1.1-0.8-1.8c-0.3-1-0.6-2.1-1.6-1.9
			c-1,0.2-2.1-0.3-3.6-1l-0.3-0.1c-1.8-0.8-4.5-0.5-5.3-0.1l-0.1,0.1c-0.8,0.4-3,1.4-4.1,0.2c-0.6-0.7-1.8-1.3-3-2
			c-1.4-0.8-3.1-1.7-3.3-2.5c-0.2-0.6,0-1.8,0.2-3c0.3-1.6,0.5-3.2,0-4.1c-0.3-0.6-0.1-1.7,0.1-2.5c0.3-1.1,0.5-2.2-0.3-2.7
			c-0.2-0.1-0.3-0.2-0.5-0.3c-1.1-0.7-2.1-1.3-1.9-3c0.2-1.7-0.7-2.6-1.3-3.1c-0.1-0.1-0.2-0.2-0.4-0.3c0-0.2-0.1-0.4-0.2-0.5
			c-0.1-0.1-0.3-0.2-0.6-0.2c-0.5,0-1.2,0.1-2.2,0.5C-26.9-4.2-27-4.1-27-4c-0.8,1.9-1.8,3.9-2.2,4c-0.5,0-3.2-1.1-5-1.9
			C-36.3-2.9-37.2-3.1-37.5-3.1"/>
	</g>
	<g transform="translate(39.907 20.514)">
		<defs>
			<filter id="Adobe_OpacityMaskFilter_2_" filterUnits="userSpaceOnUse" x="-37.8" y="-5.4" width="233.8" height="63.1">
				<feColorMatrix  type="matrix" values="1 0 0 0 0  0 1 0 0 0  0 0 1 0 0  0 0 0 1 0"/>
			</filter>
		</defs>
		<mask maskUnits="userSpaceOnUse" x="-37.8" y="-5.4" width="233.8" height="63.1" id="f_1_">
			<g class="st5">
				<path id="e_1_" class="st1" d="M-37.8-5.4h233.8v63.1H-37.8V-5.4z"/>
			</g>
		</mask>
		<path class="st6" d="M-37.5-4.3l1.8,0.7c0.1,0,0.2,0,0.3,0c0.5-0.2,1.6,0.1,2.5,0.3c1.2,0.3,2.1,0.5,2.4,0c0-0.1,0.2-0.1,0.4-0.1
			c1.8-0.1,6.6,2.6,7,3.1c0.5,0.7,1.5,1.3,4.6,1.7c1.2,0.2,2.1,0.1,2.8,0c1.1-0.2,1.5-0.2,2,0.9c1.1,2.1,2,3.3,2,3.4
			c0.1,0.1,0.1,0.1,0.3,0.2l5.7,1c0.1,0,1.7,0,2.5,2.9c0.3,1.3,0.7,2.4,0.9,3.4c0.4,1.6,0.8,2.8,0.9,3.2c0,0.1,0,0.3-0.1,0.5
			c-0.1,0.7-0.3,1.8,0.4,2.6c0.7,0.8,2,1.1,4,1c4.7-0.2,5.8-1.3,6.5-2c0.1-0.1,0.2-0.2,0.4-0.3c0.5-0.3,1-0.3,1.7-0.3
			c0.3,0,0.7,0,1,0c0.5,0,1.1-0.2,1.7-0.4c0.8-0.3,1.7-0.6,2.4-0.5c0.7,0.1,1.6-0.5,2.4-1.1c0.8-0.6,1.6-1.2,2.4-1.3
			c0.7-0.1,1.2-0.4,1.7-0.8c0.5-0.3,0.9-0.6,1.3-0.5c0.5,0.1,1,0.6,1.6,1.6c0.7,1.2,1.1,2,1.4,2.5c0.7,1.3,0.8,1.6,2.5,2.1l2.1,0.6
			l2.6,5.8c0.3,0.9,1.3,2.6,3.5,2.7l1.4,0c2.1,0.1,4.2,0.1,5.4,0.1c1.3-0.1,4.4-0.7,5.4-0.9l2.8,5c0.1,0.1,0.2,0.2,0.3,0.2l4.9,0.2
			l3,2.9l4.5,1.9c0,0,0.2,0,0.3,0l4.4,0.8c0,0,0.1-0.1,0.1-0.1c4-1.3,7.2-3.8,8.7-4.3c1.6-0.6,2.9,0.1,3.8,0.7l0.2,0.2
			c1,0.7,0.6,0.1,2.2,0.3c0.3,0,0.7,0.1,1,0.1c1.1,0.1,2.6,0.3,2.9,0.6c0.5,0.5,4.1,1.7,5.6,2.1c0.1,0,0.2,0,0.3,0l3.4-1.5
			c0.1,0,0.1-0.1,0.2-0.2c0.4-0.8,1.9-2.9,3-2.7c0.8,0.1,1.5-0.3,2.2-0.8c1.1-0.7,2.4-1.6,4.4-0.8c2.2,0.9,4.6,1,7.3,0.3l0.1,0
			c0.2,0,0.5-0.2,1-0.4c0.5-0.3,1.8-0.9,2.1-0.8c0.4,0.2,1.1,3,1.3,4.7c0.1,1.7,3.5,4.8,5.5,5c1.7,0.2,3-1.6,3.5-5
			c0.1-0.4,0.2-0.6,0.4-0.7c0.7-0.3,1.9,0.3,2.3,0.5c0.1,0.1,0.2,0.1,0.3,0L134,35c0.7-0.3,1.2-0.3,1.5-0.2c0.3,0.2,0.5,0.6,0.7,1.1
			c0.1,0.2,0.2,0.4,0.5,0.4c1.4,0.2,6.9-5.8,7-6c0.3-0.2,2.2,0.1,3.8,0.5c0.1,0,0.3,0,0.4-0.1c1.3-1.2,3-2.6,3.4-2.7
			c0.2,0,1.7,0.7,3,1.2c2.8,1.2,4.8,2,5.3,2h0c1,0,2.2-2.5,2.9-4.1c0.7-0.2,1.5-0.4,1.8-0.4h0c0.1,0.3,0.3,0.5,0.6,0.8
			c0.5,0.5,1.2,1,1,2.3c-0.3,2.2,1.2,3.1,2.3,3.8c0.2,0.1,0.3,0.2,0.5,0.3c0.4,0.2,0.2,1,0,1.9c-0.3,1-0.6,2.3-0.1,3.2
			c0.4,0.7,0.1,2.2-0.1,3.5c-0.2,1.3-0.4,2.7-0.1,3.5c0.4,1.1,2,2,3.7,3c1.1,0.6,2.2,1.3,2.7,1.8c1.5,1.6,4.1,0.5,5.1,0l0.1-0.1
			c0.7-0.3,3-0.7,4.7,0.1l0.3,0.1c1.6,0.8,2.7,1.3,3.9,1.1c0.3-0.1,0.5,0.5,0.7,1.4c0.2,0.8,0.5,1.7,1,2.2c0.8,0.8,2.3-0.1,3.5-1
			c0.3-0.3,0.6-0.5,0.9-0.6c-0.1,1.5,0.9,3.1,1.1,3.6l0.1-2.6c-0.2-0.6-0.3-0.9-0.2-1.5c0.1-0.6-0.1-0.9-0.3-1
			c-0.5-0.3-1.1,0.4-2.1,1.1c-0.7,0.5-2,1.5-2.3,1.2c-0.4-0.4-0.6-1.1-0.8-1.8c-0.3-1-0.6-2.1-1.6-1.9c-1,0.2-2.1-0.3-3.6-1
			l-0.3-0.1c-1.8-0.8-4.5-0.5-5.3-0.1l-0.1,0.1c-0.8,0.4-3,1.4-4.1,0.2c-0.6-0.7-1.8-1.3-3-2c-1.4-0.8-3.1-1.7-3.3-2.5
			c-0.2-0.6,0-1.8,0.2-3c0.3-1.6,0.5-3.2,0-4.1c-0.3-0.6-0.1-1.7,0.1-2.5c0.3-1.1,0.5-2.2-0.3-2.7c-0.2-0.1-0.3-0.2-0.5-0.3
			c-1.1-0.7-2.1-1.3-1.9-3c0.3-1.7-0.7-2.6-1.3-3.1c-0.1-0.1-0.2-0.2-0.4-0.3c0-0.2-0.1-0.4-0.2-0.5c-0.1-0.1-0.3-0.2-0.6-0.2
			c-0.5,0-1.2,0.1-2.2,0.5c-0.1,0-0.2,0.1-0.2,0.2c-0.8,1.9-1.8,3.7-2.2,3.8c-0.5,0-3.2-1.2-5-2c-2.1-0.9-3-1.2-3.2-1.3
			c-0.7-0.1-2.4,1.4-3.8,2.7c-3.9-0.9-4.2-0.3-4.3-0.2c-0.5,0.7-5.1,5.3-6.2,5.7c-0.2-0.6-0.5-1.1-1.1-1.4c-0.5-0.2-1.2-0.2-2.1,0.2
			l-1.7,0.7c-0.5-0.3-1.9-0.9-2.9-0.4c-0.3,0.2-0.8,0.5-0.9,1.3c-0.2,1.1-0.8,4.5-2.7,4.3c-1.7-0.2-4.7-3-4.8-4.2
			c0-0.6-0.6-5-1.8-5.4c-0.6-0.2-1.5,0.2-2.7,0.8c-0.3,0.2-0.7,0.3-0.8,0.4l-0.2,0c-2.5,0.7-4.7,0.6-6.8-0.3c-2.3-1-3.8,0.1-5,0.9
			c-0.6,0.4-1.3,0.8-1.8,0.7c-1.8-0.3-3.3,2.4-3.7,3L95,37.4c-2.3-0.7-4.9-1.6-5.2-1.9c-0.4-0.5-1.4-0.7-3.2-0.9c-0.3,0-0.7,0-1-0.1
			c-1.4-0.2-1.2,0.4-1.9-0.1l-0.2-0.2c-0.9-0.7-2.6-1.5-4.5-0.8c-1.8,0.7-4.4,3-8.7,4.5l-4.4-0.9l-4.3-1.8l-3.1-2.8
			c-0.1-0.1-0.1-0.1-0.2-0.1l-4.7-0.2l-2.9-5.1c-0.1-0.1-0.3-0.2-0.4-0.2c0,0-4,0.8-5.5,0.9c-1.2,0.1-3.2,0-5.3-0.1l-1.4,0
			c-2.2-0.1-2.8-2-2.9-2.2l-2.7-6.1c0-0.1-0.1-0.2-0.3-0.2l-2.3-0.7c-1.4-0.4-1.4-0.5-2-1.7c-0.3-0.6-0.7-1.4-1.4-2.6
			c-0.7-1.2-1.4-1.8-2.1-2c-0.7-0.2-1.4,0.3-1.9,0.7c-0.4,0.3-0.8,0.6-1.3,0.6c-1,0.1-1.9,0.8-2.8,1.4c-0.7,0.5-1.4,1-1.8,1
			c-0.8-0.2-1.8,0.2-2.8,0.5c-0.6,0.2-1.1,0.4-1.5,0.4c-0.3,0-0.6,0-0.9,0c-0.7,0-1.5,0-2.1,0.4c-0.2,0.1-0.3,0.3-0.5,0.4
			c-0.6,0.6-1.6,1.5-6,1.8c-1.7,0.1-2.8-0.2-3.3-0.7c-0.5-0.5-0.3-1.4-0.2-2c0.1-0.3,0.1-0.6,0-0.8c-0.1-0.4-0.4-1.6-0.9-3.2
			c-0.3-1-0.5-2.2-0.9-3.5c-1-3.6-3.1-3.5-3.1-3.5l-5.4-1c-0.2-0.4-1-1.4-1.9-3.1c-0.8-1.6-1.8-1.4-2.9-1.3
			c-0.7,0.1-1.5,0.2-2.5,0.1c-3-0.5-3.7-1-4-1.5c-0.4-0.6-5.5-3.4-7.7-3.4c-0.5,0-0.9,0.2-1.1,0.4c-0.2,0.1-1-0.1-1.6-0.3
			c-1.1-0.3-2.1-0.7-2.9-0.4l-1.5-0.7c0,0-0.1,0-0.1,0c-0.2,0-0.4,0.4-0.5,0.6C-37.8-4.6-37.7-4.4-37.5-4.3"/>
	</g>
	<g transform="translate(140.214 80.563)">
		<defs>
			<filter id="Adobe_OpacityMaskFilter_3_" filterUnits="userSpaceOnUse" x="-37.5" y="-5.2" width="129.4" height="40.8">
				<feColorMatrix  type="matrix" values="1 0 0 0 0  0 1 0 0 0  0 0 1 0 0  0 0 0 1 0"/>
			</filter>
		</defs>
		<mask maskUnits="userSpaceOnUse" x="-37.5" y="-5.2" width="129.4" height="40.8" id="h_1_">
			<g class="st7">
				<path id="g_1_" class="st1" d="M-37.5-5.2H91.9v40.8H-37.5V-5.2z"/>
			</g>
		</mask>
		<path class="st8" d="M82.8-5.2c0.9,0,2.6,1.1,4.6,2.5C88-2.3,88.4-2,88.6-1.9c0.4,0.2,2.1-0.4,3.3-0.9l0,1.1
			c-0.5,0.2-2.9,1.1-3.8,0.6c-0.2-0.1-0.7-0.5-1.3-0.9c-1-0.8-3.4-2.5-4-2.4c-0.4,0.1-1.8,1.6-3,3.6c-0.9,1.4-1.1,2.2-1.1,2.7
			c0.1,0.1,0.3,0.2,0.4,0.5c0.2,0.5,0.2,1.3-0.3,2.2c-0.3,0.5-0.7,0.9-1.2,1c-1.1,0.3-2.5-0.5-3.1-0.9c-0.7,0.4-2.7,1.4-3.9,1.3
			c-0.3,0-0.4,0.1-0.4,0.1C70,6.3,70,6.8,70.1,7c0,0.2-0.1,0.4-0.3,0.4c-0.1,0-0.2,0-0.3-0.1c-0.1-0.1-2.5-1.7-4.7,0.3
			c-2.3,2-3.1,1.8-4.3,1.3C60.4,9,60.3,9,60.1,8.9c-0.2-0.1-0.2,0-0.3,0c-0.2,0.1-0.4,0.7-0.6,1.1c-0.2,0.6-0.4,1.1-0.9,1.1h0
			c-0.2,0-0.5,0.2-0.7,0.4c-0.5,0.3-1.2,0.7-1.7,0.4c-0.3-0.2-0.6-0.8-1-2c-0.5-1.1-1.1-2.7-1.7-3.1c-1.5-0.9-5-2.1-5.6-1.8
			c-0.7,0.6-3.1,1.8-4.1,0.7c-0.2-0.3-0.5-0.6-0.7-0.9c-0.2-0.4-0.3-0.5-0.8-0.7c-0.3-0.1-0.6-0.2-0.9-0.3c-0.9-0.2-1.8-0.5-2.1-1.2
			C39,2.4,38.9,2.2,38.8,2c-0.3-0.8-0.6-1.3-1.6-1.2c-0.8,0.1-1.6-0.1-2.5-0.3c-0.9-0.2-1.8-0.4-2.6-0.3c-0.2,0.1-0.5,0.1-0.7,0.2
			c-1,0.2-2.3,0.5-2.4,0.9c-0.2,0.6-1.1,0.8-1.9,1.1c-0.3,0.1-0.6,0.2-0.8,0.3c0,0.1,0,0.4-0.1,0.7c-0.1,1.1-0.2,2.7-0.6,3.6
			c-0.2,0.4-0.1,0.7-0.1,1c0.1,0.4,0.2,0.9-0.2,1.7c-0.4,0.6-0.5,2.1-0.5,3.3c-0.1,1.1-0.1,1.7-0.3,2c-0.1,0.1-0.2,0.2-0.3,0.4
			c-1.1,1.6-2.2,3.2-2.9,3.6l-0.2,0.1c-0.8,0.5-3.4,1.8-3.7,2.9c-0.3,0.9-1.1,1-1.6,1c-0.4,0-0.6,0.1-0.7,0.2
			c-0.3,0.6-1.4,4.7-2,6.8c0,0.1-0.1,0.2-0.2,0.2c-0.5,0.2-3.1,1.1-4.1,0.7c-2-0.8-2.3-0.5-2.3-0.4C6.5,30.7,6,31.2,5.3,32
			c-1,1.1-2.5,2.7-2.8,3.4c-0.1,0.1-0.2,0.2-0.4,0.2c-0.8-0.1-3.1-0.4-3.8-0.3c-0.5,0.1-2.1-0.8-5.6-2.4c-1.4-0.7-3.2-1.6-3.6-1.7
			c-0.1,0-0.2-0.1-0.3-0.1c-0.3-0.1-0.3-0.4-0.6-1.6c-0.2-0.6-0.5-1.7-0.7-1.9c-0.8-0.4-1.1-2.6-0.9-3.7c0.1-0.3-0.2-0.9-0.5-1.4
			c-0.6-0.8-1.4-1.5-2.1-1.6c-1.3-0.2-7.2-1.8-8.6-2.5c-1-0.5-6.1-1.6-8.1-2.1c-1.3,0.2-2.8,0.8-2.9,1.2c-0.4,0.9-1.1,1.5-1.7,1.8
			c-0.2,0.1-0.2,0.1,0,0c0.5-0.2,1.3-1.2,1.6-1.9c0.3-0.6,2.3-1.1,3-1.3c0,0,0.1,0,0.1,0c0.3,0.1,6.9,1.4,8.2,2.1
			c1.2,0.7,7,2.2,8.4,2.4c1,0.2,1.8,1,2.3,1.7c0.5,0.7,0.7,1.1,0.6,1.7c-0.2,1.1,0.2,3,0.7,3.4c0.4,0.2,0.5,0.6,0.9,2
			c0.1,0.4,0.4,1.2,0.5,1.4c0.4,0.1,1.2,0.4,3.8,1.7c1.9,0.9,5,2.4,5.5,2.4c0.8-0.1,3,0.1,3.8,0.3c0.5-0.9,1.7-2.2,2.7-3.4
			c0.6-0.6,1.2-1.3,1.3-1.5c0.5-0.8,1.9-0.3,3.1,0.1c0.4,0.2,2.1-0.3,3.5-0.7c0.3-1,1.6-6,1.9-6.8c0.2-0.6,0.8-0.6,1.3-0.7
			c0.6,0,0.8-0.1,1-0.5c0.3-1.2,2.3-2.3,4.1-3.3l0.2-0.1c0.7-0.4,2.1-2.5,2.6-3.4c0.1-0.2,0.2-0.4,0.3-0.4c0.1-0.2,0.1-1,0.2-1.6
			c0.1-1.4,0.2-2.9,0.7-3.7c0.3-0.5,0.2-0.7,0.1-1c-0.1-0.4-0.2-0.9,0.1-1.6c0.4-0.8,0.5-2.4,0.5-3.3c0-0.5,0.1-0.8,0.1-0.9
			C25.8,2,26.2,1.9,27,1.7c0.4-0.1,1.3-0.4,1.4-0.6c0.2-0.8,1.4-1,3-1.4c0.2-0.1,0.5-0.1,0.7-0.2C33-0.7,34-0.4,35-0.2
			c0.8,0.2,1.5,0.4,2.2,0.3c1.6-0.1,2,0.9,2.3,1.7c0.1,0.2,0.1,0.3,0.2,0.4c0.2,0.4,1,0.6,1.7,0.8c0.3,0.1,0.7,0.2,1,0.3
			c0.7,0.3,0.9,0.6,1.1,1c0.1,0.2,0.3,0.5,0.6,0.8c0.5,0.6,2.3-0.2,3.1-0.8c1-0.8,5.8,1.5,6.4,1.8c0.9,0.5,1.5,2.1,2.1,3.4
			c0.3,0.6,0.6,1.5,0.8,1.6c0.2,0.1,0.6-0.2,0.9-0.4c0.4-0.2,0.7-0.5,1.1-0.5h0c0,0,0.1-0.4,0.2-0.6c0.2-0.6,0.4-1.2,1-1.5
			c0.3-0.1,0.6-0.1,0.9,0c0.1,0.1,0.3,0.1,0.4,0.2c1,0.4,1.5,0.6,3.5-1.2c1.9-1.7,4-1.2,5-0.7c0-0.3,0.1-0.7,0.3-0.9
			c0.2-0.2,0.5-0.4,1.1-0.3c1,0.1,3-1,3.6-1.4c0.1-0.1,0.3-0.1,0.4,0c0.4,0.3,1.8,1.1,2.7,0.9c0.3-0.1,0.5-0.3,0.7-0.6
			c0.5-0.9,0.4-1.3,0.3-1.4c0-0.1-0.1-0.1-0.2-0.2c-0.1,0-0.2-0.1-0.3-0.3c-0.2-0.8,0.5-2.5,1.2-3.6c0.9-1.5,2.7-3.8,3.5-3.9
			C82.7-5.2,82.8-5.2,82.8-5.2"/>
	</g>
	<g transform="translate(37.75 10.383)">
		<defs>
			<filter id="Adobe_OpacityMaskFilter_4_" filterUnits="userSpaceOnUse" x="-37.8" y="-5" width="130.9" height="26.2">
				<feColorMatrix  type="matrix" values="1 0 0 0 0  0 1 0 0 0  0 0 1 0 0  0 0 0 1 0"/>
			</filter>
		</defs>
		<mask maskUnits="userSpaceOnUse" x="-37.8" y="-5" width="130.9" height="26.2" id="j_1_">
			<g class="st9">
				<path id="i_1_" class="st1" d="M-37.8-5H93.2v26.2H-37.8V-5z"/>
			</g>
		</mask>
		<path class="st10" d="M30.3,13.4L30.3,13.4L30.3,13.4z M-9.9-5c0.2,0,0.4,0.1,1.1,0.4c1,0.4,2.1,1.5,2.9,2.5
			c0.6,0.8,1.4,1.7,1.7,1.7c0,0,0.1,0,0.1-0.1c1-1.1,2.9-3,2.9-3.1C-1-3.6-0.9-3.7-0.8-3.7c0.2,0,4.2,0.8,5.5,1.6
			c1.3,0.8,3.8,5,4.1,6.2C8.9,5,10,6,10.4,6.4L14,5.1c0.3-0.4,1.4-1.7,3-1.8C18.3,3.2,19.7,4,21,5.5c3.5,3.9,5.8,6.4,6.2,6.8
			l2.5,0.8c0.2-0.3,0.7-0.7,2.4-1.3c2.8-1,6.7-1.7,6.7-1.7c0.1,0,0.1,0,0.2,0c1.1,0.5,3-0.5,3.6-0.9c0.1-0.1,0.2-0.1,0.3,0l5.7,1.8
			c0.8-0.1,5.2-0.4,6.3,1.1c0.4,0.6,0.5,2.3,0.5,3.2l5.4-4.2c0.1,0,0.1-0.1,0.2-0.1l3-0.1l0,0c0.1,0,0.3,0.1,0.3,0.2
			c0.1,0.3,2.7,6.9,3.2,8.3c0.3,0.9,1.8,1.4,2.4,1.6l4.5-2c0.5-0.5,4.1-4.5,5.8-5.5c1.7-1,3.7-4,3.8-4c0.1-0.1,0.2-0.2,0.4-0.1
			l8.9,3l-9-2.8c-0.5,0.7-2.3,3.2-3.9,4.1c-1.8,1-5.7,5.5-5.7,5.5c0,0-0.1,0.1-0.1,0.1l-4.5,2c-0.1,0-0.1,0-0.2,0
			c-0.1,0-2.2-0.3-2.7-1.8c-0.4-1.2-2.6-7-3.1-8.2L61,11.4l-5.6,4.4c-0.1,0.1-0.2,0.1-0.3,0c-0.1-0.1-0.2-0.2-0.2-0.3
			c0.1-1,0-2.7-0.4-3.2c-0.9-1.2-4.5-1.1-5.9-0.9c0,0-0.1,0-0.1,0l-5.6-1.7c-0.5,0.3-2.6,1.5-4,1c-0.6,0.1-4,0.8-6.5,1.7
			c-1.6,0.6-1.9,1-2,1.1C30.3,13.6,30.2,14,30,14L26.9,13c-0.1,0-0.1,0-0.1-0.1c0,0-2.5-2.6-6.3-6.9c-1.2-1.3-2.3-2-3.4-1.9
			c-1.5,0.1-2.4,1.6-2.5,1.6c0,0.1-0.1,0.1-0.2,0.1l-4,1.4c-0.1,0-0.3,0-0.3-0.1C9.9,7.1,8.4,5.4,8.1,4.3c-0.3-1-2.7-5.1-3.8-5.8
			C3.3-2.2,0-2.9-0.8-3c-0.4,0.5-2,2.1-2.8,3c-0.2,0.2-0.4,0.3-0.6,0.3c-0.7,0-1.4-0.9-2.3-1.9c-0.8-1-1.7-2-2.6-2.3L-9.2-4
			c0.1,0.3,0,0.6-0.3,1c-0.4,0.6-0.8,0.9-1.2,1c-0.1,0-0.3,0-0.4,0l-3.3,0.6l-3.3,6.8c0,0,0,0.1-0.1,0.1l-2.4,2c0,0,0,0-0.1,0
			c-0.1,0.1-3.3,1.5-5,1c-2.2-0.7-4.5-0.7-4.6-0.7l-4.8,0.6c0,0-0.1,0-0.1,0l-2.8-0.5c-0.2,0-0.3-0.2-0.3-0.3c0,0,0,0,0,0
			c0-0.2,0.2-0.6,0.3-0.6l2.8,0.6l4.8-0.6c0.1,0,2.5,0.1,4.8,0.8c1.2,0.3,3.5-0.5,4.4-0.9l2.3-1.9L-15-2c0-0.1,0.1-0.2,0.2-0.2
			l3.7-0.7c0.1,0,0.2,0,0.2,0.1c0.1,0,0.3,0,0.7-0.7c0.3-0.4,0.2-0.6,0-0.9c-0.1-0.1-0.2-0.3,0-0.5C-10.1-4.9-10-5-9.9-5z"/>
	</g>
	<path class="st1" d="M2.7,16.7l1.8,0.7c0.1,0,0.2,0,0.3,0c0.5-0.2,1.6,0.1,2.5,0.3c1.2,0.3,2.1,0.5,2.4,0c0-0.1,0.2-0.1,0.4-0.1
		c1.8-0.1,6.6,2.6,7,3.1c0.5,0.7,1.5,1.3,4.5,1.7c1.2,0.2,2.1,0.1,2.8,0c1.1-0.2,1.5-0.2,2,0.9c1.1,2.1,2,3.3,2,3.4
		c0.1,0.1,0.2,0.1,0.3,0.2l5.7,1c0.1,0,1.7,0,2.5,2.9c0.3,1.3,0.7,2.4,0.9,3.4c0.4,1.6,0.8,2.8,0.9,3.2c0,0.1,0,0.3-0.1,0.5
		c-0.1,0.7-0.3,1.8,0.4,2.6c0.7,0.8,2,1.1,4,1c4.7-0.2,5.8-1.3,6.5-2c0.1-0.1,0.2-0.2,0.4-0.3c0.5-0.3,1-0.3,1.7-0.3
		c0.3,0,0.7,0,1,0c0.5,0,1.1-0.2,1.7-0.4c0.8-0.3,1.7-0.6,2.4-0.5c0.7,0.1,1.6-0.5,2.4-1.1c0.7-0.6,1.6-1.2,2.4-1.3
		c0.7-0.1,1.2-0.4,1.7-0.8c0.5-0.3,0.9-0.6,1.3-0.5c0.5,0.1,1,0.6,1.6,1.6c0.7,1.2,1.1,2,1.4,2.5c0.7,1.3,0.8,1.6,2.5,2.1l2.1,0.6
		l2.6,5.8c0.3,0.9,1.3,2.6,3.5,2.7l1.4,0c2.1,0.1,4.2,0.1,5.4,0.1c1.3-0.1,4.4-0.7,5.4-0.9l2.8,5c0.1,0.1,0.2,0.2,0.3,0.2l4.9,0.2
		l3,2.9l4.5,1.9c0,0,0.2,0,0.3,0l4.4,0.8c0,0,0.1-0.1,0.1-0.1c4-1.3,7.2-3.8,8.7-4.3c1.6-0.6,2.9,0.1,3.8,0.7l0.2,0.2
		c1,0.7,0.6,0.1,2.2,0.3c0.3,0,0.7,0.1,1,0.1c1.1,0.1,2.6,0.3,2.9,0.6c0.5,0.5,4.1,1.7,5.6,2.1c0.1,0,0.2,0,0.3,0l3.4-1.5
		c0.1,0,0.1-0.1,0.2-0.2c0.4-0.8,1.9-2.9,3-2.7c0.8,0.1,1.5-0.3,2.2-0.8c1.1-0.7,2.4-1.6,4.4-0.8c2.2,0.9,4.7,1,7.3,0.3l0.1,0
		c0.2,0,0.5-0.2,1-0.4c0.5-0.3,1.8-0.9,2.1-0.8c0.4,0.2,1.1,3,1.3,4.7c0.1,1.7,3.5,4.8,5.5,5c1.7,0.2,3-1.6,3.5-5
		c0.1-0.4,0.2-0.6,0.4-0.7c0.7-0.3,1.9,0.3,2.3,0.5c0.1,0.1,0.2,0.1,0.3,0l1.9-0.8c0.7-0.3,1.2-0.3,1.5-0.2c0.3,0.2,0.5,0.6,0.7,1.1
		c0.1,0.2,0.3,0.4,0.5,0.4c1.4,0.2,6.9-5.8,7-6c0.3-0.2,2.2,0.1,3.8,0.5c0.1,0,0.3,0,0.4-0.1c1.3-1.2,3-2.6,3.4-2.7
		c0.2,0,1.7,0.7,3,1.2c2.8,1.2,4.8,2,5.3,2v0c1,0,2.2-2.5,2.9-4.1c0.7-0.2,1.5-0.4,1.8-0.4h0c0.1,0.3,0.3,0.5,0.6,0.8
		c0.5,0.5,1.2,1,1,2.3c-0.3,2.2,1.2,3.1,2.3,3.8c0.2,0.1,0.3,0.2,0.5,0.3c0.4,0.2,0.2,1,0,1.9c-0.2,1-0.6,2.3-0.1,3.2
		c0.4,0.7,0.1,2.2-0.1,3.5c-0.2,1.3-0.4,2.7-0.1,3.5c0.4,1.1,2,2,3.7,3c1.1,0.6,2.2,1.3,2.7,1.8c1.5,1.6,4.1,0.5,5.1,0l0.1-0.1
		c0.7-0.3,3-0.7,4.7,0.1l0.3,0.1c1.6,0.8,2.7,1.3,3.9,1.1c0.3-0.1,0.5,0.5,0.7,1.4c0.2,0.8,0.5,1.7,1,2.2c0.8,0.8,2.3-0.1,3.5-1
		c0.3-0.3,0.6-0.5,0.9-0.6c-0.1,1.5,0.9,3.1,1.1,3.6l0.1-2.6c-0.2-0.6-0.3-0.9-0.2-1.5c0.1-0.6-0.1-0.9-0.3-1
		c-0.5-0.3-1.1,0.4-2.1,1.1c-0.7,0.5-2,1.5-2.3,1.2c-0.4-0.4-0.6-1.1-0.8-1.8c-0.3-1-0.6-2.1-1.6-1.9c-1,0.2-2.1-0.3-3.6-1l-0.3-0.1
		c-1.8-0.8-4.5-0.5-5.3-0.1l-0.1,0.1c-0.8,0.4-3,1.4-4.1,0.2c-0.6-0.7-1.8-1.3-3-2c-1.4-0.8-3.1-1.7-3.3-2.5c-0.2-0.6,0-1.8,0.2-3
		c0.3-1.6,0.5-3.2,0-4.1c-0.3-0.6-0.1-1.7,0.1-2.5c0.3-1.1,0.5-2.2-0.3-2.7c-0.2-0.1-0.3-0.2-0.5-0.3c-1.1-0.7-2.1-1.3-1.9-3
		c0.2-1.7-0.7-2.6-1.3-3.1c-0.1-0.1-0.2-0.2-0.3-0.3c0-0.2-0.1-0.4-0.2-0.5c-0.1-0.1-0.3-0.2-0.6-0.2c-0.5,0-1.2,0.1-2.2,0.5
		c-0.1,0-0.2,0.1-0.2,0.2c-0.8,1.9-1.8,3.7-2.2,3.8c-0.5,0-3.2-1.2-5-2c-2.1-0.9-3-1.2-3.2-1.3c-0.7-0.1-2.4,1.4-3.8,2.7
		c-3.9-0.9-4.2-0.3-4.3-0.2c-0.5,0.7-5.1,5.3-6.2,5.7c-0.2-0.6-0.5-1.1-1.1-1.4c-0.5-0.2-1.2-0.2-2.1,0.2l-1.7,0.7
		c-0.5-0.3-1.9-0.9-2.9-0.4c-0.3,0.2-0.8,0.5-0.9,1.3c-0.2,1.1-0.8,4.5-2.7,4.3c-1.7-0.2-4.7-3-4.8-4.2c0-0.6-0.6-5-1.8-5.4
		c-0.6-0.2-1.5,0.2-2.7,0.8c-0.3,0.2-0.7,0.3-0.8,0.4l-0.2,0c-2.5,0.7-4.7,0.6-6.8-0.3c-2.3-1-3.8,0.1-5,0.9
		c-0.6,0.4-1.3,0.8-1.8,0.7c-1.8-0.3-3.3,2.4-3.7,3l-3.2,1.4c-2.3-0.7-4.9-1.6-5.2-1.9c-0.4-0.5-1.4-0.7-3.2-0.9c-0.3,0-0.7,0-1-0.1
		c-1.4-0.2-1.2,0.4-1.9-0.1l-0.2-0.2c-0.9-0.7-2.6-1.5-4.5-0.8c-1.8,0.7-4.4,3-8.7,4.5l-4.4-0.9l-4.3-1.8l-3.1-2.8
		c-0.1-0.1-0.1-0.1-0.2-0.1l-4.7-0.2l-2.9-5.1c-0.1-0.1-0.3-0.2-0.4-0.2c0,0-4,0.8-5.5,0.9c-1.2,0.1-3.2,0-5.3-0.1l-1.4,0
		c-2.2-0.1-2.8-2-2.9-2.2l-2.7-6.1c0-0.1-0.1-0.2-0.3-0.2l-2.3-0.7c-1.4-0.4-1.4-0.5-2-1.7c-0.3-0.6-0.7-1.4-1.4-2.6
		c-0.7-1.2-1.4-1.8-2.1-2c-0.7-0.2-1.4,0.3-1.9,0.7c-0.4,0.3-0.8,0.6-1.3,0.6c-1,0.1-1.9,0.8-2.8,1.4c-0.7,0.5-1.4,1-1.8,1
		c-0.8-0.2-1.8,0.2-2.8,0.5c-0.6,0.2-1.1,0.4-1.5,0.4c-0.3,0-0.6,0-0.9,0c-0.7,0-1.5,0-2.1,0.4c-0.2,0.1-0.3,0.3-0.5,0.4
		c-0.6,0.6-1.6,1.5-6,1.8c-1.7,0.1-2.8-0.2-3.3-0.7c-0.5-0.5-0.3-1.4-0.2-2c0.1-0.3,0.1-0.6,0.1-0.8c-0.1-0.4-0.4-1.6-0.9-3.2
		c-0.3-1-0.5-2.2-0.9-3.5c-1-3.6-3.1-3.5-3.1-3.5l-5.4-1c-0.2-0.4-1-1.4-1.9-3.1c-0.8-1.6-1.8-1.4-2.9-1.3c-0.7,0.1-1.5,0.2-2.5,0.1
		c-3-0.5-3.7-1-4-1.5c-0.4-0.6-5.5-3.4-7.7-3.4c-0.5,0-0.9,0.2-1.1,0.4c-0.2,0.1-1-0.1-1.6-0.3c-1.1-0.3-2.1-0.7-2.9-0.4l-1.5-0.7
		c0,0-0.1,0-0.1,0c-0.2,0-0.4,0.4-0.5,0.6C2.4,16.4,2.5,16.6,2.7,16.7"/>
	<g>
		<g transform="translate(140.214 80.454)">
			<defs>
				<filter id="Adobe_OpacityMaskFilter_5_" filterUnits="userSpaceOnUse" x="-37.5" y="-5.2" width="129.4" height="40.8">
					<feColorMatrix  type="matrix" values="1 0 0 0 0  0 1 0 0 0  0 0 1 0 0  0 0 0 1 0"/>
				</filter>
			</defs>
			<mask maskUnits="userSpaceOnUse" x="-37.5" y="-5.2" width="129.4" height="40.8" id="l_1_">
				<g class="st11">
					<path id="k_1_" class="st1" d="M-37.5-5.2H91.9v40.8H-37.5V-5.2z"/>
				</g>
			</mask>
			<path class="st12" d="M82.8-5.2c0.9,0,2.6,1.1,4.6,2.5C88-2.3,88.4-2,88.6-1.9c0.4,0.2,2.1-0.4,3.3-0.9l0,1.1
				c-0.5,0.2-2.9,1.1-3.8,0.6c-0.2-0.1-0.7-0.5-1.3-0.9c-1-0.8-3.4-2.5-4-2.4c-0.4,0.1-1.8,1.6-3,3.6c-0.9,1.4-1.1,2.2-1.1,2.7
				c0.1,0.1,0.3,0.2,0.4,0.5c0.2,0.5,0.2,1.3-0.3,2.2c-0.3,0.5-0.7,0.9-1.2,1c-1.1,0.3-2.5-0.5-3.1-0.9c-0.7,0.4-2.7,1.4-3.9,1.3
				c-0.3,0-0.4,0.1-0.4,0.1C70,6.3,70,6.8,70.1,7c0,0.2-0.1,0.4-0.3,0.4c-0.1,0-0.2,0-0.3-0.1c-0.1-0.1-2.5-1.7-4.7,0.3
				c-2.3,2-3.1,1.8-4.3,1.3C60.4,9,60.3,9,60.1,8.9c-0.2-0.1-0.2,0-0.3,0c-0.2,0.1-0.4,0.7-0.6,1.1c-0.2,0.6-0.4,1.1-0.9,1.1h0
				c-0.2,0-0.5,0.2-0.7,0.4c-0.5,0.3-1.2,0.7-1.7,0.4c-0.3-0.2-0.6-0.8-1-2c-0.5-1.1-1.1-2.7-1.7-3.1c-1.5-0.9-5-2.1-5.6-1.8
				c-0.7,0.6-3.1,1.8-4.1,0.7c-0.2-0.3-0.5-0.6-0.7-0.9c-0.2-0.4-0.3-0.5-0.8-0.7c-0.3-0.1-0.6-0.2-0.9-0.3
				c-0.9-0.2-1.8-0.5-2.1-1.2C39,2.4,38.9,2.2,38.8,2c-0.3-0.8-0.6-1.3-1.6-1.2c-0.8,0.1-1.6-0.1-2.5-0.3c-0.9-0.2-1.8-0.4-2.6-0.3
				c-0.2,0.1-0.5,0.1-0.7,0.2c-1,0.2-2.3,0.5-2.4,0.9c-0.2,0.6-1.1,0.8-1.9,1.1c-0.3,0.1-0.6,0.2-0.8,0.3c0,0.1,0,0.4-0.1,0.7
				c-0.1,1.1-0.2,2.7-0.6,3.6c-0.2,0.4-0.1,0.7-0.1,1c0.1,0.4,0.2,0.9-0.2,1.7c-0.4,0.6-0.5,2.1-0.5,3.3c-0.1,1.1-0.1,1.7-0.3,2
				c-0.1,0.1-0.2,0.2-0.3,0.4c-1.1,1.6-2.2,3.2-2.9,3.6l-0.2,0.1c-0.8,0.5-3.4,1.8-3.7,2.9c-0.3,0.9-1.1,1-1.6,1
				c-0.4,0-0.6,0.1-0.7,0.2c-0.3,0.6-1.4,4.7-2,6.8c0,0.1-0.1,0.2-0.2,0.2c-0.5,0.2-3.1,1.1-4.1,0.7c-2-0.8-2.3-0.5-2.3-0.4
				C6.5,30.7,6,31.2,5.3,32c-1,1.1-2.5,2.7-2.8,3.4c-0.1,0.1-0.2,0.2-0.4,0.2c-0.8-0.1-3.1-0.4-3.8-0.3c-0.5,0.1-2.1-0.8-5.6-2.4
				c-1.4-0.7-3.2-1.6-3.6-1.7c-0.1,0-0.2-0.1-0.3-0.1c-0.3-0.1-0.3-0.4-0.6-1.6c-0.2-0.6-0.5-1.7-0.7-1.9c-0.8-0.4-1.1-2.6-0.9-3.7
				c0.1-0.3-0.2-0.9-0.5-1.4c-0.6-0.8-1.4-1.5-2.1-1.6c-1.3-0.2-7.2-1.8-8.6-2.5c-1-0.5-6.1-1.6-8.1-2.1c-1.3,0.2-2.8,0.8-2.9,1.2
				c-0.4,0.9-1.1,1.5-1.7,1.8c-0.2,0.1-0.2,0.1,0,0c0.5-0.2,1.3-1.2,1.6-1.9c0.3-0.6,2.3-1.1,3-1.3c0,0,0.1,0,0.1,0
				c0.3,0.1,6.9,1.4,8.2,2.1c1.2,0.7,7,2.2,8.4,2.4c1,0.2,1.8,1,2.3,1.7c0.5,0.7,0.7,1.1,0.6,1.7c-0.2,1.1,0.2,3,0.7,3.4
				c0.4,0.2,0.5,0.6,0.9,2c0.1,0.4,0.4,1.2,0.5,1.4c0.4,0.1,1.2,0.4,3.8,1.7c1.9,0.9,5,2.4,5.5,2.4c0.8-0.1,3,0.1,3.8,0.3
				c0.5-0.9,1.7-2.2,2.7-3.4c0.6-0.6,1.2-1.3,1.3-1.5c0.5-0.8,1.9-0.3,3.1,0.1c0.4,0.2,2.1-0.3,3.5-0.7c0.3-1,1.6-6,1.9-6.8
				c0.2-0.6,0.8-0.6,1.3-0.7c0.6,0,0.8-0.1,1-0.5c0.3-1.2,2.3-2.3,4.1-3.3l0.2-0.1c0.7-0.4,2.1-2.5,2.6-3.4c0.1-0.2,0.2-0.4,0.3-0.4
				c0.1-0.2,0.1-1,0.2-1.6c0.1-1.4,0.2-2.9,0.7-3.7c0.3-0.5,0.2-0.7,0.1-1c-0.1-0.4-0.2-0.9,0.1-1.5c0.4-0.8,0.5-2.4,0.5-3.3
				c0-0.5,0.1-0.8,0.1-0.9C25.8,2,26.2,1.9,27,1.7c0.4-0.1,1.3-0.4,1.4-0.6c0.2-0.8,1.4-1,3-1.4c0.2-0.1,0.5-0.1,0.7-0.2
				C33-0.7,34-0.4,35-0.2c0.8,0.2,1.5,0.4,2.2,0.3c1.6-0.1,2,0.9,2.3,1.7c0.1,0.2,0.1,0.3,0.2,0.4c0.2,0.4,1,0.6,1.7,0.8
				c0.3,0.1,0.7,0.2,1,0.3c0.7,0.3,0.9,0.6,1.1,1c0.1,0.2,0.3,0.5,0.6,0.8c0.5,0.6,2.3-0.2,3.1-0.8c1-0.8,5.8,1.5,6.4,1.8
				c0.9,0.5,1.5,2.1,2.1,3.4c0.3,0.6,0.6,1.5,0.8,1.6c0.2,0.1,0.6-0.2,0.9-0.4c0.4-0.2,0.7-0.5,1.1-0.5h0c0,0,0.1-0.4,0.2-0.6
				c0.2-0.6,0.4-1.2,1-1.5c0.3-0.1,0.6-0.1,0.9,0c0.1,0.1,0.3,0.1,0.4,0.2c1,0.4,1.5,0.6,3.5-1.2c1.9-1.7,4-1.2,5-0.7
				c0-0.3,0.1-0.7,0.3-0.9c0.2-0.2,0.5-0.4,1.1-0.3c1,0.1,3-1,3.6-1.4c0.1-0.1,0.3-0.1,0.4,0c0.4,0.3,1.8,1.1,2.7,0.9
				c0.3-0.1,0.5-0.3,0.7-0.6c0.5-0.9,0.4-1.3,0.3-1.4c0-0.1-0.1-0.1-0.2-0.2c-0.1,0-0.2-0.1-0.3-0.3c-0.2-0.8,0.5-2.5,1.2-3.6
				c0.9-1.5,2.7-3.8,3.5-3.9C82.7-5.2,82.8-5.2,82.8-5.2"/>
		</g>
		<g transform="translate(37.75 10.274)">
			<defs>
				<filter id="Adobe_OpacityMaskFilter_6_" filterUnits="userSpaceOnUse" x="-37.8" y="-5" width="130.9" height="26.2">
					<feColorMatrix  type="matrix" values="1 0 0 0 0  0 1 0 0 0  0 0 1 0 0  0 0 0 1 0"/>
				</filter>
			</defs>
			<mask maskUnits="userSpaceOnUse" x="-37.8" y="-5" width="130.9" height="26.2" id="n_1_">
				<g class="st13">
					<path id="m_1_" class="st1" d="M-37.8-5H93.2v26.2H-37.8V-5z"/>
				</g>
			</mask>
			<path class="st14" d="M30.3,13.4L30.3,13.4L30.3,13.4z M-9.9-5c0.2,0,0.4,0.1,1.1,0.4c1,0.4,2.1,1.5,2.9,2.5
				c0.6,0.8,1.4,1.7,1.7,1.7c0,0,0.1,0,0.1-0.1c1-1.1,2.9-3,2.9-3.1C-1-3.6-0.9-3.7-0.8-3.7c0.2,0,4.2,0.8,5.5,1.6
				c1.3,0.8,3.8,5,4.1,6.2C8.9,5,10,6,10.4,6.4L14,5.1c0.3-0.4,1.4-1.7,3-1.8C18.3,3.2,19.7,4,21,5.5c3.5,3.9,5.8,6.4,6.2,6.9
				l2.5,0.8c0.2-0.3,0.7-0.7,2.4-1.3c2.8-1,6.7-1.7,6.7-1.7c0.1,0,0.1,0,0.2,0c1.1,0.5,3-0.5,3.6-0.9c0.1-0.1,0.2-0.1,0.3,0l5.7,1.8
				c0.8-0.1,5.2-0.4,6.3,1.1c0.4,0.6,0.5,2.3,0.5,3.2l5.4-4.2c0.1,0,0.1-0.1,0.2-0.1l3-0.1l0,0c0.1,0,0.3,0.1,0.3,0.2
				c0.1,0.3,2.7,6.9,3.2,8.3c0.3,0.9,1.8,1.4,2.4,1.6l4.5-2c0.5-0.5,4.1-4.5,5.8-5.5c1.7-1,3.7-4,3.8-4c0.1-0.1,0.2-0.2,0.4-0.1
				l8.9,3l-9-2.8c-0.5,0.7-2.3,3.2-3.9,4.1c-1.8,1-5.7,5.5-5.7,5.5c0,0-0.1,0.1-0.1,0.1l-4.5,2c-0.1,0-0.1,0-0.2,0
				c-0.1,0-2.2-0.3-2.7-1.8c-0.4-1.2-2.6-7-3.1-8.2L61,11.4l-5.6,4.4c-0.1,0.1-0.2,0.1-0.3,0c-0.1-0.1-0.2-0.2-0.2-0.3
				c0.1-1,0-2.7-0.4-3.2c-0.9-1.2-4.5-1.1-5.9-0.9c0,0-0.1,0-0.1,0l-5.6-1.7c-0.5,0.3-2.6,1.5-4,1c-0.6,0.1-4,0.8-6.5,1.7
				c-1.6,0.6-1.9,1-2,1.1C30.3,13.6,30.2,14,30,14L26.9,13c-0.1,0-0.1,0-0.1-0.1c0,0-2.5-2.6-6.3-6.9c-1.2-1.3-2.3-2-3.4-1.9
				c-1.5,0.1-2.4,1.6-2.5,1.6c0,0.1-0.1,0.1-0.2,0.1l-4,1.4c-0.1,0-0.3,0-0.3-0.1C9.9,7.1,8.4,5.4,8.1,4.3c-0.3-1-2.7-5.1-3.8-5.8
				C3.3-2.2,0-2.9-0.8-3c-0.4,0.5-2,2.1-2.8,3c-0.2,0.2-0.4,0.3-0.6,0.3c-0.7,0-1.4-0.9-2.3-1.9c-0.8-1-1.7-2-2.6-2.3L-9.2-4
				c0.1,0.3,0,0.6-0.3,1c-0.4,0.6-0.8,0.9-1.2,1c-0.1,0-0.3,0-0.4,0l-3.3,0.6l-3.3,6.8c0,0,0,0.1-0.1,0.1l-2.4,2c0,0,0,0-0.1,0
				c-0.1,0.1-3.3,1.5-5,1c-2.2-0.7-4.5-0.7-4.6-0.7l-4.8,0.6c0,0-0.1,0-0.1,0l-2.8-0.5c-0.2,0-0.3-0.2-0.3-0.3c0,0,0,0,0,0
				c0-0.2,0.2-0.6,0.3-0.6l2.8,0.6l4.8-0.6c0.1,0,2.5,0.1,4.8,0.8c1.2,0.3,3.5-0.5,4.4-0.9l2.3-1.9L-15-2c0-0.1,0.1-0.2,0.2-0.2
				l3.7-0.7c0.1,0,0.2,0,0.2,0.1c0.1,0,0.3,0,0.7-0.7c0.3-0.4,0.2-0.6,0-0.9c-0.1-0.1-0.2-0.3,0-0.5C-10.1-4.9-10-5-9.9-5z"/>
		</g>
		<path class="st1" d="M8.7,16.5c0,0,0.3-0.1,0.3-0.1l7.4,10.3c0,0,0,0.1,0,0.1c0,0.2,0,4.3-0.6,5.7c-0.1,0.1,0,0.3,0.1,0.6
			c0.7,1.6,4.4,4.2,5.2,4.5c1,0.3,3.9,3,4.1,4.2c0.1,0.3,0.1,0.8,0.3,1.6c0.3,2.2,0.9,6,1.7,7c1.6,1.9,7.4,7.7,8.7,7.1
			c1.5-0.6,6.8,0.1,7,0.1c0,0,0,0,0.1,0c0.1,0.1,2.9,1.9,3.3,2.9c0.4,0.9,2.8,5.8,3.1,6.5l7.1-0.5l7.8,0.6c0,0,0.1,0,0.1,0.1
			c0.1,0.1,1.2,1.5,1.6,3.3c0,0.1,0,0,0,0c-0.4-1.5-1.6-2.9-1.8-3.1l-7.8-0.6l-7.2,0.5c-0.1,0-0.1,0-0.1-0.1
			c-0.1-0.2-2.7-5.6-3.1-6.6c-0.3-0.7-2.4-2.2-3.2-2.8c-0.5-0.1-5.4-0.7-6.8-0.1c-1.8,0.7-8.4-6.4-9-7.3c-0.9-1.1-1.4-4.8-1.7-7.1
			c-0.1-0.7-0.2-1.2-0.3-1.5c-0.3-1.2-2.9-3.7-3.9-4c-0.9-0.3-4.7-3-5.5-4.7c-0.2-0.3-0.2-0.6-0.1-0.8c0.5-1.2,0.5-5,0.5-5.5
			L8.6,16.7c-0.1-0.1,0-0.2,0-0.2C8.6,16.5,8.7,16.5,8.7,16.5"/>
		<path class="st1" d="M2.7,16.6l1.8,0.7c0.1,0,0.2,0,0.3,0c0.5-0.2,1.6,0.1,2.5,0.3c1.2,0.3,2.1,0.5,2.4,0c0-0.1,0.2-0.1,0.4-0.1
			c1.8-0.1,6.6,2.6,7,3.1c0.5,0.7,1.5,1.3,4.5,1.7c1.2,0.2,2.1,0.1,2.8,0c1.1-0.2,1.5-0.2,2,0.9c1.1,2.1,2,3.3,2,3.4
			c0.1,0.1,0.2,0.1,0.3,0.2l5.7,1c0.1,0,1.7,0,2.5,2.9c0.3,1.3,0.7,2.4,0.9,3.4c0.4,1.6,0.8,2.8,0.9,3.2c0,0.1,0,0.3-0.1,0.5
			c-0.1,0.7-0.3,1.8,0.4,2.6c0.7,0.8,2,1.1,4,1c4.7-0.2,5.8-1.3,6.5-2c0.1-0.1,0.2-0.2,0.4-0.3c0.5-0.3,1-0.3,1.7-0.3
			c0.3,0,0.7,0,1,0c0.5,0,1.1-0.2,1.7-0.4c0.8-0.3,1.7-0.6,2.4-0.5c0.7,0.1,1.6-0.5,2.4-1.1c0.7-0.6,1.6-1.2,2.4-1.3
			c0.7-0.1,1.2-0.4,1.7-0.8c0.5-0.3,0.9-0.6,1.3-0.5c0.5,0.1,1,0.6,1.6,1.6c0.7,1.2,1.1,2,1.4,2.5c0.7,1.3,0.8,1.6,2.5,2.1l2.1,0.6
			l2.6,5.8c0.3,0.9,1.3,2.6,3.5,2.7l1.4,0c2.1,0.1,4.2,0.1,5.4,0.1c1.3-0.1,4.4-0.7,5.4-0.9l2.8,5c0.1,0.1,0.2,0.2,0.3,0.2l4.9,0.2
			l3,2.9l4.5,1.9c0,0,0.2,0,0.3,0l4.4,0.8c0,0,0.1-0.1,0.1-0.1c4-1.3,7.2-3.8,8.7-4.3c1.6-0.6,2.9,0.1,3.8,0.7l0.2,0.2
			c1,0.7,0.6,0.1,2.2,0.3c0.3,0,0.7,0.1,1,0.1c1.1,0.1,2.6,0.3,2.9,0.6c0.5,0.5,4.1,1.7,5.6,2.1c0.1,0,0.2,0,0.3,0l3.4-1.5
			c0.1,0,0.1-0.1,0.2-0.2c0.4-0.8,1.9-2.9,3-2.7c0.8,0.1,1.5-0.3,2.2-0.8c1.1-0.7,2.4-1.6,4.4-0.8c2.2,0.9,4.7,1,7.3,0.3l0.1,0
			c0.2,0,0.5-0.2,1-0.4c0.5-0.3,1.8-0.9,2.1-0.8c0.4,0.2,1.1,3,1.3,4.7c0.1,1.7,3.5,4.8,5.5,5c1.7,0.2,3-1.6,3.5-5
			c0.1-0.4,0.2-0.6,0.4-0.7c0.7-0.3,1.9,0.3,2.3,0.5c0.1,0.1,0.2,0.1,0.3,0l1.9-0.8c0.7-0.3,1.2-0.3,1.5-0.2
			c0.3,0.2,0.5,0.6,0.7,1.1c0.1,0.2,0.3,0.4,0.5,0.4c1.4,0.2,6.9-5.8,7-6c0.3-0.2,2.2,0.1,3.8,0.5c0.1,0,0.3,0,0.4-0.1
			c1.3-1.2,3-2.6,3.4-2.7c0.2,0,1.7,0.7,3,1.2c2.8,1.2,4.8,2,5.3,2v0c1,0,2.2-2.5,2.9-4.1c0.7-0.2,1.5-0.4,1.8-0.4h0
			c0.1,0.3,0.3,0.5,0.6,0.8c0.5,0.5,1.2,1,1,2.3c-0.3,2.2,1.2,3.1,2.3,3.8c0.2,0.1,0.3,0.2,0.5,0.3c0.4,0.2,0.2,1,0,1.9
			c-0.2,1-0.6,2.3-0.1,3.2c0.4,0.7,0.1,2.2-0.1,3.5c-0.2,1.3-0.4,2.7-0.1,3.5c0.4,1.1,2,2,3.7,3c1.1,0.6,2.2,1.3,2.7,1.8
			c1.5,1.6,4.1,0.5,5.1,0l0.1-0.1c0.7-0.3,3-0.7,4.7,0.1l0.3,0.1c1.6,0.8,2.7,1.3,3.9,1.1c0.3-0.1,0.5,0.5,0.7,1.4
			c0.2,0.8,0.5,1.7,1,2.2c0.8,0.8,2.3-0.1,3.5-1c0.3-0.3,0.6-0.5,0.9-0.6c-0.1,1.5,0.9,3.1,1.1,3.6l0.1-2.6
			c-0.2-0.6-0.3-0.9-0.2-1.5c0.1-0.6-0.1-0.9-0.3-1c-0.5-0.3-1.1,0.4-2.1,1.1c-0.7,0.5-2,1.5-2.3,1.2c-0.4-0.4-0.6-1.1-0.8-1.8
			c-0.3-1-0.6-2.1-1.6-1.9c-1,0.2-2.1-0.3-3.6-1l-0.3-0.1c-1.8-0.8-4.5-0.5-5.3-0.1l-0.1,0.1c-0.8,0.4-3,1.4-4.1,0.2
			c-0.6-0.7-1.8-1.3-3-2c-1.4-0.8-3.1-1.7-3.3-2.5c-0.2-0.6,0-1.8,0.2-3c0.3-1.6,0.5-3.2,0-4.1c-0.3-0.6-0.1-1.7,0.1-2.5
			c0.3-1.1,0.5-2.2-0.3-2.7c-0.2-0.1-0.3-0.2-0.5-0.3c-1.1-0.7-2.1-1.3-1.9-3c0.2-1.7-0.7-2.6-1.3-3.1c-0.1-0.1-0.2-0.2-0.3-0.3
			c0-0.2-0.1-0.4-0.2-0.5c-0.1-0.1-0.3-0.2-0.6-0.2c-0.5,0-1.2,0.1-2.2,0.5c-0.1,0-0.2,0.1-0.2,0.2c-0.8,1.9-1.8,3.7-2.2,3.8
			c-0.5,0-3.2-1.2-5-2c-2.1-0.9-3-1.2-3.2-1.3c-0.7-0.1-2.4,1.4-3.8,2.7c-3.9-0.9-4.2-0.3-4.3-0.2c-0.5,0.7-5.1,5.3-6.2,5.7
			c-0.2-0.6-0.5-1.1-1.1-1.4c-0.5-0.2-1.2-0.2-2.1,0.2l-1.7,0.7c-0.5-0.3-1.9-0.9-2.9-0.4c-0.3,0.2-0.8,0.5-0.9,1.3
			c-0.2,1.1-0.8,4.5-2.7,4.3c-1.7-0.2-4.7-3-4.8-4.2c0-0.6-0.6-5-1.8-5.4c-0.6-0.2-1.5,0.2-2.7,0.8c-0.3,0.2-0.7,0.3-0.8,0.4l-0.2,0
			c-2.5,0.7-4.7,0.6-6.8-0.3c-2.3-1-3.8,0.1-5,0.9c-0.6,0.4-1.3,0.8-1.8,0.7c-1.8-0.3-3.3,2.4-3.7,3l-3.2,1.4
			c-2.3-0.7-4.9-1.6-5.2-1.9c-0.4-0.5-1.4-0.7-3.2-0.9c-0.3,0-0.7,0-1-0.1c-1.4-0.2-1.2,0.4-1.9-0.1l-0.2-0.2
			c-0.9-0.7-2.6-1.5-4.5-0.8c-1.8,0.7-4.4,3-8.7,4.5L106,58l-4.3-1.8l-3.1-2.8c-0.1-0.1-0.1-0.1-0.2-0.1L93.7,53L90.8,48
			c-0.1-0.1-0.3-0.2-0.4-0.2c0,0-4,0.8-5.5,0.9c-1.2,0.1-3.2,0-5.3-0.1l-1.4,0c-2.2-0.1-2.8-2-2.9-2.2l-2.7-6.1
			c0-0.1-0.1-0.2-0.3-0.2l-2.3-0.7c-1.4-0.4-1.4-0.5-2-1.7c-0.3-0.6-0.7-1.4-1.4-2.6c-0.7-1.2-1.4-1.8-2.1-2
			c-0.7-0.2-1.4,0.3-1.9,0.7c-0.4,0.3-0.8,0.6-1.3,0.6c-1,0.1-1.9,0.8-2.8,1.4c-0.7,0.5-1.4,1-1.8,1c-0.8-0.2-1.8,0.2-2.8,0.5
			c-0.6,0.2-1.1,0.4-1.5,0.4c-0.3,0-0.6,0-0.9,0c-0.7,0-1.5,0-2.1,0.4c-0.2,0.1-0.3,0.3-0.5,0.4c-0.6,0.6-1.6,1.5-6,1.8
			c-1.7,0.1-2.8-0.2-3.3-0.7c-0.5-0.5-0.3-1.4-0.2-2c0.1-0.3,0.1-0.6,0.1-0.8c-0.1-0.4-0.4-1.6-0.9-3.2c-0.3-1-0.5-2.2-0.9-3.5
			c-1-3.6-3.1-3.5-3.1-3.5l-5.4-1c-0.2-0.4-1-1.4-1.9-3.1c-0.8-1.6-1.8-1.4-2.9-1.3c-0.7,0.1-1.5,0.2-2.5,0.1c-3-0.5-3.7-1-4-1.5
			c-0.4-0.6-5.5-3.4-7.7-3.4c-0.5,0-0.9,0.2-1.1,0.4c-0.2,0.1-1-0.1-1.6-0.3c-1.1-0.3-2.1-0.7-2.9-0.4l-1.5-0.7c0,0-0.1,0-0.1,0
			c-0.2,0-0.4,0.4-0.5,0.6C2.4,16.3,2.5,16.5,2.7,16.6"/>
		<g transform="translate(80.893 4.876)">
			<defs>
				<filter id="Adobe_OpacityMaskFilter_7_" filterUnits="userSpaceOnUse" x="-37.1" y="-4.9" width="67.4" height="12">
					<feColorMatrix  type="matrix" values="1 0 0 0 0  0 1 0 0 0  0 0 1 0 0  0 0 0 1 0"/>
				</filter>
			</defs>
			<mask maskUnits="userSpaceOnUse" x="-37.1" y="-4.9" width="67.4" height="12" id="p_1_">
				<g class="st15">
					<path id="o_1_" class="st1" d="M-37.1-4.9h67.4v12h-67.4V-4.9z"/>
				</g>
			</mask>
			<path class="st16" d="M-37.1,5.5c0,0,0.1,0.2,0.2,0.2l10.6-2c0,0,0.1,0,0.1,0c0.1-0.1,2.5-2.7,3-3.8c0.1-0.1,0.2-0.2,0.4-0.3
				c1.4-0.5,5.2,0,5.9,0.3c0.8,0.4,4.1,0.4,5-0.2c0.2-0.1,0.6-0.4,1.1-0.8c1.5-1.2,4.1-3.2,5.2-3.3c2.1-0.3,9.1-0.4,9.6,0.7
				c0.6,1.3,4.2,4,4.4,4.1c0,0,0,0,0.1,0c0.1,0,2.9,0.5,3.8,0.2c0.7-0.3,5.1-1.9,5.8-2.2L22,2.9l5.2,4.2c0,0,0.1,0,0.1,0
				c0.1,0,1.6-0.3,2.9-1c0.1,0,0,0,0,0C29.1,6.8,27.6,7,27.3,7l-5.2-4.2L18-1.8c0,0-0.1-0.1-0.1,0c-0.2,0.1-5,1.9-5.8,2.2
				c-0.6,0.3-2.8-0.1-3.6-0.2c-0.3-0.2-3.8-2.8-4.3-4c-0.7-1.5-8.9-1-9.9-0.9c-1.2,0.1-3.7,2.2-5.3,3.4C-11.4-1-11.8-0.7-12-0.6
				C-12.9,0-16,0-16.8-0.4c-0.7-0.3-4.7-0.9-6.1-0.3c-0.3,0.1-0.5,0.3-0.6,0.5c-0.4,1.1-2.6,3.4-2.9,3.7L-37,5.3
				C-37.1,5.3-37.1,5.4-37.1,5.5C-37.1,5.5-37.1,5.5-37.1,5.5"/>
		</g>
	</g>
	<g>
		<g transform="translate(140.214 80.454)">
			<defs>
				<filter id="Adobe_OpacityMaskFilter_8_" filterUnits="userSpaceOnUse" x="-37.5" y="-5.2" width="129.4" height="40.8">
					<feColorMatrix  type="matrix" values="1 0 0 0 0  0 1 0 0 0  0 0 1 0 0  0 0 0 1 0"/>
				</filter>
			</defs>
			<mask maskUnits="userSpaceOnUse" x="-37.5" y="-5.2" width="129.4" height="40.8" id="r_1_">
				<g class="st17">
					<path id="q_1_" class="st1" d="M-37.5-5.2H91.9v40.8H-37.5V-5.2z"/>
				</g>
			</mask>
			<path class="st18" d="M82.8-5.2c0.9,0,2.6,1.1,4.6,2.5C88-2.3,88.4-2,88.6-1.9c0.4,0.2,2.1-0.4,3.3-0.9l0,1.1
				c-0.5,0.2-2.9,1.1-3.8,0.6c-0.2-0.1-0.7-0.5-1.3-0.9c-1-0.8-3.4-2.5-4-2.4c-0.4,0.1-1.8,1.6-3,3.6c-0.9,1.4-1.1,2.2-1.1,2.7
				c0.1,0.1,0.3,0.2,0.4,0.5c0.2,0.5,0.2,1.3-0.3,2.2c-0.3,0.5-0.7,0.9-1.2,1c-1.1,0.3-2.5-0.5-3.1-0.9c-0.7,0.4-2.7,1.4-3.9,1.3
				c-0.3,0-0.4,0.1-0.4,0.1C70,6.3,70,6.8,70.1,7c0,0.2-0.1,0.4-0.3,0.4c-0.1,0-0.2,0-0.3-0.1c-0.1-0.1-2.5-1.7-4.7,0.3
				c-2.3,2-3.1,1.8-4.3,1.3C60.4,9,60.3,9,60.1,8.9c-0.2-0.1-0.2,0-0.3,0c-0.2,0.1-0.4,0.7-0.6,1.1c-0.2,0.6-0.4,1.1-0.9,1.1h0
				c-0.2,0-0.5,0.2-0.7,0.4c-0.5,0.3-1.2,0.7-1.7,0.4c-0.3-0.2-0.6-0.8-1-2c-0.5-1.1-1.1-2.7-1.7-3.1c-1.5-0.9-5-2.1-5.6-1.8
				c-0.7,0.6-3.1,1.8-4.1,0.7c-0.2-0.3-0.5-0.6-0.7-0.9c-0.2-0.4-0.3-0.5-0.8-0.7c-0.3-0.1-0.6-0.2-0.9-0.3
				c-0.9-0.2-1.8-0.5-2.1-1.2C39,2.4,38.9,2.2,38.8,2c-0.3-0.8-0.6-1.3-1.6-1.2c-0.8,0.1-1.6-0.1-2.5-0.3c-0.9-0.2-1.8-0.4-2.6-0.3
				c-0.2,0.1-0.5,0.1-0.7,0.2c-1,0.2-2.3,0.5-2.4,0.9c-0.2,0.6-1.1,0.8-1.9,1.1c-0.3,0.1-0.6,0.2-0.8,0.3c0,0.1,0,0.4-0.1,0.7
				c-0.1,1.1-0.2,2.7-0.6,3.6c-0.2,0.4-0.1,0.7-0.1,1c0.1,0.4,0.2,0.9-0.2,1.7c-0.4,0.6-0.5,2.1-0.5,3.3c-0.1,1.1-0.1,1.7-0.3,2
				c-0.1,0.1-0.2,0.2-0.3,0.4c-1.1,1.6-2.2,3.2-2.9,3.6l-0.2,0.1c-0.8,0.5-3.4,1.8-3.7,2.9c-0.3,0.9-1.1,1-1.6,1
				c-0.4,0-0.6,0.1-0.7,0.2c-0.3,0.6-1.4,4.7-2,6.8c0,0.1-0.1,0.2-0.2,0.2c-0.5,0.2-3.1,1.1-4.1,0.7c-2-0.8-2.3-0.5-2.3-0.4
				C6.5,30.7,6,31.2,5.3,32c-1,1.1-2.5,2.7-2.8,3.4c-0.1,0.1-0.2,0.2-0.4,0.2c-0.8-0.1-3.1-0.4-3.8-0.3c-0.5,0.1-2.1-0.8-5.6-2.4
				c-1.4-0.7-3.2-1.6-3.6-1.7c-0.1,0-0.2-0.1-0.3-0.1c-0.3-0.1-0.3-0.4-0.6-1.6c-0.2-0.6-0.5-1.7-0.7-1.9c-0.8-0.4-1.1-2.6-0.9-3.7
				c0.1-0.3-0.2-0.9-0.5-1.4c-0.6-0.8-1.4-1.5-2.1-1.6c-1.3-0.2-7.2-1.8-8.6-2.5c-1-0.5-6.1-1.6-8.1-2.1c-1.3,0.2-2.8,0.8-2.9,1.2
				c-0.4,0.9-1.1,1.5-1.7,1.8c-0.2,0.1-0.2,0.1,0,0c0.5-0.2,1.3-1.2,1.6-1.9c0.3-0.6,2.3-1.1,3-1.3c0,0,0.1,0,0.1,0
				c0.3,0.1,6.9,1.4,8.2,2.1c1.2,0.7,7,2.2,8.4,2.4c1,0.2,1.8,1,2.3,1.7c0.5,0.7,0.7,1.1,0.6,1.7c-0.2,1.1,0.2,3,0.7,3.4
				c0.4,0.2,0.5,0.6,0.9,2c0.1,0.4,0.4,1.2,0.5,1.4c0.4,0.1,1.2,0.4,3.8,1.7c1.9,0.9,5,2.4,5.5,2.4c0.8-0.1,3,0.1,3.8,0.3
				c0.5-0.9,1.7-2.2,2.7-3.4c0.6-0.6,1.2-1.3,1.3-1.5c0.5-0.8,1.9-0.3,3.1,0.1c0.4,0.2,2.1-0.3,3.5-0.7c0.3-1,1.6-6,1.9-6.8
				c0.2-0.6,0.8-0.6,1.3-0.7c0.6,0,0.8-0.1,1-0.5c0.3-1.2,2.3-2.3,4.1-3.3l0.2-0.1c0.7-0.4,2.1-2.5,2.6-3.4c0.1-0.2,0.2-0.4,0.3-0.4
				c0.1-0.2,0.1-1,0.2-1.6c0.1-1.4,0.2-2.9,0.7-3.7c0.3-0.5,0.2-0.7,0.1-1c-0.1-0.4-0.2-0.9,0.1-1.5c0.4-0.8,0.5-2.4,0.5-3.3
				c0-0.5,0.1-0.8,0.1-0.9C25.8,2,26.2,1.9,27,1.7c0.4-0.1,1.3-0.4,1.4-0.6c0.2-0.8,1.4-1,3-1.4c0.2-0.1,0.5-0.1,0.7-0.2
				C33-0.7,34-0.4,35-0.2c0.8,0.2,1.5,0.4,2.2,0.3c1.6-0.1,2,0.9,2.3,1.7c0.1,0.2,0.1,0.3,0.2,0.4c0.2,0.4,1,0.6,1.7,0.8
				c0.3,0.1,0.7,0.2,1,0.3c0.7,0.3,0.9,0.6,1.1,1c0.1,0.2,0.3,0.5,0.6,0.8c0.5,0.6,2.3-0.2,3.1-0.8c1-0.8,5.8,1.5,6.4,1.8
				c0.9,0.5,1.5,2.1,2.1,3.4c0.3,0.6,0.6,1.5,0.8,1.6c0.2,0.1,0.6-0.2,0.9-0.4c0.4-0.2,0.7-0.5,1.1-0.5h0c0,0,0.1-0.4,0.2-0.6
				c0.2-0.6,0.4-1.2,1-1.5c0.3-0.1,0.6-0.1,0.9,0c0.1,0.1,0.3,0.1,0.4,0.2c1,0.4,1.5,0.6,3.5-1.2c1.9-1.7,4-1.2,5-0.7
				c0-0.3,0.1-0.7,0.3-0.9c0.2-0.2,0.5-0.4,1.1-0.3c1,0.1,3-1,3.6-1.4c0.1-0.1,0.3-0.1,0.4,0c0.4,0.3,1.8,1.1,2.7,0.9
				c0.3-0.1,0.5-0.3,0.7-0.6c0.5-0.9,0.4-1.3,0.3-1.4c0-0.1-0.1-0.1-0.2-0.2c-0.1,0-0.2-0.1-0.3-0.3c-0.2-0.8,0.5-2.5,1.2-3.6
				c0.9-1.5,2.7-3.8,3.5-3.9C82.7-5.2,82.8-5.2,82.8-5.2"/>
		</g>
		<path class="st1" d="M207,87.2C207.1,87.2,207.1,87.2,207,87.2c0.1,0.1,0.1,0.1,0.1,0.1c-0.1,0.1-1.8,2.3-2.5,2.7
			c-0.6,0.4-1.6,1.7-1.6,1.7c0,0,0,0-0.1,0c-1-0.1-2.6-0.1-2.9,0.1c-0.2,0.2-0.6,0.3-1,0.5c-0.5,0.2-1.2,0.5-1.4,0.8
			c-0.2,0.2-0.6,0.4-1.2,0.6c-0.7,0.3-1.6,0.7-1.8,1.1c-0.3,0.7-0.5,1.5-0.5,1.5c0,0,0,0-0.1,0.1c0,0-3.1,0.9-3.5,1.8
			c-0.4,0.9-1.2,3.5-1.2,3.5c0,0,0,0,0,0c0,0,0,0-0.1,0c0,0-4.9-1.6-5.8-1.3c-0.1,0-0.2,0.1-0.4,0.1c-0.9,0.3-2,0.8-4.1-0.8
			c-1.3-1-1.9-2-2.4-2.7c-0.3-0.5-0.6-0.9-0.9-1c-0.9-0.3-3.1-0.8-4.6,0.7c0,0,0,0,0,0l-2.6,0.8l2.5-0.8c1.6-1.6,3.8-1,4.7-0.7
			c0.4,0.1,0.6,0.5,1,1.1c0.4,0.7,1,1.6,2.3,2.6c2,1.5,3.1,1.1,4,0.8c0.1,0,0.2-0.1,0.4-0.1c0.9-0.3,5.2,1,5.8,1.2
			c0.1-0.4,0.8-2.7,1.2-3.5c0.4-0.9,3.2-1.7,3.6-1.8c0-0.2,0.2-0.9,0.5-1.5c0.2-0.5,1.1-0.8,1.8-1.2c0.5-0.2,0.9-0.4,1.1-0.6
			c0.3-0.3,0.9-0.6,1.5-0.8c0.4-0.2,0.8-0.4,1-0.5c0.3-0.3,2.5-0.2,2.9-0.2c0.2-0.2,1-1.4,1.7-1.8c0.6-0.4,2.2-2.4,2.2-2.5
			C206.7,87.3,207,87.2,207,87.2 M184.4,67.6c0,0,3.7,1.9,4,2.1c0.1,0.1,1.4,0.4,2.7,0.7c1.9,0.5,4.1,1,4.4,1.2
			c0.4,0.3,0.4,1.7,0.3,3.3c0,0.3,0,0.6,0,0.9c0,0.2,0.5,0.9,3.5,4.2l0,0c0.5,0.6,5.5,1.6,8,2.2c0,0,0,0,0,0c0,0,1.4,1.5,2.3,1.8
			c0.9,0.3,5.1,0.1,5.1,0.2c0,0,0.1,0.4,0.1,0.4c0,0,0,0.1-0.1,0.1c-0.2,0-4.5,0.1-5.4-0.3c-0.9-0.3-2.1-1.7-2.3-1.9
			c-0.6-0.1-7.4-1.5-8.1-2.3l0,0c-2.3-2.6-3.5-4-3.5-4.4c0-0.2,0-0.5,0-0.9c0.1-1,0.2-2.9-0.2-3.2c-0.3-0.2-2.6-0.8-4.3-1.2
			c-1.5-0.4-2.5-0.6-2.7-0.7C188,69.7,184.4,67.7,184.4,67.6 M142.1,25.5c5.2,4,6,4.5,6,4.5c0,0,0,0,0,0l3,4.7l3.7-2.5c0,0,0,0,0,0
			c0,0,3.5,0.4,5,3.2c3.1,5.8,4.7,5.9,5.1,5.8c0.4-0.1,0.6-0.6,0.6-1.3c0-0.7,1.1-1.7,2.2-2.4c1.4-0.9,3.4-1.7,4.5-1
			c0.8,0.5,0.4,2.3-0.1,4.3c-0.6,2.4-1.2,5-0.2,6.2c1.1,1.2,2.6,0.8,4.2,0.4c1.7-0.4,3.5-0.9,4.5,1.1c0.4,0.9,1.4,1.2,1.9,1.4
			c0.7,0.2,1.3,0.1,1.4,0c0.3-0.2,3.6,1.3,4.6,1.7c0,0,0,0,0,0c0,0.1,3,6.4,4.7,6.7c1.4,0.3,4.6,1.2,4.6,4.3c0,2.3,0.5,2.7,2.1,4
			c0.3,0.2,0.6,0.5,0.9,0.8c0.6,0.5,1,0.7,1.5,0.6c0.7-0.1,1.1-0.8,1.4-1.3c0.2-0.3,0.3-0.5,0.5-0.6c0.5-0.4,3.8-1.1,3.9-1.1
			c0,0,0,0.2,0.1,0.2c0,0,0,0.1-0.1,0.1c0,0-3.2,0.6-3.8,1c-0.1,0.1-0.2,0.3-0.4,0.5c-0.4,0.6-0.8,1.3-1.6,1.4
			c-0.5,0.1-1.1-0.2-1.7-0.7c-0.3-0.3-0.6-0.5-0.9-0.8c-1.5-1.3-2.1-1.8-2.1-4.2c0-2.9-3.1-3.8-4.5-4.1c-1.8-0.3-4.6-6.3-4.8-6.8
			c-2-0.9-4.2-1.9-4.4-1.7c-0.2,0.1-0.8,0.2-1.5,0c-0.6-0.1-1.5-0.5-2-1.4c-0.9-1.9-2.6-1.5-4.3-1c-1.6,0.4-3.2,0.8-4.3-0.4
			c-1.1-1.3-0.5-4,0.1-6.4c0.5-1.9,0.9-3.7,0.2-4.2c-1.1-0.6-3,0.1-4.4,1c-1.2,0.8-2.1,1.7-2.1,2.2c0,0.7-0.3,1.3-0.7,1.4
			c-0.6,0.2-2.2-0.1-5.2-5.8c-1.4-2.6-4.6-3.1-4.9-3.2l-3.7,2.5c0,0-0.1,0-0.1,0l-3-4.7C148,30.1,147,29.3,142.1,25.5
			C142.1,25.5,142.1,25.5,142.1,25.5 M67.7,23.8C67.7,23.8,67.7,23.8,67.7,23.8l5.3,3.7c0,0,0,0,0,0l1.7,4l5.8,6.7
			c0.7-0.4,7.9-3.8,9.1-3.4c1.1,0.3,4,4.1,4.4,4.5l6.5,0.1c0,0,0,0,0,0l7.2,4.3l6.4,0.6l-6.5-0.6c0,0,0,0,0,0l-7.2-4.2L94,39.5
			c0,0,0,0-0.1,0c0,0-3.2-4.2-4.3-4.5c-1.2-0.3-9,3.5-9.1,3.5c0,0-0.1,0-0.1,0l-5.9-6.7c0,0,0,0,0,0l-1.8-4L67.4,24
			C67.4,24,67.6,23.9,67.7,23.8C67.6,23.8,67.6,23.8,67.7,23.8"/>
		<g transform="translate(37.75 10.274)">
			<defs>
				<filter id="Adobe_OpacityMaskFilter_9_" filterUnits="userSpaceOnUse" x="-37.8" y="-5" width="130.9" height="26.2">
					<feColorMatrix  type="matrix" values="1 0 0 0 0  0 1 0 0 0  0 0 1 0 0  0 0 0 1 0"/>
				</filter>
			</defs>
			<mask maskUnits="userSpaceOnUse" x="-37.8" y="-5" width="130.9" height="26.2" id="t_1_">
				<g class="st19">
					<path id="s_1_" class="st1" d="M-37.8-5H93.2v26.2H-37.8V-5z"/>
				</g>
			</mask>
			<path class="st20" d="M30.3,13.4L30.3,13.4L30.3,13.4z M-9.9-5c0.2,0,0.4,0.1,1.1,0.4c1,0.4,2.1,1.5,2.9,2.5
				c0.6,0.8,1.4,1.7,1.7,1.7c0,0,0.1,0,0.1-0.1c1-1.1,2.9-3,2.9-3.1C-1-3.6-0.9-3.7-0.8-3.7c0.2,0,4.2,0.8,5.5,1.6
				c1.3,0.8,3.8,5,4.1,6.2C8.9,5,10,6,10.4,6.4L14,5.1c0.3-0.4,1.4-1.7,3-1.8C18.3,3.2,19.7,4,21,5.5c3.5,3.9,5.8,6.4,6.2,6.9
				l2.5,0.8c0.2-0.3,0.7-0.7,2.4-1.3c2.8-1,6.7-1.7,6.7-1.7c0.1,0,0.1,0,0.2,0c1.1,0.5,3-0.5,3.6-0.9c0.1-0.1,0.2-0.1,0.3,0l5.7,1.8
				c0.8-0.1,5.2-0.4,6.3,1.1c0.4,0.6,0.5,2.3,0.5,3.2l5.4-4.2c0.1,0,0.1-0.1,0.2-0.1l3-0.1l0,0c0.1,0,0.3,0.1,0.3,0.2
				c0.1,0.3,2.7,6.9,3.2,8.3c0.3,0.9,1.8,1.4,2.4,1.6l4.5-2c0.5-0.5,4.1-4.5,5.8-5.5c1.7-1,3.7-4,3.8-4c0.1-0.1,0.2-0.2,0.4-0.1
				l8.9,3l-9-2.8c-0.5,0.7-2.3,3.2-3.9,4.1c-1.8,1-5.7,5.5-5.7,5.5c0,0-0.1,0.1-0.1,0.1l-4.5,2c-0.1,0-0.1,0-0.2,0
				c-0.1,0-2.2-0.3-2.7-1.8c-0.4-1.2-2.6-7-3.1-8.2L61,11.4l-5.6,4.4c-0.1,0.1-0.2,0.1-0.3,0c-0.1-0.1-0.2-0.2-0.2-0.3
				c0.1-1,0-2.7-0.4-3.2c-0.9-1.2-4.5-1.1-5.9-0.9c0,0-0.1,0-0.1,0l-5.6-1.7c-0.5,0.3-2.6,1.5-4,1c-0.6,0.1-4,0.8-6.5,1.7
				c-1.6,0.6-1.9,1-2,1.1C30.3,13.6,30.2,14,30,14L26.9,13c-0.1,0-0.1,0-0.1-0.1c0,0-2.5-2.6-6.3-6.9c-1.2-1.3-2.3-2-3.4-1.9
				c-1.5,0.1-2.4,1.6-2.5,1.6c0,0.1-0.1,0.1-0.2,0.1l-4,1.4c-0.1,0-0.3,0-0.3-0.1C9.9,7.1,8.4,5.4,8.1,4.3c-0.3-1-2.7-5.1-3.8-5.8
				C3.3-2.2,0-2.9-0.8-3c-0.4,0.5-2,2.1-2.8,3c-0.2,0.2-0.4,0.3-0.6,0.3c-0.7,0-1.4-0.9-2.3-1.9c-0.8-1-1.7-2-2.6-2.3L-9.2-4
				c0.1,0.3,0,0.6-0.3,1c-0.4,0.6-0.8,0.9-1.2,1c-0.1,0-0.3,0-0.4,0l-3.3,0.6l-3.3,6.8c0,0,0,0.1-0.1,0.1l-2.4,2c0,0,0,0-0.1,0
				c-0.1,0.1-3.3,1.5-5,1c-2.2-0.7-4.5-0.7-4.6-0.7l-4.8,0.6c0,0-0.1,0-0.1,0l-2.8-0.5c-0.2,0-0.3-0.2-0.3-0.3c0,0,0,0,0,0
				c0-0.2,0.2-0.6,0.3-0.6l2.8,0.6l4.8-0.6c0.1,0,2.5,0.1,4.8,0.8c1.2,0.3,3.5-0.5,4.4-0.9l2.3-1.9L-15-2c0-0.1,0.1-0.2,0.2-0.2
				l3.7-0.7c0.1,0,0.2,0,0.2,0.1c0.1,0,0.3,0,0.7-0.7c0.3-0.4,0.2-0.6,0-0.9c-0.1-0.1-0.2-0.3,0-0.5C-10.1-4.9-10-5-9.9-5z"/>
		</g>
		<path class="st1" d="M8.7,16.5c0,0,0.3-0.1,0.3-0.1l7.4,10.3c0,0,0,0.1,0,0.1c0,0.2,0,4.3-0.6,5.7c-0.1,0.1,0,0.3,0.1,0.6
			c0.7,1.6,4.4,4.2,5.2,4.5c1,0.3,3.9,3,4.1,4.2c0.1,0.3,0.1,0.8,0.3,1.6c0.3,2.2,0.9,6,1.7,7c1.6,1.9,7.4,7.7,8.7,7.1
			c1.5-0.6,6.8,0.1,7,0.1c0,0,0,0,0.1,0c0.1,0.1,2.9,1.9,3.3,2.9c0.4,0.9,2.8,5.8,3.1,6.5l7.1-0.5l7.8,0.6c0,0,0.1,0,0.1,0.1
			c0.1,0.1,1.2,1.5,1.6,3.3c0,0.1,0,0,0,0c-0.4-1.5-1.6-2.9-1.8-3.1l-7.8-0.6l-7.2,0.5c-0.1,0-0.1,0-0.1-0.1
			c-0.1-0.2-2.7-5.6-3.1-6.6c-0.3-0.7-2.4-2.2-3.2-2.8c-0.5-0.1-5.4-0.7-6.8-0.1c-1.8,0.7-8.4-6.4-9-7.3c-0.9-1.1-1.4-4.8-1.7-7.1
			c-0.1-0.7-0.2-1.2-0.3-1.5c-0.3-1.2-2.9-3.7-3.9-4c-0.9-0.3-4.7-3-5.5-4.7c-0.2-0.3-0.2-0.6-0.1-0.8c0.5-1.2,0.5-5,0.5-5.5
			L8.6,16.7c-0.1-0.1,0-0.2,0-0.2C8.6,16.5,8.7,16.5,8.7,16.5"/>
		<path class="st1" d="M51.6,51.3C51.7,51.3,51.7,51.3,51.6,51.3c0.2,0,0.2,0.1,0.2,0.2c0.2,0.5,1.5,1.7,2.7,2.7
			c1,0.8,1.8,1.5,1.9,1.8c0,0,0,0,0,0c-0.2-0.3-1.1-1-2-1.7c-1.2-1-2.5-2.1-2.7-2.7c0,0-0.1-0.1-0.1-0.1
			C51.7,51.4,51.6,51.4,51.6,51.3c-0.9-0.1-4.3,2-5.5,2.9l-2.7,1.5c0,0,0,0-0.1,0l-6.5-1.2l-5.1,0.6c0,0-0.1,0-0.1-0.1
			c0,0-0.2-0.1-0.1-0.1l5.3-0.6c0,0,0,0,0,0l6.5,1.3l2.9-1.7C46.5,53.7,50.5,51.1,51.6,51.3 M2.7,16.6l1.8,0.7c0.1,0,0.2,0,0.3,0
			c0.5-0.2,1.6,0.1,2.5,0.3c1.2,0.3,2.1,0.5,2.4,0c0-0.1,0.2-0.1,0.4-0.1c1.8-0.1,6.6,2.6,7,3.1c0.5,0.7,1.5,1.3,4.5,1.7
			c1.2,0.2,2.1,0.1,2.8,0c1.1-0.2,1.5-0.2,2,0.9c1.1,2.1,2,3.3,2,3.4c0.1,0.1,0.2,0.1,0.3,0.2l5.7,1c0.1,0,1.7,0,2.5,2.9
			c0.3,1.3,0.7,2.4,0.9,3.4c0.4,1.6,0.8,2.8,0.9,3.2c0,0.1,0,0.3-0.1,0.5c-0.1,0.7-0.3,1.8,0.4,2.6c0.7,0.8,2,1.1,4,1
			c4.7-0.2,5.8-1.3,6.5-2c0.1-0.1,0.2-0.2,0.4-0.3c0.5-0.3,1-0.3,1.7-0.3c0.3,0,0.7,0,1,0c0.5,0,1.1-0.2,1.7-0.4
			c0.8-0.3,1.7-0.6,2.4-0.5c0.7,0.1,1.6-0.5,2.4-1.1c0.7-0.6,1.6-1.2,2.4-1.3c0.7-0.1,1.2-0.4,1.7-0.8c0.5-0.3,0.9-0.6,1.3-0.5
			c0.5,0.1,1,0.6,1.6,1.6c0.7,1.2,1.1,2,1.4,2.5c0.7,1.3,0.8,1.6,2.5,2.1l2.1,0.6l2.6,5.8c0.3,0.9,1.3,2.6,3.5,2.7l1.4,0
			c2.1,0.1,4.2,0.1,5.4,0.1c1.3-0.1,4.4-0.7,5.4-0.9l2.8,5c0.1,0.1,0.2,0.2,0.3,0.2l4.9,0.2l3,2.9l4.5,1.9c0,0,0.2,0,0.3,0l4.4,0.8
			c0,0,0.1-0.1,0.1-0.1c4-1.3,7.2-3.8,8.7-4.3c1.6-0.6,2.9,0.1,3.8,0.7l0.2,0.2c1,0.7,0.6,0.1,2.2,0.3c0.3,0,0.7,0.1,1,0.1
			c1.1,0.1,2.6,0.3,2.9,0.6c0.5,0.5,4.1,1.7,5.6,2.1c0.1,0,0.2,0,0.3,0l3.4-1.5c0.1,0,0.1-0.1,0.2-0.2c0.4-0.8,1.9-2.9,3-2.7
			c0.8,0.1,1.5-0.3,2.2-0.8c1.1-0.7,2.4-1.6,4.4-0.8c2.2,0.9,4.7,1,7.3,0.3l0.1,0c0.2,0,0.5-0.2,1-0.4c0.5-0.3,1.8-0.9,2.1-0.8
			c0.4,0.2,1.1,3,1.3,4.7c0.1,1.7,3.5,4.8,5.5,5c1.7,0.2,3-1.6,3.5-5c0.1-0.4,0.2-0.6,0.4-0.7c0.7-0.3,1.9,0.3,2.3,0.5
			c0.1,0.1,0.2,0.1,0.3,0l1.9-0.8c0.7-0.3,1.2-0.3,1.5-0.2c0.3,0.2,0.5,0.6,0.7,1.1c0.1,0.2,0.3,0.4,0.5,0.4c1.4,0.2,6.9-5.8,7-6
			c0.3-0.2,2.2,0.1,3.8,0.5c0.1,0,0.3,0,0.4-0.1c1.3-1.2,3-2.6,3.4-2.7c0.2,0,1.7,0.7,3,1.2c2.8,1.2,4.8,2,5.3,2v0
			c1,0,2.2-2.5,2.9-4.1c0.7-0.2,1.5-0.4,1.8-0.4h0c0.1,0.3,0.3,0.5,0.6,0.8c0.5,0.5,1.2,1,1,2.3c-0.3,2.2,1.2,3.1,2.3,3.8
			c0.2,0.1,0.3,0.2,0.5,0.3c0.4,0.2,0.2,1,0,1.9c-0.2,1-0.6,2.3-0.1,3.2c0.4,0.7,0.1,2.2-0.1,3.5c-0.2,1.3-0.4,2.7-0.1,3.5
			c0.4,1.1,2,2,3.7,3c1.1,0.6,2.2,1.3,2.7,1.8c1.5,1.6,4.1,0.5,5.1,0l0.1-0.1c0.7-0.3,3-0.7,4.7,0.1l0.3,0.1
			c1.6,0.8,2.7,1.3,3.9,1.1c0.3-0.1,0.5,0.5,0.7,1.4c0.2,0.8,0.5,1.7,1,2.2c0.8,0.8,2.3-0.1,3.5-1c0.3-0.3,0.6-0.5,0.9-0.6
			c-0.1,1.5,0.9,3.1,1.1,3.6l0.1-2.6c-0.2-0.6-0.3-0.9-0.2-1.5c0.1-0.6-0.1-0.9-0.3-1c-0.5-0.3-1.1,0.4-2.1,1.1
			c-0.7,0.5-2,1.5-2.3,1.2c-0.4-0.4-0.6-1.1-0.8-1.8c-0.3-1-0.6-2.1-1.6-1.9c-1,0.2-2.1-0.3-3.6-1l-0.3-0.1
			c-1.8-0.8-4.5-0.5-5.3-0.1l-0.1,0.1c-0.8,0.4-3,1.4-4.1,0.2c-0.6-0.7-1.8-1.3-3-2c-1.4-0.8-3.1-1.7-3.3-2.5c-0.2-0.6,0-1.8,0.2-3
			c0.3-1.6,0.5-3.2,0-4.1c-0.3-0.6-0.1-1.7,0.1-2.5c0.3-1.1,0.5-2.2-0.3-2.7c-0.2-0.1-0.3-0.2-0.5-0.3c-1.1-0.7-2.1-1.3-1.9-3
			c0.2-1.7-0.7-2.6-1.3-3.1c-0.1-0.1-0.2-0.2-0.3-0.3c0-0.2-0.1-0.4-0.2-0.5c-0.1-0.1-0.3-0.2-0.6-0.2c-0.5,0-1.2,0.1-2.2,0.5
			c-0.1,0-0.2,0.1-0.2,0.2c-0.8,1.9-1.8,3.7-2.2,3.8c-0.5,0-3.2-1.2-5-2c-2.1-0.9-3-1.2-3.2-1.3c-0.7-0.1-2.4,1.4-3.8,2.7
			c-3.9-0.9-4.2-0.3-4.3-0.2c-0.5,0.7-5.1,5.3-6.2,5.7c-0.2-0.6-0.5-1.1-1.1-1.4c-0.5-0.2-1.2-0.2-2.1,0.2l-1.7,0.7
			c-0.5-0.3-1.9-0.9-2.9-0.4c-0.3,0.2-0.8,0.5-0.9,1.3c-0.2,1.1-0.8,4.5-2.7,4.3c-1.7-0.2-4.7-3-4.8-4.2c0-0.6-0.6-5-1.8-5.4
			c-0.6-0.2-1.5,0.2-2.7,0.8c-0.3,0.2-0.7,0.3-0.8,0.4l-0.2,0c-2.5,0.7-4.7,0.6-6.8-0.3c-2.3-1-3.8,0.1-5,0.9
			c-0.6,0.4-1.3,0.8-1.8,0.7c-1.8-0.3-3.3,2.4-3.7,3l-3.2,1.4c-2.3-0.7-4.9-1.6-5.2-1.9c-0.4-0.5-1.4-0.7-3.2-0.9
			c-0.3,0-0.7,0-1-0.1c-1.4-0.2-1.2,0.4-1.9-0.1l-0.2-0.2c-0.9-0.7-2.6-1.5-4.5-0.8c-1.8,0.7-4.4,3-8.7,4.5L106,58l-4.3-1.8
			l-3.1-2.8c-0.1-0.1-0.1-0.1-0.2-0.1L93.7,53L90.8,48c-0.1-0.1-0.3-0.2-0.4-0.2c0,0-4,0.8-5.5,0.9c-1.2,0.1-3.2,0-5.3-0.1l-1.4,0
			c-2.2-0.1-2.8-2-2.9-2.2l-2.7-6.1c0-0.1-0.1-0.2-0.3-0.2l-2.3-0.7c-1.4-0.4-1.4-0.5-2-1.7c-0.3-0.6-0.7-1.4-1.4-2.6
			c-0.7-1.2-1.4-1.8-2.1-2c-0.7-0.2-1.4,0.3-1.9,0.7c-0.4,0.3-0.8,0.6-1.3,0.6c-1,0.1-1.9,0.8-2.8,1.4c-0.7,0.5-1.4,1-1.8,1
			c-0.8-0.2-1.8,0.2-2.8,0.5c-0.6,0.2-1.1,0.4-1.5,0.4c-0.3,0-0.6,0-0.9,0c-0.7,0-1.5,0-2.1,0.4c-0.2,0.1-0.3,0.3-0.5,0.4
			c-0.6,0.6-1.6,1.5-6,1.8c-1.7,0.1-2.8-0.2-3.3-0.7c-0.5-0.5-0.3-1.4-0.2-2c0.1-0.3,0.1-0.6,0.1-0.8c-0.1-0.4-0.4-1.6-0.9-3.2
			c-0.3-1-0.5-2.2-0.9-3.5c-1-3.6-3.1-3.5-3.1-3.5l-5.4-1c-0.2-0.4-1-1.4-1.9-3.1c-0.8-1.6-1.8-1.4-2.9-1.3
			c-0.7,0.1-1.5,0.2-2.5,0.1c-3-0.5-3.7-1-4-1.5c-0.4-0.6-5.5-3.4-7.7-3.4c-0.5,0-0.9,0.2-1.1,0.4c-0.2,0.1-1-0.1-1.6-0.3
			c-1.1-0.3-2.1-0.7-2.9-0.4l-1.5-0.7c0,0-0.1,0-0.1,0c-0.2,0-0.4,0.4-0.5,0.6C2.4,16.3,2.5,16.5,2.7,16.6"/>
		<g transform="translate(80.893 4.876)">
			<defs>
				<filter id="Adobe_OpacityMaskFilter_10_" filterUnits="userSpaceOnUse" x="-37.1" y="-4.9" width="67.4" height="12">
					<feColorMatrix  type="matrix" values="1 0 0 0 0  0 1 0 0 0  0 0 1 0 0  0 0 0 1 0"/>
				</filter>
			</defs>
			<mask maskUnits="userSpaceOnUse" x="-37.1" y="-4.9" width="67.4" height="12" id="v_1_">
				<g class="st21">
					<path id="u_1_" class="st1" d="M-37.1-4.9h67.4v12h-67.4V-4.9z"/>
				</g>
			</mask>
			<path class="st22" d="M-37.1,5.5c0,0,0.1,0.2,0.2,0.2l10.6-2c0,0,0.1,0,0.1,0c0.1-0.1,2.5-2.7,3-3.8c0.1-0.1,0.2-0.2,0.4-0.3
				c1.4-0.5,5.2,0,5.9,0.3c0.8,0.4,4.1,0.4,5-0.2c0.2-0.1,0.6-0.4,1.1-0.8c1.5-1.2,4.1-3.2,5.2-3.3c2.1-0.3,9.1-0.4,9.6,0.7
				c0.6,1.3,4.2,4,4.4,4.1c0,0,0,0,0.1,0c0.1,0,2.9,0.5,3.8,0.2c0.7-0.3,5.1-1.9,5.8-2.2L22,2.9l5.2,4.2c0,0,0.1,0,0.1,0
				c0.1,0,1.6-0.3,2.9-1c0.1,0,0,0,0,0C29.1,6.8,27.6,7,27.3,7l-5.2-4.2L18-1.8c0,0-0.1-0.1-0.1,0c-0.2,0.1-5,1.9-5.8,2.2
				c-0.6,0.3-2.8-0.1-3.6-0.2c-0.3-0.2-3.8-2.8-4.3-4c-0.7-1.5-8.9-1-9.9-0.9c-1.2,0.1-3.7,2.2-5.3,3.4C-11.4-1-11.8-0.7-12-0.6
				C-12.9,0-16,0-16.8-0.4c-0.7-0.3-4.7-0.9-6.1-0.3c-0.3,0.1-0.5,0.3-0.6,0.5c-0.4,1.1-2.6,3.4-2.9,3.7L-37,5.3
				C-37.1,5.3-37.1,5.4-37.1,5.5C-37.1,5.5-37.1,5.5-37.1,5.5"/>
		</g>
	</g>
</g>
</svg>
