<?xml version="1.0" encoding="UTF-8" standalone="no"?>
<svg
   xmlns:dc="http://purl.org/dc/elements/1.1/"
   xmlns:cc="http://creativecommons.org/ns#"
   xmlns:rdf="http://www.w3.org/1999/02/22-rdf-syntax-ns#"
   xmlns:svg="http://www.w3.org/2000/svg"
   xmlns="http://www.w3.org/2000/svg"
   xmlns:sodipodi="http://sodipodi.sourceforge.net/DTD/sodipodi-0.dtd"
   xmlns:inkscape="http://www.inkscape.org/namespaces/inkscape"
   width="1440"
   height="507"
   viewBox="0 0 1440 507"
   id="svg2"
   version="1.1"
   inkscape:version="0.91 r13725"
   sodipodi:docname="intro-bg_back.svg">
  <metadata
     id="metadata20">
    <rdf:RDF>
      <cc:Work
         rdf:about="">
        <dc:format>image/svg+xml</dc:format>
        <dc:type
           rdf:resource="http://purl.org/dc/dcmitype/StillImage" />
      </cc:Work>
    </rdf:RDF>
  </metadata>
  <defs
     id="defs18" />
  <sodipodi:namedview
     pagecolor="#ffffff"
     bordercolor="#666666"
     borderopacity="1"
     objecttolerance="10"
     gridtolerance="10"
     guidetolerance="10"
     inkscape:pageopacity="0"
     inkscape:pageshadow="2"
     inkscape:window-width="855"
     inkscape:window-height="614"
     id="namedview16"
     showgrid="false"
     inkscape:zoom="0.22916667"
     inkscape:cx="489.98222"
     inkscape:cy="78.954545"
     inkscape:window-x="0"
     inkscape:window-y="0"
     inkscape:window-maximized="0"
     inkscape:current-layer="svg2" />
  <style
     id="style3806"
     type="text/css">
	.st0{fill:#FFFFFF;}
	.st1{fill:#230CEA;}
	.st2{opacity:0.1;fill:#FFFFFF;enable-background:new    ;}
	.st3{fill:none;stroke:#7898FF;stroke-width:0.5;stroke-linecap:round;stroke-linejoin:round;}
	.st4{fill:#2700C3;}
	.st5{fill:#FFFFFF;stroke:#2700C3;stroke-width:0.4;}
	.st6{fill:none;stroke:#2700C3;stroke-width:0.5;stroke-linecap:round;stroke-linejoin:round;}
	.st7{fill:none;stroke:#2700C3;stroke-width:0.5315;stroke-linecap:round;stroke-linejoin:round;}
	.st8{fill:none;stroke:#2700C3;stroke-width:0.5176;stroke-linecap:round;stroke-linejoin:round;}
	.st9{fill:none;stroke:#2700C3;stroke-width:0.5403;stroke-linecap:round;stroke-linejoin:round;}
	.st10{fill:none;stroke:#2700C3;stroke-width:0.6282;stroke-linecap:round;stroke-linejoin:round;}
	.st11{fill:none;stroke:#2700C3;stroke-width:1.2564;stroke-linecap:round;stroke-linejoin:round;}
	.st12{fill:none;stroke:#2700C3;stroke-width:0.7846;stroke-linecap:round;stroke-linejoin:round;}
</style>
  <path
     id="Stroke-159"
     class="st6"
     d="m 811.23083,714.98529 c 0,0 5.9,-0.6 8.2,0"
     inkscape:connector-curvature="0"
     style="fill:none;stroke:#2700c3;stroke-width:0.5;stroke-linecap:round;stroke-linejoin:round" />
  <path
     id="Stroke-233"
     class="st6"
     d="m 819.43083,713.48529 c 0,0 -4.5,-1.1 -9.2,0"
     inkscape:connector-curvature="0"
     style="fill:none;stroke:#2700c3;stroke-width:0.5;stroke-linecap:round;stroke-linejoin:round" />
  <path
     id="Stroke-261"
     class="st6"
     d="m 824.73083,714.98529 c 0,0 -2.1,-1.4 -6.7,-1.7"
     inkscape:connector-curvature="0"
     style="fill:none;stroke:#2700c3;stroke-width:0.5;stroke-linecap:round;stroke-linejoin:round" />
  <path
     id="Stroke-323"
     class="st6"
     d="m 806.93083,682.78529 c 0,0 -1.1,-1.5 -2.7,0.7 -1.7,2.2 1.6,3 2.2,1.2"
     inkscape:connector-curvature="0"
     style="fill:none;stroke:#2700c3;stroke-width:0.5;stroke-linecap:round;stroke-linejoin:round" />
  <path
     style="fill:#434343;fill-opacity:1"
     d="m 748.8797,534.90918 c -0.45433,-1.18399 -2.49459,-2.04653 -4.84074,-2.04653 -2.23044,0 -4.5081,-0.73266 -5.06149,-1.62795 -0.55337,-0.89543 -1.1275,-6.4474 -1.27608,-12.33788 -0.14843,-5.89034 -0.49935,-10.93668 -0.77972,-11.21405 -0.28052,-0.27738 -7.95011,-0.71152 -17.04355,-0.96473 l -16.53368,-0.46034 -3.11373,7.84505 c -1.71268,4.31478 -3.65061,7.84505 -4.30659,7.84505 -0.65612,0 -1.79577,-1.6884 -2.53279,-3.75198 -0.73689,-2.06359 -2.25665,-5.38158 -3.37706,-7.3734 -1.12041,-1.99182 -2.03726,-5.15003 -2.03726,-7.01838 0,-3.29178 -0.33385,-3.41226 -10.77582,-3.88637 -7.69156,-0.34927 -11.5078,-1.15192 -13.33358,-2.80417 -1.76247,-1.59506 -3.18454,-1.91855 -4.57319,-1.04031 -1.1084,0.70087 -6.66652,1.28386 -12.35138,1.29532 -9.27503,0.0191 -10.66477,-0.32922 -13.54028,-3.39002 -2.12458,-2.26156 -4.67702,-3.4109 -7.57464,-3.4109 -2.40372,0 -5.07963,-0.85462 -5.94654,-1.89918 -2.00888,-2.42064 -6.70759,-3.68034 -7.70548,-2.06576 -0.42022,0.67985 -1.64869,1.23624 -2.73008,1.23624 -1.08125,0 -3.19398,1.22792 -4.69478,2.7287 -2.31518,2.31532 -4.5478,2.72872 -14.73505,2.72872 -7.44461,0 -12.62152,-0.61519 -13.62541,-1.61922 -1.24934,-1.2492 -2.33933,-0.94263 -4.77184,1.34267 -2.71779,2.55326 -5.34814,3.08699 -19.07289,3.87095 -11.23806,0.6418 -16.47841,0.44615 -17.81767,-0.6654 -1.10772,-0.91917 -3.68076,-1.21795 -6.18231,-0.71752 -2.60878,0.52174 -5.08073,0.19661 -6.31887,-0.83089 -1.62946,-1.35248 -2.1415,-1.31837 -2.57578,0.17123 -0.29811,1.02245 -1.6394,5.72566 -2.98057,10.45152 -4.04259,14.24443 -5.90384,13.18364 -9.51816,-5.42441 -1.29177,-6.65015 -2.84073,-12.39531 -3.44241,-12.7671 -0.60154,-0.37179 -1.86657,1.46108 -2.81111,4.07301 -2.63322,7.28226 -6.88196,7.31758 -8.24427,0.0682 -0.48844,-2.59828 -1.60953,-2.73063 -23.46679,-2.7687 l -22.95394,-0.0396 -2.63061,5.15632 c -3.17772,6.22882 -6.42885,6.69353 -7.55171,1.0792 -0.68368,-3.41813 -1.31566,-3.95145 -3.91011,-3.30025 -1.70217,0.42719 -3.5049,0.11324 -4.0063,-0.69827 -0.56648,-0.91672 -6.76858,-1.47486 -16.38769,-1.47486 l -15.47603,0 -1.42684,4.09306 c -1.71064,4.90705 -5.2551,5.34064 -6.96191,0.85136 -1.8296,-4.81209 -9.09303,-5.56535 -12.77979,-1.3252 -3.42727,3.94162 -5.82703,4.06674 -7.78624,0.4059 -1.40065,-2.61726 -2.54125,-2.77033 -17.78644,-2.38763 l -16.28974,0.40903 -0.83347,4.77525 c -0.45843,2.62638 -1.74625,6.22761 -2.86175,8.00264 -2.53197,4.02921 -4.34765,2.41109 -7.77259,-6.9267 -2.11858,-5.77615 -2.72872,-6.37073 -6.01682,-5.86292 -2.0127,0.31094 -23.92004,0.91999 -48.6831,1.35372 -24.76304,0.43359 -83.08928,1.66983 -129.61383,2.74699 -46.524553,1.0773 -102.416643,2.35229 -124.204873,2.83363 l -39.61463,0.87496 -1.31606,-5.94532 c -1.17062,-5.28879 -1.69248,-5.89292 -4.72681,-5.4712 -4.44522,0.61805 -6.82179,2.64998 -6.82179,5.83248 0,2.00248 -1.01016,2.56172 -4.62735,2.56172 -3.73424,0 -4.78438,-0.62597 -5.44133,-3.24348 -0.44778,-1.7839 -2.32117,-4.231 -4.16306,-5.43791 -2.89148,-1.89456 -3.61349,-1.92989 -5.28456,-0.25896 -1.06447,1.06447 -2.34874,4.52092 -2.8541,7.68092 l -0.91876,5.74543 -20.41773,-0.72365 c -11.50219,-0.40767 -20.417857,-0.19565 -20.417857,0.48571 0,2.03875 -9.10776,1.34021 -10.91485,-0.83717 -2.2823,-2.75013 -6.38205,-2.58996 -8.00645,0.31272 -1.25139,2.23603 -1.45632,2.23603 -3.92717,0 -3.26818,-2.95779 -6.66065,-3.02247 -8.26377,-0.15773 -0.98711,1.76384 -1.79685,1.89946 -4.07165,0.68205 -2.0157,-1.0788 -3.92799,-1.10581 -6.59176,-0.0928 -3.00622,1.14292 -3.98691,1.0073 -4.93228,-0.68204 -1.75661,-3.13857 -7.96635,-2.70279 -8.8353,0.62009 -0.81834,3.1293 -3.1241,3.70068 -3.1241,0.77414 0,-2.34738 -4.19745,-3.90069 -7.31173,-2.70552 -1.23132,0.47248 -2.23877,1.71431 -2.23877,2.75955 0,2.5321 -2.23318,2.43101 -3.22207,-0.14599 -1.00416,-2.61655 -7.21034,-2.66623 -8.66365,-0.0695 -0.874,1.56165 -5.08986,2.02252 -20.05645,2.19211 -16.13174,0.18283 -19.13222,-0.11187 -20.17651,-1.97735 -1.00416,-1.79414 -3.80464,-2.19184 -15.43155,-2.19184 -12.1245,0 -14.56232,0.37546 -16.64556,2.56376 -2.08528,2.1902 -5.44337,2.7047 -23.05654,3.53164 -20.15863,0.94645 -20.6322,0.90484 -21.3609,-1.88159 -1.01904,-3.89701 -7.77956,-3.98992 -8.79137,-0.12142 -0.93158,3.56247 -2.15923,3.45304 -3.82375,-0.34109 -1.99373,-4.54413 -7.15578,-4.79927 -8.81483,-0.43564 -1.56546,4.11749 -4.12909,4.65682 -4.12909,0.86868 0,-1.45904 -1.24797,-3.03283 -2.79419,-3.52359 -3.08318,-0.97851 -6.7563,1.34881 -6.7563,4.28094 0,2.79338 -2.41942,2.27425 -3.37091,-0.72324 -1.57966,-4.97704 -8.0508,-4.97704 -9.63045,0 -1.0919,3.4405 -2.42323,3.28769 -4.07056,-0.46715 -0.75081,-1.71132 -2.55448,-3.06981 -4.0756,-3.06981 -1.52113,0 -3.32467,1.35849 -4.07548,3.06981 -1.64963,3.76003 -4.79285,4.04394 -4.79285,0.43304 0,-3.78077 -5.42399,-5.21361 -7.74108,-2.04489 -0.99516,1.36094 -1.80941,3.33735 -1.80941,4.39199 0,1.95022 -5.18128,1.81814 -17.98972,-0.45883 -3.57092,-0.63469 -5.93277,-0.26032 -8.14861,1.29177 -4.20099,2.94237 -18.64162,3.04402 -19.75629,0.1389 -0.43196,-1.1256 -2.41206,-2.04654 -4.40034,-2.04654 -3.02149,0 -3.89331,-0.89216 -5.31142,-5.43587 -0.9331,-2.98984 -1.69659,-6.63745 -1.69659,-8.10564 0,-1.46846 -0.67249,-3.08535 -1.49438,-3.5933 -2.56485,-1.58525 -8.19514,2.48094 -8.99861,6.49856 -0.67331,3.36614 -1.36682,3.81447 -5.90193,3.81447 -4.3628,0 -5.2701,-0.52242 -6.00713,-3.45919 -0.5119,-2.03985 -2.37535,-4.03222 -4.54153,-4.85575 -4.81754,-1.83164 -7.16532,1.20173 -7.16532,9.25784 0,4.88577 -0.44206,5.87888 -2.61712,5.87888 -4.06646,0 -6.93338,1.47077 -6.93338,3.55687 0,1.43709 -2.24901,1.90055 -9.22223,1.90055 -7.74477,0 -9.49538,-0.43727 -10.92645,-2.7287 -0.93732,-1.5008 -2.55422,-2.72872 -3.59317,-2.72872 -1.03895,0 -2.25883,-0.96405 -2.71097,-2.14231 -0.49308,-1.28496 -2.05296,-1.9674 -3.89797,-1.70545 -2.35952,0.33509 -3.17555,1.46955 -3.5034,4.87103 -0.41094,4.26157 -0.65994,4.43415 -6.39433,4.43415 -5.73439,0 -5.98338,-0.17258 -6.39419,-4.43415 -0.35732,-3.70628 -0.98752,-4.43416 -3.83848,-4.43416 -2.22854,0 -3.87763,1.06406 -4.75765,3.0698 -1.73423,3.95281 -2.62665,3.86823 -4.58696,-0.43427 -2.03481,-4.46581 -7.49114,-4.17493 -8.14576,0.43427 -0.58667,4.13073 -3.83398,3.90465 -4.89954,-0.34108 -1.51307,-6.02828 -8.99028,-3.53178 -8.99028,3.00158 0,1.7259 -0.61397,3.13801 -1.36436,3.13801 -1.91433,0 -1.87927,-178.25133 0.0354,-179.43464 0.7699,-0.47575 2.06877,1.05424 2.88656,3.39998 1.72346,4.94401 5.69646,5.16805 6.38246,0.35992 0.60919,-4.2699 5.40109,-4.02923 7.06805,0.35501 1.61404,4.24518 5.11934,4.45488 5.70356,0.34108 0.66539,-4.68534 6.22105,-4.95752 7.37462,-0.36142 0.5808,2.31408 1.67638,3.41731 3.11796,3.13965 1.70955,-0.32921 2.22267,-2.04421 2.22267,-7.42891 0,-11.32484 6.49407,-16.2181 12.72344,-9.5872 2.18025,2.32078 2.96666,4.86352 2.96666,9.59334 0,7.80015 2.30863,9.23778 7.34284,4.57223 3.50543,-3.2488 3.57202,-3.64556 3.57202,-21.32135 0,-9.90605 0.6321,-19.19226 1.40474,-20.63589 1.56368,-2.92163 8.15421,-6.74619 11.62527,-6.74619 1.23788,0 4.3411,2.09047 6.89614,4.64536 l 4.64549,4.64549 -0.62583,17.54672 c -0.34422,9.65064 -0.19374,18.24267 0.3344,19.09321 0.52814,0.85068 2.49528,1.76193 4.37127,2.02525 3.06516,0.43005 3.47993,1.23911 4.09307,7.98258 0.62842,6.91264 0.95082,7.50396 4.09307,7.50396 2.79147,0 3.48347,-0.7433 3.81064,-4.09307 0.2198,-2.25118 0.72161,-5.01401 1.11496,-6.13961 0.61123,-1.74882 0.90266,-1.71281 2.00369,0.24832 0.95696,1.70422 2.68915,2.1666 6.7301,1.79672 5.17322,-0.47357 5.4416,-0.30902 5.4416,3.33667 0,3.90165 1.82933,6.31096 5.4109,7.12644 1.4604,0.33249 2.37807,-1.72564 3.44445,-7.72621 1.34648,-7.57586 1.75293,-8.23102 5.50859,-8.88005 l 4.05487,-0.70074 0.38011,-19.70716 c 0.4119,-21.34741 0.86131,-22.71341 8.82602,-26.83212 3.28087,-1.69657 4.26934,-1.67598 7.82513,0.16276 7.01688,3.62865 8.14657,7.71994 7.42865,26.90429 -0.53469,14.28986 -0.29443,17.3553 1.47569,18.82431 3.55797,2.95287 8.31138,-0.22239 9.28144,-6.20005 0.99284,-6.11845 4.38027,-10.18287 8.48671,-10.18287 4.58915,0 6.70635,3.64078 7.45961,12.82699 0.50686,6.18326 1.20788,8.32053 2.72872,8.32053 1.1256,0 2.24273,-1.38141 2.48244,-3.0698 0.6388,-4.49787 6.47933,-4.23674 7.62825,0.34109 1.10377,4.39746 4.35367,4.39746 5.45743,0 1.16284,-4.63335 5.89034,-4.565 7.6681,0.11046 1.55126,4.08038 4.53375,3.75799 5.169,-0.55883 0.64738,-4.39923 6.49788,-4.05569 7.62825,0.44791 1.10458,4.40087 4.59665,4.40087 5.70124,0 1.13036,-4.5036 6.981,-4.84714 7.62825,-0.44791 0.63279,4.30004 3.61541,4.64535 5.15453,0.5969 0.72858,-1.91597 2.74387,-3.83985 4.4785,-4.27521 1.96373,-0.49294 4.18899,-2.9526 5.8973,-6.5189 2.23714,-4.67019 4.29104,-6.48259 11.12824,-9.82022 4.67388,-2.28162 9.01635,-5.4517 9.81177,-7.16288 1.94203,-4.17779 4.8335,-3.85498 8.23293,0.9189 1.56219,2.19388 4.64495,4.38517 6.85058,4.86966 9.01102,1.97914 15.48325,10.62998 14.141,18.90098 -0.71684,4.41737 -0.42268,5.06394 2.87442,6.31751 2.02021,0.768 8.16268,1.39642 13.64985,1.39642 11.10272,0 13.72801,-1.55727 12.28944,-7.28935 -1.35208,-5.38716 3.07498,-11.41338 11.36427,-15.46894 3.97355,-1.94407 7.83727,-4.67932 8.58603,-6.07834 1.86604,-3.48675 4.87253,-3.18905 7.44516,0.73743 1.18248,1.8045 3.80587,3.69427 5.83003,4.19936 5.82621,1.45372 12.18697,7.07364 13.90784,12.2878 1.20199,3.64188 2.33781,4.79026 4.73813,4.79026 2.22976,0 3.40857,1.00185 4.01326,3.41089 0.47083,1.87599 1.69876,3.41089 2.72871,3.41089 1.02994,0 2.25787,-1.5349 2.7287,-3.41089 0.53183,-2.11912 1.82361,-3.41089 3.4109,-3.41089 1.58729,0 2.87906,1.29177 3.41089,3.41089 1.09257,4.35312 3.16204,4.35312 5.1454,0 1.7165,-3.76726 5.83944,-4.56323 7.06696,-1.36436 1.01399,2.64235 4.44344,2.64235 5.45743,0 1.22778,-3.19955 6.06824,-2.52488 6.57456,0.91644 0.63525,4.31682 3.61772,4.63922 5.16913,0.55884 1.70804,-4.49269 6.49298,-4.79694 7.11008,-0.45201 0.23985,1.68839 1.35699,3.06981 2.48258,3.06981 1.53695,0 2.10561,-1.83316 2.2838,-7.36235 0.28651,-8.89028 3.63614,-13.28541 9.08307,-11.91833 3.71295,0.93185 7.184697,8.51262 5.99033,13.08022 -0.35787,1.36804 -0.1337,3.32289 0.49908,4.34397 0.951507,1.53654 1.804507,1.46068 4.949217,-0.44028 3.79727,-2.29552 3.79973,-2.30698 4.48163,-20.92923 0.67208,-18.35932 0.73825,-18.68077 4.51015,-21.92056 4.96885,-4.26798 8.1261,-4.14955 13.32936,0.49949 l 4.23919,3.78772 0.21652,18.38307 0.21666,18.3832 3.55114,0.41231 c 3.10705,0.36073 3.77627,1.38441 5.35169,8.18614 0.99026,4.27562 1.94898,7.97698 2.13045,8.22543 0.18146,0.24845 1.61048,-0.23371 3.17554,-1.07129 1.86916,-1.00034 2.84563,-2.8657 2.84563,-5.43628 0,-3.72346 0.331,-3.93631 6.82261,-4.38613 6.57633,-0.4557 6.8226,-0.34341 6.82178,3.11209 -9.6e-4,4.15325 3.13324,7.30777 6.12132,6.16103 1.45427,-0.55802 2.064,-2.76924 2.064,-7.48595 0,-6.34644 0.21256,-6.73665 4.09307,-7.5127 l 4.09306,-0.8186 0,-17.46718 c 0,-19.04765 0.86569,-21.79273 8.04275,-25.50419 3.40612,-1.76139 4.2185903,-1.69248 8.1373003,0.69063 6.07001997,3.69141 6.93433,7.05564 6.23892997,24.2816 -0.6066,15.0247 -0.59636,15.08514 3.13911003,18.54897 5.60491,5.1971 7.1864697,4.51302 7.1864697,-3.10896 0,-5.11811 0.70305,-7.24446 3.15767,-9.5505 1.73682,-1.63163 3.84106,-2.96651 4.6762,-2.96651 2.84126,0 7.339,7.29534 7.11566,11.54149 -0.12006,2.28175 -0.15595,4.91605 -0.0805,5.85405 0.23999,2.96052 3.72837,1.84802 5.34745,-1.70545 0.85478,-1.87598 2.19649,-3.41089 2.98153,-3.41089 0.78506,0 2.01093,1.53491 2.72408,3.41089 1.3664,3.59358 5.45742,4.74169 5.45742,1.53136 0,-3.47311 3.58757,-5.30885 6.90515,-3.53327 2.33374,1.24892 3.76931,1.19558 6.56787,-0.24423 5.19247,-2.6714 5.58404,-3.62605 5.6071,-13.6714 0.0136,-6.04573 0.59281,-9.28771 1.72632,-9.66837 1.33161,-0.44696 1.28045,-1.37049 -0.23317,-4.21163 -1.78212,-3.34541 -1.68034,-3.91393 1.26108,-7.04499 1.75988,-1.8734 4.01366,-3.40598 5.00855,-3.40598 0.99475,0 3.08658,-1.27786 4.64836,-2.83978 2.51601,-2.516 3.09927,-2.61246 5.11634,-0.84671 1.2522,1.09626 4.26307,2.99912 6.69107,4.22896 4.85329,2.45816 7.08606,7.88284 4.51807,10.97706 -1.27458,1.53586 -1.04046,2.23564 1.1376,3.40134 2.04149,1.09258 2.84864,3.12206 3.15794,7.94028 0.35337,5.50395 0.87087,6.53718 3.45878,6.90501 2.021573,0.28734 4.725593,-1.20132 8.054343,-4.43416 6.3066,-6.12487 9.69949,-6.12555 16.00363,0 3.71964,3.61255 5.96701,4.75315 8.73652,4.43416 l 3.72865,-0.42976 0,-12.54963 c 0,-13.39389 1.48674,-17.35066 5.32331,-14.16653 1.11563,0.92572 2.21599,3.93877 2.44547,6.69573 0.32881,3.94939 1.04742,5.10214 3.38797,5.43546 1.63395,0.23262 3.7045,1.30704 4.60129,2.38761 0.8968,1.08058 3.32194,1.96468 5.38948,1.96468 4.0767,0 6.24466,1.88321 7.02808,6.10536 0.27505,1.48182 2.02948,3.45345 3.89878,4.38121 2.01147,0.9983 3.68281,3.23994 4.09444,5.49168 0.60359,3.30147 1.32369,3.80491 5.44405,3.80491 4.20454,0 4.82928,-0.46688 5.45442,-4.07642 0.46211,-2.66745 1.64569,-4.25079 3.4244,-4.58097 4.82341,-0.89542 6.1291,-3.08562 6.1291,-10.28246 0,-5.5311 0.57521,-7.36807 2.72871,-8.71292 1.92266,-1.20077 2.74086,-3.21183 2.77019,-6.80882 0.0341,-4.25338 0.28215,-4.69079 1.48483,-2.62297 1.06911,1.83846 2.7384,2.36907 6.43922,2.04694 4.43607,-0.38611 5.04866,-0.0532 5.46766,2.97565 1.132,8.18232 6.31615,9.11814 7.55608,1.36396 l 0.87264,-5.45743 8.94185,0 c 12.27362,0 14.76452,-1.50379 13.68409,-8.26064 -0.73184,-4.57686 -0.28583,-5.90602 3.38388,-10.08559 2.43903,-2.7781 6.54397,-5.50846 9.70559,-6.45559 3.39111,-1.01603 6.02568,-2.84195 6.91415,-4.79216 1.85252,-4.06578 4.46936,-4.00275 7.20599,0.17396 1.19817,1.8285 3.98978,3.72236 6.20372,4.20862 5.39357,1.18468 11.81984,6.78126 14.1271,12.30322 1.23746,2.96161 2.97088,4.65628 5.0664,4.95303 2.0876,0.29565 3.33571,1.50925 3.62141,3.52099 0.58748,4.13618 4.07779,3.90466 5.14335,-0.34109 1.14619,-4.56677 5.67558,-4.56677 6.82177,0 1.10377,4.39746 4.3538,4.39746 5.45743,0 1.1462,-4.56677 5.67559,-4.56677 6.82179,0 1.1028,4.39378 4.1108,4.39378 5.21362,0 0.53182,-2.11912 1.82359,-3.41089 3.41088,-3.41089 1.58729,0 2.87907,1.29177 3.41089,3.41089 1.10376,4.39746 4.35367,4.39746 5.45743,0 1.14619,-4.56677 5.67558,-4.56677 6.82179,0 0.47083,1.876 1.76533,3.41089 2.8766,3.41089 1.52917,0 2.02047,-1.75088 2.02047,-7.20039 0,-8.42885 2.75124,-13.26495 7.5464,-13.26495 4.18652,0 7.46152,5.95855 7.46152,13.57575 0,6.14793 1.57079,6.88045 6.54538,3.05261 2.96365,-2.28052 3.13842,-3.33394 3.2065,-19.32733 0.0792,-18.57571 1.09899,-21.73597 7.92759,-24.56442 4.5882,-1.90055 7.9055,-0.57167 12.19954,4.88726 2.54998,3.24184 2.75285,5.00637 2.24518,19.5204 -0.30711,8.77594 -0.13957,16.63054 0.37219,17.45461 0.51164,0.82408 2.45325,1.71363 4.31465,1.97696 2.89884,0.40999 3.5465,1.45686 4.51587,7.3004 1.37078,8.26158 2.93406,10.21588 5.84437,7.30557 1.80449,-1.80449 2.63171,-3.88595 3.20555,-8.06593 0.0573,-0.41831 2.09798,-0.62243 4.53444,-0.45379 2.43647,0.16878 5.19929,-0.33167 6.1396,-1.11208 1.81064,-1.50271 2.14654,-0.78888 1.79236,3.80792 -0.26591,3.44923 3.19942,6.62531 6.03946,5.53546 1.42684,-0.54751 2.06387,-2.72203 2.06387,-7.04539 0,-5.72157 0.34817,-6.37469 4.09306,-7.68024 4.83487,-1.68539 4.52939,-0.28406 4.66623,-21.40089 0.10778,-16.69113 0.14067,-16.85744 3.93713,-20.12426 5.12042,-4.40619 9.81736,-4.18434 14.69576,0.69405 3.98801,3.98802 3.98801,3.98802 3.98801,21.26991 0,16.25344 0.18269,17.43415 3.0698,19.84265 4.9286,4.11163 6.48069,3.3203 6.48069,-3.30392 0,-6.26704 3.9505,-13.1453 7.54995,-13.1453 4.03563,0 7.45798,5.75281 7.45798,12.53638 0,5.09697 0.48612,6.56461 2.17437,6.56461 1.19573,0 2.49528,-1.22792 2.8878,-2.72872 0.92354,-3.53177 5.41403,-3.53177 6.53486,0 1.11904,3.5255 4.82231,3.5255 5.74435,0 0.39238,-1.50078 1.8285,-2.72871 3.19123,-2.72871 1.36271,0 2.86733,1.22793 3.34362,2.72871 0.47643,1.5008 1.70436,2.72872 2.72871,2.72872 1.0245,0 2.25242,-1.22792 2.72872,-2.72872 1.12028,-3.52944 5.70164,-3.52944 6.82179,0 1.1163,3.51718 4.34111,3.51718 5.45741,0 1.06666,-3.36082 5.53124,-3.57365 7.33547,-0.34969 1.23542,2.20754 1.56628,2.15828 4.58984,-0.68216 1.79221,-1.68376 3.97763,-3.06121 4.85669,-3.06121 0.87891,0 3.19314,-2.41027 5.14267,-5.35619 3.09545,-4.67756 10.20348,-9.65174 13.79214,-9.65174 0.65749,0 2.92804,-1.97463 5.04566,-4.3879 l 3.85036,-4.38791 3.61636,4.40019 c 1.98909,2.42009 4.46486,4.39459 5.5019,4.38791 3.28373,-0.0218 10.95019,5.49344 13.39866,9.63835 1.29724,2.19607 2.84018,3.99293 3.42877,3.99293 0.58872,0 1.0702,-20.60806 1.0702,-45.79572 0,-28.80019 0.52133,-46.76973 1.40488,-48.42046 0.77266,-1.44377 3.2285,-3.56792 5.45745,-4.72068 3.62919,-1.87667 4.47113,-1.87913 8.05912,-0.0231 2.20357,1.13964 4.50592,2.84372 5.11634,3.78704 0.61041,0.94346 1.41674,18.2922 1.79194,38.5529 l 0.68218,36.83762 7.50395,0 7.50397,0 0.39048,-13.30248 c 0.30179,-10.27974 0.82285,-13.30247 2.2928,-13.30247 1.04618,0 2.09837,1.3814 2.33823,3.0698 0.35732,2.51574 1.29778,3.0698 5.21116,3.0698 3.91338,0 4.85398,-0.55406 5.2113,-3.0698 0.58517,-4.1205 3.52754,-3.88992 5.49617,0.43059 2.04067,4.47878 8.3837,4.21668 10.42259,-0.43059 1.73219,-3.94845 4.47823,-3.94845 5.03898,0 0.3415,2.40441 1.32315,3.0698 4.52898,3.0698 l 4.09307,0 0.68218,-17.00643 c 0.66772,-16.64501 0.75859,-17.04913 4.27699,-19.01981 3.22056,-1.80381 3.96399,-1.77148 7.14117,0.31025 3.77272,2.47194 5.79784,7.67314 4.40291,11.3082 -0.5467,1.42466 -1.44226,1.78731 -2.53469,1.02627 -2.78561,-1.94066 -9.46673,-1.33052 -10.94392,0.99953 -0.75899,1.19708 -0.95586,3.86604 -0.43755,5.93112 0.87919,3.50285 1.35413,3.72211 7.07869,3.26669 5.433,-0.4321 6.22515,-0.13508 6.91047,2.59609 0.42567,1.69631 1.66042,3.08413 2.74372,3.08413 1.08317,0 2.61166,1.84189 3.39643,4.09307 1.14701,3.29055 2.20971,4.09307 5.42018,4.09307 3.00418,0 4.31464,-0.84494 5.29015,-3.41089 1.65428,-4.35094 3.80328,-4.35094 5.45743,0 1.86125,4.89531 9.1259,4.89531 10.35464,0 1.11114,-4.42734 4.11382,-4.38163 5.23354,0.0792 0.77045,3.06953 1.48755,3.43969 5.94641,3.06981 5.06381,-0.42022 5.07132,-0.43018 5.80589,-7.74763 0.58134,-5.79102 1.52684,-8.00755 4.51028,-10.57377 4.9417,-4.25066 7.07583,-4.09662 12.04236,0.86991 3.74993,3.74994 4.08311,4.814 3.73916,11.93813 -0.20779,4.30167 -0.24614,10.27714 -0.0846,13.27872 0.2786,5.20053 0.39103,5.32905 2.3879,2.72872 1.45671,-1.89686 1.99373,-5.22425 1.76151,-10.91485 -0.18377,-4.50238 -0.22538,-14.74351 -0.0928,-22.75801 0.23167,-13.96774 0.36838,-14.59002 3.29751,-15.00792 4.78699,-0.68301 4.46254,-4.73746 -0.77427,-9.67643 -11.45787,-10.80625 -8.99793,-30.38681 6.5556,-52.18336 8.77144,-12.29203 20.03093,-21.78523 33.93836,-28.61437 13.32976,-6.54551 16.4128,-10.15286 16.01823,-18.74162 -0.19401,-4.223495 0.71342,-6.116135 5.33709,-11.132195 5.62401,-6.10139 8.18,-12.007696 8.18,-18.902331 0,-6.730233 2.32609,-3.962501 3.11796,3.709823 0.6493,6.290772 1.7753,8.703496 7.12958,15.276428 5.40817,6.63909 6.23402,8.42748 5.52605,11.967305 -1.19531,5.9767 2.56854,12.22804 8.64566,14.35931 21.57661,7.56658 44.48306,30.98453 51.92945,53.08902 4.8522,14.40323 2.99448,25.55194 -5.27678,31.66712 -5.37353,3.97273 -5.41978,7.37735 -0.12552,9.22305 3.79454,1.32274 4.09306,1.91282 4.09306,8.09213 0,3.66603 0.38489,7.05018 0.85518,7.52061 0.47029,0.47028 2.58873,-0.0409 4.70744,-1.13706 5.37106,-2.77742 7.69225,-2.50482 11.55392,1.35686 3.14907,3.14907 3.34881,4.24274 3.34881,18.33817 0,8.24427 0.48544,15.28953 1.07893,15.65626 2.60729,1.61145 25.52834,4.81291 26.62283,3.71856 0.6587,-0.65885 1.19777,-7.15332 1.19777,-14.43216 0,-11.20506 0.39934,-13.63361 2.60469,-15.83895 3.29301,-3.29301 8.33621,-3.34214 11.26153,-0.10912 2.73144,3.01823 3.23558,13.57726 0.55257,11.57301 -0.938,-0.70072 -3.85432,-1.23638 -6.4807,-1.19039 -4.64754,0.0818 -4.77524,0.22962 -4.77524,5.5412 0,5.27978 0.15499,5.46506 4.76283,5.69278 2.61956,0.1296 5.50217,-0.37835 6.40579,-1.1282 1.23911,-1.02831 1.74515,0.42282 2.05895,5.90426 0.30711,5.36573 0.95163,7.26779 2.46253,7.26779 1.78799,0 2.07873,-8.50472 2.30153,-67.33591 0.14039,-37.03477 0.60086,-67.68162 1.02326,-68.10416 0.42255,-0.42255 0.76828,-13.48393 0.76828,-29.02533 0,-23.452869 -0.34792,-28.54573 -2.04654,-29.955389 -1.1256,-0.934175 -2.04653,-2.77605 -2.04653,-4.093071 0,-1.317011 0.92093,-3.158886 2.04653,-4.093061 1.12559,-0.934175 2.04654,-2.469082 2.04654,-3.410893 0,-0.941822 0.92094,-2.476718 2.04656,-3.410893 3.3862,-2.810306 2.6333,-13.510956 -1.36439,-19.39405 -5.45907,-8.033884 -4.63609,-11.598262 5.48979,-23.7776 4.8953,-5.8880165 9.6233,-12.70434145 10.5067,-15.1472215 2.0137,-5.568485 2.8309,-5.568485 4.8446,0 0.8834,2.44288005 5.6114,9.259205 10.5067,15.1472215 10.8186,13.012413 11.3116,15.209846 5.3744,23.947457 -2.7322,4.020625 -3.2955,6.53322 -3.2955,14.697797 0,7.844238 0.4712,10.111936 2.3157,11.144204 2.0939,1.171715 2.2786,4.386545 1.9283,33.553204 -0.2131,17.741405 0.1409,32.998195 0.7871,33.903975 0.6528,0.91522 0.7094,33.76865 0.1268,73.95768 -0.5759,39.77098 -0.7239,73.72655 -0.3289,75.45683 0.6307,2.76404 1.4167,3.09545 6.4714,2.7287 l 5.7543,-0.41735 0.1118,-20.28293 c 0.091,-16.65443 0.4834,-20.49073 2.1875,-21.44441 1.2884,-0.72107 3.0188,-0.47153 4.5634,0.65789 2.0967,1.53327 2.2529,2.43824 0.9932,5.7543 -0.8494,2.23619 -1.8166,18.43997 -2.2404,37.53414 -0.7081,31.91011 -0.6141,33.71842 1.8722,35.96839 1.8659,1.68867 2.734,4.57824 3.0224,10.06008 0.3841,7.30272 0.5982,7.71326 4.2391,8.13075 5.2285,0.59949 7.3147,-1.50816 10.0351,-10.138 l 2.3187,-7.35605 7.596,-0.0205 c 4.1777,-0.0136 8.3439,-0.49636 9.2584,-1.0773 1.1326,-0.71969 1.7849,-6.69298 2.0465,-18.73902 0.3728,-17.16524 0.4738,-17.69543 3.4538,-18.11865 3.8048,-0.54029 3.9966,-3.74721 0.3411,-5.70355 -6.2871,-3.36478 -1.4353,-12.55563 9.0836,-17.20755 3.9263,-1.73641 7.8081,-4.40768 8.626,-5.93617 1.9105,-3.56971 4.9746,-3.55224 6.8968,0.0396 0.8295,1.55005 4.1138,3.93522 7.2984,5.30025 6.3429,2.71889 13.1189,9.77385 13.1189,13.65885 0,1.35699 -1.6005,3.51582 -3.5567,4.79762 -3.8858,2.54603 -3.1125,4.32051 2.1924,5.03066 3.2482,0.43482 3.4433,0.97701 4.093,11.3715 l 0.6822,10.91485 5.8859,0.42377 c 5.4697,0.3939 5.9971,0.12825 7.4619,-3.75198 0.8669,-2.29662 2.4456,-4.17575 3.5083,-4.17575 1.0626,0 3.3545,-1.5349 5.0931,-3.41089 1.9587,-2.11353 4.6524,-3.41089 7.0815,-3.41089 2.4177,0 5.1486,1.30746 7.1248,3.41089 1.7623,1.87599 3.9847,3.41089 4.9385,3.41089 0.954,0 2.5396,1.68839 3.5239,3.75199 1.4162,2.96897 2.8751,3.84147 6.9915,4.18106 8.1513,0.67249 9.1045,-0.97061 9.1045,-15.69378 0,-7.08619 -0.6654,-14.12723 -1.4786,-15.64685 -2.0943,-3.91311 0.8474,-10.49094 5.1776,-11.57779 5.3513,-1.34307 7.898,2.3677 7.898,11.50793 0,7.78189 0,7.78761 4.4164,8.21357 2.6473,0.25541 5.2538,1.62181 6.5065,3.41089 1.6548,2.3632 3.8602,3.12669 10.5915,3.66684 l 8.5014,0.68218 0.6822,6.82178 c 0.677,6.76926 0.7268,6.8312 6.4807,8.03893 5.6969,1.19572 5.7985,1.31646 5.7985,6.89 0,6.95713 1.8209,8.94731 8.1862,8.94731 6.3681,0 8.1861,-1.99018 8.1861,-8.9615 0,-5.63643 0.05,-5.69388 5.6541,-6.44549 3.1097,-0.41708 6.1701,-1.57243 6.8009,-2.56731 0.6307,-0.9949 1.1562,-6.79736 1.1677,-12.89426 l 0.02,-11.0854 4.0931,-0.81862 4.0931,-0.8186 0,-18.19561 c 0,-16.39261 0.274,-18.49004 2.7665,-21.16512 1.5215,-1.63328 4.2182,-3.33394 5.9927,-3.77927 3.7471,-0.94045 10.9833,2.38257 12.2229,5.61309 0.4662,1.2147 0.8476,9.86239 0.8476,19.21683 0,16.86235 0.032,17.03604 3.7519,20.23682 4.7564,4.09266 7.1629,2.42446 7.1629,-4.96545 l 0,-5.36519 6.4807,0.41586 6.4807,0.41585 0.4427,5.4397 c 0.4281,5.26068 2.3611,8.05789 4.6085,6.66897 0.5986,-0.37002 1.0884,-1.8644 1.0884,-3.32084 0,-4.03809 6.4895,-3.65102 7.068,0.42158 0.2398,1.68839 1.3569,3.06981 2.4825,3.06981 1.1256,0 2.2427,-1.38142 2.4826,-3.06981 0.562,-3.95772 7.0678,-4.48096 7.0678,-0.56853 0,1.37581 0.3671,2.86843 0.8157,3.31689 1.5271,1.52713 4.6419,-0.64384 4.6419,-3.23543 0,-4.03509 5.2563,-3.28892 6.8781,0.97646 1.1215,2.94988 1.6997,3.27159 3.3771,1.87941 1.1132,-0.92381 2.0239,-2.52543 2.0239,-3.55906 0,-3.41663 5.4462,-2.08652 6.8782,1.67965 1.1214,2.94988 1.6996,3.27159 3.3772,1.87941 1.1131,-0.92381 2.0238,-2.52543 2.0238,-3.55906 0,-3.41663 5.4463,-2.08652 6.8781,1.67965 1.1216,2.94988 1.6998,3.27159 3.3773,1.87941 1.1132,-0.92381 2.0239,-2.52543 2.0239,-3.55906 0,-3.27446 4.9516,-2.02826 6.6367,1.67024 1.3332,2.92614 1.971,3.25631 3.6299,1.87941 1.1069,-0.91863 2.0125,-2.51602 2.0125,-3.54965 0,-3.37256 4.9646,-1.99974 6.7228,1.85879 1.6438,3.60764 1.7707,3.64624 3.6299,1.10363 1.0596,-1.44921 1.9265,-3.13147 1.9265,-3.73833 0,-0.60701 1.228,-1.10363 2.7288,-1.10363 1.5008,0 2.7287,0.84576 2.7287,1.87954 0,1.03363 0.9056,2.63102 2.0125,3.54965 1.659,1.3769 2.2967,1.04673 3.6299,-1.87941 2.0712,-4.54604 6.0715,-4.62326 7.197,-0.13889 1.1965,4.76706 7.1779,4.76706 8.9903,0 1.3838,-3.63969 6.8218,-4.86052 6.8218,-1.53135 0,1.03363 0.9107,2.63525 2.0239,3.55906 1.6774,1.39218 2.2556,1.07047 3.3772,-1.87941 1.4318,-3.76617 6.8781,-5.09628 6.8781,-1.67965 0,1.03363 0.9106,2.63525 2.0238,3.55906 1.6776,1.39218 2.2558,1.07047 3.3773,-1.87941 1.6216,-4.26538 6.8781,-5.01155 6.8781,-0.97646 0,4.13727 3.9775,4.72081 5.4673,0.8021 1.6613,-4.36963 6.4519,-4.58342 7.0581,-0.31503 0.2398,1.68839 1.3569,3.06981 2.4825,3.06981 1.1256,0 2.2428,-1.38142 2.4826,-3.06981 0.3115,-2.19362 1.3553,-3.0698 3.6571,-3.0698 2.3016,0 3.3455,0.87618 3.6569,3.0698 0.2398,1.68839 1.357,3.06981 2.4826,3.06981 1.1256,0 2.2427,-1.38142 2.4826,-3.06981 0.62,-4.36554 5.4033,-4.03699 7.1243,0.48939 1.1214,2.94988 1.6997,3.27159 3.3771,1.87941 1.1132,-0.92381 2.0239,-2.52543 2.0239,-3.55906 0,-3.41663 5.4463,-2.08652 6.8781,1.67965 1.1216,2.94988 1.6997,3.27159 3.3773,1.87941 1.1132,-0.92381 2.0239,-2.52543 2.0239,-3.55906 0,-3.41663 5.4462,-2.08652 6.8781,1.67965 1.1215,2.94988 1.6997,3.27159 3.3772,1.87941 1.1131,-0.92381 2.0239,-2.52543 2.0239,-3.55906 0,-3.41663 5.4462,-2.08652 6.8781,1.67965 1.1215,2.94988 1.6997,3.27159 3.3771,1.87941 1.1612,-0.96351 2.0239,-3.96687 2.0239,-7.04473 l 0,-5.36519 6.4807,0.41586 6.4807,0.41585 0.4322,5.45743 c 0.6123,7.72949 2.1837,8.605 6.9976,3.89865 l 4.131,-4.0389 -0.4462,-15.61998 c -0.4734,-16.56628 0.7622,-21.71728 5.8643,-24.4479 4.1697,-2.2314 7.8169,-1.65606 11.9376,1.88336 3.7777,3.24485 3.8371,3.53641 4.5102,22.17079 l 0.6822,18.88269 3.7019,0.42691 c 3.6939,0.42596 3.7028,0.4542 4.0931,12.96138 l 0.3912,12.53449 6.1396,1.47241 c 6.0209,1.44389 6.1481,1.58852 6.5747,7.48158 0.5008,6.91483 1.7274,8.05066 8.7263,8.07958 5.848,0.0246 7.8931,-2.55911 7.8931,-9.97031 0,-4.27957 0.4265,-4.79311 4.6381,-5.58321 5.8646,-1.10022 7.3283,-2.89871 7.8805,-9.68352 l 0.4433,-5.4401 7.8584,-0.40958 c 6.5897,-0.3434 8.2121,-0.94932 10.0485,-3.75198 1.5957,-2.43524 3.4186,-3.3424 6.7165,-3.3424 5.1452,0 6.9206,-2.9994 4.9409,-8.347 -2.932,-7.91968 5.8542,-15.8972 10.8583,-9.85884 1.3917,1.67925 1.8724,7.19753 1.8724,21.48862 l 0,19.2291 6.5697,0.4194 c 6.2267,0.39758 6.6518,0.20179 8.1441,-3.75198 0.8659,-2.2943 2.444,-4.17138 3.5066,-4.17138 1.0627,0 3.3546,-1.5349 5.0932,-3.41089 4.1591,-4.48778 9.9903,-4.48778 14.2062,0 1.7624,1.87599 3.9848,3.41089 4.9387,3.41089 0.9538,0 2.5408,1.68839 3.5269,3.75199 1.8798,3.93424 5.7988,5.25904 11.3992,3.85335 2.984,-0.7489 3.2435,-1.56547 3.6132,-11.36905 0.392,-10.39545 0.4575,-10.56886 4.1503,-10.99372 4.3955,-0.50576 4.9512,-3.60571 1.0233,-5.70791 -6.4023,-3.42645 -0.969,-12.93506 10.1031,-17.68111 3.3424,-1.43284 6.7559,-3.87327 7.5855,-5.42332 1.9295,-3.60544 4.9881,-3.60544 6.9178,0 0.8295,1.55005 4.1138,3.93522 7.2984,5.30025 6.3428,2.71889 13.1189,9.77371 13.1189,13.65885 0,1.35685 -1.5544,3.48566 -3.4544,4.7305 -3.7729,2.47207 -3.3757,4.87225 0.8062,4.87225 2.3726,0 2.6482,1.00771 2.6482,9.68529 0,5.32699 0.8551,11.62009 1.9004,13.98466 1.0454,2.3647 2.2736,5.42482 2.7295,6.80036 1.6168,4.87826 4.2357,1.4761 4.4151,-5.73534 0.4115,-16.54747 15.3328,-17.06429 16.2007,-0.56117 0.1887,3.58826 0.4181,6.98469 0.5101,7.54749 0.3427,2.09947 3.1075,0.90061 6.9216,-3.00117 l 3.934,-4.02445 -0.5873,-17.33483 c -0.6509,-19.21478 0.1479,-21.90788 7.6481,-25.78633 3.6022,-1.86276 4.5316,-1.87655 7.9315,-0.1187 7.2128,3.72987 7.6974,5.25904 8.4279,26.59212 l 0.6822,19.92097 3.752,0.43168 c 3.4356,0.39539 3.752,0.91985 3.752,6.21996 0,7.38513 2.8984,11.71955 6.4008,9.57192 2.0593,-1.26272 2.5086,-3.59085 2.7156,-14.07374 0.2558,-12.95321 1.2261,-15.65081 6.0866,-16.92185 3.6378,-0.95136 9.3554,4.56828 9.3554,9.03164 0,2.9867 -0.5284,3.24212 -6.4807,3.13174 l -6.4807,-0.12006 0,4.77524 c 0,4.64263 0.1612,4.78699 5.7986,5.19479 4.4116,0.31926 5.7985,0.98084 5.7985,2.76623 0,3.02478 3.7664,8.41126 5.8814,8.41126 0.8984,0 2.557,-3.83725 3.6854,-8.52723 1.8232,-7.57723 2.4532,-8.57375 5.654,-8.94554 4.5727,-0.53087 4.7969,-1.62904 4.325,-21.19132 -0.4413,-18.28974 0.8632,-22.61162 7.6769,-25.43392 3.297,-1.36559 4.991,-1.37691 8.1841,-0.0546 7.2724,3.01237 8.2526,6.17482 8.2526,26.62733 0,15.87784 0.3173,18.63139 2.232,19.36609 3.54,1.35849 6.0434,-1.13678 8.4727,-8.44551 1.7305,-5.2061 3.1382,-7.09492 6.0381,-8.10249 6.0437,-2.09989 9.5873,2.42363 9.7408,12.43419 0.095,6.24848 0.6007,8.00222 2.4036,8.34931 1.514,0.29143 2.4325,-0.62091 2.7287,-2.71029 0.6745,-4.75751 6.2186,-5.08863 7.385,-0.44109 1.095,4.36253 5.1399,4.12813 5.7767,-0.33482 0.3108,-2.17887 1.3603,-3.05575 3.657,-3.05575 2.2968,0 3.3463,0.87688 3.6571,3.05575 0.6367,4.46295 4.6816,4.69735 5.7766,0.33482 1.1536,-4.59612 6.7091,-4.32393 7.3747,0.36141 0.5841,4.11381 4.0895,3.90411 5.7035,-0.34109 1.6669,-4.38422 6.4588,-4.62489 7.0679,-0.35514 0.636,4.4579 4.906,4.77552 5.9927,0.44573 0.6007,-2.39348 1.8034,-3.50284 3.8007,-3.50544 2.095,0 3.8871,-1.83669 6.3328,-6.48068 2.7791,-5.27733 4.8585,-7.17856 11.2278,-10.26597 4.2994,-2.0842 8.4652,-5.0005 9.2575,-6.48069 1.8716,-3.49713 6.3,-3.44978 8.1932,0.0873 0.8179,1.52849 4.7341,4.21491 8.7025,5.97002 9.4561,4.18189 13.7257,9.98518 12.5867,17.1078 -1.2015,7.51419 0.6085,8.4309 15.725,7.96388 l 12.7577,-0.39416 0.054,-5.59836 c 0.07,-7.50888 3.6401,-12.50514 11.3179,-15.84386 3.5012,-1.52235 7.7091,-4.38122 9.3511,-6.353 l 2.9855,-3.58497 4.1774,4.51833 4.1774,4.51835 0,76.90371 0,76.90381 -7.1629,0.70756 c -3.9396,0.38911 -194.7278,4.80771 -423.9737,9.81899 -298.2031,6.51863 -417.0962,9.54832 -417.8133,10.64649 -0.5513,0.8444 -1.0119,4.91196 -1.0235,9.03914 -0.02,7.38908 -4.5683,38.33691 -6.2941,42.8341 -1.6807,4.38 -3.9384,1.25712 -5.4003,-7.47025 -1.754,-10.47131 -4.4729,-18.99158 -6.0603,-18.99158 -0.6325,0 -1.561,1.99537 -2.0632,4.43416 -3.4399,16.70763 -5.1765,22.96962 -6.0906,21.96286 -1.5402,-1.69616 -6.8568,-35.90317 -6.8568,-44.117 0,-5.96729 -0.3632,-6.96927 -2.3875,-6.58316 -2.2368,0.42663 -3.1038,2.88002 -6.5398,18.50463 -0.9061,4.11994 -3.1114,3.87969 -4.7846,-0.52119 -1.3027,-3.4263 -1.4838,-3.48374 -3.9507,-1.25112 -2.4464,2.21395 -2.656,2.20522 -3.897,-0.16112 -0.7213,-1.37541 -1.7383,-4.48915 -2.26,-6.9192 -1.5291,-7.12208 -3.1527,-6.43267 -5.6282,2.38967 -2.4697,8.80228 -4.1947,9.64204 -7.1874,3.49931 -2.113,-4.33716 -3.2957,-3.56725 -5.6007,3.64582 -2.7818,8.7046 -3.6106,7.54981 -8.3404,-11.62022 -1.5709,-6.36663 -3.8374,-9.74233 -4.1608,-6.1969 -0.09,0.9822 -0.057,5.16272 0.074,9.2899 0.1297,4.12717 -1.0425,13.64356 -2.6051,21.14752 -4.1509,19.93284 -5.4432,24.11964 -7.2582,23.51469 -1.7951,-0.59841 -4.3629,-9.1843 -5.7066,-19.08053 -0.4839,-3.56438 -1.4186,-6.48069 -2.0771,-6.48069 -0.6584,0 -1.622,2.91631 -2.1416,6.48069 -0.5194,3.56438 -1.8896,8.87814 -3.045,11.8085 -1.8241,4.62654 -2.2341,4.96721 -3.1141,2.58805 -0.5575,-1.50693 -1.4148,-8.50907 -1.9053,-15.56049 -0.4904,-7.0514 -2.1655,-17.11843 -3.7224,-22.37121 -3.415,-11.5224 -3.4296,-11.48911 -7.9601,18.21566 -3.2525,21.32461 -4.8021,25.80599 -8.4407,24.4097 -1.8722,-0.71847 -6.3904,-20.64134 -10.0535,-44.3308 -0.4932,-3.18918 -1.3435,-5.79852 -1.8896,-5.79852 -0.5462,0 -2.26,6.2931 -3.8085,13.98465 -5.2352,26.00396 -6.8818,26.89434 -9.8795,5.34215 -1.5496,-11.14135 -2.1577,-12.88254 -4.8577,-13.90908 -1.6976,-0.64534 -3.7145,-2.28188 -4.4821,-3.63668 -1.3294,-2.3463 -1.4968,-2.33374 -3.5269,0.2655 -2.099,2.6875 -2.1825,2.66677 -5.5223,-1.36436 -3.3842,-4.08475 -3.418,-4.09252 -16.7075,-3.77995 -12.8015,0.30112 -13.4484,0.46525 -16.7273,4.2441 -4.1186,4.74646 -10.7962,7.88039 -19.2229,9.02181 -4.8129,0.65189 -6.9532,1.78348 -9.2503,4.89054 -2.9604,4.00425 -3.1153,4.04231 -16.4243,4.04231 -10.5204,0 -13.8197,-0.46279 -15.2059,-2.13303 -1.568,-1.88922 -2.1302,-1.67298 -4.9212,1.89318 -3.1159,3.98133 -3.3493,4.03726 -20.9703,5.01728 -16.0106,0.89052 -18.0917,0.74494 -20.49976,-1.43435 -2.30467,-2.08569 -3.14362,-2.17764 -5.98599,-0.65652 -4.66282,2.49541 -6.89668,1.16161 -10.6432,-6.35518 l -3.27173,-6.56406 -20.59401,-0.37601 -20.594,-0.37602 -0.74658,3.78691 c -0.41052,2.08283 -1.15574,10.08001 -1.65618,17.77156 -0.69105,10.62343 -1.3675,13.98466 -2.81427,13.98466 -1.04741,0 -2.48803,1.5349 -3.20132,3.41088 -0.71328,1.876 -1.85949,3.4109 -2.54698,3.4109 -0.68764,0 -1.63546,1.53491 -2.1063,3.41089 -0.78082,3.11087 -1.50338,3.41089 -8.21492,3.41089 l -7.35893,0 -1.14238,-8.52723 c -0.62828,-4.68997 -1.75633,-8.52722 -2.50673,-8.52722 -0.75039,0 -1.99374,3.68376 -2.7631,8.18613 -1.1481,6.71959 -1.91051,8.26009 -4.25624,8.59886 -3.20733,0.46307 -4.52803,-2.64412 -4.559,-10.72576 -0.0246,-6.55818 -3.08426,-10.68044 -6.41943,-8.65042 -1.35712,0.82612 -2.65258,3.3368 -2.87879,5.57927 l -0.41108,4.07724 -9.66701,-0.17887 c -9.30001,-0.17191 -13.38693,1.29587 -13.38693,4.80799 0,2.33688 -3.58894,1.29723 -6.60512,-1.91338 -2.64085,-2.81097 -4.134,-3.15562 -12.85811,-2.9676 -8.77158,0.18896 -10.04276,0.55583 -11.41789,3.29519 -2.79529,5.56821 -4.28121,6.28573 -7.32086,3.53491 -2.99586,-2.71125 -4.86243,-1.83314 -5.67327,2.66881 -0.26441,1.46792 -2.01229,3.09519 -3.88445,3.6161 -1.87204,0.52091 -16.99852,1.00826 -33.61461,1.08303 -25.68115,0.11597 -30.32869,-0.17082 -30.99626,-1.91051 z M 1300.832,474.8775 c 0.644,-5.51759 -0.9103,-6.43758 -2.1994,-1.3016 -0.7627,3.03869 -0.1679,6.07685 1.1895,6.07685 0.2488,0 0.7033,-2.14887 1.0099,-4.77525 z M -177.02496,337.07755 c 0,-1.12559 -0.92095,-2.04652 -2.04654,-2.04652 -1.12559,0 -2.04653,0.92093 -2.04653,2.04652 0,1.1256 0.92094,2.04654 2.04653,2.04654 1.12559,0 2.04654,-0.92094 2.04654,-2.04654 z m -125.76187,-1.59234 c -0.66376,-3.42289 -3.85199,-3.89291 -3.85199,-0.56797 0,1.67597 0.88097,2.84249 2.14654,2.84249 1.27063,0 1.96659,-0.92831 1.70545,-2.27452 z m 230.582787,-15.96802 c 0.70305,-6.1516 -0.85286,-10.40894 -3.80397,-10.40894 -1.44226,0 -3.02013,0.64371 -3.50639,1.43053 -0.60536,0.9796 -1.48565,0.93145 -2.79188,-0.15254 -3.51186,-2.91467 -6.0355,-0.42431 -6.0355,5.95569 0,3.27528 0.36441,6.31942 0.80974,6.76489 0.44546,0.44533 3.97574,0.70114 7.84505,0.56839 6.66651,-0.22866 7.05877,-0.44655 7.48295,-4.15815 z m 69.5222803,2.73445 c 2.25159997,-1.39164 2.09973997,-9.29017 -0.24013,-12.49 -1.61335,-2.20644 -2.22882,-2.32309 -4.09306,-0.77591 -1.75717,1.45836 -2.6017,1.48279 -4.2407103,0.12279 -3.29996,-2.73881 -6.13959,0.70388 -6.13959,7.44352 0,3.15985 0.33031,6.07548 0.73402,6.47933 1.05124,1.0511 12.0056503,0.44027 13.9794703,-0.77946 z M -412.11353,321.26099 c 1.07689,-1.07689 2.26251,-1.07757 4.27112,0 4.47332,2.39403 7.56127,-1.66507 6.46787,-8.50227 -0.47794,-2.98876 -1.18972,-5.95309 -1.5817,-6.58752 -1.17649,-1.90355 -4.67333,-1.30241 -5.53847,0.95205 -0.71629,1.86685 -1.0953,1.84543 -3.34254,-0.18828 -3.73752,-3.38238 -6.67879,-0.36783 -6.67879,6.84538 0,7.33887 3.01877,10.8671 6.40251,7.48336 z m -75.3197,-1.20992 c 0.52336,-0.84699 1.76165,-0.75203 3.3806,0.25896 5.14526,3.21333 8.38206,-3.37146 6.00931,-12.22505 -0.87087,-3.2499 -4.41983,-4.06605 -6.89928,-1.58661 -1.06802,1.06815 -1.73982,1.06815 -2.3999,0 -1.37636,-2.2269 -5.80575,-1.7839 -6.74934,0.67495 -1.11236,2.89858 -1.0556,12.16746 0.0818,13.30452 1.36926,1.36927 5.63834,1.09231 6.57716,-0.42677 z m 2547.27053,-6.94484 c 0,-1.05274 -1.0744,-2.12103 -2.3876,-2.37384 -2.3517,-0.45297 -3.324,2.44206 -1.4496,4.31641 1.4301,1.43025 3.8372,0.2116 3.8372,-1.94257 z m -109.0749,-15.03167 c 0.6601,-1.06815 1.3317,-1.06815 2.3999,0 4.0156,4.01572 7.7592,0.78178 7.7592,-6.70294 0,-7.48486 -3.7436,-10.71866 -7.7592,-6.70295 -1.0682,1.06816 -1.7398,1.06816 -2.3999,0 -1.3764,-2.2269 -5.8057,-1.78389 -6.7493,0.67495 -0.4556,1.18699 -0.8282,3.8996 -0.8282,6.028 0,2.12839 0.3726,4.84101 0.8282,6.028 0.9436,2.45884 5.3729,2.90171 6.7493,0.67494 z m -66.5202,-6.82246 c 0.5076,-7.81026 -2.3591,-11.17408 -6.4035,-7.51392 -2.2472,2.03384 -2.6261,2.05513 -3.3425,0.18841 -2.0148,-5.25085 -7.7153,-0.40289 -7.7153,6.56161 0,6.76829 1.0677,7.60396 9.3321,7.30366 l 7.7224,-0.28063 0.4068,-6.25913 z m -1594.65729,2.0524 c 0,-2.40945 -2.93705,-1.98978 -3.78036,0.54001 -0.29702,0.89107 0.4321,1.62018 1.62018,1.62018 1.18807,0 2.16018,-0.97211 2.16018,-2.16019 z m 316.53069,-1.2507 c 0,-1.876 -0.5482,-3.4109 -1.21837,-3.4109 -1.59111,0 -3.10255,3.98502 -2.11639,5.58049 1.4862,2.40469 3.33476,1.202 3.33476,-2.16959 z M 394.31414,274.31716 c 0.47765,-7.32195 -1.35754,-10.14658 -5.0896,-7.83345 -2.22622,1.37977 -3.31443,1.37977 -5.54065,0 -2.29062,-1.41975 -2.99571,-1.36272 -4.0722,0.32949 -1.43353,2.25364 -1.818,11.35008 -0.53386,12.63421 0.44545,0.44533 3.97572,0.70115 7.84504,0.56839 l 7.0353,-0.24121 0.35597,-5.45743 z m 70.73696,2.63116 c 0.41191,-1.64105 0.54752,-4.74618 0.30126,-6.9005 -0.39649,-3.46997 -0.99257,-3.92266 -5.22453,-3.96769 -2.62734,-0.0286 -5.51282,-0.50549 -6.41221,-1.06147 -3.10568,-1.91938 -5.85964,7.58118 -3.77353,13.01761 0.48666,1.26803 2.98438,1.89576 7.54379,1.89576 5.87275,0 6.92002,-0.41312 7.56522,-2.98371 z m 855.7295,-16.71691 c 0.5345,-7.42742 -1.765,-10.85223 -5.1997,-7.74395 -2.0484,1.85375 -2.5428,1.86808 -3.9972,0.11597 -2.4596,-2.96365 -5.3651,-1.14155 -6.3231,3.96564 -1.3722,7.31376 0.9317,9.92938 8.5708,9.73114 l 6.5248,-0.16932 0.4244,-5.89907 z m 298.7765,-0.38093 c 0.4837,-7.41869 -2.1516,-10.88074 -5.6328,-7.39972 -1.2996,1.29954 -2.429,1.57843 -2.9538,0.72939 -1.3214,-2.13823 -5.7609,-1.61787 -6.6822,0.78326 -1.0452,2.72395 -1.0667,7.91205 -0.044,10.57813 0.576,1.5008 2.6626,1.97846 7.8451,1.79564 l 7.0603,-0.249 0.407,-6.2377 z M 624.94743,212.56475 c 0.45256,-7.86674 -1.8427,-10.48126 -6.10959,-6.95917 -1.75865,1.45154 -2.37671,1.48497 -2.82504,0.15267 -0.86786,-2.57836 -4.16251,-2.04395 -5.75608,0.93349 -1.78499,3.3353 -1.82933,10.0418 -0.0778,11.79309 0.73375,0.73375 4.26403,1.31702 7.84506,1.29615 l 6.51083,-0.0382 0.413,-7.17816 z m 305.88502,314.84047 c 0,-0.75039 0.92095,-1.36435 2.04654,-1.36435 1.1256,0 2.04654,0.61396 2.04654,1.36435 0,0.7504 -0.92094,1.36436 -2.04654,1.36436 -1.12559,0 -2.04654,-0.61396 -2.04654,-1.36436 z M -455.69476,334.24379 c -2.35596,-2.37603 -0.95914,-9.71217 2.46117,-12.92537 3.26258,-3.06517 3.71855,-3.14265 7.16286,-1.21824 2.71495,1.5169 3.78432,3.29862 4.08243,6.80241 l 0.40399,4.74715 -6.07779,-0.48339 c -4.84662,-0.38544 -6.17236,-0.0178 -6.54373,1.81309 -0.25609,1.26299 -0.92613,1.83192 -1.48893,1.26435 z m 415.951887,-0.39198 c -0.81984,-1.27159 -2.87334,-1.63696 -6.4807,-1.15316 -4.86365,0.65244 -5.28059,0.44929 -5.28059,-2.57276 0,-3.55251 4.32787,-8.73844 7.29248,-8.73844 3.43941,0 6.56296,4.99478 6.10604,9.76389 -0.30861,3.22029 -0.78997,4.01448 -1.63723,2.70047 z M 196.47034,291.09315 c -1.76193,-4.5916 2.62939,-13.36509 6.68944,-13.36509 3.0095,0 7.29249,5.20856 7.29249,8.86831 0,3.12342 -0.50782,3.41089 -6.02582,3.41089 -3.47256,0 -6.25707,0.69337 -6.57142,1.63641 -0.35323,1.05956 -0.8414,0.86541 -1.38469,-0.55052 z m 230.93545,0.61956 c -0.0136,-1.10867 -2.16946,-1.70545 -6.16049,-1.70545 -5.63929,0 -6.1396,-0.27792 -6.1396,-3.41089 0,-3.71979 4.29895,-8.86831 7.40504,-8.86831 2.42488,0 7.61025,6.42393 7.582,9.39332 -0.0259,2.66813 -2.65544,7.16231 -2.68695,4.59133 z"
     id="path6175"
     inkscape:connector-curvature="0" />
</svg>
