<svg xmlns="http://www.w3.org/2000/svg" width="680" height="680" viewBox="0 0 680 680">
    <g fill="none" fill-rule="evenodd">
        <path fill="#0024FF" d="M680 340c0 187.776-152.012 340-339.528 340C152.956 680 .943 527.776.943 340S152.956 0 340.472 0 680 152.224 680 340" opacity=".6"/>
        <g stroke="#5F76FF" stroke-linecap="round" stroke-linejoin="round" stroke-width=".788">
            <path d="M35.876 188.497C4.734 250.327-5.84 322.092 4.014 390.738M52.488 159.003a340.79 340.79 0 0 0-10.875 18.51M187.898 36.814c-39.834 19.395-73.904 47.63-102.895 80.093M551.032 73.857C460.57-1.437 337.212-16.731 230.724 19.15M678.087 357.816c2.178-34.547-1.347-69.841-10.3-102.65M36.02 491.503C4.88 429.673-5.693 357.907 4.16 289.262M52.634 520.997a340.79 340.79 0 0 1-10.876-18.51M188.044 643.186c-39.834-19.395-73.904-47.63-102.896-80.093M551.178 606.143c-90.462 75.294-213.82 90.588-320.308 54.707M678.232 322.184c2.179 34.547-1.346 69.841-10.3 102.65"/>
        </g>
    </g>
</svg>
