<svg xmlns="http://www.w3.org/2000/svg" width="14" height="14" viewBox="0 0 14 14">
  <defs>
    <style>
      .cls-1 {
        fill-rule: evenodd;
      }
    </style>
  </defs>
  <path class="cls-1" d="M7,3.406a3.5,3.5,0,0,1,1.8.484A3.6,3.6,0,0,1,10.109,5.2a3.575,3.575,0,0,1,0,3.594A3.6,3.6,0,0,1,8.8,10.109a3.576,3.576,0,0,1-3.594,0A3.6,3.6,0,0,1,3.891,8.8a3.575,3.575,0,0,1,0-3.594A3.6,3.6,0,0,1,5.2,3.891,3.5,3.5,0,0,1,7,3.406ZM7,9.344A2.347,2.347,0,0,0,9.344,7,2.347,2.347,0,0,0,7,4.656,2.347,2.347,0,0,0,4.656,7,2.347,2.347,0,0,0,7,9.344ZM11.594,3.25a0.974,0.974,0,0,1-.266.594,0.761,0.761,0,0,1-.578.25A0.854,0.854,0,0,1,9.906,3.25,0.844,0.844,0,0,1,11.594,3.25Zm2.375,0.844Q14,4.969,14,7T13.953,9.922a5.889,5.889,0,0,1-.266,1.547,3.658,3.658,0,0,1-2.219,2.219,5.893,5.893,0,0,1-1.547.266Q9.031,14,7,14t-2.922-.047a5.1,5.1,0,0,1-1.547-.3,3.33,3.33,0,0,1-1.359-.828,3.642,3.642,0,0,1-.859-1.359A5.892,5.892,0,0,1,.047,9.922Q0,9.031,0,7T0.047,4.078A5.892,5.892,0,0,1,.313,2.531,3.658,3.658,0,0,1,2.531.313,5.893,5.893,0,0,1,4.078.047Q4.969,0,7,0T9.922,0.047a5.893,5.893,0,0,1,1.547.266,3.658,3.658,0,0,1,2.219,2.219A6.357,6.357,0,0,1,13.969,4.094Zm-1.5,7.031a6.586,6.586,0,0,0,.25-1.688Q12.75,8.75,12.75,7.5v-1q0-1.281-.031-1.937a6.275,6.275,0,0,0-.25-1.687,2.255,2.255,0,0,0-1.344-1.344,6.273,6.273,0,0,0-1.687-.25Q8.75,1.25,7.5,1.25h-1q-1.25,0-1.937.031a6.581,6.581,0,0,0-1.687.25A2.255,2.255,0,0,0,1.531,2.875a6.269,6.269,0,0,0-.25,1.687Q1.25,5.25,1.25,6.5v1q0,1.25.031,1.937a6.579,6.579,0,0,0,.25,1.688,2.369,2.369,0,0,0,1.344,1.344,6.576,6.576,0,0,0,1.688.25Q5.25,12.75,6.5,12.75h1q1.281,0,1.938-.031a6.269,6.269,0,0,0,1.688-.25A2.369,2.369,0,0,0,12.469,11.125Z"/>
</svg>
