<svg xmlns="http://www.w3.org/2000/svg" width="19" height="19" viewBox="0 0 19 19">
  <defs>
    <style>
      .cls-1 {
        fill-rule: evenodd;
      }
    </style>
  </defs>
  <path class="cls-1" d="M0,0H19V19H0V0ZM15.777,4.5V4.283h-3.52l-2.5,6.277L6.871,4.283H3.18V4.5L4.367,5.937a0.423,0.423,0,0,1,.17.425V12a0.682,0.682,0,0,1-.17.552L3.01,14.165v0.212H6.827V14.165L5.47,12.554A0.682,0.682,0,0,1,5.3,12V7.125l3.35,7.252H9.032l2.842-7.252v5.81a0.346,0.346,0,0,1-.085.255l-1.018,1.018V14.42h5V14.208l-1.018-.976a0.407,0.407,0,0,1-.127-0.3V5.768a0.407,0.407,0,0,1,.127-0.3L15.776,4.5h0Z"/>
</svg>
