<svg xmlns="http://www.w3.org/2000/svg" width="19" height="13" viewBox="0 0 19 13">
  <defs>
    <style>
      .cls-1 {
        fill-rule: evenodd;
      }
    </style>
  </defs>
  <path class="cls-1" d="M18.625,2.039a14.886,14.886,0,0,1,.348,2.776l0.035,1.693L18.974,8.2a15.061,15.061,0,0,1-.348,2.81A2.349,2.349,0,0,1,18,12.028a2.432,2.432,0,0,1-1.08.609,25.473,25.473,0,0,1-4.25.338L9.5,13.01l-3.17-.034a25.471,25.471,0,0,1-4.25-.338A2.432,2.432,0,0,1,1,12.028a2.35,2.35,0,0,1-.627-1.016A15.071,15.071,0,0,1,.025,8.2L-0.01,6.509q0-.745.035-1.693A14.9,14.9,0,0,1,.373,2.039,2.333,2.333,0,0,1,1,.99,2.432,2.432,0,0,1,2.08.38,25.476,25.476,0,0,1,6.329.042L9.5,0.008l3.17,0.034a25.478,25.478,0,0,1,4.25.339A2.432,2.432,0,0,1,18,.99,2.332,2.332,0,0,1,18.625,2.039ZM7.549,9.285L12.53,6.509,7.549,3.766V9.285Z"/>
</svg>
