<svg xmlns="http://www.w3.org/2000/svg" width="15.813" height="15.813" viewBox="0 0 15.813 15.813">
  <defs>
    <style>
      .cls-1 {
        fill-rule: evenodd;
      }
    </style>
  </defs>
  <path class="cls-1" d="M8.7,6.626l0.7,2.044-2.114.7-0.7-2.043Zm1.48,8.6a11.558,11.558,0,0,1-4.545.634,4.356,4.356,0,0,1-2.907-1.568A11.61,11.61,0,0,1,.76,10.167,11.607,11.607,0,0,1,.143,5.639,4.356,4.356,0,0,1,1.711,2.733,11.609,11.609,0,0,1,5.833.76,11.607,11.607,0,0,1,10.361.143a4.356,4.356,0,0,1,2.907,1.568A11.613,11.613,0,0,1,15.24,5.833a11.605,11.605,0,0,1,.617,4.527,4.356,4.356,0,0,1-1.568,2.907A11.421,11.421,0,0,1,10.184,15.223ZM13,8.317A0.811,0.811,0,0,0,12.6,7.841a0.756,0.756,0,0,0-.617-0.053l-1.022.352L10.29,6.1l1.022-.317a0.741,0.741,0,0,0,.458-0.423,0.849,0.849,0,0,0,.035-0.634A0.747,0.747,0,0,0,11.4,4.265a0.936,0.936,0,0,0-.617-0.07l-1.022.352L9.409,3.49A0.811,0.811,0,0,0,9,3.014,0.794,0.794,0,0,0,8.37,2.962a0.742,0.742,0,0,0-.476.423,0.85,0.85,0,0,0-.035.634L8.211,5.076,6.1,5.78,5.745,4.723A0.811,0.811,0,0,0,5.34,4.248a0.794,0.794,0,0,0-.634-0.053A0.749,0.749,0,0,0,4.23,4.6a0.886,0.886,0,0,0-.035.652L4.547,6.309l-1.022.317A0.857,0.857,0,0,0,3,7.683a0.674,0.674,0,0,0,.282.388,1.127,1.127,0,0,0,.493.176A5,5,0,0,0,4.582,8l0.493-.141L5.745,9.9l-1.022.317a0.811,0.811,0,0,0-.476.405,0.832,0.832,0,0,0-.053.652,0.674,0.674,0,0,0,.282.387,1.127,1.127,0,0,0,.493.176,5,5,0,0,0,.81-0.247l0.493-.141L6.626,12.51a0.68,0.68,0,0,0,.37.44,0.849,0.849,0,0,0,.634.07,0.742,0.742,0,0,0,.493-0.405,0.8,0.8,0,0,0,.053-0.634L7.824,10.924l2.079-.7,0.352,1.057a0.811,0.811,0,0,0,.405.476,0.794,0.794,0,0,0,.634.053A0.748,0.748,0,0,0,11.77,11.4a0.885,0.885,0,0,0,.035-0.652L11.488,9.691l1.022-.317a0.883,0.883,0,0,0,.458-0.44A0.8,0.8,0,0,0,13,8.317Z" transform="translate(-0.094 -0.094)"/>
</svg>
