<svg xmlns="http://www.w3.org/2000/svg" width="17" height="13.656" viewBox="0 0 17 13.656">
  <defs>
    <style>
      .cls-1 {
        fill-rule: evenodd;
      }
    </style>
  </defs>
  <path class="cls-1" d="M17.011,1.962a7.037,7.037,0,0,1-2.005.544A3.474,3.474,0,0,0,16.542.6a7.093,7.093,0,0,1-2.218.839A3.521,3.521,0,0,0,9.387,1.27,3.427,3.427,0,0,0,8.371,4.582,9.954,9.954,0,0,1,1.173.976,3.4,3.4,0,0,0,.7,2.711,3.439,3.439,0,0,0,2.253,5.584,3.524,3.524,0,0,1,.672,5.15V5.193a3.466,3.466,0,0,0,2.8,3.385,3.559,3.559,0,0,1-.92.121,3.392,3.392,0,0,1-.658-0.064,3.49,3.49,0,0,0,3.261,2.4A7.06,7.06,0,0,1,.82,12.507,7.562,7.562,0,0,1-.014,12.46a9.955,9.955,0,0,0,5.354,1.553,9.807,9.807,0,0,0,9.936-9.822l-0.012-.446A6.93,6.93,0,0,0,17.011,1.962Z" transform="translate(0 -0.344)"/>
</svg>
