<svg id="SVGDoc" width="103" height="23" xmlns="http://www.w3.org/2000/svg" version="1.1" xmlns:xlink="http://www.w3.org/1999/xlink" xmlns:avocode="https://avocode.com/" viewBox="0 0 103 23"><defs><path d="M1047,1273v-3h-3v3z" id="Path-0"/><path d="M1027,1273v-3h-3v3z" id="Path-1"/><path d="M1047,1293v-3h-3v3z" id="Path-2"/><path d="M1027,1293v-3h-3v3z" id="Path-3"/><path d="M1044,1313v-3h3v3z" id="Path-4"/><path d="M1027,1313v-3h-3v3z" id="Path-5"/><path d="M1044,1333v-3h3v3z" id="Path-6"/><path d="M1024,1333v-3h3v3z" id="Path-7"/><path d="M1024,1353v-3h3v3z" id="Path-8"/><path d="M1044,1353v-3h3v3z" id="Path-9"/><path d="M1044,1373v-3h3v3z" id="Path-10"/><path d="M1024,1373v-3h3v3z" id="Path-11"/></defs><desc>Generated with Avocode.</desc><g transform="matrix(1,0,0,1,-984,-1310)"><g transform="matrix(6.123233995736766e-17,1,-1,6.123233995736766e-17,2357,286)"><title>Anim_dots</title><g><title>dots_white</title><g><title>Rectangle</title><use xlink:href="#Path-0" fill="#0024ff" fill-opacity="1"/></g><g><title>Rectangle</title><use xlink:href="#Path-1" fill="#0024ff" fill-opacity="1"/></g><g><title>Rectangle</title><use xlink:href="#Path-2" fill="#0024ff" fill-opacity="1"/></g><g><title>Rectangle</title><use xlink:href="#Path-3" fill="#0024ff" fill-opacity="1"/></g><g><title>Rectangle</title><use xlink:href="#Path-4" fill="#0024ff" fill-opacity="1"/></g><g><title>Rectangle</title><use xlink:href="#Path-5" fill="#0024ff" fill-opacity="1"/></g><g><title>Rectangle</title><use xlink:href="#Path-6" fill="#0024ff" fill-opacity="1"/></g><g><title>Rectangle</title><use xlink:href="#Path-7" fill="#0024ff" fill-opacity="1"/></g><g><title>Rectangle</title><use xlink:href="#Path-8" fill="#0024ff" fill-opacity="1"/></g><g><title>Rectangle</title><use xlink:href="#Path-9" fill="#0024ff" fill-opacity="1"/></g><g><title>Rectangle</title><use xlink:href="#Path-10" fill="#0024ff" fill-opacity="1"/></g><g><title>Rectangle</title><use xlink:href="#Path-11" fill="#0024ff" fill-opacity="1"/></g></g></g></g></svg>