<svg id="SVGDoc" width="23" height="103" xmlns="http://www.w3.org/2000/svg" version="1.1" xmlns:xlink="http://www.w3.org/1999/xlink" xmlns:avocode="https://avocode.com/" viewBox="0 0 23 103"><defs><path d="M115,1302v-3h-3v3z" id="Path-0"/><path d="M95,1302v-3h-3v3z" id="Path-1"/><path d="M115,1322v-3h-3v3z" id="Path-2"/><path d="M95,1322v-3h-3v3z" id="Path-3"/><path d="M115,1342v-3h-3v3z" id="Path-4"/><path d="M95,1342v-3h-3v3z" id="Path-5"/><path d="M115,1362v-3h-3v3z" id="Path-6"/><path d="M95,1362v-3h-3v3z" id="Path-7"/><path d="M95,1382v-3h-3v3z" id="Path-8"/><path d="M115,1382v-3h-3v3z" id="Path-9"/><path d="M115,1402v-3h-3v3z" id="Path-10"/><path d="M95,1402v-3h-3v3z" id="Path-11"/></defs><desc>Generated with Avocode.</desc><g transform="matrix(1,0,0,1,-92,-1299)"><g><title>Anim_dots</title><g><title>dots_white</title><g><title>Rectangle</title><use xlink:href="#Path-0" fill="#0024ff" fill-opacity="1"/></g><g><title>Rectangle</title><use xlink:href="#Path-1" fill="#0024ff" fill-opacity="1"/></g><g><title>Rectangle</title><use xlink:href="#Path-2" fill="#0024ff" fill-opacity="1"/></g><g><title>Rectangle</title><use xlink:href="#Path-3" fill="#0024ff" fill-opacity="1"/></g><g><title>Rectangle</title><use xlink:href="#Path-4" fill="#0024ff" fill-opacity="1"/></g><g><title>Rectangle</title><use xlink:href="#Path-5" fill="#0024ff" fill-opacity="1"/></g><g><title>Rectangle</title><use xlink:href="#Path-6" fill="#0024ff" fill-opacity="1"/></g><g><title>Rectangle</title><use xlink:href="#Path-7" fill="#0024ff" fill-opacity="1"/></g><g><title>Rectangle</title><use xlink:href="#Path-8" fill="#0024ff" fill-opacity="1"/></g><g><title>Rectangle</title><use xlink:href="#Path-9" fill="#0024ff" fill-opacity="1"/></g><g><title>Rectangle</title><use xlink:href="#Path-10" fill="#0024ff" fill-opacity="1"/></g><g><title>Rectangle</title><use xlink:href="#Path-11" fill="#0024ff" fill-opacity="1"/></g></g></g></g></svg>