<svg id="SVGDoc" width="83" height="75" xmlns="http://www.w3.org/2000/svg" version="1.1" xmlns:xlink="http://www.w3.org/1999/xlink" xmlns:avocode="https://avocode.com/" viewBox="0 0 83 75"><defs><path d="M232,1260.93v-2.71h3v2.71z" id="Path-0"/><path d="M252,1260.93v-2.71h3v2.71z" id="Path-1"/><path d="M232,1279v-2.71h3v2.71z" id="Path-2"/><path d="M252,1279v-2.71h3v2.71z" id="Path-3"/><path d="M272,1206.71v-2.71h3v2.71z" id="Path-4"/><path d="M252,1206.71v-2.71h3v2.71z" id="Path-5"/><path d="M272,1224.78v-2.71h3v2.71z" id="Path-6"/><path d="M252,1224.78v-2.71h3v2.71z" id="Path-7"/><path d="M292,1242.84996v-2.70996h3v2.70996z" id="Path-8"/><path d="M312,1242.84996v-2.70996h3v2.70996z" id="Path-9"/><path d="M292,1260.93v-2.71h3v2.71z" id="Path-10"/><path d="M312,1260.93v-2.71h3v2.71z" id="Path-11"/><path d="M312,1206.71v-2.71h3v2.71z" id="Path-12"/><path d="M292,1206.71v-2.71h3v2.71z" id="Path-13"/><path d="M312,1224.78v-2.71h3v2.71z" id="Path-14"/><path d="M292,1224.78v-2.71h3v2.71z" id="Path-15"/><path d="M272,1242.84996v-2.70996h3v2.70996z" id="Path-16"/><path d="M272,1260.93v-2.71h3v2.71z" id="Path-17"/><path d="M252,1242.84996v-2.70996h3v2.70996z" id="Path-18"/></defs><desc>Generated with Avocode.</desc><g transform="matrix(1,0,0,1,-232,-1204)"><g clip-path="url(#clip-DAD5182D-1941-4B6E-9E5C-1ECDEAEA9811)" transform="matrix(-1,0,0,1,547,0)"><title>Group 18</title><g><title>Rectangle</title><use xlink:href="#Path-0" fill="#ffffff" fill-opacity="1"/></g><g><title>Rectangle</title><use xlink:href="#Path-1" fill="#ffffff" fill-opacity="1"/></g><g><title>Rectangle</title><use xlink:href="#Path-2" fill="#ffffff" fill-opacity="1"/></g><g><title>Rectangle</title><use xlink:href="#Path-3" fill="#ffffff" fill-opacity="1"/></g><g><title>Rectangle</title><use xlink:href="#Path-4" fill="#2700c3" fill-opacity="1"/></g><g><title>Rectangle</title><use xlink:href="#Path-5" fill="#2700c3" fill-opacity="1"/></g><g><title>Rectangle</title><use xlink:href="#Path-6" fill="#2700c3" fill-opacity="1"/></g><g><title>Rectangle</title><use xlink:href="#Path-7" fill="#2700c3" fill-opacity="1"/></g><g><title>Rectangle</title><use xlink:href="#Path-8" fill="#2700c3" fill-opacity="1"/></g><g><title>Rectangle</title><use xlink:href="#Path-9" fill="#2700c3" fill-opacity="1"/></g><g><title>Rectangle</title><use xlink:href="#Path-10" fill="#2700c3" fill-opacity="1"/></g><g><title>Rectangle</title><use xlink:href="#Path-11" fill="#2700c3" fill-opacity="1"/></g><g><title>Rectangle</title><use xlink:href="#Path-12" fill="#2700c3" fill-opacity="1"/></g><g><title>Rectangle</title><use xlink:href="#Path-13" fill="#2700c3" fill-opacity="1"/></g><g><title>Rectangle</title><use xlink:href="#Path-14" fill="#2700c3" fill-opacity="1"/></g><g><title>Rectangle</title><use xlink:href="#Path-15" fill="#2700c3" fill-opacity="1"/></g><g><title>Rectangle</title><use xlink:href="#Path-16" fill="#2700c3" fill-opacity="1"/></g><g><title>Rectangle</title><use xlink:href="#Path-17" fill="#2700c3" fill-opacity="1"/></g><g><title>Rectangle</title><use xlink:href="#Path-18" fill="#2700c3" fill-opacity="1"/></g></g></g></svg>