<svg xmlns="http://www.w3.org/2000/svg" xmlns:xlink="http://www.w3.org/1999/xlink" width="124" height="203" viewBox="0 0 124 203"><defs><path id="tth9a" d="M1153 1846v-3h-3v3z"/><path id="tth9b" d="M1153 1866v-3h-3v3z"/><path id="tth9c" d="M1133 1866v-3h-3v3z"/><path id="tth9d" d="M1113 1866v-3h-3v3z"/><path id="tth9e" d="M1093 1866v-3h-3v3z"/><path id="tth9f" d="M1093 1846v-3h-3v3z"/><path id="tth9g" d="M1113 1846v-3h-3v3z"/><path id="tth9h" d="M1133 1846v-3h-3v3z"/><path id="tth9i" d="M1153 1886v-3h-3v3z"/><path id="tth9j" d="M1133 1886v-3h-3v3z"/><path id="tth9k" d="M1113 1886v-3h-3v3z"/><path id="tth9l" d="M1093 1886v-3h-3v3z"/><path id="tth9m" d="M1153 1906v-3h-3v3z"/><path id="tth9n" d="M1133 1906v-3h-3v3z"/><path id="tth9o" d="M1113 1906v-3h-3v3z"/><path id="tth9p" d="M1093 1906v-3h-3v3z"/><path id="tth9q" d="M1153 1926v-3h-3v3z"/><path id="tth9r" d="M1133 1926v-3h-3v3z"/><path id="tth9s" d="M1113 1926v-3h-3v3z"/><path id="tth9t" d="M1093 1926v-3h-3v3z"/><path id="tth9u" d="M1153 1946v-3h-3v3z"/><path id="tth9v" d="M1133 1946v-3h-3v3z"/><path id="tth9w" d="M1113 1946v-3h-3v3z"/><path id="tth9x" d="M1193 1846v-3h-3v3z"/><path id="tth9y" d="M1173 1846v-3h-3v3z"/><path id="tth9z" d="M1193 1866v-3h-3v3z"/><path id="tth9A" d="M1173 1866v-3h-3v3z"/><path id="tth9B" d="M1193 1886v-3h-3v3z"/><path id="tth9C" d="M1173 1886v-3h-3v3z"/><path id="tth9D" d="M1193 1906v-3h-3v3z"/><path id="tth9E" d="M1173 1906v-3h-3v3z"/><path id="tth9F" d="M1193 1926v-3h-3v3z"/><path id="tth9G" d="M1173 1926v-3h-3v3z"/><path id="tth9H" d="M1193 1946v-3h-3v3z"/><path id="tth9I" d="M1173 1946v-3h-3v3z"/><path id="tth9J" d="M1093 1946v-3h-3v3z"/><path id="tth9K" d="M1214 1946v-3h-3v3z"/><path id="tth9L" d="M1194 1946v-3h-3v3z"/><path id="tth9M" d="M1214 1966v-3h-3v3z"/><path id="tth9N" d="M1194 1966v-3h-3v3z"/><path id="tth9O" d="M1214 1986v-3h-3v3z"/><path id="tth9P" d="M1194 1986v-3h-3v3z"/><path id="tth9Q" d="M1214 2006v-3h-3v3z"/><path id="tth9R" d="M1194 2006v-3h-3v3z"/><path id="tth9S" d="M1194 2026v-3h-3v3z"/><path id="tth9T" d="M1214 2026v-3h-3v3z"/><path id="tth9U" d="M1214 2046v-3h-3v3z"/><path id="tth9V" d="M1194 2046v-3h-3v3z"/></defs><g><g transform="translate(-1090 -1843)"><g><g><use fill="#2700c3" xlink:href="#tth9a"/></g><g><use fill="#2700c3" xlink:href="#tth9b"/></g><g><use fill="#2700c3" xlink:href="#tth9c"/></g><g><use fill="#2700c3" xlink:href="#tth9d"/></g><g><use fill="#2700c3" xlink:href="#tth9e"/></g><g><use fill="#2700c3" xlink:href="#tth9f"/></g><g><use fill="#2700c3" xlink:href="#tth9g"/></g><g><use fill="#2700c3" xlink:href="#tth9h"/></g><g><use fill="#2700c3" xlink:href="#tth9i"/></g><g><use fill="#2700c3" xlink:href="#tth9j"/></g><g><use fill="#2700c3" xlink:href="#tth9k"/></g><g><use fill="#2700c3" xlink:href="#tth9l"/></g><g><use fill="#2700c3" xlink:href="#tth9m"/></g><g><use fill="#2700c3" xlink:href="#tth9n"/></g><g><use fill="#2700c3" xlink:href="#tth9o"/></g><g><use fill="#2700c3" xlink:href="#tth9p"/></g><g><use fill="#2700c3" xlink:href="#tth9q"/></g><g><use fill="#2700c3" xlink:href="#tth9r"/></g><g><use fill="#2700c3" xlink:href="#tth9s"/></g><g><use fill="#2700c3" xlink:href="#tth9t"/></g><g><use fill="#2700c3" xlink:href="#tth9u"/></g><g><use fill="#2700c3" xlink:href="#tth9v"/></g><g><use fill="#2700c3" xlink:href="#tth9w"/></g><g><use fill="#2700c3" xlink:href="#tth9x"/></g><g><use fill="#2700c3" xlink:href="#tth9y"/></g><g><use fill="#2700c3" xlink:href="#tth9z"/></g><g><use fill="#2700c3" xlink:href="#tth9A"/></g><g><use fill="#2700c3" xlink:href="#tth9B"/></g><g><use fill="#2700c3" xlink:href="#tth9C"/></g><g><use fill="#2700c3" xlink:href="#tth9D"/></g><g><use fill="#2700c3" xlink:href="#tth9E"/></g><g><use fill="#2700c3" xlink:href="#tth9F"/></g><g><use fill="#2700c3" xlink:href="#tth9G"/></g><g><use fill="#2700c3" xlink:href="#tth9H"/></g><g><use fill="#2700c3" xlink:href="#tth9I"/></g><g><use fill="#2700c3" xlink:href="#tth9J"/></g></g><g><g><use fill="#fff" xlink:href="#tth9K"/></g><g><use fill="#fff" xlink:href="#tth9L"/></g><g><use fill="#fff" xlink:href="#tth9M"/></g><g><use fill="#fff" xlink:href="#tth9N"/></g><g><use fill="#fff" xlink:href="#tth9O"/></g><g><use fill="#fff" xlink:href="#tth9P"/></g><g><use fill="#fff" xlink:href="#tth9Q"/></g><g><use fill="#fff" xlink:href="#tth9R"/></g><g><use fill="#fff" xlink:href="#tth9S"/></g><g><use fill="#fff" xlink:href="#tth9T"/></g><g><use fill="#fff" xlink:href="#tth9U"/></g><g><use fill="#fff" xlink:href="#tth9V"/></g></g></g></g></svg>