<?xml version="1.0" encoding="utf-8"?>
<!-- Generator: Adobe Illustrator 19.0.0, SVG Export Plug-In . SVG Version: 6.00 Build 0)  -->
<svg version="1.1" id="Layer_1" xmlns="http://www.w3.org/2000/svg" xmlns:xlink="http://www.w3.org/1999/xlink" x="0px" y="0px"
	 viewBox="423 229.9 1442 383" style="enable-background:new 423 229.9 1442 383;" xml:space="preserve">
<style type="text/css">
	.st0{fill:#FFFFFF;}
	.st1{fill:#230CEA;}
	.st2{opacity:0.1;fill:#FFFFFF;enable-background:new    ;}
	.st3{fill:none;stroke:#7898FF;stroke-width:0.5;stroke-linecap:round;stroke-linejoin:round;}
	.st4{fill:#2700C3;}
	.st5{fill:#FFFFFF;stroke:#2700C3;stroke-width:0.4;}
	.st6{fill:none;stroke:#2700C3;stroke-width:0.5;stroke-linecap:round;stroke-linejoin:round;}
	.st7{fill:none;stroke:#2700C3;stroke-width:0.5315;stroke-linecap:round;stroke-linejoin:round;}
	.st8{fill:none;stroke:#2700C3;stroke-width:0.5176;stroke-linecap:round;stroke-linejoin:round;}
	.st9{fill:none;stroke:#2700C3;stroke-width:0.5403;stroke-linecap:round;stroke-linejoin:round;}
	.st10{fill:none;stroke:#2700C3;stroke-width:0.6282;stroke-linecap:round;stroke-linejoin:round;}
	.st11{fill:none;stroke:#2700C3;stroke-width:1.2564;stroke-linecap:round;stroke-linejoin:round;}
	.st12{fill:none;stroke:#2700C3;stroke-width:0.7846;stroke-linecap:round;stroke-linejoin:round;}
</style>
<title>footer image</title>
<desc>Created with Sketch.</desc>
<g id="RDB-Web-Design">
	<g id="footer-image">
		<g transform="translate(1.000000, 0.000000)">
			<circle id="Oval-4" class="st0" cx="1435" cy="409.9" r="180"/>
			<rect id="bg" x="423" y="331.9" class="st1" width="1440" height="280"/>
			<g id="Bottom" transform="translate(359.000000, 0.000000)">
				<circle id="Oval-4_1_" class="st2" cx="1076" cy="409.9" r="180"/>
				<g id="Group-54" transform="translate(473.000000, 0.000000)">
					<path id="Stroke-91" class="st3" d="M442.6,330.6c-16.7,33-22.3,71.4-17,108"/>
					<path id="Stroke-93" class="st3" d="M451.5,314.8c-2,3.2-4,6.5-5.8,9.9"/>
					<path id="Stroke-95" class="st3" d="M523.9,249.5c-21.3,10.4-39.5,25.4-55,42.8"/>
					<path id="Stroke-97" class="st3" d="M718.1,269.3c-48.4-40.2-114.3-48.4-171.3-29.2"/>
					<path id="Stroke-99" class="st3" d="M786,421c1.2-18.5-0.7-37.3-5.5-54.8"/>
				</g>
				<path id="Combined-Shape" class="st4" d="M588.7,545.1v-50l35.2-8.7v21l4.9,0v37l6.4,0V465h7.4v79.2l2.5,0v19.7h15.4v-65.1h8.6
					v-8.7h4.5v-52.6h8.4v-19.3h23.2v19.3h14.6v154.2h-33h-13.2h-2.2h-11H637v-27.8h8.1v27.8h-56.4l-165.3,0V564h37.2v-13.5h21.1V564
					h10.7v-32.4h56.3v-36l30.1-6.3v55.8H588.7z M1198.9,315.2h6v44.9v37.2h12.5v13.2h12.5v18.2h10V420h31.1v50.8h24.9v66.2h6.2
					v-32.2h16.8v15.6h12.1v-82.7h9.7v-5.4h10.6v-37.2h2.5v37.2h10.6v5.4h9.3V450h19.3v11.3h16.2v75.8h5.6v-45.4h36.8v19.4h15v-19.4
					h37.4v100.1H728.7v-184h24.9v-15.1h32.1V414h27.3v5.3h8.6v18.3h30.7l18.3-50.1l18.3,50.1h26.6v49.5h36.9v-49.5h45.7v49.2h-8.7
					v48.7h25.2V513h93.4v-30.1h82.4V360.1h8.3V315.2z"/>
				<g id="Lines2" transform="translate(36.644203, 84.882332)">
					<path id="Stroke-23" class="st3" d="M846,335.1c1.8,5.1,3.5,10.2,5.5,15.3"/>
					<polyline id="Stroke-9" class="st3" points="423.9,465.6 445.1,465.6 445.1,472.7 					"/>
					<path id="Stroke-10" class="st3" d="M445.1,479.1h5.3"/>
					<polyline id="Stroke-12" class="st3" points="600.1,380.1 606,380.1 606,424.9 					"/>
					<path id="Stroke-13" class="st3" d="M606,459.4h2.5"/>
					<polyline id="Stroke-14" class="st3" points="559.7,408.4 587.2,401.6 587.2,415.2 					"/>
					<polyline id="Stroke-15" class="st3" points="587.2,422.5 592.2,422.5 592.2,459.5 					"/>
					<polyline id="Stroke-16" class="st3" points="542.2,417.4 542.2,404.4 520.8,408.9 					"/>
					<path id="Stroke-17" class="st3" d="M552.1,460.3h-9.9"/>
					<path id="Stroke-18" class="st3" d="M552.1,410.2v14.7"/>
					<path id="Stroke-19" class="st3" d="M455.7,446.7H500"/>
					<polyline id="Stroke-20" class="st3" points="916.6,352.7 961.6,352.7 961.6,401.9 					"/>
					<polyline id="Stroke-21" class="st3" points="858.3,352.7 878.9,352.7 878.9,378.3 					"/>
					<path id="Stroke-22" class="st3" d="M878.9,386.2v4.4"/>
					<path id="Stroke-25" class="st3" d="M842.5,325.9c0.6,1.5,1.1,2.9,1.7,4.4"/>
					<path id="Stroke-27" class="st3" d="M834,302.7c2.4,6.5,4.9,12.8,6.9,18.9"/>
					<polyline id="Stroke-29" class="st3" points="785,343.9 785,334.4 776.4,334.4 776.4,329.1 752.5,329.1 					"/>
					<polyline id="Stroke-31" class="st3" points="749.1,388.4 749.1,307.9 719,307.9 					"/>
					<path id="Stroke-33" class="st3" d="M739.2,322.9l-43.2,0.1"/>
					<polyline id="Stroke-35" class="st3" points="808.8,352.7 815.8,352.7 821.4,337.3 					"/>
					<polyline id="Stroke-37" class="st3" points="683.3,361.9 683.3,352.7 674.8,352.7 					"/>
					<polyline id="Stroke-39" class="st3" points="668.7,378.3 668.7,333.4 648.1,333.4 					"/>
					<path id="Stroke-41" class="st3" d="M645.5,352.7H640"/>
					<path id="Stroke-43" class="st3" d="M683.3,368.6v28.3"/>
					<polyline id="Stroke-45" class="st3" points="952.9,401.9 952.9,450.6 978.1,450.6 978.1,431.2 					"/>
					<path id="Stroke-47" class="st3" d="M1153.9,370.6V363"/>
					<polyline id="Stroke-49" class="st3" points="1090.6,398 1153.9,398 1153.9,376.2 					"/>
					<path id="Stroke-51" class="st3" d="M1153.9,356.7v-10.2"/>
					<path id="Stroke-53" class="st3" d="M1153.9,335.9v-9.3"/>
					<polyline id="Stroke-55" class="st3" points="1153.9,306.1 1153.9,275.2 1160,275.2 					"/>
					<path id="Stroke-57" class="st3" d="M1162.2,262.6v-32.3c1.5,0,3,0,4.5,0"/>
					<polyline id="Stroke-59" class="st3" points="1174.4,312.5 1170.6,312.4 1168.3,312.4 					"/>
					<path id="Stroke-61" class="st3" d="M1180.7,325.6h9.4"/>
					<polyline id="Stroke-63" class="st3" points="1193.2,343.8 1203.2,343.8 1203.2,335.1 1227.6,335.1 					"/>
					<polyline id="Stroke-65" class="st3" points="1238.1,385.7 1249.2,385.7 1258.8,385.7 					"/>
					<polyline id="Stroke-67" class="st3" points="1294.4,355.3 1294.4,352.8 1302.4,352.8 					"/>
					<polyline id="Stroke-69" class="st3" points="1314.7,320.5 1314.7,312.2 1314.7,310.2 1317.2,310.2 					"/>
					<path id="Stroke-71" class="st3" d="M1314.7,335.5v-12"/>
					<polyline id="Stroke-73" class="st3" points="1304.1,402.6 1304.1,347.4 1314.7,347.4 1314.7,338.5 					"/>
					<path id="Stroke-75" class="st3" d="M1319.4,347.4h8.4"/>
					<path id="Stroke-77" class="st3" d="M1330.5,352.8h3.5"/>
					<polyline id="Stroke-79" class="st3" points="1354.1,365.1 1345.6,365.1 1337.1,365.1 					"/>
					<path id="Stroke-81" class="st3" d="M1356.8,376.4h12.7"/>
					<polyline id="Stroke-83" class="st3" points="1376.1,452.2 1378.2,452.2 1378.2,406.8 1404.2,406.8 					"/>
					<path id="Stroke-85" class="st3" d="M1409,406.8h5.9"/>
					<polyline id="Stroke-87" class="st3" points="1424.2,426.3 1429.9,426.3 1429.9,406.8 1436.2,406.8 					"/>
					<path id="Stroke-89" class="st3" d="M1454.9,406.8h9.6"/>
					<polyline id="Stroke-101" class="st3" points="1265.4,432 1265.4,420 1274.9,420 					"/>
					<polyline id="Stroke-103" class="st3" points="1261.3,452.2 1265.4,452.2 1265.4,438.1 					"/>
					<polyline id="Stroke-105" class="st3" points="913.1,402.2 915.9,402.2 909.1,402.2 					"/>
					<path id="Stroke-107" class="st3" d="M776.4,334.4v23.8"/>
					<path id="Stroke-109" class="st3" d="M961.6,401.9h-29"/>
					<path id="Stroke-111" class="st3" d="M953.2,450.6h-10"/>
					<path id="Stroke-113" class="st3" d="M1168.1,285.6c0,10.4,0,21.1,0,31.6"/>
				</g>
			</g>
			<g id="Top" transform="translate(0.000000, 3.000000)">
				<path id="Combined-Shape_1_" class="st5" d="M1211.8,568.6h2.4v-18.3h-2.4V568.6z M1207.8,568.6h1.3v-18.3h-1.3V568.6z
					 M1190.2,568.6h1.3v-18.3h-1.3V568.6z M1185.1,568.6h2.4v-18.3h-2.4V568.6z M989.8,575h8.9v2.9h1.1v11h15.1v-8.3h2.1V547h-1.1
					v-2.6h-1v-3.2h2.1h46.9v-1.5h3.1v-5.9h0l-2.9-4.1V527h5.5v-18h2v-29.7l-3.5-3.4v-2.2h10v-4.2h6.4l1.3-16.1h1.1l1.3,16.1h6.4v4.2
					h10v2.2l-3.5,3.4v29.7h2v18h5.5v2.7l-2.9,4.1h0v5.9h3.1v1.5h46.9h2.1v3.2h-1v2.6h-1.1v33.6h2.1v8.3h14.6v-3.2h1.1V585h1.6v-8.1
					h-1.6v-1.3h-0.8v-2h7.8v-2.7h0.9v-2.3h0.9v-18.3v-1v-1h-1.4v-1.8h1.4v-1.6h5v-2.8h1.9v-4h1v-2.1h3.1l0.6-70.3h-1.5v-2.6h-0.6
					v-8.4h6.3v-1.6c-1-0.1-2.7-0.8-2.9-1.6c-0.2-0.9,2.6-5.7,1.7-6c-2.9-0.9-6.5-6.7-6.1-7.4c0.4-0.7,3.7,1.5,5.9,3.1
					c0.6,0.4,1.1,0.8,1.7,1.1c-0.3-1.2-1-4.3,1.1-4.3c2,0,1.7,2.6,1.2,4.3c0.6-0.2,1.1-0.6,1.7-1.1c2.1-1.6,5.4-3.8,5.9-3.1
					c0.4,0.7-3.2,6.6-6.1,7.4c-0.9,0.3,1.9,5.1,1.7,6c-0.2,0.9-1.9,1.5-2.9,1.6v1.6h6.3v8.4h-0.6v2.6h-1.5l0.6,70.3h3.1v2.1h1v4h1.9
					v2.8h5v1.6h1.4v1.8h-1.4v1v1v18.3h0.9v2.3h0.9v2.7h7.8v2h-0.8v1.3h-1.6v8.1h1.6v0.7h1.1v3.2h14.1l0.3-6.5h-0.8v-2.2h0.9
					l1.4-44.5l-1.6-3.6v-2.5h-1.1v-6.7h-0.7v-1.4h-0.9v-0.8l6.7-3.8h0v-15.8h-1.1v-5.4h3.9l6.5-20.7l0.1-1.4
					c-0.5-0.2-0.9-0.7-0.9-1.2c0-0.6,0.4-1.1,1-1.3l0.1-2.8h0.4l0.1,2.8c0.6,0.1,1,0.7,1,1.3c0,0.6-0.4,1.1-0.9,1.2l0.1,1.4
					l6.5,20.7h3.9v5.4h-1.1v15.8h0l6.7,3.8v0.8h-0.9v1.4h-0.7v6.7h-1.1v2.5l-1.6,3.6l0.4,13.1h77.5l0.4-13.1l-1.6-3.6v-2.5h-1.1
					v-6.7h-0.7v-1.4h-0.9v-0.8l6.7-3.8h0v-15.8h-1.1v-5.4h3.9l6.5-20.7l0.1-1.4c-0.5-0.2-0.9-0.7-0.9-1.2c0-0.6,0.4-1.1,1-1.3
					l0.1-2.8h0.4l0.1,2.8c0.6,0.1,1,0.7,1,1.3c0,0.6-0.4,1.1-0.9,1.2l0.1,1.4l6.5,20.7h3.9v5.4h-1.1v15.8h0l6.7,3.8v0.8h-0.9v1.4
					h-0.7v6.7h-1.1v2.5l-1.6,3.6l1.4,44.5h0.9v2.2h-0.8l0.3,6.5h16.4c1.9-16.6,6.7-60.7,6.2-77.2c-0.5-17.3,0.1-24.3,0.4-26.6
					c-0.6-2.1-1.3-5.3-1.1-7c0.3-2.8,0.8-6.4-0.6-8.6c-1.4-2.2-21-30.3-22.9-83.1c0,0-3.1-12.6-3.1-20.1s0.6-11.6-0.9-18.5
					c-1.6-6.9-7.5-28.6-8.5-55.3c-0.9-26.7-0.6-30.8-1.9-37.1c-1.3-6.3-0.9-24.8,10.7-25.1c11.6-0.3,15.4,11,17,34.6
					c0,0,3.1,9.4,3.5,17.3c0.3,7.9,3.1,14.5,4.4,21.7c1.3,7.2,5.3,31.7,7.2,32.4c1.9,0.6,7.9-19.8,11.9-22.9
					c4.1-3.1,9.4-8.8,16.3-8.5c6.9,0.3,9.5-0.4,16,11.6c0.2,0.3,0.3,0.7,0.4,1.1c3.1-2.2,8.8-5.5,12.4-4.9
					c5.3,0.9,14.1,3.1,15.4,9.7c0.9,4.6,3.1,9,3.2,15.8c2.8-3.1,10.3-11.7,11.5-15.5c1.6-4.7,13.2-25.5,13.2-33s8.8-24.2,17.6-20.1
					c8.8,4.1,5.7,21.7-0.9,37.4c0,0-2.8,17.6-7.9,23.3c0,0-7.5,22.3-13.8,29.9c0,0,0,5-1.3,6.3c0,0,2.8,12.6-1.3,17.6
					c0,0,7.9,42.2-7.2,70.4c0,0-4.4,19.2-3.8,26.4c0.4,4.2-0.2,7.3-0.6,10.5c-0.5,3.1-0.9,6.4-0.3,10.9c0.4,3.7,0.9,8.6,1.4,14.1
					c2.1,23.6,4.2,59.8,3.6,72.8h11.8v-1.1h1l0.7-50.2h-0.9v-3h-1.3v-0.8h0.4v-12.3h-1.5v-3.5h-0.9v-1.7h-2.8v-0.8h6.7v-5h-1.5V507
					h-0.9v-1.7h-2.8v-0.8h63.7c0,0,0-0.1,0-0.1c0-0.5-0.3-0.9-0.3-1.4c-0.3-0.2-0.5-0.6-0.2-1c0-0.2-0.4,0.2-0.7-0.2
					c-0.1,0.1,0.5,0.5,0.3,0.8c-0.2,0.1-0.4,0-0.6-0.1l0,0c-0.1-0.1-0.1-0.1-0.2-0.2l-0.1,0c-0.6-0.2-0.5-0.8-0.8-1.2
					c-0.1-0.1-0.2-0.1-0.3-0.2c-0.5,0.7-0.1,1.3,0.1,2c0.1,0.2,0.2,0.3,0.2,0.6c0,0.3,0.1,0.6-0.2,0.7c-0.1,0-0.2,0-0.2,0
					c-0.1,0-0.1-0.1-0.2-0.1c-0.3-0.1-0.3-0.4-0.3-0.6c-0.1-1-0.1-2.1-0.2-3.1c0-0.1-0.2-0.4,0.2-0.3h0c0-0.2,0.1-0.3,0.3-0.3
					c0.2-0.2,0.1-0.4,0-0.6c-0.1-0.3-0.2-0.6,0-0.9c0-0.3-0.1-0.7,0.3-0.9c0.1-0.2,0.4-0.9,0.2-0.9c-0.2-0.5-0.7-0.7-0.7-1.3
					c-0.3-0.3-0.6-0.5-0.5-0.9c0.1-0.2,0.1-0.4,0.1-0.6v0v0c-0.1-0.3-0.3-0.7-0.4-1c-0.1-0.2,0-0.2,0.2-0.2c0.1-0.1,0.2-0.2,0.1-0.4
					c-0.3-0.2-0.4-0.4-0.5-0.7c0-0.1,0-0.2,0.1-0.2c0,0,0.1,0.1,0.1,0.2c0.3-0.1,0.7-0.3,1.1-0.4c0.3,0,0.7-0.1,0.8,0.3
					c0.2,0.2,0.5,0.3,0.6,0.6c0.6,0.3,0.6,0.9,0.9,1.4c0.2,0.4,0.3,0.8,0.5,1.2c0,0.1,0,0.2,0.1,0.3c0,0,0,0,0,0.1
					c0.2,0.3,0.2,0.6,0.3,0.9c0,0.1,0,0.2,0,0.3l0.3,0.4c0.1,0.1,0.2,0.1,0.3,0.3c0,0.2,0.2,0.2,0.2,0.4c0,0,0,0,0,0
					c0,0.4,0.4,0.1,0.6,0.3c0.1-0.1,0.3,0.1,0.4,0c0.2,0,1.6,0.2,2.6,0.3c0-0.2,0-0.5,0-0.7c-0.1-0.3,0-0.5,0.3-0.7
					c0,0,0.1,0,0.1-0.1c0.3-0.1,0.3-0.4,0.5-0.6l0,0c0,0,0,0,0,0l0,0c-0.3-0.5,0-0.8,0.2-1.2c0.1-0.1,0.1-0.2,0.2-0.3
					c-0.2-0.3,0-0.6,0.1-0.9c0.1-0.4,0.1-0.7,0.1-1.1v0v0c-0.1-0.3,0-0.6-0.1-0.8c0-0.2,0-0.4,0.2-0.4l0,0v0c0-0.1,0.1-0.2,0.1-0.3
					c-0.1-0.5,0.2-0.5,0.5-0.4h0c0.2,0,0.3,0,0.5,0c0.1,0,0.2-0.1,0.3,0c0.1,0,0,0.2,0,0.2c0.1,0.4,0.2,0.8,0.5,1.1
					c0.2,0.2,0,0.4,0,0.6c0.1,0.4,0.3,0.7,0,1.1c-0.1,0.2-0.1,0.4-0.2,0.6l0,0.7l0,0.5c0.3,0.2,0.3,0.5,0.2,0.7
					c0.2,0.4,0.4,0.7,0.6,1.1c0.4-0.4,0-0.9,0.2-1.3c0-0.2-0.1-0.5,0.1-0.7c-0.1-0.2-0.1-0.4,0-0.5v0v0c-0.1-0.5,0.4-0.7,0.6-1.1
					c0,0,0,0,0.1,0v0c0,0,0-0.1,0-0.1c0-0.2,0-0.5,0.2-0.7c0,0,0,0,0,0c0.4-0.8,0.7-1.5,1.4-1.9v-0.2c0-0.4,0-0.6,0-1
					c0,0,0-0.1,0-0.1c0,0-0.1,0-0.2-0.1c-0.1-0.1-0.2-0.3,0-0.4c0,0,0,0,0,0c-0.1-0.2-0.2-0.3-0.2-0.5c0-0.2,0-0.4,0.1-0.5
					c-0.1,0-0.3-0.1-0.3-0.2c0,0,0,0,0,0c-0.1,0-0.2-0.1-0.3-0.1c-0.3-0.2-0.6-0.4-0.8-0.7c-0.2-0.3-0.3-0.6-0.3-1
					c0-0.8,0.5-1.5,1.2-1.8c0.1-0.2,0.2-0.3,0-0.5c0,0-0.1,0-0.1,0c-0.6,0.1-0.7,0.1-0.7-0.6c-0.6-0.1-0.9-0.5-1.1-0.9
					c-0.1-0.1-0.1-0.2-0.1-0.3c-0.3-0.1-0.2-0.5-0.5-0.6c-0.1-0.2,0.1-0.2,0.1-0.3c-0.1,0-0.2-0.1-0.2-0.1c0-0.3-0.3-0.5-0.2-0.6
					c0.2-0.2,0.4,0.2,0.6,0.2c0.2,0.1,0.3,0.3,0.5,0.4c0.5,0.1,1,0.5,1.4,0.8c0.4,0.1,0,0.5,0.2,0.7c0.1,0,0.3,0,0.4,0
					c0.1-0.1,0.1-0.2,0.2-0.3c-0.2-0.4-0.4-0.9,0.2-1.1c0.4,0,0.5,0.6,0.2,1.1h0c0,0.2,0.2,0.2,0.3,0.3c0.3,0,0.4-0.1,0.4-0.4h0v0
					c-0.1-0.7,0.3-0.9,0.8-1.2c0.1-0.1,0.2-0.2,0.3-0.2c0.3-0.4,1-1,1-0.8c0.1,0.2-0.1,0.4,0,0.6c-0.2,0.2,0,0.5-0.3,0.7
					c0,0.1-0.1,0.1-0.1,0.2c0.1,0.4,0,0.7-0.3,0.9c-0.1,0.1-0.2,0.2-0.2,0.3c0,0.2-0.1,0.2-0.2,0.3c0,0.2,0.2,0.3,0.1,0.5
					c-0.2,0.4-0.5,0.5-0.9,0.4c-0.1,0-0.1,0-0.2,0c0,0.1,0,0.2,0,0.3c0,0.1,0,0.2,0,0.3c0.8,0.2,1.5,1,1.5,1.9c0,0.4-0.1,0.7-0.3,1
					c0,0.1-0.1,0.1-0.1,0.2c-0.2,0.3-0.5,0.5-0.9,0.6c-0.1,0.1-0.3,0.1-0.4,0.1c0,0,0,0-0.1,0c0.1,0.1,0.3,0.3,0.1,0.6v0
					c-0.1,0.2,0.2,0.4,0,0.6c0.2,0,0.1,0.4-0.1,0.5v1.3c0.4,0.2,0.6,0.5,0.2,0.9c0.1,0,0.2,0.1,0.3,0c0.3-0.2,0.6-0.2,0.8,0.2
					c0,0,0.2,0,0.3,0.1c0.2,0,0.3,0.1,0.3,0.3c0.1,0.4,0,0.7-0.2,1c0,0,0,0.1-0.1,0.1c-0.1,0.2-0.2,0.4-0.2,0.6v0
					c0.1,0.1,0.1,0.3,0.2,0.4c0.1,0.1,0.2,0.2,0.3,0.3c0,0.1,0.2,0.1,0.2,0.1c0.2,0,0.3,0.1,0.4,0.2c0,0,0,0,0.1,0c0,0,0,0,0.1,0
					c0.1-0.2,0.1-0.3,0-0.5c-0.1-0.3,0-0.5,0.3-0.5c0,0,0,0,0,0c0.3-0.3,0.5-0.1,0.7,0.2c0.1,0.1,0.2,0.3,0.2,0.5v0
					c0,0.1,0.1,0.2,0.1,0.3c0.1,0.1,0.1,0.3,0.1,0.5c0.5-0.4,0.3-1.1,0.5-1.6c0,0,0,0,0,0c0,0,0,0,0.1,0c0.2-0.4,0.1-0.8,0.3-1.2
					c0.1-0.5,0.2-1.1,0.5-1.5c0,0,0-0.1,0-0.1c0-0.2,0-0.3,0.2-0.4c0.1-0.2-0.1-0.6,0.3-0.6c0.2,0,0.5-0.2,0.6,0.1
					c0.1,0,0.1,0,0.2,0c0.1,0,0.4-0.4,0.4-0.3c0.1,0.2,0,0.4-0.1,0.5h0c0.1,0.1,0.1,0.3,0.2,0.4l0,0h0c0.1,0.1,0.2,0.1,0.2,0.2
					c0,0.1,0,0.2,0,0.3c0.1,0.3-0.1,0.6-0.1,0.9l0.1,0.5c-0.1,0.4-0.3,0.8-0.2,1.2c0,0.5,0.1,0.9-0.1,1.4c0,0.2,0,0.4,0,0.6
					c0,0,0,0.1,0,0.1l0.1,0.1c0.4,0.2,0.5,0.7,0.8,0.9c0,0,0.1,0,0.1,0c0.6,0.1,1.2,0.1,1.7,0.2c0.5,0.1,2.3,0.1,3.3,0.2
					c0-0.2,0.1-0.3,0.3-0.4l0-0.1c-0.2-0.4,0.1-0.6,0.1-1c-0.1-0.4,0-0.8,0.1-1.2c0.1-0.3,0.3-0.6,0.5-0.8v0c0-0.4,0.3-0.7,0.5-0.9
					c0.1-0.3,0.3-0.6,0.6-0.8c0.2-0.5,0.7-0.6,1.1-0.9c0.1-0.1,0.2-0.2,0.3-0.4c0.1-0.1,0.2-0.1,0.3-0.1c0.1,0.1,0.1,0.3,0,0.4
					c0,0.1,0.1,0.1,0.2,0.1c0,0.1,0,0.1,0,0.2c0.1,0,0.2,0,0.3,0c0.1-0.1,0.3-0.2,0.4-0.2c0.1,0.2-0.1,0.4-0.1,0.6
					c0,0-0.1,0.1-0.1,0.1c-0.2,0.3,0.1,0.6,0,0.9c0,0.2-0.1,0.3-0.2,0.4c0,0.3,0,0.7,0.1,1c0.1,0.2-0.1,0.5-0.2,0.5
					c-0.2,0.1-0.3,0.3-0.4,0.5c0,0-0.1,0-0.1,0l0,0c-0.1,0.2-0.1,0.5-0.2,0.7c0,0,0,0,0,0c0,0.1,0,0.2-0.1,0.3
					c-0.2,0.3,0.1,0.6,0,0.9c0.1,0.2,0.3,0.3,0.4,0.6c0.3,0.3,0.2,0.6,0.2,0.9c-0.2,0.4-0.2,0.9-0.3,1.4c0.2,0.1,0.5,0.1,0.6,0.3v0
					c0.2,0.2,0.1,0.4,0.1,0.6c-0.4,0.8-0.2,1.8-0.6,2.6c0,0.4,0,0.8-0.5,0.9c0,0-0.1,0-0.1,0c-0.3,0-0.5-0.2-0.4-0.5
					c0-0.2,0-0.4,0.1-0.5c0.6-0.6,0.6-1.4,0.8-2.1c0,0-0.1-0.1-0.1-0.1c-0.4,0-0.5,0.5-0.9,0.4c-0.3,0.5-0.1,1.2-0.6,1.6
					c-0.2,0.1-0.6-0.4-0.6-0.5c0-0.2,0.4-0.4,0.2-0.6l-0.2,0.1c0,0.5-0.4,0.9-0.4,1.4c0,0.2,0,0.4,0.1,0.6c0,0.1,0.1,0.2,0.1,0.3
					h62.7v0.8h-2.8v1.7h-0.9v3.5h-1.5v5h6.7v0.8h-2.8v1.7h-0.9v3.5h-1.5v12.4h-0.4v0.8h-1.3v3h-0.9l0.7,50.2h1v1.1h22.2l2.3-13
					l2.8-120.8h-1.1v-3.9h1.2l0.1-3.3c-4.4-1.5-7.6-5.7-7.6-10.6c0-4.7,2.9-8.7,6.9-10.3v-1.2h-1.1v-1.9h1.1v-9.5h-1.1v-2.5h1.1h2.2
					l0.1-2.8h-0.6v-2.4h0.6l0.1-4.5h-0.6V400h0.6l0.5-18.1h-0.5v-1.8h0.5l0.3-11.9h-0.4v-1.6h0.5l0.5-20.1h-0.2v-1.7h1.2v1.7h-0.2
					l0.5,20.1h0.5v1.6h-0.4l0.3,11.9h0.5v1.8h-0.5l0.5,18.1h0.6v2.2h-0.6l0.1,4.5h0.6v2.4h-0.6l0.1,2.8h2.2h1.1v2.5h-1.1v9.5h1.1
					v1.9h-1.1v1.2c4.1,1.7,6.9,5.7,6.9,10.3c0,4.9-3.2,9.1-7.6,10.6l0.1,3.3h1.2v3.9h-1.1l2.8,120.8l2.3,13h23.6v-9.5h-0.6v-1.8h0.6
					v-13.9h3v-11.6h-0.9v-2.2h0.9v-4.4h-2.4V542h-1.8v-0.9h-0.6v-0.9h0.6h1.8h2.4v-7.5h-0.9v-1.4h-0.8v-0.8h0.8V529h2.1v-18.6h-1.2
					v-1.1h-0.5V508h1.7v-3.6h1.6c0-7.3,4.2-13.4,9.8-14.8v-0.9h1.9v-5.5c-0.7-0.2-1.3-0.9-1.3-1.7c0-1,0.7-1.7,1.7-1.8l0.2-4.5
					l0.2,4.5c0.9,0.1,1.7,0.9,1.7,1.8c0,0.8-0.5,1.5-1.3,1.7v5.5h1.9v0.9c5.6,1.4,9.8,7.5,9.8,14.8h1.6v3.6h1.7v1.3h-0.5v1.1h-1.2
					V529h2.1v1.4h0.8v0.8h-0.8v1.4h-0.9v7.2h12.9v-20.5h-0.8v-4.2h-1.3v-1.4h3.1v-5h-0.2v-4h-1.2v-1.3h1.5
					c0.9-12.1,8.9-21.8,19.2-23.6v-7c0,0,2.4-2.3,2.4-8.8h0.9v-1.6h-0.1v0c-0.3-0.1-0.5-0.3-0.5-0.7c0-0.3,0.2-0.6,0.5-0.7v-2.3
					h-1.3v-0.4h1.3V457h0.5v1.3h1.3v0.4h-1.3v2.3c0.3,0.1,0.5,0.3,0.5,0.7c0,0.3-0.2,0.6-0.5,0.7v0h-0.1v1.6h0.9
					c0,6.5,2.4,8.8,2.4,8.8v7c10.3,1.8,18.3,11.5,19.2,23.6h1.5v1.3h-1.2v4h-0.2v5h3.1v1.4h-1.3v4.2h-0.8v20.5h12.9v-7.2h-0.9v-1.4
					h-0.8v-0.8h0.8V529h2.1v-18.6h-1.2v-1.1h-0.5V508h1.7v-3.6h1.6c0-7.3,4.2-13.4,9.8-14.8v-0.9h1.9v-5.5c-0.7-0.2-1.3-0.9-1.3-1.7
					c0-1,0.7-1.7,1.7-1.8l0.2-4.5l0.2,4.5c0.9,0.1,1.7,0.9,1.7,1.8c0,0.8-0.5,1.5-1.3,1.7v5.5h1.9v0.9c5.6,1.4,9.8,7.5,9.8,14.8h1.6
					v3.6h1.7v1.3h-0.5v1.1h-1.2V529h2.1v1.4h0.8v0.8h-0.8v1.4h-0.9v7.5h2.4h1.8h0.6v0.9h-0.6v0.9h-1.8v3.4h-2.4v4.4h0.9v2.2h-0.9
					v11.6h3v13.9h0.6v1.8h-0.6v9.5h20.8v20H423v-20h377.6v-11h1.3V575h46.8v-11.7h-1.2v-2.9h-1.7v-1.4h1.7v-5.7h60.6v-12.4h-1.5V537
					h2.4c2.7-11.8,11.6-21.2,23-24.6v-4.9h0.9v-1.8h1v1.8h4v-1.8h1.3v1.8h6v-1.8h1.3v1.8h3.3v-1.8h1v1.8h0.9v4.9
					c11.5,3.5,20.3,12.9,23,24.6h2.4v3.8h-1.5v12.4H991v5.7h1.7v1.4H991v2.9h-1.2V575z M1268.6,588.9h74.8l0.3-6.5h-0.8v-2.2h0.9
					l0.1-2.4c-0.5-2.6-1.4-5-2.8-7.3h-70.1c-1.4,2.3-2.4,4.7-2.8,7.3l0.1,2.4h0.9v2.2h-0.8L1268.6,588.9z M1506.6,588.9h12.3v-1.1h1
					l0.7-50.2h-0.9v-3h-1.3v-0.8h-11.3v0.8h-1.3v3h-0.9l0.7,50.2h1V588.9z M1530,588.9h12.3v-1.1h1l0.7-50.2h-0.9v-3h-1.3v-0.8
					h-11.3v0.8h-1.3v3h-0.9l0.7,50.2h1V588.9z M1553.4,588.9h28.2v-1.1h1l0.7-50.2h-0.9v-3h-1.3v-0.8h-27.2v0.8h-1.3v3h-0.9
					l0.7,50.2h1V588.9z M1592.6,588.9h12.3v-1.1h1l0.7-50.2h-0.9v-3h-1.3v-0.8h-11.3v0.8h-1.3v3h-0.9l0.7,50.2h1V588.9z M1616,588.9
					h12.3v-1.1h1l0.7-50.2h-0.9v-3h-1.3v-0.8h-11.3v0.8h-1.3v3h-0.9l0.7,50.2h1V588.9z"/>
				<g id="Lines" transform="translate(377.064535, 1.538757)">
					<path id="Stroke-139" class="st6" d="M1060.7,366.1c-3.5,22.3,3,29.7,14.9,30.6c10.4,0.8,13.2-10.1,13.5-15.1s2.5-21.1,6-34.6
						c1.1-4.1,1.4-7.6,1.4-10.6"/>
					<path id="Stroke-141" class="st6" d="M1000.4,377.4c0,0,5.5,10.6,11.4,3.9c0,0,9.2-13.2,16.4-26.7c4.4-8.2,11-18.9,25.4-20.1
						s26.1-7.1,29.5-7.5c4.7-0.6,13.5,1.9,11.3,15.7c-1.8,11.3-10.7,15.7-17.6,19.2c-4.8,2.4-20.4,5-20.4,5s0.6,16.7-4.4,22.5"/>
					<path id="Stroke-143" class="st6" d="M1064.7,456.4c13.3-17.6,13.3-34.3,10.4-46.2c-1.7-7-4.4-12.3-6.1-15.1"/>
					<path id="Stroke-145" class="st6" d="M1065.4,315.8c1.2,4,0.6,12.8,0.3,16.6"/>
					<path id="Stroke-147" class="st6" d="M1002.9,397.1c0,0-7.7,15.4,0.2,32.4"/>
					<path id="Stroke-149" class="st6" d="M1069.2,335.3c0,0,4.1,4.7,5.2,10.1c0,0,1.1,3.5,4.9,3s19.5-4.5,13.2-15.9
						c-5.2-9.4-14.3-2.4-19.6-0.8C1070.1,332.5,1068.4,333.4,1069.2,335.3z"/>
					<path id="Stroke-151" class="st6" d="M1067.6,376c0,0-1.4,4.4-0.7,9.9c0.4,2.8,2.9,6.6,8.9,6.9s8.1-2.4,9.3-5.1
						c0.9-2.2,2.2-8.5,1.3-11.6C1084.8,370.7,1070.1,368.5,1067.6,376z"/>
					<path id="Stroke-153" class="st6" d="M1029.4,323.3c0,0-0.4,2.3,2.3,5.7"/>
					<path id="Stroke-155" class="st6" d="M1035,322.9c0,0-6.3,3.2-4,26.8"/>
					<path id="Stroke-157" class="st6" d="M994.8,300c0,0,4.8,0.4,10.1-1.7"/>
					<path id="Stroke-159" class="st6" d="M992.1,263.2c0,0,5.9-0.6,8.2,0"/>
					<path id="Stroke-161" class="st6" d="M1129.3,293.5c0,0,3.8,0.6,4.6,2.1"/>
					<path id="Stroke-163" class="st6" d="M1117.7,318.7c0,0,7.3,2.3,8,5.2"/>
					<path id="Stroke-165" class="st6" d="M1116.1,358.4c-0.5-1.1-1.6-2.8-3.9-3.7"/>
					<path id="Stroke-167" class="st6" d="M1113.6,382.3c-0.7-1-1.7-2-2.8-2.7"/>
					<path id="Stroke-169" class="st6" d="M1053.7,361.2c0,0,0.5,3.3,2.8,5.7"/>
					<path id="Stroke-171" class="st6" d="M1056.5,366.9c-3.6,0.8-6-0.8-6-0.8"/>
					<path id="Stroke-173" class="st6" d="M1054.6,384.2c-0.6,0.5-2,1.4-4,1.2"/>
					<path id="Stroke-175" class="st6" d="M1046.8,340.2c0.7,0.6,3.4,4.3,4.6,8.6"/>
					<path id="Stroke-177" class="st6" d="M1035.2,461.3c2.9,0,27.6-4.6,33.5-23.5"/>
					<path id="Stroke-179" class="st6" d="M1016,469.5c2.2,0.8,9.3,3,15.2,2.7"/>
					<path id="Stroke-181" class="st6" d="M1106.4,452.7c-1.9,2.7-5.1,6.4-9.7,8.9"/>
					<path id="Stroke-183" class="st6" d="M1049.9,465.1c0,0,13.8-3.4,26.4-1.3"/>
					<path id="Stroke-185" class="st6" d="M996.7,343.6c0,0,11.7,1.7,16.8-3.4"/>
					<path id="Fill-187" class="st4" d="M1024.2,366.1c0,0.2,0,0.3,0.1,0.5c0,0.2,0.1,0.3,0.2,0.2c0.1,0,0.2-0.1,0.3-0.3
						c0.1-0.2,0.2-0.4,0.2-0.6c0-0.2,0-0.4,0-0.5c0-0.2-0.1-0.3-0.1-0.5C1024.6,365.4,1024.5,365.6,1024.2,366.1 M1022.8,369.7
						c0.4-1,0.6-1.6,1-2.6c0-0.1,0-0.1,0-0.2c-0.4,0.7-0.7,1.1-1.1,1.8c0-0.3-0.1-0.5-0.1-0.9c1.2-1.9,1.8-2.8,2.9-4.7
						c0,0.6,0.1,0.9,0.2,1.5c0.1,0.3,0.1,0.6,0.1,0.9c0,0.3-0.1,0.7-0.2,1c-0.1,0.3-0.2,0.6-0.4,0.9c-0.2,0.3-0.4,0.6-0.6,0.6
						c-0.2,0.1-0.4,0-0.5-0.2c-0.4,1.1-0.6,1.6-0.9,2.8C1022.9,370.2,1022.9,370,1022.8,369.7"/>
					<path id="Fill-189" class="st4" d="M1026.1,368.2c-0.3,0.4-0.4,0.6-0.6,1c0.3,0.5,0.4,0.8,0.7,1.3c-0.2,0.3-0.3,0.5-0.6,0.9
						c-0.3-0.5-0.5-0.8-0.7-1.3c-0.3,0.4-0.4,0.6-0.7,1.1c0.3,0.6,0.5,0.9,0.8,1.5c-0.2,0.4-0.4,0.6-0.6,0.9c-0.6-1-0.8-1.4-1.2-2.4
						c1.2-1.9,1.8-2.9,3-4.7c0.4,0.9,0.7,1.4,1.3,2.4c-0.2,0.4-0.3,0.5-0.6,0.9C1026.6,369.1,1026.4,368.8,1026.1,368.2"/>
					<path id="Fill-191" class="st4" d="M1027.5,374.4c0.3-0.9,0.5-1.3,0.8-2.2c-0.6,0.5-0.9,0.7-1.5,1.2
						C1027,373.8,1027.2,374,1027.5,374.4 M1027.1,375.5c-0.5-0.6-0.7-0.9-1.1-1.5c-0.3,0.2-0.4,0.4-0.7,0.6c-0.3-0.4-0.4-0.6-0.7-1
						c1.6-1.3,2.4-2,4-3.3c0.3,0.4,0.5,0.7,0.8,1.1c-0.8,2.4-1.1,3.7-1.9,6.1c-0.3-0.4-0.5-0.6-0.8-1
						C1026.9,376.2,1027,376,1027.1,375.5"/>
					<path id="Fill-193" class="st4" d="M1033.6,376.8c0.1,0.6,0,1.3-0.2,1.9c-0.4-0.4-0.6-0.6-1-1c0.1-0.3,0.1-0.6,0-0.8
						c-0.1-0.3-0.2-0.5-0.4-0.7c-0.3-0.3-0.6-0.4-0.9-0.3c-0.3,0.1-0.6,0.3-0.9,0.7c-0.3,0.4-0.4,0.8-0.4,1.2c0,0.4,0.1,0.7,0.4,1
						c0.2,0.2,0.4,0.3,0.6,0.3c0.2,0,0.5,0,0.7-0.2c0.4,0.4,0.6,0.6,1,1c-0.5,0.4-0.9,0.6-1.5,0.6s-1-0.2-1.5-0.7
						c-0.4-0.4-0.6-0.8-0.7-1.3c-0.1-0.5-0.1-1,0-1.5c0.1-0.5,0.3-1,0.6-1.5c0.3-0.5,0.7-0.8,1-1c0.4-0.2,0.8-0.3,1.2-0.2
						c0.4,0.1,0.8,0.3,1.1,0.7C1033.2,375.6,1033.5,376.1,1033.6,376.8"/>
					<path id="Fill-195" class="st4" d="M1037.9,380.1c-0.2,0.3-0.4,0.5-0.6,0.9c-0.4-0.4-0.6-0.6-1.1-1c-1,1.5-1.5,2.2-2.6,3.6
						c-0.4-0.3-0.6-0.5-1-0.9c1-1.5,1.5-2.2,2.6-3.7c-0.4-0.4-0.6-0.6-1.1-1c0.2-0.4,0.4-0.5,0.6-0.9
						C1036.1,378.4,1036.7,379,1037.9,380.1"/>
					<path id="Fill-197" class="st4" d="M1018.5,376.7c0.2-0.1,0.5-0.3,0.7-0.7c0.3-0.4,0.5-0.9,0.6-1.3c0.1-0.4,0.1-0.8,0-1.2
						c0-0.2,0-0.3-0.1-0.4c-0.7,1.1-1,1.7-1.7,2.8c0,0.2,0,0.3,0.1,0.4C1018.2,376.6,1018.3,376.8,1018.5,376.7 M1018.7,377.9
						c-0.3,0.2-0.6,0.3-0.8,0.2c-0.2-0.1-0.4-0.3-0.4-0.7c-0.1-0.6-0.1-0.8-0.1-1.4c1.2-1.9,1.8-2.9,3-4.9c0,0.5,0,0.8,0.1,1.4
						c0.1,0.4,0.1,0.8,0.1,1.3c0,0.5-0.1,1-0.3,1.5c-0.2,0.5-0.4,1-0.7,1.5C1019.3,377.4,1019,377.7,1018.7,377.9"/>
					<path id="Fill-199" class="st4" d="M1020.5,380.2c0.3-0.9,0.5-1.4,0.8-2.3c-0.6,0.5-0.9,0.8-1.4,1.3
						C1020.2,379.6,1020.3,379.8,1020.5,380.2 M1020.1,381.3c-0.4-0.6-0.5-0.9-0.8-1.4c-0.3,0.3-0.4,0.4-0.7,0.7
						c-0.2-0.4-0.3-0.6-0.4-1c1.4-1.4,2.2-2.1,3.7-3.5c0.2,0.4,0.4,0.6,0.6,1.1c-0.9,2.5-1.3,3.7-2.1,6.2c-0.3-0.4-0.4-0.6-0.7-1
						C1019.8,382,1019.9,381.8,1020.1,381.3"/>
					<path id="Fill-201" class="st4" d="M1026.6,382.2c-1.3,0.7-2,1.1-3.3,1.9c-0.4,0.6-0.6,1-1,1.6c-0.3-0.4-0.5-0.5-0.8-0.9
						c0.4-0.6,0.6-1,1-1.6c0.4-1.8,0.6-2.7,1-4.5c0.3,0.4,0.5,0.6,0.8,1.1c-0.3,1.1-0.4,1.6-0.7,2.7c0.8-0.5,1.1-0.7,1.9-1.2
						C1026,381.6,1026.2,381.8,1026.6,382.2"/>
					<path id="Fill-203" class="st4" d="M1014.1,382.2c0,0.2,0,0.4,0.1,0.6c0.1,0.3,0.2,0.3,0.4,0c0.2-0.3,0.3-0.7,0.2-1
						c0-0.2-0.1-0.3-0.1-0.6C1014.5,381.6,1014.3,381.8,1014.1,382.2 M1013.4,384.7c0.1-0.2,0.2-0.3,0.2-0.5c0-0.2,0-0.4,0-0.5
						c0-0.3-0.1-0.4-0.1-0.6c-0.3,0.4-0.4,0.6-0.7,1.1c0,0.3,0,0.4,0.1,0.7C1013,385.1,1013.2,385.1,1013.4,384.7 M1014,384.9
						c-0.1,0.3-0.2,0.7-0.4,0.9c-0.3,0.4-0.5,0.6-0.7,0.6c-0.2,0-0.4-0.2-0.4-0.6c-0.1-0.7-0.2-1.1-0.1-1.8c1.2-1.8,1.7-2.8,2.9-4.7
						c0,0.7,0,1,0.2,1.7c0.1,0.4,0.1,0.8,0,1.2c-0.1,0.4-0.2,0.8-0.5,1.2c-0.2,0.3-0.4,0.5-0.5,0.5c-0.2,0.1-0.3,0-0.4-0.1
						C1014.1,384.2,1014.1,384.6,1014,384.9"/>
					<path id="Fill-205" class="st4" d="M1015.7,384.7c-0.3,0.4-0.4,0.6-0.6,1c0.2,0.5,0.4,0.8,0.7,1.3c-0.2,0.4-0.3,0.5-0.6,0.9
						c-0.3-0.5-0.4-0.8-0.7-1.3c-0.3,0.4-0.4,0.6-0.7,1.1c0.3,0.6,0.4,0.9,0.7,1.5c-0.2,0.4-0.4,0.6-0.6,0.9c-0.5-1-0.8-1.5-1.1-2.4
						c1.2-1.9,1.8-2.9,3-4.8c0.4,0.9,0.6,1.4,1.2,2.4c-0.2,0.4-0.4,0.6-0.6,0.9C1016.2,385.5,1016,385.3,1015.7,384.7"/>
					<path id="Fill-207" class="st4" d="M1016.6,388.9c0.2,0.2,0.2,0.3,0.4,0.6c0.1,0.2,0.3,0.3,0.4,0.2c0.1,0,0.3-0.1,0.4-0.3
						c0.1-0.2,0.2-0.4,0.2-0.6c0-0.2-0.1-0.4-0.2-0.6c-0.2-0.2-0.3-0.3-0.4-0.6C1017.1,388.1,1016.9,388.4,1016.6,388.9
						 M1015.7,392.5c0.2-1.1,0.3-1.6,0.6-2.7c-0.1-0.1-0.1-0.1-0.1-0.2c-0.5,0.7-0.7,1.1-1.2,1.8c-0.3-0.4-0.4-0.6-0.6-0.9
						c1.2-1.9,1.8-2.9,3.1-4.9c0.4,0.6,0.6,0.9,1.1,1.6c0.2,0.3,0.4,0.6,0.5,1c0.1,0.3,0.1,0.7,0,1c-0.1,0.3-0.2,0.7-0.4,1
						c-0.2,0.4-0.5,0.6-0.8,0.7c-0.3,0.1-0.6,0.1-0.9-0.1c-0.2,1.1-0.3,1.7-0.5,2.8C1016.2,393.2,1016,393,1015.7,392.5"/>
					<path id="Fill-209" class="st4" d="M1018.3,394c0.4,0.5,0.7,0.7,1.1,1.1c-0.2,0.4-0.4,0.6-0.6,0.9c-0.8-0.8-1.2-1.2-1.9-2
						c1.3-2,1.9-3,3.2-4.9c0.3,0.4,0.5,0.5,0.8,0.9C1019.8,391.5,1019.3,392.3,1018.3,394"/>
					<path id="Fill-211" class="st4" d="M1023.3,392.3c-1.3,1.9-1.9,2.9-3.2,4.9c-0.4-0.3-0.5-0.5-0.9-0.8c1.3-2,1.9-3,3.2-4.9
						C1022.8,391.8,1022.9,392,1023.3,392.3"/>
					<path id="Fill-213" class="st4" d="M1024.2,400.5c-0.4-0.3-0.6-0.4-1-0.7c0.2-1.7,0.2-2.6,0.4-4.3c-0.8,1.2-1.2,1.8-2,3
						c-0.4-0.3-0.6-0.5-0.9-0.8c1.3-2,1.9-3,3.2-4.9c0.4,0.3,0.6,0.5,0.9,0.8c-0.2,1.7-0.2,2.6-0.4,4.2c0.8-1.2,1.2-1.8,2-3
						c0.4,0.3,0.6,0.4,1,0.7C1026.2,397.5,1025.5,398.5,1024.2,400.5"/>
					<path id="Stroke-215" class="st6" d="M1055.4,380.5c1.3,0.9,3.5,2.5,5.4,4.4"/>
					<path id="Stroke-217" class="st6" d="M1043.5,343.9c0,0,5,2.4,5.6,6.3c0,0-2.5-3-3.7-3.2c-1.3-0.1,3.2,2.1,3.7,6.2"/>
					<path id="Stroke-219" class="st6" d="M1067.7,333.4c0,0-0.6,0.9,0,2.2s4.1,4.4,4.9,8.9s4.9,5.2,4.9,5.2"/>
					<path id="Stroke-221" class="st6" d="M1069,339.7c0,0,1.8,0.8,2.6,4.8"/>
					<path id="Stroke-223" class="st6" d="M1072.4,339.7l15.1-6.3"/>
					<path id="Stroke-225" class="st6" d="M1079.9,338l12.5-5.6"/>
					<path id="Stroke-227" class="st6" d="M1069.2,335.3c0,0,5.4-1.9,7.5,2.9"/>
					<path id="Stroke-229" class="st6" d="M1078.1,340.2c0,0,1.5,3.1-0.7,8.1"/>
					<path id="Stroke-231" class="st6" d="M1007.8,298.4c0,0-3.7,4.6-13,4.6c0,0,10,0,11.8-1.6"/>
					<path id="Stroke-233" class="st6" d="M1000.3,261.7c0,0-4.5-1.1-9.2,0"/>
					<path id="Stroke-235" class="st6" d="M1016.6,336.5c0,0,5.9-4.6,3.3-0.3c-2.5,4.4-5.1,5.3-5.1,5.3"/>
					<path id="Stroke-237" class="st6" d="M1017.7,346.4c0,0,4.2-10.4,3.1-11.9"/>
					<path id="Stroke-239" class="st6" d="M1017,483.5c0,0,0.7,2.7,8.7,4.3"/>
					<path id="Stroke-241" class="st6" d="M1089,468c0,0-1.4,1.8-1.4,7.3"/>
					<path id="Stroke-243" class="st6" d="M1096.7,474.6c0,0-0.8,0.9-2.1,9.6c-1.3,8.6,0,3.6,0,3.6"/>
					<path id="Stroke-245" class="st6" d="M1053.1,466.8c0,0-1.4,0.4,0,21.1"/>
					<path id="Stroke-247" class="st6" d="M1065.8,466.8c0,0,2.2,2.8,0,18.9"/>
					<path id="Stroke-249" class="st6" d="M1101.6,493.2c0,0,0.9,2.1-7.5,2.4c0,0-2.6-0.8-2.3,11"/>
					<path id="Stroke-251" class="st6" d="M1080.9,379.5c2.1-0.3,4-1.2,5.8-2.2"/>
					<path id="Stroke-253" class="st6" d="M1068.7,374.1c1.8,2.8,4.4,4.6,7.6,5.3"/>
					<path id="Stroke-255" class="st6" d="M1078,371.3c0,0,1.1,2.8-0.6,18"/>
					<path id="Stroke-257" class="st6" d="M1079.9,371.6c0,0,0.8,2.8-0.6,20.9"/>
					<path id="Stroke-259" class="st6" d="M1069.2,372.3c0,0,3-2.9,7-2.5c4.1,0.4,8.9,1.3,9.9,3.7"/>
					<path id="Stroke-261" class="st6" d="M1005.6,263.2c0,0-2.1-1.4-6.7-1.7"/>
					<path id="Stroke-263" class="st6" d="M1110.8,359.9c0,0,3.4,0,4.1,4.7"/>
					<path id="Stroke-265" class="st6" d="M1121.7,324.1c0,0,2.6,0.5,4,2.8"/>
					<path id="Stroke-267" class="st6" d="M1129.3,296.7h2.3c0,0,2-0.4,3.2,1.7"/>
					<path id="Stroke-269" class="st6" d="M1050.7,470.9c0,0,7,0.2,4.4,0.6c-2.6,0.4-7.7,2.6-4.4,2.2c3.3-0.4,4.4,0.1,5,0"/>
					<path id="Stroke-271" class="st6" d="M1069.2,470.9c0,0-9.4,0.1-1.2,1.4c0,0,3.5-0.4-1.7,1.4"/>
					<path id="Stroke-273" class="st6" d="M1076.3,492.1c0,0,5.5-1.3,5.9-4.3c0.4-3,4.1-8.3,5.4-4.3c0,0,0.1,2.3,0.7,4.3
						s5.9,3.2,7.1,4.3c1.2,1,4.1-1.1,2.8,1c-1.3,2.2-4.1,2.4-4.1,2.4"/>
					<path id="Stroke-275" class="st6" d="M1076.3,489.3h-6.4c0,0-2,1.4,0.8,3.1c2.8,1.7,9.1,3.7,9.9,6.7c0.8,3,2.1,5.6,1.3,7.5
						c-0.8,1.9,1.7,7,1.9,8.4c0.2,1.5,2.1,7.7,3.7,4.7c1.7-3,3.6-1.1,3.4,2c-0.2,3.1-0.3,5.4,1,8.6c1.3,3.1,2.2,6.1,3.6,0
						c0,0-0.1-1.7,1.3-2.9c1.4-1.3,1.1-1.7,0-6.5c-1.1-4.8-4.9-11.8-2.6-22.7"/>
					<path id="Stroke-277" class="st6" d="M1099.1,356.1c0,0-3.3-0.9-6,0.9"/>
					<path id="Stroke-279" class="st6" d="M1093,374.7c0,0-2.2-0.3-3.2,0.9"/>
					<path id="Stroke-281" class="st6" d="M1029.3,390c0,0,3.9,10.7-2.8,13.9c-6.7,3.1-4.1,18.5-4.1,18.5s10.9,36.8,6.8,45.6"/>
					<path id="Stroke-283" class="st6" d="M1060.8,399.5c0,0-6-1.6-6.2,4.1c-0.2,5.7,7.3,23.6,8.4,26c1.1,2.3,4.5,4.8,5.9,2.6
						c1.5-2.2,3.6-11.3,1.3-16c-2.3-4.7-4.1-13.2-7.3-13.8c-3.2-0.6-3.1-2.5-4.9-0.6l-1.8,1.9"/>
					<path id="Stroke-285" class="st6" d="M1097.7,456.4c0,0-1.4,0.6,0-5.2c1.4-5.8,3.3-9,2.2-17.4c-1.1-8.5-3.9-22.2,1.8-20.4
						c0,0,1.4,0.5,3.7-0.1c2.4-0.6,3.5-0.2,3.8,1.6c0.3,1.7-2,37.6-7.5,30.6c0,0-1.1-0.6-1.3,1.9c-0.2,2.5-2.3,6.1-2.7,10.8"/>
					<path id="Stroke-287" class="st6" d="M1102.5,466.8c0,0-2,7.1-0.9,12.3c1.1,5.2-0.9,14.1-0.9,14.1"/>
					<path id="Stroke-289" class="st6" d="M1042.8,459.8c0,0-1.2,5.1-6.2,8.2c-5,3.1-3.6,3.7-3.6,3.7"/>
					<path id="Stroke-291" class="st6" d="M1037.8,468c0,0-1.5,0.2-1.8,2.9s-1.4,8.1,4.1,13.9c5.5,5.8,6,6.4,3.3,8.3
						c-2.7,1.9-10,6.8-10.4,17c-0.3,10.2-0.2,32.5-2.7,41.6"/>
					<path id="Stroke-293" class="st6" d="M1053.1,469.5c0,0-0.3,4.9,0.9,21.9"/>
					<path id="Stroke-295" class="st6" d="M1067.4,468c0,0,1.3,0.7-1.1,26.2"/>
					<path id="Stroke-297" class="st6" d="M1055.1,396.7c0,0-2.7,2.2-2.4,5.4c0.3,3.1-3.8,4.6-5,7.5c-1.2,3-1.7,5.7-1.3,7.5"/>
					<path id="Stroke-299" class="st6" d="M999.5,346.4c0,0,1.8,1.4,5.5-1.1c3.7-2.5,9.8-3,7.2,1.1c-2.6,4.1-9.5,13-7.2,21.4
						c2.3,8.3,3.8,10.1,10.4,8"/>
					<path id="Stroke-301" class="st6" d="M995.6,304.3c0,0,2.1-2.5,0,16.2c0,0-0.1,5,2.6,7.1"/>
					<path id="Stroke-303" class="st6" d="M1002.3,330.4c0,0,9.9,1.2,11.2-1.5"/>
					<path id="Stroke-305" class="st6" d="M1013.5,327.6c0,0,5-3.4,4.3-1.5"/>
					<path id="Stroke-307" class="st6" d="M998.2,232.6c0,0-1.3-1.9-6.2,2.3c-4.8,4.1-6.3,4.1-4.1,6.9c2.1,2.8-11.1,3.1,3.1,5.5
						c0,0,0.8,0-1.9,1.6c-2.7,1.6,0,1.4,0,1.4s1.6,5.7,0.4,12.1c-1.2,6.3,0,2.4,0,2.4s2.7-2.8,1.5,1.2c-1.3,4-1.1,7.3,0,11.4
						c1.1,4.1,1.7,8.5,1.1,14.6c-0.6,6.1,3,4.2,2.1,11"/>
					<path id="Stroke-309" class="st6" d="M1033.7,325.5c0,0,3-4.6,4.2-2.2c1.2,2.4,0.9,7.4,0.9,7.4s-0.8,3,2.7,3.7
						c3.5,0.7,2.1,3,2.1,3"/>
					<path id="Stroke-311" class="st6" d="M991.3,356.4c0,0,1.9-0.8,1.6,0.6c-0.3,1.4-1.6,2.1-1.6,1.1"/>
					<path id="Stroke-313" class="st6" d="M992.1,353.2c0,0-0.9,0.6,0,0.9c0.9,0.3,0.8-0.9,0.8-0.9"/>
					<path id="Stroke-315" class="st6" d="M1043.7,306.1c0,0-1,0.4-0.2,0.9c0.8,0.5,1-0.7,1-0.7"/>
					<path id="Stroke-317" class="st6" d="M1040.8,309.5c0,0-3.5,2.7,0,2.9c3.5,0.2,3-2.9,3-2.9S1041.9,308.4,1040.8,309.5z"/>
					<path id="Stroke-319" class="st6" d="M1066.7,320.3c0,0,5.7-6.3,6.6-1.7c0,0-3.4,3.1-0.4,4.6l3,1.5c0,0,2.1,0,0,4.2"/>
					<path id="Stroke-321" class="st6" d="M1076.2,314.3c0,0-0.4,1.8,2.4,1.5c2.8-0.3,1.2-3.2-0.6-2.4"/>
					<path id="Stroke-323" class="st6" d="M987.8,231c0,0-1.1-1.5-2.7,0.7c-1.7,2.2,1.6,3,2.2,1.2"/>
					<path id="Stroke-325" class="st6" d="M1100,332.4c0,0,6.5-5.3,4.2,2c-2.3,7.3-1.1,13-1.1,13s0.4,1.8,1.6,1.4
						c1.2-0.4-2.3,7.8-2.3,7.8h-1.1"/>
					<path id="Stroke-327" class="st6" d="M1133.9,269.6c0,0,2.8-3.4,2.2,0c-0.6,3.4-1,3.6-2.9,4.9c-1.9,1.2-2.4,5-1.1,5.8
						c1.3,0.8-3.7,7.8-3.7,7.8s-2.3,6.6-1.3,8.5c1,1.9-5.3,12.3-5.3,12.3s-5.2,5.9-4,8c1.2,2.1,1.8,3.6,0,6.3
						c-1.8,2.7,2.1,4.6-0.2,5.7c-2.3,1-9.3,3.2-6.7,3.5c2.6,0.3,2.1,1.7,1.4,2.8c-0.7,1,0,2.1,0,2.1s-4.9,9-7.5,11.4"/>
					<path id="Stroke-329" class="st6" d="M1121.7,328.9c0,0,2.6,0.1,3,1.7"/>
					<path id="Stroke-331" class="st6" d="M1015.8,475.4c0,0-1,4.6,2.4,8.1c3.3,3.6,6.8,3.2,6.8,3.2"/>
					<path id="Stroke-333" class="st6" d="M1084.6,314.6c0,0,12.5,5.6,6.8,4.1c-5.6-1.5-10-1.7-10-1.7s7.7,1.2,10,3.4"/>
					<path id="Stroke-335" class="st6" d="M1138.3,269.2c0,0-2.3-0.2,0,1.7c2.3,1.9,5.4,3,4.6,1.5c-0.8-1.5-4.4-4.7-5.6-4.2"/>
					<path id="Stroke-337" class="st6" d="M1134.8,305.3c0,0,2.7-1.8,1.3,3.7c-1.3,5.5-3.4,11.4-3.4,11.4s-1-3.1,0-8
						c1-4.8,1.3-8.1,3.4-8.2"/>
					<path id="Stroke-339" class="st6" d="M691.1,474.3h36.6"/>
					<path id="Stroke-341" class="st6" d="M694.6,477.7h13.1"/>
					<path id="Stroke-343" class="st6" d="M718.9,507.4h5.4"/>
					<path id="Stroke-345" class="st6" d="M692.6,507.4c6.8,0.3,13.1,0.3,20.2,0"/>
					<polyline id="Stroke-347" class="st6" points="701.1,472.1 717.7,472.1 704.8,471 717.7,471 					"/>
					<path id="Stroke-349" class="st6" d="M706.3,525.4c8.9-0.2,16.9-0.2,25.4,0"/>
					<path id="Stroke-351" class="st6" d="M692.6,525.4h7.8"/>
					<polyline id="Stroke-353" class="st6" points="717.7,528.1 687.1,528.1 701.7,528.1 687.1,528.1 					"/>
					<path id="Stroke-355" class="st6" d="M686.8,539.6h39.4"/>
					<path id="Stroke-357" class="st6" d="M637.9,542.8l86.4-0.6"/>
					<path id="Stroke-359" class="st6" d="M639.9,545.4h21.4"/>
					<path id="Stroke-361" class="st6" d="M780.9,542.8h-22.4"/>
					<path id="Stroke-363" class="st6" d="M770.1,545.4h9.8"/>
					<path id="Stroke-365" class="st6" d="M756.9,579.1l24-0.1"/>
					<path id="Stroke-367" class="st6" d="M1287.9,412.8h10.7"/>
					<path id="Stroke-369" class="st7" d="M1287.5,422.3h7.2"/>
					<path id="Stroke-371" class="st8" d="M1288.5,453.6h6.2"/>
					<path id="Stroke-373" class="st9" d="M1288.5,449.6h4.8"/>
					<path id="Stroke-375" class="st6" d="M1290.6,453.6l-2.5,121.6"/>
					<path id="Stroke-377" class="st6" d="M1370.3,501.9h49.4"/>
					<path id="Stroke-379" class="st6" d="M1371.4,503.2h14.3"/>
					<path id="Stroke-381" class="st6" d="M1372.6,507.2h6.9"/>
					<path id="Stroke-383" class="st6" d="M1369.8,513.5h41.4"/>
					<path id="Stroke-385" class="st6" d="M1371.1,517.8h12.7"/>
					<path id="Stroke-387" class="st6" d="M1419.8,517.8h-3.3"/>
					<path id="Stroke-389" class="st6" d="M1418.2,507.2h-3.3"/>
					<path id="Stroke-391" class="st6" d="M1421.1,513.5h-4"/>
					<path id="Stroke-393" class="st6" d="M1371.9,518.4h7.7"/>
					<path id="Stroke-395" class="st6" d="M1371.9,519.2h2.6"/>
					<path id="Stroke-397" class="st6" d="M1392.1,471.3h3.3"/>
					<path id="Stroke-399" class="st6" d="M1394.6,472h-2.5"/>
					<path id="Stroke-401" class="st6" d="M1393.4,472.7h-1.3"/>
					<path id="Stroke-403" class="st6" d="M1433.1,502.8l23,0.4"/>
					<path id="Stroke-405" class="st6" d="M1431.4,506.5h15.7"/>
					<path id="Stroke-407" class="st6" d="M1431.4,507.8h6.4"/>
					<path id="Stroke-409" class="st6" d="M1431.9,508.9h2"/>
					<path id="Stroke-411" class="st6" d="M1462.1,508.9h-9.8"/>
					<path id="Stroke-413" class="st6" d="M1462.6,506.5h-6.5"/>
					<path id="Stroke-415" class="st6" d="M1462.6,507.8h-2.7"/>
					<path id="Stroke-417" class="st6" d="M1430.9,527.5h18.8"/>
					<path id="Stroke-419" class="st6" d="M1430.2,528.9h11.9"/>
					<path id="Stroke-421" class="st6" d="M1430.2,529.7h5.9"/>
					<path id="Stroke-423" class="st6" d="M1430.9,531.1h20.3"/>
					<path id="Stroke-425" class="st6" d="M1463.8,529.7h-7.7"/>
					<path id="Stroke-427" class="st6" d="M1466.9,539.5h-25.8"/>
					<path id="Stroke-429" class="st6" d="M1464.5,543.9h-12.2"/>
					<path id="Stroke-431" class="st6" d="M1463,550.6h-15.9"/>
					<path id="Stroke-433" class="st6" d="M1465.1,562.2h-12"/>
					<path id="Stroke-435" class="st6" d="M1463,548.3h-3.7"/>
					<path id="Stroke-437" class="st6" d="M1465.7,576.1h-7.3"/>
					<path id="Stroke-439" class="st6" d="M1465.7,577.9h-3.6"/>
					<path id="Stroke-441" class="st6" d="M1323.9,538.6h22.8"/>
					<path id="Stroke-443" class="st6" d="M1323.9,539.5h10"/>
					<path id="Stroke-445" class="st6" d="M1324.6,540.5h5.6"/>
					<path id="Stroke-447" class="st6" d="M1326.4,543.9h17.7"/>
					<path id="Stroke-449" class="st6" d="M1327.8,548.3h24.9"/>
					<path id="Stroke-451" class="st6" d="M1327.8,527.5h18.9"/>
					<path id="Stroke-453" class="st6" d="M1327,528.9h9.1"/>
					<path id="Stroke-455" class="st6" d="M1327,529.7h18.3"/>
					<path id="Stroke-457" class="st6" d="M1327.8,531.1h11.6"/>
					<path id="Stroke-459" class="st6" d="M1355.4,527.5h4.5"/>
					<path id="Stroke-461" class="st6" d="M1328.8,508.9h17.9"/>
					<path id="Stroke-463" class="st6" d="M1328.2,507.8h17.6"/>
					<path id="Stroke-465" class="st6" d="M1329.9,502.8h12.7"/>
					<path id="Stroke-467" class="st6" d="M1328.2,506.5h11.6"/>
					<path id="Stroke-469" class="st6" d="M1327.8,550.6h14.4"/>
					<path id="Stroke-471" class="st6" d="M1325.8,562.2h17"/>
					<path id="Stroke-473" class="st6" d="M1325.1,576.1h9.1"/>
					<path id="Stroke-475" class="st6" d="M1325.1,577.9h18.9"/>
					<path id="Stroke-477" class="st6" d="M637.9,579.1h29.6"/>
					<path id="Stroke-479" class="st6" d="M686.8,538.1h7.8"/>
					<path id="Stroke-481" class="st6" d="M732,538.1h-7"/>
					<path id="Stroke-483" class="st6" d="M689.9,532.2h28.9"/>
					<path id="Stroke-485" class="st6" d="M689.9,533h8.9"/>
					<path id="Stroke-487" class="st6" d="M1114.8,503.8h53.6"/>
					<path id="Stroke-489" class="st6" d="M1117.6,505.5h26.9"/>
					<path id="Stroke-491" class="st6" d="M1118.5,509h33.2"/>
					<path id="Stroke-493" class="st6" d="M1113.2,513.9h28.3"/>
					<path id="Stroke-495" class="st6" d="M1113.2,514.7h17"/>
					<path id="Stroke-497" class="st6" d="M1116.1,516.4h21.1"/>
					<path id="Stroke-499" class="st6" d="M1116.9,519.9h23.5"/>
					<path id="Stroke-501" class="st6" d="M1118,532.1h33.2"/>
					<path id="Stroke-503" class="st6" d="M1118,533h7.5"/>
					<path id="Stroke-505" class="st6" d="M1119.3,536h5.3"/>
					<path id="Stroke-507" class="st6" d="M1141.4,533h6.2"/>
					<path id="Stroke-509" class="st6" d="M1142.6,536h4.9"/>
					<path id="Stroke-511" class="st6" d="M1164.7,532.2h8.9"/>
					<path id="Stroke-513" class="st6" d="M1164.7,533h5"/>
					<path id="Stroke-515" class="st6" d="M1166,536h4.6"/>
					<path id="Stroke-517" class="st6" d="M1204,532.2h7.3"/>
					<path id="Stroke-519" class="st6" d="M1204,533h9.4"/>
					<path id="Stroke-521" class="st6" d="M1205.3,536h7"/>
					<path id="Stroke-523" class="st6" d="M1227.3,532.2h9.6"/>
					<path id="Stroke-525" class="st6" d="M1227.3,533h4.8"/>
					<path id="Stroke-527" class="st6" d="M1228.6,536h5.6"/>
					<path id="Stroke-529" class="st6" d="M1250.7,532.2h9.1"/>
					<path id="Stroke-531" class="st6" d="M1250.7,533h7.8"/>
					<path id="Stroke-533" class="st6" d="M1252,536h5"/>
					<path id="Stroke-535" class="st6" d="M1207.6,586.2h7.9"/>
					<path id="Stroke-537" class="st6" d="M1234.2,586.2h4.7"/>
					<path id="Stroke-539" class="st6" d="M1258.5,586.2h3.8"/>
					<path id="Stroke-541" class="st6" d="M1170.6,586.2h5.7"/>
					<path id="Stroke-543" class="st6" d="M1149.1,586.2h3.8"/>
					<path id="Stroke-545" class="st6" d="M1124.6,586.2h5"/>
					<path id="Stroke-547" class="st6" d="M1266.8,503.8H1244"/>
					<path id="Stroke-549" class="st6" d="M1264,505.5h-6.7"/>
					<path id="Stroke-551" class="st6" d="M1263.1,509h-12.4"/>
					<path id="Stroke-553" class="st6" d="M1268.4,513.9h-23.3"/>
					<path id="Stroke-555" class="st6" d="M1268.4,514.7h-10.3"/>
					<path id="Stroke-557" class="st6" d="M1265.6,516.4h-8.6"/>
					<path id="Stroke-559" class="st6" d="M1264.7,519.9h-16.3"/>
					<path id="Stroke-561" class="st6" d="M795.5,584.2h33.9"/>
					<path id="Stroke-563" class="st6" d="M796.6,583.4h17.2"/>
					<path id="Stroke-565" class="st6" d="M796.6,575.3h22.3"/>
					<path id="Stroke-567" class="st6" d="M795.8,574.1h12.9"/>
					<path id="Stroke-569" class="st6" d="M849.4,574.1H827"/>
					<path id="Stroke-571" class="st6" d="M848.6,575.3h-9.9"/>
					<path id="Stroke-573" class="st6" d="M848.6,583.4H843"/>
					<path id="Stroke-575" class="st6" d="M849.7,584.2h-9.1"/>
					<path id="Stroke-577" class="st6" d="M803.6,569.3h17.9"/>
					<path id="Stroke-579" class="st6" d="M803.6,572.1h24.1"/>
					<path id="Stroke-581" class="st6" d="M841.6,569.3h-8"/>
					<path id="Stroke-583" class="st6" d="M804.5,567H817"/>
					<path id="Stroke-585" class="st6" d="M804,546.8h16.4"/>
					<path id="Stroke-587" class="st6" d="M804,545h9.8"/>
					<path id="Stroke-589" class="st6" d="M805.4,543.4h12.3"/>
					<path id="Stroke-591" class="st6" d="M830.8,543.4h9.1"/>
					<path id="Stroke-593" class="st6" d="M841.3,545h-12.7"/>
					<path id="Stroke-595" class="st6" d="M841.3,546.8h-12.7"/>
					<path id="Stroke-597" class="st6" d="M807,548.7h18.1"/>
					<path id="Stroke-599" class="st6" d="M810.4,540.6h11.2"/>
					<path id="Stroke-601" class="st6" d="M812.3,536.6h5.3"/>
					<path id="Stroke-603" class="st6" d="M813.3,534.5h8.2"/>
					<path id="Stroke-605" class="st6" d="M832.9,536.6h-9.5"/>
					<path id="Stroke-607" class="st6" d="M834.9,540.6h-6.4"/>
					<path id="Stroke-609" class="st6" d="M814.9,461.6h8.7"/>
					<path id="Stroke-611" class="st6" d="M815.5,464.2h7.8"/>
					<path id="Stroke-613" class="st6" d="M814.9,453.2h7.2"/>
					<path id="Stroke-615" class="st6" d="M827.2,483.8l0.3,50.3"/>
					<path id="Stroke-617" class="st6" d="M827.1,464.2l0.1,15.6"/>
					<path id="Stroke-619" class="st6" d="M866.7,494.1h12.4"/>
					<path id="Stroke-621" class="st6" d="M866.7,499.5h8.6"/>
					<path id="Stroke-623" class="st6" d="M882.7,494.1h5.8"/>
					<path id="Stroke-625" class="st6" d="M881.6,486.5l2,7.6"/>
					<path id="Stroke-627" class="st6" d="M878.2,473.7l2.5,9.4"/>
					<path id="Stroke-629" class="st6" d="M883.6,499.5h5"/>
					<path id="Stroke-631" class="st6" d="M861.2,520h26.6"/>
					<path id="Stroke-633" class="st6" d="M862.1,521.4H873"/>
					<path id="Stroke-635" class="st6" d="M862.8,528.1h17.5"/>
					<path id="Stroke-637" class="st6" d="M863.9,530.5h13.7"/>
					<path id="Stroke-639" class="st6" d="M865.6,534.2h7.4"/>
					<path id="Stroke-641" class="st6" d="M892.5,528.1h-6.4"/>
					<path id="Stroke-643" class="st6" d="M893.3,521.4h-4.7"/>
					<path id="Stroke-645" class="st6" d="M894.1,520h-2.8"/>
					<path id="Stroke-647" class="st6" d="M889.8,534.2h-8.5"/>
					<path id="Stroke-649" class="st6" d="M891.4,530.5h-3.6"/>
					<path id="Stroke-651" class="st6" d="M863.3,578.7h20.4"/>
					<path id="Stroke-653" class="st6" d="M863.3,580.9h9.3"/>
					<path id="Stroke-655" class="st6" d="M892,580.9h-8.3"/>
					<path id="Stroke-657" class="st6" d="M965.8,580.9h15.4"/>
					<path id="Stroke-659" class="st6" d="M965.8,578.7h10.5"/>
					<path id="Stroke-661" class="st6" d="M994.5,578.7h-6.8"/>
					<path id="Stroke-663" class="st6" d="M968.1,534.2h15.1"/>
					<path id="Stroke-665" class="st6" d="M966.4,530.5h24.7"/>
					<path id="Stroke-667" class="st6" d="M965.3,528.1h17.8"/>
					<path id="Stroke-669" class="st6" d="M965.3,521.4h21"/>
					<path id="Stroke-671" class="st6" d="M963.7,520h19.5"/>
					<path id="Stroke-673" class="st6" d="M995,528.1h-2.9"/>
					<path id="Stroke-675" class="st6" d="M996.7,520h-6.3"/>
					<path id="Stroke-677" class="st6" d="M995.8,521.4h-4.6"/>
					<path id="Stroke-679" class="st6" d="M970.4,515.4h7"/>
					<path id="Stroke-681" class="st6" d="M969.3,499.5h12.1"/>
					<path id="Stroke-683" class="st6" d="M969.3,494.1h15"/>
					<path id="Stroke-685" class="st6" d="M992.3,534.2h-2.7"/>
					<path id="Stroke-687" class="st6" d="M993.9,530.5h-1.1"/>
					<path id="Stroke-689" class="st6" d="M994.5,580.9h-3.4"/>
					<path id="Stroke-691" class="st6" d="M989.9,515.4h-1.9"/>
					<path id="Stroke-693" class="st6" d="M1357.8,502.8h-4.4"/>
					<path id="Stroke-695" class="st6" d="M1362.6,543.9h23.6"/>
					<path id="Stroke-697" class="st6" d="M1390.5,543.9h41.4"/>
					<path id="Stroke-699" class="st6" d="M1379.6,548.3h22.7"/>
					<path id="Stroke-701" class="st6" d="M721.6,532.2h7.3"/>
					<path id="Stroke-703" class="st6" d="M727.4,507.4H723"/>
					<path id="Stroke-705" class="st6" d="M686,525.3h8.4"/>
					<path id="Stroke-707" class="st6" d="M686,528.1h15.7"/>
					<path id="Stroke-709" class="st6" d="M697.4,538.1h20.3"/>
					<path id="Stroke-711" class="st6" d="M667.4,545.4h71.9"/>
					<path id="Stroke-713" class="st6" d="M717.7,471h-12.9"/>
					<path id="Stroke-715" class="st6" d="M701,471.9h16.7"/>
					<path id="Stroke-717" class="st10" d="M1056.8,463.9c0,0,6.3-1.1,11.9-0.7"/>
					<path id="Stroke-719" class="st10" d="M1069.5,396.2c0,0,5,9.2,6.1,16.4"/>
					<path id="Stroke-721" class="st10" d="M1059.9,379.4c0,0,0.6,12.4,8.8,16.2c0,0,11.5,4.2,17.1-3.6"/>
					<path id="Stroke-723" class="st10" d="M1054.6,364c0,0,0.3,3.1,3.2,2.6c2.9-0.5,10.8-1.7,19.1-4.8"/>
					<path id="Stroke-725" class="st10" d="M1056.2,375.5c0,0,0.8-5.5,0.3-8.4"/>
					<path id="Stroke-727" class="st11" d="M1052.7,470.6v4"/>
					<path id="Stroke-729" class="st10" d="M1066.9,469.5c0,0,0.4,5.2,0.1,6.2"/>
					<path id="Stroke-731" class="st10" d="M1015.8,468.9c0,0-0.2,1.2,5.6,2.2"/>
					<path id="Stroke-733" class="st10" d="M1089.5,468c0,0-1.1,2-1.2,3.7"/>
					<path id="Stroke-735" class="st6" d="M890.3,548.7h77.2"/>
					<path id="Stroke-737" class="st6" d="M890.8,567H967"/>
					<path id="Stroke-739" class="st12" d="M1042.3,533.7c13.2-1.9,30.6-8,37.7-11.1c0.4,3.5,0.6,5.8,1,9.1
						c-7.1,3.3-27.7,10.5-37.7,11C1043.1,539.4,1042.6,537.1,1042.3,533.7z"/>
					<path id="Stroke-741" class="st12" d="M1042.3,533.7c1.7-1.5,3.9-3.6,5.6-5.4c-5.3,1-8.1,1.2-14.1,0.9c2.4,2.1,3.6,3,5.8,4.8
						c-1.9,2.3-2.9,3.3-4.7,5.3c2.8,0.3,5.9,0.2,7.9-0.1"/>
					<path id="Stroke-743" class="st12" d="M1046.4,547.5c11.1-1.4,22.2-5.3,31.8-9.8c0.6,3.8,0.7,4.9,1.3,8.8
						c-10,4.8-21.7,8.6-32.2,9.3C1047.1,553.2,1046.7,551.1,1046.4,547.5z"/>
					<path id="Stroke-745" class="st12" d="M1081.1,531.7c-2.4,2.7-10.1,8.3-13.3,10.3"/>
					<path id="Stroke-747" class="st12" d="M1061.1,538.9c-3.9,3.2-10.7,6.9-14.7,8.7"/>
					<path id="Stroke-749" class="st12" d="M1079,542.6c3.2-1.3,5.5-2.3,8.7-4.4c-1.6,2.9-2.4,4.3-4,7.2c2.1,1.2,3.2,1.8,5.4,3
						c-5.4,2.8-8.6,4-13.8,5.3c1.6-2.5,2.6-4.7,4.1-7.2"/>
					<path id="Stroke-751" class="st12" d="M1047.9,528.2c0.2,2.1,0.2,2.3,0.4,4.2"/>
					<path id="Stroke-753" class="st12" d="M1074.6,548.8l0.7,4.9"/>
					<path id="Fill-755" class="st4" d="M1046.2,537.2c0.1,0.9,0.2,1.4,0.3,2.4c0,0.3-0.1,0.5-0.3,0.5c-0.2,0-0.4-0.1-0.4-0.4
						c-0.2-1.5-0.3-2.2-0.5-3.6c0-0.3,0.2-0.4,0.3-0.4c0.2,0,0.3,0.1,0.4,0.2c0.6,0.6,0.9,1,1.4,1.6c0.4-0.9,0.6-1.3,1-2.1
						c0.2-0.3,0.6-0.3,0.7,0.1c0.2,1.3,0.3,2.1,0.5,3.6c0,0.3-0.1,0.5-0.3,0.5c-0.2,0-0.4-0.1-0.4-0.4c-0.1-1-0.2-1.5-0.3-2.4
						c-0.3,0.6-0.5,0.9-0.7,1.5c-0.2,0.3-0.4,0.4-0.6,0.1C1046.8,537.9,1046.6,537.7,1046.2,537.2"/>
					<path id="Fill-757" class="st4" d="M1052.5,537.2c-0.3-0.6-0.5-0.9-0.8-1.4c-0.2,0.7-0.3,1-0.5,1.7
						C1051.7,537.3,1051.9,537.3,1052.5,537.2 M1050.2,539.3c-0.2,0-0.3-0.3-0.2-0.6c0.5-1.6,0.7-2.4,1.3-3.9
						c0.1-0.3,0.5-0.4,0.7-0.1c0.7,1.2,1.1,1.9,1.9,3.2c0.3,0.5-0.3,1.1-0.6,0.6c-0.1-0.2-0.2-0.3-0.3-0.5c-0.8,0.2-1.2,0.3-2.1,0.4
						c-0.1,0.3-0.1,0.4-0.2,0.6C1050.6,539.2,1050.4,539.4,1050.2,539.3"/>
					<path id="Fill-759" class="st4" d="M1055.6,536.1c-0.2,0.3-0.3,0.5-0.5,0.8c0,0.4,0.1,0.6,0.1,0.9c0.1,0.6-0.7,0.8-0.7,0.2
						c-0.1-1.3-0.3-2.5-0.4-3.7c0-0.5,0.7-0.7,0.7-0.2c0.1,0.6,0.1,0.9,0.1,1.6c0.6-0.9,0.9-1.4,1.4-2.3c0.2-0.2,0.4-0.3,0.5-0.1
						c0.2,0.1,0.2,0.3,0,0.5c-0.3,0.5-0.6,1-1,1.6c0.6,0.6,0.9,0.9,1.5,1.5c0.4,0.5-0.3,1.1-0.5,0.7
						C1056.4,537,1056.1,536.7,1055.6,536.1"/>
					<path id="Fill-761" class="st4" d="M1058.6,537.4c-0.2,0.1-0.4-0.1-0.4-0.3c-0.2-1.6-0.3-2.3-0.4-3.7c0-0.2,0.1-0.4,0.3-0.5
						c0.8-0.2,1.2-0.4,2-0.6c0.5-0.2,0.6,0.6,0.1,0.8c-0.6,0.2-1,0.3-1.6,0.5c0,0.4,0.1,0.6,0.1,0.9c0.6-0.2,0.8-0.3,1.4-0.4
						c0.5-0.2,0.6,0.7,0.1,0.9c-0.6,0.2-0.8,0.3-1.4,0.4c0,0.4,0.1,0.6,0.1,1c0.7-0.2,1-0.3,1.7-0.5c0.5-0.2,0.7,0.7,0.1,0.9
						C1059.9,537,1059.5,537.1,1058.6,537.4"/>
					<path id="Fill-763" class="st4" d="M1062.9,533.7c-0.1-1.3,0.4-2.5,1.7-2.9c0.5-0.2,0.9-0.2,1.3,0.1c0.2,0.1,0.2,0.4,0.1,0.6
						c-0.1,0.2-0.4,0.3-0.5,0.2c-0.3-0.2-0.5-0.2-0.8-0.1c-0.8,0.3-1.2,1.1-1.1,1.9c0.1,0.8,0.6,1.5,1.4,1.2
						c0.3-0.1,0.6-0.4,0.8-0.8c0.2-0.2,0.4-0.2,0.5-0.1c0.1,0.1,0.2,0.4,0,0.7c-0.3,0.6-0.8,0.9-1.2,1
						C1063.8,535.9,1063,534.9,1062.9,533.7"/>
					<path id="Fill-765" class="st4" d="M1068.6,530c-0.6,0.2-1.2,1-1.1,2c0.1,1,0.9,1.4,1.5,1.1c0.6-0.2,1.2-1.1,1.1-2.1
						C1069.9,530,1069.2,529.8,1068.6,530 M1069.1,534c-1,0.4-2.2-0.1-2.3-1.7c-0.2-1.6,0.8-2.7,1.8-3.1c0.9-0.3,2,0,2.1,1.5
						C1070.9,532.3,1070,533.6,1069.1,534"/>
					<path id="Fill-767" class="st4" d="M1071.9,528.8c0.1,1.1,0.2,1.7,0.3,3c0.3-0.1,0.5-0.2,0.9-0.4c1.4-0.6,1.1-3.6-0.3-3
						C1072.4,528.6,1072.2,528.6,1071.9,528.8 M1072,532.7c-0.2,0.1-0.4,0-0.4-0.3c-0.2-1.6-0.3-2.4-0.4-3.7c0-0.2,0.2-0.4,0.3-0.5
						c0.5-0.2,0.7-0.3,1.2-0.5c2.4-1,2.9,3.6,0.6,4.5C1072.8,532.4,1072.5,532.5,1072,532.7"/>
					<path id="Fill-769" class="st4" d="M1075.9,531.1c-0.2,0.1-0.3-0.1-0.4-0.3c-0.2-1.6-0.3-2.4-0.4-3.7c0-0.2,0.1-0.4,0.3-0.5
						c0.7-0.3,1.1-0.5,1.8-0.8c0.5-0.2,0.5,0.6,0.1,0.8c-0.6,0.2-0.9,0.4-1.5,0.6c0,0.4,0.1,0.6,0.1,0.9c0.5-0.2,0.8-0.3,1.3-0.5
						c0.4-0.2,0.5,0.7,0.1,0.9c-0.5,0.2-0.8,0.3-1.3,0.5c0,0.4,0.1,0.6,0.1,1c0.6-0.3,0.9-0.4,1.5-0.7c0.5-0.2,0.6,0.7,0.1,0.9
						C1077,530.6,1076.7,530.8,1075.9,531.1"/>
					<path id="Fill-771" class="st4" d="M1049.4,549.6c0-0.3,0-0.5,0.3-0.5c0.2,0,0.3,0,0.4,0.2c0.9,1,1.3,1.6,2.2,2.5
						c-0.1-1.1-0.2-1.6-0.3-2.7c0-0.2,0.1-0.5,0.3-0.6c0.2,0,0.4,0.2,0.5,0.4c0.2,1.6,0.3,2.4,0.5,3.9c0,0.3-0.1,0.5-0.2,0.5
						c-0.2,0.1-0.3,0-0.5-0.1c-0.9-1-1.3-1.5-2.2-2.5c0.1,1.1,0.2,1.6,0.3,2.6c0,0.3-0.1,0.5-0.3,0.5c-0.2,0-0.4-0.1-0.4-0.4
						C1049.7,551.9,1049.6,551.1,1049.4,549.6"/>
					<path id="Fill-773" class="st4" d="M1055.6,548.8c-0.6,0.2-1.2,0.9-1.1,2c0.1,1.1,0.9,1.4,1.5,1.3c0.6-0.2,1.3-0.9,1.1-1.9
						C1057,549.1,1056.3,548.7,1055.6,548.8 M1056.2,552.9c-1,0.3-2.2-0.2-2.4-1.9c-0.2-1.7,0.8-2.8,1.8-3c1-0.2,2.1,0.4,2.3,2
						S1057.1,552.6,1056.2,552.9"/>
					<path id="Fill-775" class="st4" d="M1059.5,547.9c-0.4,0.1-0.6,0.2-1,0.3c-0.5,0.1-0.6-0.8-0.1-0.9c1.1-0.3,1.6-0.4,2.7-0.7
						c0.5-0.1,0.6,0.8,0.1,0.9c-0.4,0.1-0.6,0.2-0.9,0.3c0.2,1.4,0.2,2.1,0.4,3.4c0.1,0.6-0.7,0.8-0.7,0.2
						C1059.7,550,1059.6,549.3,1059.5,547.9"/>
					<path id="Fill-777" class="st4" d="M1067.8,547.4c0.2-1.2,0.3-1.8,0.4-3.1c0.1-0.6,0.8-0.6,0.7,0c-0.2,1.7-0.3,2.5-0.6,4
						c-0.1,0.4-0.1,0.5-0.3,0.6c-0.2,0.1-0.3,0-0.4-0.2c-0.5-0.8-0.8-1.3-1.3-2.2c-0.2,1.2-0.3,1.8-0.6,2.9
						c-0.1,0.3-0.1,0.5-0.3,0.6c-0.2,0.1-0.3,0-0.4-0.3c-0.6-1.2-0.9-1.9-1.6-3.3c-0.3-0.6,0.4-1,0.6-0.5c0.5,1,0.7,1.6,1.2,2.5
						c0.3-1.2,0.4-1.9,0.6-3.2c0.1-0.5,0.4-0.6,0.6-0.3C1067,546,1067.3,546.5,1067.8,547.4"/>
					<path id="Fill-779" class="st4" d="M1071.8,545.7c-0.3-0.5-0.5-0.8-0.8-1.4c-0.2,0.8-0.2,1.2-0.4,1.9
						C1071.1,546,1071.3,545.9,1071.8,545.7 M1069.7,548.2c-0.2,0-0.3-0.2-0.2-0.5c0.4-1.7,0.6-2.6,1-4.4c0.1-0.4,0.5-0.6,0.7-0.3
						c0.8,1.3,1.3,2,2,3.1c0.3,0.4-0.3,1-0.6,0.7c-0.1-0.2-0.2-0.3-0.3-0.4c-0.8,0.3-1.2,0.5-2,0.8c-0.1,0.3-0.1,0.4-0.2,0.6
						C1070.1,548.1,1069.9,548.2,1069.7,548.2"/>
					<path id="Fill-781" class="st4" d="M1074.1,543.9c0.4-0.2,0.6-0.3,1-0.5c0.7-0.3,0.5-1.7-0.2-1.4c-0.4,0.2-0.6,0.3-1,0.4
						C1074,543.1,1074,543.4,1074.1,543.9 M1074.4,545.8c0.1,0.5-0.6,0.9-0.7,0.3c-0.2-1.4-0.3-2.2-0.5-3.7c0-0.2,0.1-0.5,0.2-0.6
						c0.6-0.2,0.8-0.4,1.4-0.6c1.3-0.6,1.9,1.6,0.9,2.6c0.3,0.3,0.5,0.4,0.8,0.7c0.3,0.3-0.2,1-0.5,0.7c-0.4-0.4-0.6-0.6-0.9-1
						c-0.3,0.1-0.5,0.2-0.8,0.4C1074.3,545.1,1074.3,545.4,1074.4,545.8"/>
					<path id="Stroke-783" class="st6" d="M529.6,539.3h52.4"/>
					<path id="Stroke-785" class="st6" d="M529.6,535.5h70.2"/>
					<path id="Stroke-787" class="st6" d="M555,510.9h15.7"/>
					<path id="Stroke-789" class="st6" d="M470.5,551.7h98.7"/>
					<path id="Stroke-791" class="st6" d="M468.8,557.4h58.5"/>
					<path id="Stroke-793" class="st6" d="M615.6,557.4h-65.5"/>
					<path id="Stroke-795" class="st6" d="M468.8,558.8h47"/>
					<path id="Stroke-797" class="st6" d="M531.7,558.8h68.1"/>
					<path id="Stroke-799" class="st6" d="M470.5,561.7h117"/>
					<path id="Stroke-801" class="st6" d="M424.9,573.4h143"/>
					<path id="Stroke-803" class="st6" d="M621.6,573.4h-15.8"/>
					<path id="Stroke-805" class="st6" d="M622.8,576.4h-39.9"/>
					<path id="Stroke-807" class="st6" d="M423.6,576.4h128"/>
				</g>
			</g>
		</g>
	</g>
</g>
</svg>
