<svg xmlns="http://www.w3.org/2000/svg" width="60" height="63" viewBox="0 0 60 63">
    <path fill="#023753" fill-rule="nonzero" d="M49.583 27.835a40.818 40.818 0 0 0-1.883-.588 31.7 31.7 0 0 0 .29-1.27c1.429-6.842.494-12.356-2.692-14.172-2.637-1.5-6.723-.352-11.036 2.782l.112 3.05c4.12-3.386 7.91-4.697 9.674-3.69 1.96 1.117 2.724 5.62 1.491 11.532-.08.384-.168.768-.262 1.149-2.43-.554-5.066-.965-7.829-1.221a63.515 63.515 0 0 0-2.927-3.812l.056 1.556a3.297 3.297 0 0 1 .5 3.629c.123.301.21.616.267.937.241.014.48.032.718.049a73.667 73.667 0 0 1 2.822 4.452 80.507 80.507 0 0 1 2.524 4.642 72.739 72.739 0 0 1-2.517 4.684 81.538 81.538 0 0 1-2.808 4.48 41.94 41.94 0 0 1-.68.044l.137 4.957c.651-.84 1.295-1.719 1.936-2.632 2.833-.25 5.504-.654 7.93-1.207.12.477.224.944.319 1.4.585 2.923.669 5.57.28 7.635-.35 1.857-1.05 3.096-1.919 3.59-1.6.917-4.782.004-8.378-2.618l.084 3.05c3.743 2.336 7.202 3.045 9.548 1.703 3.14-1.796 4.163-7.233 2.836-13.847a36.85 36.85 0 0 0-.35-1.547c.37-.107.735-.22 1.089-.335 6.712-2.197 11.081-5.75 11.081-9.385-.003-3.476-4.09-6.845-10.413-8.997zm-8.435 3.152a74.763 74.763 0 0 0-1.783-2.892c1.87.232 3.66.543 5.34.923A52.62 52.62 0 0 1 42.832 34a81.91 81.91 0 0 0-1.684-3.013zm-1.79 14.743a81.776 81.776 0 0 0 3.495-6.009 52.065 52.065 0 0 1 1.967 5.088c-1.694.384-3.529.692-5.462.92zm8.873-1.848c-.319.104-.648.208-.984.305-.743-2.318-1.74-4.784-2.966-7.33 1.17-2.487 2.129-4.919 2.85-7.223.599.173 1.18.353 1.74.543 5.42 1.844 8.725 4.566 8.725 6.666 0 2.238-3.57 5.14-9.365 7.04zM24.283 57.344l-.08 3.02c-3.75 2.238-7.249 2.904-9.58 1.577-3.05-1.74-4.006-6.807-2.78-13.188.134-.693.288-1.382.46-2.068a32.098 32.098 0 0 1-1.584-.488C4.255 44.01 0 40.408 0 36.817c0-3.475 3.96-6.825 10.168-8.962.694-.24 1.42-.464 2.17-.676a39.966 39.966 0 0 1-.435-1.919c-1.286-6.495-.382-11.684 2.675-13.433 2.656-1.521 6.785-.41 11.156 2.695l-.112 3.03c-4.16-3.342-7.984-4.617-9.79-3.585-1.843 1.053-2.572 5.252-1.472 10.815.12.596.253 1.192.403 1.784 2.426-.544 5.065-.949 7.824-1.202a61.712 61.712 0 0 1 2.884-3.73l-.056 1.503a3.316 3.316 0 0 0-.473 3.602c-.123.302-.21.617-.266.943-.239.013-.473.03-.708.048a69.47 69.47 0 0 0-5.335 9.142 68.754 68.754 0 0 0 2.503 4.67 69.275 69.275 0 0 0 2.863 4.492c.197.01.393.024.593.035l-.134 4.777a68.079 68.079 0 0 1-1.83-2.429c-2.842-.225-5.499-.602-7.9-1.129a36.206 36.206 0 0 0-.427 1.923c-1.048 5.455-.28 9.526 1.57 10.579.87.495 2.306.478 4.111-.153 1.343-.467 2.801-1.243 4.301-2.293zM18.866 42.79a73.846 73.846 0 0 1-1.662-2.997 55.81 55.81 0 0 0-1.9 5.113c1.672.36 3.481.648 5.402.86a72.468 72.468 0 0 1-1.84-2.976zm1.787-14.733c-1.857.229-3.641.53-5.313.904a53.887 53.887 0 0 0 1.86 5.013c.53-1.012 1.08-2.01 1.655-2.997a77.875 77.875 0 0 1 1.798-2.92zm-7.781 16.247c.74-2.387 1.717-4.892 2.892-7.42-1.16-2.495-2.124-4.957-2.857-7.316-.68.19-1.353.398-2.019.626-5.307 1.83-8.49 4.521-8.49 6.63 0 .991.733 2.214 2.188 3.444 1.62 1.368 3.978 2.622 6.838 3.589.48.159.96.308 1.448.447zm15.746-1.741a4.017 4.017 0 0 1-2.48-3.713 4.015 4.015 0 0 1 2.753-3.814l.017-.477h-.665a.437.437 0 0 1-.435-.436v-.48c0-.24.196-.437.435-.437h.25V29.896c0-.528.25-.998.634-1.302l.054-1.383h-.293a.392.392 0 0 1 0-.785h.32L30.141 0l.913 26.43h.344a.392.392 0 0 1 0 .784h-.317l.05 1.36a1.653 1.653 0 0 1 .658 1.322V33.21h.25c.24 0 .435.196.435.436v.48c0 .24-.196.436-.435.436h-.688l.016.467a4.013 4.013 0 0 1 2.777 3.82 4.014 4.014 0 0 1-2.503 3.724l.033.913h.365c.24 0 .435.196.435.436v.48c0 .24-.196.437-.435.437h-.314l.402 15.208a10.648 10.648 0 0 0-1.986-.18c-.722 0-1.407.065-2.018.18l.41-15.208h-.29a.437.437 0 0 1-.435-.437v-.48c0-.24.196-.436.435-.436h.341l.034-.923z"/>
</svg>
