<?xml version="1.0" encoding="UTF-8" standalone="no"?>
<svg
   xmlns:dc="http://purl.org/dc/elements/1.1/"
   xmlns:cc="http://creativecommons.org/ns#"
   xmlns:rdf="http://www.w3.org/1999/02/22-rdf-syntax-ns#"
   xmlns:svg="http://www.w3.org/2000/svg"
   xmlns="http://www.w3.org/2000/svg"
   xmlns:sodipodi="http://sodipodi.sourceforge.net/DTD/sodipodi-0.dtd"
   xmlns:inkscape="http://www.inkscape.org/namespaces/inkscape"
   width="60"
   height="63"
   viewBox="0 0 60 63"
   id="svg2"
   version="1.1"
   inkscape:version="0.91 r13725"
   sodipodi:docname="logo_b.svg">
  <metadata
     id="metadata10">
    <rdf:RDF>
      <cc:Work
         rdf:about="">
        <dc:format>image/svg+xml</dc:format>
        <dc:type
           rdf:resource="http://purl.org/dc/dcmitype/StillImage" />
      </cc:Work>
    </rdf:RDF>
  </metadata>
  <defs
     id="defs8">
    <clipPath
       clipPathUnits="userSpaceOnUse"
       id="clipPath4206">
      <path
         d="m 0,0 375,0 0,375.75 -375,0 L 0,0 Z"
         id="path4208"
         inkscape:connector-curvature="0"
         style="clip-rule:evenodd" />
    </clipPath>
    <clipPath
       clipPathUnits="userSpaceOnUse"
       id="clipPath4218">
      <path
         d="M 0,0 375,0 375,375 0,375 0,0 Z"
         id="path4220"
         inkscape:connector-curvature="0"
         style="clip-rule:evenodd" />
    </clipPath>
    <clipPath
       clipPathUnits="userSpaceOnUse"
       id="clipPath4230">
      <path
         d="M 0,0 375,0 375,375 0,375 0,0 Z"
         id="path4232"
         inkscape:connector-curvature="0"
         style="clip-rule:evenodd" />
    </clipPath>
    <clipPath
       clipPathUnits="userSpaceOnUse"
       id="clipPath4242">
      <path
         d="m 55.5,99 270,0 0,108 -270,0 0,-108 z"
         id="path4244"
         inkscape:connector-curvature="0"
         style="clip-rule:evenodd" />
    </clipPath>
    <clipPath
       clipPathUnits="userSpaceOnUse"
       id="clipPath4282">
      <path
         d="M 0,0 375,0 375,375 0,375 0,0 Z"
         id="path4284"
         inkscape:connector-curvature="0"
         style="clip-rule:evenodd" />
    </clipPath>
    <clipPath
       clipPathUnits="userSpaceOnUse"
       id="clipPath4340">
      <path
         d="m 55.5,104.25 63.75,0 0,63.75 -63.75,0 0,-63.75 z"
         id="path4342"
         inkscape:connector-curvature="0"
         style="clip-rule:evenodd" />
    </clipPath>
  </defs>
  <sodipodi:namedview
     pagecolor="#ffffff"
     bordercolor="#666666"
     borderopacity="1"
     objecttolerance="10"
     gridtolerance="10"
     guidetolerance="10"
     inkscape:pageopacity="0"
     inkscape:pageshadow="2"
     inkscape:window-width="982"
     inkscape:window-height="789"
     id="namedview6"
     showgrid="false"
     inkscape:zoom="3.7460317"
     inkscape:cx="-12.845339"
     inkscape:cy="31.5"
     inkscape:window-x="80"
     inkscape:window-y="156"
     inkscape:window-maximized="0"
     inkscape:current-layer="svg2" />
  <g
     id="g4529"
     transform="matrix(0.92074947,0,0,0.92074947,0.80212461,2.7024695)"
     style="fill:#0000ff">
    <g
       id="g4455"
       style="fill:#0000ff">
      <g
         id="g4457"
         style="fill:#0000ff" />
      <g
         id="g4459"
         style="fill:#0000ff" />
      <g
         id="g4461"
         style="fill:#0000ff" />
      <g
         id="g4463"
         style="fill:#0000ff" />
      <g
         id="g4465"
         style="fill:#0000ff" />
      <g
         id="g4467"
         style="fill:#0000ff" />
      <g
         id="g4469"
         style="fill:#0000ff" />
      <g
         id="g4471"
         style="fill:#0000ff" />
      <g
         id="g4473"
         style="fill:#0000ff" />
      <g
         id="g4475"
         style="fill:#0000ff" />
      <g
         id="g4477"
         style="fill:#0000ff" />
      <g
         id="g4479"
         style="fill:#0000ff" />
      <g
         id="g4481"
         style="fill:#0000ff" />
      <g
         id="g4483"
         style="fill:#0000ff" />
      <g
         id="g4485"
         style="fill:#0000ff" />
    </g>
    <g
       id="g4487"
       style="fill:#0000ff">
      <path
         id="path4489"
         d="M 54.628,9.375 C 48.584,3.33 40.548,0.001 32.001,0.001 23.453,0.001 15.418,3.33 9.374,9.375 3.329,15.419 0,23.454 0,32.001 c 0,8.547 3.329,16.582 9.374,22.626 6.044,6.045 14.079,9.374 22.627,9.374 8.547,0 16.583,-3.329 22.627,-9.374 6.045,-6.044 9.374,-14.079 9.374,-22.626 0,-8.547 -3.329,-16.582 -9.374,-22.626 z m -1.414,43.838 c -5.666,5.667 -13.2,8.788 -21.213,8.788 -8.014,0 -15.547,-3.121 -21.213,-8.788 C 5.121,47.547 2,40.014 2,32.001 2,23.988 5.121,16.455 10.788,10.789 16.454,5.122 23.987,2.001 32.001,2.001 c 8.013,0 15.547,3.121 21.213,8.788 5.667,5.666 8.788,13.199 8.788,21.212 0,8.013 -3.121,15.546 -8.788,21.212 z"
         inkscape:connector-curvature="0"
         style="fill:#0000ff" />
      <path
         id="path4491"
         d="m 20,16.001 0,2 8.001,0 c 0.025,0 2.583,0.012 5.121,1.051 1.711,0.7 2.964,1.692 3.776,2.949 l -16.898,0 0,2 17.754,0 c 0.155,0.624 0.247,1.285 0.247,2 0,2.482 -0.742,4.421 -2.205,5.762 -2.875,2.633 -7.656,2.248 -7.795,2.238 l -8.001,0 0,2.435 L 35.318,50.732 36.684,49.27 22.466,36 27.91,35.997 c 0.231,0.021 5.694,0.477 9.227,-2.751 1.9,-1.735 2.864,-4.173 2.864,-7.245 0,-0.719 -0.085,-1.374 -0.206,-2 l 4.205,0 0,-2 -4.823,0 c -0.811,-1.779 -2.147,-3.078 -3.681,-4 l 8.504,0 0,-2 -15.999,0 -8.001,0 z"
         inkscape:connector-curvature="0"
         style="fill:#0000ff" />
    </g>
    <g
       id="g4493"
       style="fill:#0000ff" />
    <g
       id="g4495"
       style="fill:#0000ff" />
    <g
       id="g4497"
       style="fill:#0000ff" />
    <g
       id="g4499"
       style="fill:#0000ff" />
    <g
       id="g4501"
       style="fill:#0000ff" />
    <g
       id="g4503"
       style="fill:#0000ff" />
    <g
       id="g4505"
       style="fill:#0000ff" />
    <g
       id="g4507"
       style="fill:#0000ff" />
    <g
       id="g4509"
       style="fill:#0000ff" />
    <g
       id="g4511"
       style="fill:#0000ff" />
    <g
       id="g4513"
       style="fill:#0000ff" />
    <g
       id="g4515"
       style="fill:#0000ff" />
    <g
       id="g4517"
       style="fill:#0000ff" />
    <g
       id="g4519"
       style="fill:#0000ff" />
    <g
       id="g4521"
       style="fill:#0000ff" />
  </g>
</svg>
