<svg xmlns="http://www.w3.org/2000/svg" xmlns:xlink="http://www.w3.org/1999/xlink" width="283" height="43" viewBox="0 0 283 43"><defs><path id="nlz3a" d="M1119 392v-3h-3v3z"/><path id="nlz3b" d="M1099 392v-3h-3v3z"/><path id="nlz3c" d="M1079 392v-3h-3v3z"/><path id="nlz3d" d="M1059 392v-3h-3v3z"/><path id="nlz3e" d="M1119 372v-3h-3v3z"/><path id="nlz3f" d="M1099 372v-3h-3v3z"/><path id="nlz3g" d="M1079 372v-3h-3v3z"/><path id="nlz3h" d="M1119 412v-3h-3v3z"/><path id="nlz3i" d="M1139 392v-3h-3v3z"/><path id="nlz3j" d="M1139 372v-3h-3v3z"/><path id="nlz3k" d="M1139 412v-3h-3v3z"/><path id="nlz3l" d="M1099 412v-3h-3v3z"/><path id="nlz3m" d="M1079 412v-3h-3v3z"/><path id="nlz3n" d="M1039 392v-3h-3v3z"/><path id="nlz3o" d="M1059 372v-3h-3v3z"/><path id="nlz3p" d="M1039 372v-3h-3v3z"/><path id="nlz3q" d="M1039 412v-3h-3v3z"/><path id="nlz3r" d="M1019 392v-3h-3v3z"/><path id="nlz3s" d="M1019 372v-3h-3v3z"/><path id="nlz3t" d="M1019 412v-3h-3v3z"/><path id="nlz3u" d="M999 392v-3h-3v3z"/><path id="nlz3v" d="M999 372v-3h-3v3z"/><path id="nlz3w" d="M999 412v-3h-3v3z"/><path id="nlz3x" d="M979 392v-3h-3v3z"/><path id="nlz3y" d="M979 372v-3h-3v3z"/><path id="nlz3z" d="M979 412v-3h-3v3z"/><path id="nlz3A" d="M959 392v-3h-3v3z"/><path id="nlz3B" d="M959 372v-3h-3v3z"/><path id="nlz3C" d="M959 412v-3h-3v3z"/><path id="nlz3D" d="M939 392v-3h-3v3z"/><path id="nlz3E" d="M939 372v-3h-3v3z"/><path id="nlz3F" d="M939 412v-3h-3v3z"/><path id="nlz3G" d="M919 392v-3h-3v3z"/><path id="nlz3H" d="M919 372v-3h-3v3z"/><path id="nlz3I" d="M919 412v-3h-3v3z"/><path id="nlz3J" d="M899 392v-3h-3v3z"/><path id="nlz3K" d="M899 372v-3h-3v3z"/><path id="nlz3L" d="M899 412v-3h-3v3z"/><path id="nlz3M" d="M879 392v-3h-3v3z"/><path id="nlz3N" d="M879 372v-3h-3v3z"/><path id="nlz3O" d="M879 412v-3h-3v3z"/><path id="nlz3P" d="M859 392v-3h-3v3z"/><path id="nlz3Q" d="M859 412v-3h-3v3z"/><path id="nlz3R" d="M1059 412v-3h-3v3z"/></defs><g><g transform="translate(-856 -369)"><g><use fill="#fff" xlink:href="#nlz3a"/></g><g><use fill="#2700c3" xlink:href="#nlz3b"/></g><g><use fill="#2700c3" xlink:href="#nlz3c"/></g><g><use fill="#2700c3" xlink:href="#nlz3d"/></g><g><use fill="#2700c3" xlink:href="#nlz3e"/></g><g><use fill="#2700c3" xlink:href="#nlz3f"/></g><g><use fill="#2700c3" xlink:href="#nlz3g"/></g><g><use fill="#2700c3" xlink:href="#nlz3h"/></g><g><use fill="#fff" xlink:href="#nlz3i"/></g><g><use fill="#2700c3" xlink:href="#nlz3j"/></g><g><use fill="#2700c3" xlink:href="#nlz3k"/></g><g><use fill="#2700c3" xlink:href="#nlz3l"/></g><g><use fill="#2700c3" xlink:href="#nlz3m"/></g><g><use fill="#2700c3" xlink:href="#nlz3n"/></g><g><use fill="#2700c3" xlink:href="#nlz3o"/></g><g><use fill="#2700c3" xlink:href="#nlz3p"/></g><g><use fill="#2700c3" xlink:href="#nlz3q"/></g><g><use fill="#2700c3" xlink:href="#nlz3r"/></g><g><use fill="#2700c3" xlink:href="#nlz3s"/></g><g><use fill="#2700c3" xlink:href="#nlz3t"/></g><g><use fill="#2700c3" xlink:href="#nlz3u"/></g><g><use fill="#2700c3" xlink:href="#nlz3v"/></g><g><use fill="#2700c3" xlink:href="#nlz3w"/></g><g><use fill="#2700c3" xlink:href="#nlz3x"/></g><g><use fill="#2700c3" xlink:href="#nlz3y"/></g><g><use fill="#2700c3" xlink:href="#nlz3z"/></g><g><use fill="#2700c3" xlink:href="#nlz3A"/></g><g><use fill="#2700c3" xlink:href="#nlz3B"/></g><g><use fill="#2700c3" xlink:href="#nlz3C"/></g><g><use fill="#2700c3" xlink:href="#nlz3D"/></g><g><use fill="#2700c3" xlink:href="#nlz3E"/></g><g><use fill="#2700c3" xlink:href="#nlz3F"/></g><g><use fill="#2700c3" xlink:href="#nlz3G"/></g><g><use fill="#2700c3" xlink:href="#nlz3H"/></g><g><use fill="#2700c3" xlink:href="#nlz3I"/></g><g><use fill="#2700c3" xlink:href="#nlz3J"/></g><g><use fill="#2700c3" xlink:href="#nlz3K"/></g><g><use fill="#2700c3" xlink:href="#nlz3L"/></g><g><use fill="#2700c3" xlink:href="#nlz3M"/></g><g><use fill="#2700c3" xlink:href="#nlz3N"/></g><g><use fill="#2700c3" xlink:href="#nlz3O"/></g><g><use fill="#2700c3" xlink:href="#nlz3P"/></g><g><use fill="#2700c3" xlink:href="#nlz3Q"/></g><g><use fill="#2700c3" xlink:href="#nlz3R"/></g></g></g></svg>