<svg xmlns="http://www.w3.org/2000/svg" xmlns:xlink="http://www.w3.org/1999/xlink" width="283" height="43" viewBox="0 0 283 43"><defs><path id="y3n9a" d="M1589 392v-3h-3v3z"/><path id="y3n9b" d="M1569 392v-3h-3v3z"/><path id="y3n9c" d="M1549 392v-3h-3v3z"/><path id="y3n9d" d="M1529 392v-3h-3v3z"/><path id="y3n9e" d="M1589 372v-3h-3v3z"/><path id="y3n9f" d="M1569 372v-3h-3v3z"/><path id="y3n9g" d="M1549 372v-3h-3v3z"/><path id="y3n9h" d="M1529 372v-3h-3v3z"/><path id="y3n9i" d="M1589 412v-3h-3v3z"/><path id="y3n9j" d="M1609 392v-3h-3v3z"/><path id="y3n9k" d="M1609 372v-3h-3v3z"/><path id="y3n9l" d="M1609 412v-3h-3v3z"/><path id="y3n9m" d="M1569 412v-3h-3v3z"/><path id="y3n9n" d="M1549 412v-3h-3v3z"/><path id="y3n9o" d="M1529 412v-3h-3v3z"/><path id="y3n9p" d="M1469 392v-3h-3v3z"/><path id="y3n9q" d="M1489 392v-3h-3v3z"/><path id="y3n9r" d="M1509 392v-3h-3v3z"/><path id="y3n9s" d="M1469 372v-3h-3v3z"/><path id="y3n9t" d="M1489 372v-3h-3v3z"/><path id="y3n9u" d="M1509 372v-3h-3v3z"/><path id="y3n9v" d="M1469 412v-3h-3v3z"/><path id="y3n9w" d="M1489 412v-3h-3v3z"/><path id="y3n9x" d="M1509 412v-3h-3v3z"/><path id="y3n9y" d="M1449 392v-3h-3v3z"/><path id="y3n9z" d="M1429 392v-3h-3v3z"/><path id="y3n9A" d="M1409 392v-3h-3v3z"/><path id="y3n9B" d="M1449 372v-3h-3v3z"/><path id="y3n9C" d="M1429 372v-3h-3v3z"/><path id="y3n9D" d="M1409 372v-3h-3v3z"/><path id="y3n9E" d="M1449 412v-3h-3v3z"/><path id="y3n9F" d="M1429 412v-3h-3v3z"/><path id="y3n9G" d="M1409 412v-3h-3v3z"/><path id="y3n9H" d="M1329 392v-3h-3v3z"/><path id="y3n9I" d="M1329 372v-3h-3v3z"/><path id="y3n9J" d="M1329 412v-3h-3v3z"/><path id="y3n9K" d="M1349 392v-3h-3v3z"/><path id="y3n9L" d="M1369 392v-3h-3v3z"/><path id="y3n9M" d="M1389 392v-3h-3v3z"/><path id="y3n9N" d="M1349 372v-3h-3v3z"/><path id="y3n9O" d="M1369 372v-3h-3v3z"/><path id="y3n9P" d="M1389 372v-3h-3v3z"/><path id="y3n9Q" d="M1349 412v-3h-3v3z"/><path id="y3n9R" d="M1369 412v-3h-3v3z"/><path id="y3n9S" d="M1389 412v-3h-3v3z"/></defs><g><g transform="matrix(-1 0 0 1 1609 -369)"><g><use fill="#fff" xlink:href="#y3n9a"/></g><g><use fill="#2700c3" xlink:href="#y3n9b"/></g><g><use fill="#2700c3" xlink:href="#y3n9c"/></g><g><use fill="#2700c3" xlink:href="#y3n9d"/></g><g><use fill="#2700c3" xlink:href="#y3n9e"/></g><g><use fill="#2700c3" xlink:href="#y3n9f"/></g><g><use fill="#2700c3" xlink:href="#y3n9g"/></g><g><use fill="#2700c3" xlink:href="#y3n9h"/></g><g><use fill="#2700c3" xlink:href="#y3n9i"/></g><g><use fill="#fff" xlink:href="#y3n9j"/></g><g><use fill="#2700c3" xlink:href="#y3n9k"/></g><g><use fill="#2700c3" xlink:href="#y3n9l"/></g><g><use fill="#2700c3" xlink:href="#y3n9m"/></g><g><use fill="#2700c3" xlink:href="#y3n9n"/></g><g><use fill="#2700c3" xlink:href="#y3n9o"/></g><g><use fill="#2700c3" xlink:href="#y3n9p"/></g><g><use fill="#2700c3" xlink:href="#y3n9q"/></g><g><use fill="#2700c3" xlink:href="#y3n9r"/></g><g><use fill="#2700c3" xlink:href="#y3n9s"/></g><g><use fill="#2700c3" xlink:href="#y3n9t"/></g><g><use fill="#2700c3" xlink:href="#y3n9u"/></g><g><use fill="#2700c3" xlink:href="#y3n9v"/></g><g><use fill="#2700c3" xlink:href="#y3n9w"/></g><g><use fill="#2700c3" xlink:href="#y3n9x"/></g><g><use fill="#2700c3" xlink:href="#y3n9y"/></g><g><use fill="#2700c3" xlink:href="#y3n9z"/></g><g><use fill="#2700c3" xlink:href="#y3n9A"/></g><g><use fill="#2700c3" xlink:href="#y3n9B"/></g><g><use fill="#2700c3" xlink:href="#y3n9C"/></g><g><use fill="#2700c3" xlink:href="#y3n9D"/></g><g><use fill="#2700c3" xlink:href="#y3n9E"/></g><g><use fill="#2700c3" xlink:href="#y3n9F"/></g><g><use fill="#2700c3" xlink:href="#y3n9G"/></g><g><use fill="#2700c3" xlink:href="#y3n9H"/></g><g><use fill="#2700c3" xlink:href="#y3n9I"/></g><g><use fill="#2700c3" xlink:href="#y3n9J"/></g><g><use fill="#2700c3" xlink:href="#y3n9K"/></g><g><use fill="#2700c3" xlink:href="#y3n9L"/></g><g><use fill="#2700c3" xlink:href="#y3n9M"/></g><g><use fill="#2700c3" xlink:href="#y3n9N"/></g><g><use fill="#2700c3" xlink:href="#y3n9O"/></g><g><use fill="#2700c3" xlink:href="#y3n9P"/></g><g><use fill="#2700c3" xlink:href="#y3n9Q"/></g><g><use fill="#2700c3" xlink:href="#y3n9R"/></g><g><use fill="#2700c3" xlink:href="#y3n9S"/></g></g></g></svg>