<svg xmlns="http://www.w3.org/2000/svg" xmlns:xlink="http://www.w3.org/1999/xlink" width="203" height="223" viewBox="0 0 203 223"><defs><path id="rrpha" d="M1356 3520v-3h3v3z"/><path id="rrphb" d="M1336 3520v-3h3v3z"/><path id="rrphc" d="M1316 3520v-3h3v3z"/><path id="rrphd" d="M1296 3520v-3h3v3z"/><path id="rrphe" d="M1396 3520v-3h3v3z"/><path id="rrphf" d="M1376 3520v-3h3v3z"/><path id="rrphg" d="M1456 3520v-3h3v3z"/><path id="rrphh" d="M1436 3520v-3h3v3z"/><path id="rrphi" d="M1416 3520v-3h3v3z"/><path id="rrphj" d="M1356 3500v-3h3v3z"/><path id="rrphk" d="M1336 3500v-3h3v3z"/><path id="rrphl" d="M1316 3500v-3h3v3z"/><path id="rrphm" d="M1296 3500v-3h3v3z"/><path id="rrphn" d="M1356 3560v-3h3v3z"/><path id="rrpho" d="M1336 3560v-3h3v3z"/><path id="rrphp" d="M1316 3560v-3h3v3z"/><path id="rrphq" d="M1296 3560v-3h3v3z"/><path id="rrphr" d="M1356 3540v-3h3v3z"/><path id="rrphs" d="M1336 3540v-3h3v3z"/><path id="rrpht" d="M1316 3540v-3h3v3z"/><path id="rrphu" d="M1296 3540v-3h3v3z"/><path id="rrphv" d="M1396 3500v-3h3v3z"/><path id="rrphw" d="M1376 3500v-3h3v3z"/><path id="rrphx" d="M1456 3500v-3h3v3z"/><path id="rrphy" d="M1436 3500v-3h3v3z"/><path id="rrphz" d="M1416 3500v-3h3v3z"/><path id="rrphA" d="M1396 3480v-3h3v3z"/><path id="rrphB" d="M1376 3480v-3h3v3z"/><path id="rrphC" d="M1356 3480v-3h3v3z"/><path id="rrphD" d="M1336 3480v-3h3v3z"/><path id="rrphE" d="M1456 3480v-3h3v3z"/><path id="rrphF" d="M1436 3480v-3h3v3z"/><path id="rrphG" d="M1416 3480v-3h3v3z"/><path id="rrphH" d="M1396 3460v-3h3v3z"/><path id="rrphI" d="M1376 3460v-3h3v3z"/><path id="rrphJ" d="M1356 3460v-3h3v3z"/><path id="rrphK" d="M1336 3460v-3h3v3z"/><path id="rrphL" d="M1456 3460v-3h3v3z"/><path id="rrphM" d="M1436 3460v-3h3v3z"/><path id="rrphN" d="M1496 3520v-3h3v3z"/><path id="rrphO" d="M1476 3520v-3h3v3z"/><path id="rrphP" d="M1496 3500v-3h3v3z"/><path id="rrphQ" d="M1476 3500v-3h3v3z"/><path id="rrphR" d="M1496 3480v-3h3v3z"/><path id="rrphS" d="M1476 3480v-3h3v3z"/><path id="rrphT" d="M1496 3460v-3h3v3z"/><path id="rrphU" d="M1476 3460v-3h3v3z"/><path id="rrphV" d="M1416 3460v-3h3v3z"/><path id="rrphW" d="M1396 3440v-3h3v3z"/><path id="rrphX" d="M1376 3440v-3h3v3z"/><path id="rrphY" d="M1356 3440v-3h3v3z"/><path id="rrphZ" d="M1336 3440v-3h3v3z"/><path id="rrphaa" d="M1456 3440v-3h3v3z"/><path id="rrphab" d="M1436 3440v-3h3v3z"/><path id="rrphac" d="M1416 3440v-3h3v3z"/><path id="rrphad" d="M1396 3420v-3h3v3z"/><path id="rrphae" d="M1376 3420v-3h3v3z"/><path id="rrphaf" d="M1356 3420v-3h3v3z"/><path id="rrphag" d="M1336 3420v-3h3v3z"/><path id="rrphah" d="M1456 3420v-3h3v3z"/><path id="rrphai" d="M1436 3420v-3h3v3z"/><path id="rrphaj" d="M1496 3440v-3h3v3z"/><path id="rrphak" d="M1476 3440v-3h3v3z"/><path id="rrphal" d="M1496 3420v-3h3v3z"/><path id="rrpham" d="M1476 3420v-3h3v3z"/><path id="rrphan" d="M1416 3420v-3h3v3z"/><path id="rrphao" d="M1396 3400v-3h3v3z"/><path id="rrphap" d="M1376 3400v-3h3v3z"/><path id="rrphaq" d="M1356 3400v-3h3v3z"/><path id="rrphar" d="M1336 3400v-3h3v3z"/><path id="rrphas" d="M1456 3400v-3h3v3z"/><path id="rrphat" d="M1436 3400v-3h3v3z"/><path id="rrphau" d="M1416 3400v-3h3v3z"/><path id="rrphav" d="M1396 3380v-3h3v3z"/><path id="rrphaw" d="M1376 3380v-3h3v3z"/><path id="rrphax" d="M1356 3380v-3h3v3z"/><path id="rrphay" d="M1336 3380v-3h3v3z"/><path id="rrphaz" d="M1456 3380v-3h3v3z"/><path id="rrphaA" d="M1436 3380v-3h3v3z"/><path id="rrphaB" d="M1496 3400v-3h3v3z"/><path id="rrphaC" d="M1476 3400v-3h3v3z"/><path id="rrphaD" d="M1496 3380v-3h3v3z"/><path id="rrphaE" d="M1476 3380v-3h3v3z"/><path id="rrphaF" d="M1416 3380v-3h3v3z"/><path id="rrphaG" d="M1396 3360v-3h3v3z"/><path id="rrphaH" d="M1376 3360v-3h3v3z"/><path id="rrphaI" d="M1356 3360v-3h3v3z"/><path id="rrphaJ" d="M1336 3360v-3h3v3z"/><path id="rrphaK" d="M1456 3360v-3h3v3z"/><path id="rrphaL" d="M1436 3360v-3h3v3z"/><path id="rrphaM" d="M1416 3360v-3h3v3z"/><path id="rrphaN" d="M1396 3340v-3h3v3z"/><path id="rrphaO" d="M1376 3340v-3h3v3z"/><path id="rrphaP" d="M1356 3340v-3h3v3z"/><path id="rrphaQ" d="M1336 3340v-3h3v3z"/><path id="rrphaR" d="M1456 3340v-3h3v3z"/><path id="rrphaS" d="M1436 3340v-3h3v3z"/><path id="rrphaT" d="M1496 3360v-3h3v3z"/><path id="rrphaU" d="M1476 3360v-3h3v3z"/><path id="rrphaV" d="M1496 3340v-3h3v3z"/><path id="rrphaW" d="M1476 3340v-3h3v3z"/><path id="rrphaX" d="M1416 3340v-3h3v3z"/></defs><g><g transform="matrix(-1 0 0 1 1499 -3337)"><g><use fill="#230cea" xlink:href="#rrpha"/></g><g><use fill="#230cea" xlink:href="#rrphb"/></g><g><use fill="#230cea" xlink:href="#rrphc"/></g><g><use fill="#230cea" xlink:href="#rrphd"/></g><g opacity=".2"><use fill="#230cea" xlink:href="#rrphe"/></g><g opacity=".2"><use fill="#230cea" xlink:href="#rrphf"/></g><g opacity=".2"><use fill="#230cea" xlink:href="#rrphg"/></g><g opacity=".2"><use fill="#230cea" xlink:href="#rrphh"/></g><g opacity=".2"><use fill="#230cea" xlink:href="#rrphi"/></g><g><use fill="#230cea" xlink:href="#rrphj"/></g><g><use fill="#230cea" xlink:href="#rrphk"/></g><g><use fill="#230cea" xlink:href="#rrphl"/></g><g><use fill="#230cea" xlink:href="#rrphm"/></g><g><use fill="#230cea" xlink:href="#rrphn"/></g><g><use fill="#230cea" xlink:href="#rrpho"/></g><g><use fill="#230cea" xlink:href="#rrphp"/></g><g><use fill="#230cea" xlink:href="#rrphq"/></g><g><use fill="#230cea" xlink:href="#rrphr"/></g><g><use fill="#230cea" xlink:href="#rrphs"/></g><g><use fill="#230cea" xlink:href="#rrpht"/></g><g><use fill="#230cea" xlink:href="#rrphu"/></g><g opacity=".2"><use fill="#230cea" xlink:href="#rrphv"/></g><g opacity=".2"><use fill="#230cea" xlink:href="#rrphw"/></g><g opacity=".2"><use fill="#230cea" xlink:href="#rrphx"/></g><g opacity=".2"><use fill="#230cea" xlink:href="#rrphy"/></g><g opacity=".2"><use fill="#230cea" xlink:href="#rrphz"/></g><g opacity=".2"><use fill="#230cea" xlink:href="#rrphA"/></g><g opacity=".2"><use fill="#230cea" xlink:href="#rrphB"/></g><g opacity=".2"><use fill="#230cea" xlink:href="#rrphC"/></g><g opacity=".2"><use fill="#230cea" xlink:href="#rrphD"/></g><g opacity=".2"><use fill="#230cea" xlink:href="#rrphE"/></g><g opacity=".2"><use fill="#230cea" xlink:href="#rrphF"/></g><g opacity=".2"><use fill="#230cea" xlink:href="#rrphG"/></g><g opacity=".2"><use fill="#230cea" xlink:href="#rrphH"/></g><g opacity=".2"><use fill="#230cea" xlink:href="#rrphI"/></g><g opacity=".2"><use fill="#230cea" xlink:href="#rrphJ"/></g><g opacity=".2"><use fill="#230cea" xlink:href="#rrphK"/></g><g opacity=".2"><use fill="#230cea" xlink:href="#rrphL"/></g><g opacity=".2"><use fill="#230cea" xlink:href="#rrphM"/></g><g opacity=".2"><use fill="#230cea" xlink:href="#rrphN"/></g><g opacity=".2"><use fill="#230cea" xlink:href="#rrphO"/></g><g opacity=".2"><use fill="#230cea" xlink:href="#rrphP"/></g><g opacity=".2"><use fill="#230cea" xlink:href="#rrphQ"/></g><g opacity=".2"><use fill="#230cea" xlink:href="#rrphR"/></g><g opacity=".2"><use fill="#230cea" xlink:href="#rrphS"/></g><g opacity=".2"><use fill="#230cea" xlink:href="#rrphT"/></g><g opacity=".2"><use fill="#230cea" xlink:href="#rrphU"/></g><g opacity=".2"><use fill="#230cea" xlink:href="#rrphV"/></g><g opacity=".2"><use fill="#230cea" xlink:href="#rrphW"/></g><g opacity=".2"><use fill="#230cea" xlink:href="#rrphX"/></g><g opacity=".2"><use fill="#230cea" xlink:href="#rrphY"/></g><g opacity=".2"><use fill="#230cea" xlink:href="#rrphZ"/></g><g opacity=".2"><use fill="#230cea" xlink:href="#rrphaa"/></g><g opacity=".2"><use fill="#230cea" xlink:href="#rrphab"/></g><g opacity=".2"><use fill="#230cea" xlink:href="#rrphac"/></g><g opacity=".2"><use fill="#230cea" xlink:href="#rrphad"/></g><g opacity=".2"><use fill="#230cea" xlink:href="#rrphae"/></g><g opacity=".2"><use fill="#230cea" xlink:href="#rrphaf"/></g><g opacity=".2"><use fill="#230cea" xlink:href="#rrphag"/></g><g opacity=".2"><use fill="#230cea" xlink:href="#rrphah"/></g><g opacity=".2"><use fill="#230cea" xlink:href="#rrphai"/></g><g opacity=".2"><use fill="#230cea" xlink:href="#rrphaj"/></g><g opacity=".2"><use fill="#230cea" xlink:href="#rrphak"/></g><g opacity=".2"><use fill="#230cea" xlink:href="#rrphal"/></g><g opacity=".2"><use fill="#230cea" xlink:href="#rrpham"/></g><g opacity=".2"><use fill="#230cea" xlink:href="#rrphan"/></g><g opacity=".2"><use fill="#230cea" xlink:href="#rrphao"/></g><g opacity=".2"><use fill="#230cea" xlink:href="#rrphap"/></g><g opacity=".2"><use fill="#230cea" xlink:href="#rrphaq"/></g><g opacity=".2"><use fill="#230cea" xlink:href="#rrphar"/></g><g opacity=".2"><use fill="#230cea" xlink:href="#rrphas"/></g><g opacity=".2"><use fill="#230cea" xlink:href="#rrphat"/></g><g opacity=".2"><use fill="#230cea" xlink:href="#rrphau"/></g><g opacity=".2"><use fill="#230cea" xlink:href="#rrphav"/></g><g opacity=".2"><use fill="#230cea" xlink:href="#rrphaw"/></g><g opacity=".2"><use fill="#230cea" xlink:href="#rrphax"/></g><g opacity=".2"><use fill="#230cea" xlink:href="#rrphay"/></g><g opacity=".2"><use fill="#230cea" xlink:href="#rrphaz"/></g><g opacity=".2"><use fill="#230cea" xlink:href="#rrphaA"/></g><g opacity=".2"><use fill="#230cea" xlink:href="#rrphaB"/></g><g opacity=".2"><use fill="#230cea" xlink:href="#rrphaC"/></g><g opacity=".2"><use fill="#230cea" xlink:href="#rrphaD"/></g><g opacity=".2"><use fill="#230cea" xlink:href="#rrphaE"/></g><g opacity=".2"><use fill="#230cea" xlink:href="#rrphaF"/></g><g opacity=".2"><use fill="#230cea" xlink:href="#rrphaG"/></g><g opacity=".2"><use fill="#230cea" xlink:href="#rrphaH"/></g><g opacity=".2"><use fill="#230cea" xlink:href="#rrphaI"/></g><g opacity=".2"><use fill="#230cea" xlink:href="#rrphaJ"/></g><g opacity=".2"><use fill="#230cea" xlink:href="#rrphaK"/></g><g opacity=".2"><use fill="#230cea" xlink:href="#rrphaL"/></g><g opacity=".2"><use fill="#230cea" xlink:href="#rrphaM"/></g><g opacity=".2"><use fill="#230cea" xlink:href="#rrphaN"/></g><g opacity=".2"><use fill="#230cea" xlink:href="#rrphaO"/></g><g opacity=".2"><use fill="#230cea" xlink:href="#rrphaP"/></g><g opacity=".2"><use fill="#230cea" xlink:href="#rrphaQ"/></g><g opacity=".2"><use fill="#230cea" xlink:href="#rrphaR"/></g><g opacity=".2"><use fill="#230cea" xlink:href="#rrphaS"/></g><g opacity=".2"><use fill="#230cea" xlink:href="#rrphaT"/></g><g opacity=".2"><use fill="#230cea" xlink:href="#rrphaU"/></g><g opacity=".2"><use fill="#230cea" xlink:href="#rrphaV"/></g><g opacity=".2"><use fill="#230cea" xlink:href="#rrphaW"/></g><g opacity=".2"><use fill="#230cea" xlink:href="#rrphaX"/></g></g></g></svg>