<svg id="SVGDoc" width="12" height="182" xmlns="http://www.w3.org/2000/svg" version="1.1" xmlns:xlink="http://www.w3.org/1999/xlink" xmlns:avocode="https://avocode.com/" viewBox="0 0 12 182"><defs><path d="M20,460v-2h2v2z" id="Path-0"/><path d="M10,460v-2h2v2z" id="Path-1"/><path d="M20,470v-2h2v2z" id="Path-2"/><path d="M10,470v-2h2v2z" id="Path-3"/><path d="M20,480v-2h2v2z" id="Path-4"/><path d="M10,480v-2h2v2z" id="Path-5"/><path d="M20,490v-2h2v2z" id="Path-6"/><path d="M10,490v-2h2v2z" id="Path-7"/><path d="M20,500v-2h2v2z" id="Path-8"/><path d="M10,500v-2h2v2z" id="Path-9"/><path d="M20,510v-2h2v2z" id="Path-10"/><path d="M10,510v-2h2v2z" id="Path-11"/><path d="M20,520v-2h2v2z" id="Path-12"/><path d="M10,520v-2h2v2z" id="Path-13"/><path d="M20,530v-2h2v2z" id="Path-14"/><path d="M10,530v-2h2v2z" id="Path-15"/><path d="M20,540v-2h2v2z" id="Path-16"/><path d="M10,540v-2h2v2z" id="Path-17"/><path d="M20,550v-2h2v2z" id="Path-18"/><path d="M10,550v-2h2v2z" id="Path-19"/><path d="M20,560v-2h2v2z" id="Path-20"/><path d="M10,560v-2h2v2z" id="Path-21"/><path d="M20,570v-2h2v2z" id="Path-22"/><path d="M10,570v-2h2v2z" id="Path-23"/><path d="M20,580v-2h2v2z" id="Path-24"/><path d="M10,580v-2h2v2z" id="Path-25"/><path d="M20,590v-2h2v2z" id="Path-26"/><path d="M10,590v-2h2v2z" id="Path-27"/><path d="M20,600v-2h2v2z" id="Path-28"/><path d="M10,600v-2h2v2z" id="Path-29"/><path d="M20,610v-2h2v2z" id="Path-30"/><path d="M10,610v-2h2v2z" id="Path-31"/><path d="M20,620v-2h2v2z" id="Path-32"/><path d="M10,620v-2h2v2z" id="Path-33"/><path d="M20,630v-2h2v2z" id="Path-34"/><path d="M10,630v-2h2v2z" id="Path-35"/><path d="M20,640v-2h2v2z" id="Path-36"/><path d="M10,640v-2h2v2z" id="Path-37"/></defs><desc>Generated with Avocode.</desc><g transform="matrix(1,0,0,1,-10,-458)"><g><title>Group 9</title><g><title>Rectangle</title><use xlink:href="#Path-0" fill="#ffffff" fill-opacity="1"/></g><g><title>Rectangle</title><use xlink:href="#Path-1" fill="#ffffff" fill-opacity="1"/></g><g><title>Rectangle</title><use xlink:href="#Path-2" fill="#ffffff" fill-opacity="1"/></g><g><title>Rectangle</title><use xlink:href="#Path-3" fill="#ffffff" fill-opacity="1"/></g><g><title>Rectangle</title><use xlink:href="#Path-4" fill="#ffffff" fill-opacity="1"/></g><g><title>Rectangle</title><use xlink:href="#Path-5" fill="#ffffff" fill-opacity="1"/></g><g><title>Rectangle</title><use xlink:href="#Path-6" fill="#ffffff" fill-opacity="1"/></g><g><title>Rectangle</title><use xlink:href="#Path-7" fill="#ffffff" fill-opacity="1"/></g><g><title>Rectangle</title><use xlink:href="#Path-8" fill="#ffffff" fill-opacity="1"/></g><g><title>Rectangle</title><use xlink:href="#Path-9" fill="#ffffff" fill-opacity="1"/></g><g><title>Rectangle</title><use xlink:href="#Path-10" fill="#ffffff" fill-opacity="1"/></g><g><title>Rectangle</title><use xlink:href="#Path-11" fill="#ffffff" fill-opacity="1"/></g><g><title>Rectangle</title><use xlink:href="#Path-12" fill="#ffffff" fill-opacity="1"/></g><g><title>Rectangle</title><use xlink:href="#Path-13" fill="#ffffff" fill-opacity="1"/></g></g><g><title>Group 9</title><g opacity="0.2"><title>Rectangle</title><use xlink:href="#Path-14" fill="#230cea" fill-opacity="1"/></g><g opacity="0.2"><title>Rectangle</title><use xlink:href="#Path-15" fill="#230cea" fill-opacity="1"/></g><g opacity="0.2"><title>Rectangle</title><use xlink:href="#Path-16" fill="#230cea" fill-opacity="1"/></g><g opacity="0.2"><title>Rectangle</title><use xlink:href="#Path-17" fill="#230cea" fill-opacity="1"/></g><g opacity="0.2"><title>Rectangle</title><use xlink:href="#Path-18" fill="#230cea" fill-opacity="1"/></g><g opacity="0.2"><title>Rectangle</title><use xlink:href="#Path-19" fill="#230cea" fill-opacity="1"/></g><g><title>Rectangle</title><use xlink:href="#Path-20" fill="#230cea" fill-opacity="1"/></g><g><title>Rectangle</title><use xlink:href="#Path-21" fill="#230cea" fill-opacity="1"/></g><g><title>Rectangle</title><use xlink:href="#Path-22" fill="#230cea" fill-opacity="1"/></g><g><title>Rectangle</title><use xlink:href="#Path-23" fill="#230cea" fill-opacity="1"/></g><g><title>Rectangle</title><use xlink:href="#Path-24" fill="#230cea" fill-opacity="1"/></g><g><title>Rectangle</title><use xlink:href="#Path-25" fill="#230cea" fill-opacity="1"/></g><g><title>Rectangle</title><use xlink:href="#Path-26" fill="#230cea" fill-opacity="1"/></g><g><title>Rectangle</title><use xlink:href="#Path-27" fill="#230cea" fill-opacity="1"/></g><g><title>Rectangle</title><use xlink:href="#Path-28" fill="#230cea" fill-opacity="1"/></g><g><title>Rectangle</title><use xlink:href="#Path-29" fill="#230cea" fill-opacity="1"/></g><g><title>Rectangle</title><use xlink:href="#Path-30" fill="#230cea" fill-opacity="1"/></g><g><title>Rectangle</title><use xlink:href="#Path-31" fill="#230cea" fill-opacity="1"/></g><g><title>Rectangle</title><use xlink:href="#Path-32" fill="#230cea" fill-opacity="1"/></g><g><title>Rectangle</title><use xlink:href="#Path-33" fill="#230cea" fill-opacity="1"/></g><g><title>Rectangle</title><use xlink:href="#Path-34" fill="#230cea" fill-opacity="1"/></g><g><title>Rectangle</title><use xlink:href="#Path-35" fill="#230cea" fill-opacity="1"/></g><g><title>Rectangle</title><use xlink:href="#Path-36" fill="#230cea" fill-opacity="1"/></g><g><title>Rectangle</title><use xlink:href="#Path-37" fill="#230cea" fill-opacity="1"/></g></g></g></svg>