<svg id="SVGDoc" width="103" height="103" xmlns="http://www.w3.org/2000/svg" version="1.1" xmlns:xlink="http://www.w3.org/1999/xlink" xmlns:avocode="https://avocode.com/" viewBox="0 0 103 103"><defs><path d="M688,3575v-3h-3v3z" id="Path-0"/><path d="M688,3595v-3h-3v3z" id="Path-1"/><path d="M668,3595v-3h-3v3z" id="Path-2"/><path d="M648,3595v-3h-3v3z" id="Path-3"/><path d="M628,3595v-3h-3v3z" id="Path-4"/><path d="M628,3575v-3h-3v3z" id="Path-5"/><path d="M648,3575v-3h-3v3z" id="Path-6"/><path d="M668,3575v-3h-3v3z" id="Path-7"/><path d="M688,3615v-3h-3v3z" id="Path-8"/><path d="M668,3615v-3h-3v3z" id="Path-9"/><path d="M648,3615v-3h-3v3z" id="Path-10"/><path d="M628,3615v-3h-3v3z" id="Path-11"/><path d="M688,3635v-3h-3v3z" id="Path-12"/><path d="M668,3635v-3h-3v3z" id="Path-13"/><path d="M648,3635v-3h-3v3z" id="Path-14"/><path d="M628,3635v-3h-3v3z" id="Path-15"/><path d="M688,3655v-3h-3v3z" id="Path-16"/><path d="M668,3655v-3h-3v3z" id="Path-17"/><path d="M648,3655v-3h-3v3z" id="Path-18"/><path d="M628,3655v-3h-3v3z" id="Path-19"/><path d="M688,3675v-3h-3v3z" id="Path-20"/><path d="M668,3675v-3h-3v3z" id="Path-21"/><path d="M648,3675v-3h-3v3z" id="Path-22"/><path d="M728,3575v-3h-3v3z" id="Path-23"/><path d="M708,3575v-3h-3v3z" id="Path-24"/><path d="M728,3595v-3h-3v3z" id="Path-25"/><path d="M708,3595v-3h-3v3z" id="Path-26"/><path d="M728,3615v-3h-3v3z" id="Path-27"/><path d="M708,3615v-3h-3v3z" id="Path-28"/><path d="M728,3635v-3h-3v3z" id="Path-29"/><path d="M708,3635v-3h-3v3z" id="Path-30"/><path d="M728,3655v-3h-3v3z" id="Path-31"/><path d="M708,3655v-3h-3v3z" id="Path-32"/><path d="M728,3675v-3h-3v3z" id="Path-33"/><path d="M708,3675v-3h-3v3z" id="Path-34"/><path d="M628,3675v-3h-3v3z" id="Path-35"/></defs><desc>Generated with Avocode.</desc><g transform="matrix(1,0,0,1,-625,-3572)"><g><title>dots_dark</title><g><title>Rectangle</title><use xlink:href="#Path-0" fill="#2700c3" fill-opacity="1"/></g><g><title>Rectangle</title><use xlink:href="#Path-1" fill="#2700c3" fill-opacity="1"/></g><g><title>Rectangle</title><use xlink:href="#Path-2" fill="#2700c3" fill-opacity="1"/></g><g><title>Rectangle</title><use xlink:href="#Path-3" fill="#2700c3" fill-opacity="1"/></g><g><title>Rectangle</title><use xlink:href="#Path-4" fill="#2700c3" fill-opacity="1"/></g><g><title>Rectangle</title><use xlink:href="#Path-5" fill="#2700c3" fill-opacity="1"/></g><g><title>Rectangle</title><use xlink:href="#Path-6" fill="#2700c3" fill-opacity="1"/></g><g><title>Rectangle</title><use xlink:href="#Path-7" fill="#2700c3" fill-opacity="1"/></g><g><title>Rectangle</title><use xlink:href="#Path-8" fill="#2700c3" fill-opacity="1"/></g><g><title>Rectangle</title><use xlink:href="#Path-9" fill="#2700c3" fill-opacity="1"/></g><g><title>Rectangle</title><use xlink:href="#Path-10" fill="#2700c3" fill-opacity="1"/></g><g><title>Rectangle</title><use xlink:href="#Path-11" fill="#2700c3" fill-opacity="1"/></g><g><title>Rectangle</title><use xlink:href="#Path-12" fill="#2700c3" fill-opacity="1"/></g><g><title>Rectangle</title><use xlink:href="#Path-13" fill="#2700c3" fill-opacity="1"/></g><g><title>Rectangle</title><use xlink:href="#Path-14" fill="#2700c3" fill-opacity="1"/></g><g><title>Rectangle</title><use xlink:href="#Path-15" fill="#2700c3" fill-opacity="1"/></g><g><title>Rectangle</title><use xlink:href="#Path-16" fill="#2700c3" fill-opacity="1"/></g><g><title>Rectangle</title><use xlink:href="#Path-17" fill="#2700c3" fill-opacity="1"/></g><g><title>Rectangle</title><use xlink:href="#Path-18" fill="#2700c3" fill-opacity="1"/></g><g><title>Rectangle</title><use xlink:href="#Path-19" fill="#2700c3" fill-opacity="1"/></g><g><title>Rectangle</title><use xlink:href="#Path-20" fill="#2700c3" fill-opacity="1"/></g><g><title>Rectangle</title><use xlink:href="#Path-21" fill="#2700c3" fill-opacity="1"/></g><g><title>Rectangle</title><use xlink:href="#Path-22" fill="#2700c3" fill-opacity="1"/></g><g><title>Rectangle</title><use xlink:href="#Path-23" fill="#2700c3" fill-opacity="1"/></g><g><title>Rectangle</title><use xlink:href="#Path-24" fill="#2700c3" fill-opacity="1"/></g><g><title>Rectangle</title><use xlink:href="#Path-25" fill="#2700c3" fill-opacity="1"/></g><g><title>Rectangle</title><use xlink:href="#Path-26" fill="#2700c3" fill-opacity="1"/></g><g><title>Rectangle</title><use xlink:href="#Path-27" fill="#2700c3" fill-opacity="1"/></g><g><title>Rectangle</title><use xlink:href="#Path-28" fill="#2700c3" fill-opacity="1"/></g><g><title>Rectangle</title><use xlink:href="#Path-29" fill="#2700c3" fill-opacity="1"/></g><g><title>Rectangle</title><use xlink:href="#Path-30" fill="#2700c3" fill-opacity="1"/></g><g><title>Rectangle</title><use xlink:href="#Path-31" fill="#2700c3" fill-opacity="1"/></g><g><title>Rectangle</title><use xlink:href="#Path-32" fill="#2700c3" fill-opacity="1"/></g><g><title>Rectangle</title><use xlink:href="#Path-33" fill="#2700c3" fill-opacity="1"/></g><g><title>Rectangle</title><use xlink:href="#Path-34" fill="#2700c3" fill-opacity="1"/></g><g><title>Rectangle</title><use xlink:href="#Path-35" fill="#2700c3" fill-opacity="1"/></g></g></g></svg>