<svg id="SVGDoc" width="72" height="92" xmlns="http://www.w3.org/2000/svg" version="1.1" xmlns:xlink="http://www.w3.org/1999/xlink" xmlns:avocode="https://avocode.com/" viewBox="0 0 72 92"><defs><path d="M298,171v-2h2v2z" id="Path-0"/><path d="M288,171v-2h2v2z" id="Path-1"/><path d="M298,181v-2h2v2z" id="Path-2"/><path d="M288,181v-2h2v2z" id="Path-3"/><path d="M298,151v-2h2v2z" id="Path-4"/><path d="M288,151v-2h2v2z" id="Path-5"/><path d="M298,161v-2h2v2z" id="Path-6"/><path d="M288,161v-2h2v2z" id="Path-7"/><path d="M298,191v-2h2v2z" id="Path-8"/><path d="M288,191v-2h2v2z" id="Path-9"/><path d="M298,201v-2h2v2z" id="Path-10"/><path d="M288,201v-2h2v2z" id="Path-11"/><path d="M278,171v-2h2v2z" id="Path-12"/><path d="M268,171v-2h2v2z" id="Path-13"/><path d="M278,181v-2h2v2z" id="Path-14"/><path d="M268,181v-2h2v2z" id="Path-15"/><path d="M278,191v-2h2v2z" id="Path-16"/><path d="M268,191v-2h2v2z" id="Path-17"/><path d="M278,201v-2h2v2z" id="Path-18"/><path d="M268,201v-2h2v2z" id="Path-19"/><path d="M278,131v-2h2v2z" id="Path-20"/><path d="M268,131v-2h2v2z" id="Path-21"/><path d="M278,141v-2h2v2z" id="Path-22"/><path d="M268,141v-2h2v2z" id="Path-23"/><path d="M278,151v-2h2v2z" id="Path-24"/><path d="M268,151v-2h2v2z" id="Path-25"/><path d="M278,161v-2h2v2z" id="Path-26"/><path d="M268,161v-2h2v2z" id="Path-27"/><path d="M258,171v-2h2v2z" id="Path-28"/><path d="M248,171v-2h2v2z" id="Path-29"/><path d="M258,181v-2h2v2z" id="Path-30"/><path d="M248,181v-2h2v2z" id="Path-31"/><path d="M258,191v-2h2v2z" id="Path-32"/><path d="M248,191v-2h2v2z" id="Path-33"/><path d="M258,201v-2h2v2z" id="Path-34"/><path d="M248,201v-2h2v2z" id="Path-35"/><path d="M258,131v-2h2v2z" id="Path-36"/><path d="M248,131v-2h2v2z" id="Path-37"/><path d="M258,141v-2h2v2z" id="Path-38"/><path d="M248,141v-2h2v2z" id="Path-39"/><path d="M258,151v-2h2v2z" id="Path-40"/><path d="M248,151v-2h2v2z" id="Path-41"/><path d="M258,161v-2h2v2z" id="Path-42"/><path d="M248,161v-2h2v2z" id="Path-43"/><path d="M238,171v-2h2v2z" id="Path-44"/><path d="M228,171v-2h2v2z" id="Path-45"/><path d="M238,181v-2h2v2z" id="Path-46"/><path d="M228,181v-2h2v2z" id="Path-47"/><path d="M238,191v-2h2v2z" id="Path-48"/><path d="M228,191v-2h2v2z" id="Path-49"/><path d="M238,201v-2h2v2z" id="Path-50"/><path d="M228,201v-2h2v2z" id="Path-51"/><path d="M238,131v-2h2v2z" id="Path-52"/><path d="M228,131v-2h2v2z" id="Path-53"/><path d="M238,141v-2h2v2z" id="Path-54"/><path d="M228,141v-2h2v2z" id="Path-55"/><path d="M238,151v-2h2v2z" id="Path-56"/><path d="M228,151v-2h2v2z" id="Path-57"/><path d="M238,161v-2h2v2z" id="Path-58"/><path d="M228,161v-2h2v2z" id="Path-59"/><path d="M298,111v-2h2v2z" id="Path-60"/><path d="M288,111v-2h2v2z" id="Path-61"/><path d="M298,121v-2h2v2z" id="Path-62"/><path d="M288,121v-2h2v2z" id="Path-63"/><path d="M298,131v-2h2v2z" id="Path-64"/><path d="M288,131v-2h2v2z" id="Path-65"/><path d="M298,141v-2h2v2z" id="Path-66"/><path d="M288,141v-2h2v2z" id="Path-67"/></defs><desc>Generated with Avocode.</desc><g transform="matrix(1,0,0,1,-228,-109)"><g><title>Group 7</title><g><title>Rectangle</title><use xlink:href="#Path-0" fill="#2700c3" fill-opacity="1"/></g><g><title>Rectangle</title><use xlink:href="#Path-1" fill="#2700c3" fill-opacity="1"/></g><g><title>Rectangle</title><use xlink:href="#Path-2" fill="#2700c3" fill-opacity="1"/></g><g><title>Rectangle</title><use xlink:href="#Path-3" fill="#2700c3" fill-opacity="1"/></g><g><title>Rectangle</title><use xlink:href="#Path-4" fill="#2700c3" fill-opacity="1"/></g><g><title>Rectangle</title><use xlink:href="#Path-5" fill="#2700c3" fill-opacity="1"/></g><g><title>Rectangle</title><use xlink:href="#Path-6" fill="#2700c3" fill-opacity="1"/></g><g><title>Rectangle</title><use xlink:href="#Path-7" fill="#2700c3" fill-opacity="1"/></g><g><title>Rectangle</title><use xlink:href="#Path-8" fill="#2700c3" fill-opacity="1"/></g><g><title>Rectangle</title><use xlink:href="#Path-9" fill="#2700c3" fill-opacity="1"/></g><g><title>Rectangle</title><use xlink:href="#Path-10" fill="#2700c3" fill-opacity="1"/></g><g><title>Rectangle</title><use xlink:href="#Path-11" fill="#2700c3" fill-opacity="1"/></g><g><title>Rectangle</title><use xlink:href="#Path-12" fill="#2700c3" fill-opacity="1"/></g><g><title>Rectangle</title><use xlink:href="#Path-13" fill="#2700c3" fill-opacity="1"/></g><g><title>Rectangle</title><use xlink:href="#Path-14" fill="#2700c3" fill-opacity="1"/></g><g><title>Rectangle</title><use xlink:href="#Path-15" fill="#2700c3" fill-opacity="1"/></g><g><title>Rectangle</title><use xlink:href="#Path-16" fill="#2700c3" fill-opacity="1"/></g><g><title>Rectangle</title><use xlink:href="#Path-17" fill="#2700c3" fill-opacity="1"/></g><g><title>Rectangle</title><use xlink:href="#Path-18" fill="#2700c3" fill-opacity="1"/></g><g><title>Rectangle</title><use xlink:href="#Path-19" fill="#2700c3" fill-opacity="1"/></g><g><title>Rectangle</title><use xlink:href="#Path-20" fill="#2700c3" fill-opacity="1"/></g><g><title>Rectangle</title><use xlink:href="#Path-21" fill="#2700c3" fill-opacity="1"/></g><g><title>Rectangle</title><use xlink:href="#Path-22" fill="#2700c3" fill-opacity="1"/></g><g><title>Rectangle</title><use xlink:href="#Path-23" fill="#2700c3" fill-opacity="1"/></g><g><title>Rectangle</title><use xlink:href="#Path-24" fill="#2700c3" fill-opacity="1"/></g><g><title>Rectangle</title><use xlink:href="#Path-25" fill="#2700c3" fill-opacity="1"/></g><g><title>Rectangle</title><use xlink:href="#Path-26" fill="#2700c3" fill-opacity="1"/></g><g><title>Rectangle</title><use xlink:href="#Path-27" fill="#2700c3" fill-opacity="1"/></g><g><title>Rectangle</title><use xlink:href="#Path-28" fill="#2700c3" fill-opacity="1"/></g><g><title>Rectangle</title><use xlink:href="#Path-29" fill="#2700c3" fill-opacity="1"/></g><g><title>Rectangle</title><use xlink:href="#Path-30" fill="#2700c3" fill-opacity="1"/></g><g><title>Rectangle</title><use xlink:href="#Path-31" fill="#2700c3" fill-opacity="1"/></g><g><title>Rectangle</title><use xlink:href="#Path-32" fill="#2700c3" fill-opacity="1"/></g><g><title>Rectangle</title><use xlink:href="#Path-33" fill="#2700c3" fill-opacity="1"/></g><g><title>Rectangle</title><use xlink:href="#Path-34" fill="#2700c3" fill-opacity="1"/></g><g><title>Rectangle</title><use xlink:href="#Path-35" fill="#2700c3" fill-opacity="1"/></g><g><title>Rectangle</title><use xlink:href="#Path-36" fill="#2700c3" fill-opacity="1"/></g><g><title>Rectangle</title><use xlink:href="#Path-37" fill="#2700c3" fill-opacity="1"/></g><g><title>Rectangle</title><use xlink:href="#Path-38" fill="#2700c3" fill-opacity="1"/></g><g><title>Rectangle</title><use xlink:href="#Path-39" fill="#2700c3" fill-opacity="1"/></g><g><title>Rectangle</title><use xlink:href="#Path-40" fill="#2700c3" fill-opacity="1"/></g><g><title>Rectangle</title><use xlink:href="#Path-41" fill="#2700c3" fill-opacity="1"/></g><g><title>Rectangle</title><use xlink:href="#Path-42" fill="#2700c3" fill-opacity="1"/></g><g><title>Rectangle</title><use xlink:href="#Path-43" fill="#2700c3" fill-opacity="1"/></g><g><title>Rectangle</title><use xlink:href="#Path-44" fill="#2700c3" fill-opacity="1"/></g><g><title>Rectangle</title><use xlink:href="#Path-45" fill="#2700c3" fill-opacity="1"/></g><g><title>Rectangle</title><use xlink:href="#Path-46" fill="#2700c3" fill-opacity="1"/></g><g><title>Rectangle</title><use xlink:href="#Path-47" fill="#2700c3" fill-opacity="1"/></g><g><title>Rectangle</title><use xlink:href="#Path-48" fill="#2700c3" fill-opacity="1"/></g><g><title>Rectangle</title><use xlink:href="#Path-49" fill="#2700c3" fill-opacity="1"/></g><g><title>Rectangle</title><use xlink:href="#Path-50" fill="#2700c3" fill-opacity="1"/></g><g><title>Rectangle</title><use xlink:href="#Path-51" fill="#2700c3" fill-opacity="1"/></g><g><title>Rectangle</title><use xlink:href="#Path-52" fill="#2700c3" fill-opacity="1"/></g><g><title>Rectangle</title><use xlink:href="#Path-53" fill="#2700c3" fill-opacity="1"/></g><g><title>Rectangle</title><use xlink:href="#Path-54" fill="#2700c3" fill-opacity="1"/></g><g><title>Rectangle</title><use xlink:href="#Path-55" fill="#2700c3" fill-opacity="1"/></g><g><title>Rectangle</title><use xlink:href="#Path-56" fill="#2700c3" fill-opacity="1"/></g><g><title>Rectangle</title><use xlink:href="#Path-57" fill="#2700c3" fill-opacity="1"/></g><g><title>Rectangle</title><use xlink:href="#Path-58" fill="#2700c3" fill-opacity="1"/></g><g><title>Rectangle</title><use xlink:href="#Path-59" fill="#2700c3" fill-opacity="1"/></g></g><g><title>Group 9</title><g><title>Rectangle</title><use xlink:href="#Path-60" fill="#ffffff" fill-opacity="1"/></g><g><title>Rectangle</title><use xlink:href="#Path-61" fill="#ffffff" fill-opacity="1"/></g><g><title>Rectangle</title><use xlink:href="#Path-62" fill="#ffffff" fill-opacity="1"/></g><g><title>Rectangle</title><use xlink:href="#Path-63" fill="#ffffff" fill-opacity="1"/></g><g><title>Rectangle</title><use xlink:href="#Path-64" fill="#ffffff" fill-opacity="1"/></g><g><title>Rectangle</title><use xlink:href="#Path-65" fill="#ffffff" fill-opacity="1"/></g><g><title>Rectangle</title><use xlink:href="#Path-66" fill="#ffffff" fill-opacity="1"/></g><g><title>Rectangle</title><use xlink:href="#Path-67" fill="#ffffff" fill-opacity="1"/></g><g><title>Rectangle</title><use xlink:href="#Path-4" fill="#ffffff" fill-opacity="1"/></g><g><title>Rectangle</title><use xlink:href="#Path-5" fill="#ffffff" fill-opacity="1"/></g><g><title>Rectangle</title><use xlink:href="#Path-6" fill="#ffffff" fill-opacity="1"/></g><g><title>Rectangle</title><use xlink:href="#Path-7" fill="#ffffff" fill-opacity="1"/></g><g><title>Rectangle</title><use xlink:href="#Path-0" fill="#ffffff" fill-opacity="1"/></g><g><title>Rectangle</title><use xlink:href="#Path-1" fill="#ffffff" fill-opacity="1"/></g></g></g></svg>