<svg xmlns="http://www.w3.org/2000/svg" xmlns:xlink="http://www.w3.org/1999/xlink" width="124" height="203" viewBox="0 0 124 203"><defs><path id="obnea" d="M460 1512v-3h-3v3z"/><path id="obneb" d="M460 1532v-3h-3v3z"/><path id="obnec" d="M440 1532v-3h-3v3z"/><path id="obned" d="M420 1532v-3h-3v3z"/><path id="obnee" d="M400 1532v-3h-3v3z"/><path id="obnef" d="M400 1512v-3h-3v3z"/><path id="obneg" d="M420 1512v-3h-3v3z"/><path id="obneh" d="M440 1512v-3h-3v3z"/><path id="obnei" d="M460 1552v-3h-3v3z"/><path id="obnej" d="M440 1552v-3h-3v3z"/><path id="obnek" d="M420 1552v-3h-3v3z"/><path id="obnel" d="M400 1552v-3h-3v3z"/><path id="obnem" d="M460 1572v-3h-3v3z"/><path id="obnen" d="M440 1572v-3h-3v3z"/><path id="obneo" d="M420 1572v-3h-3v3z"/><path id="obnep" d="M400 1572v-3h-3v3z"/><path id="obneq" d="M460 1592v-3h-3v3z"/><path id="obner" d="M440 1592v-3h-3v3z"/><path id="obnes" d="M420 1592v-3h-3v3z"/><path id="obnet" d="M400 1592v-3h-3v3z"/><path id="obneu" d="M460 1612v-3h-3v3z"/><path id="obnev" d="M440 1612v-3h-3v3z"/><path id="obnew" d="M420 1612v-3h-3v3z"/><path id="obnex" d="M500 1512v-3h-3v3z"/><path id="obney" d="M480 1512v-3h-3v3z"/><path id="obnez" d="M500 1532v-3h-3v3z"/><path id="obneA" d="M480 1532v-3h-3v3z"/><path id="obneB" d="M500 1552v-3h-3v3z"/><path id="obneC" d="M480 1552v-3h-3v3z"/><path id="obneD" d="M500 1572v-3h-3v3z"/><path id="obneE" d="M480 1572v-3h-3v3z"/><path id="obneF" d="M500 1592v-3h-3v3z"/><path id="obneG" d="M480 1592v-3h-3v3z"/><path id="obneH" d="M500 1612v-3h-3v3z"/><path id="obneI" d="M480 1612v-3h-3v3z"/><path id="obneJ" d="M400 1612v-3h-3v3z"/><path id="obneK" d="M521 1612v-3h-3v3z"/><path id="obneL" d="M501 1612v-3h-3v3z"/><path id="obneM" d="M521 1632v-3h-3v3z"/><path id="obneN" d="M501 1632v-3h-3v3z"/><path id="obneO" d="M521 1652v-3h-3v3z"/><path id="obneP" d="M501 1652v-3h-3v3z"/><path id="obneQ" d="M521 1672v-3h-3v3z"/><path id="obneR" d="M501 1672v-3h-3v3z"/><path id="obneS" d="M501 1692v-3h-3v3z"/><path id="obneT" d="M521 1692v-3h-3v3z"/><path id="obneU" d="M521 1712v-3h-3v3z"/><path id="obneV" d="M501 1712v-3h-3v3z"/></defs><g><g transform="rotate(180 260.5 856)"><g><g><use fill="#2700c3" xlink:href="#obnea"/></g><g><use fill="#2700c3" xlink:href="#obneb"/></g><g><use fill="#2700c3" xlink:href="#obnec"/></g><g><use fill="#2700c3" xlink:href="#obned"/></g><g><use fill="#2700c3" xlink:href="#obnee"/></g><g><use fill="#2700c3" xlink:href="#obnef"/></g><g><use fill="#2700c3" xlink:href="#obneg"/></g><g><use fill="#2700c3" xlink:href="#obneh"/></g><g><use fill="#2700c3" xlink:href="#obnei"/></g><g><use fill="#2700c3" xlink:href="#obnej"/></g><g><use fill="#2700c3" xlink:href="#obnek"/></g><g><use fill="#2700c3" xlink:href="#obnel"/></g><g><use fill="#2700c3" xlink:href="#obnem"/></g><g><use fill="#2700c3" xlink:href="#obnen"/></g><g><use fill="#2700c3" xlink:href="#obneo"/></g><g><use fill="#2700c3" xlink:href="#obnep"/></g><g><use fill="#2700c3" xlink:href="#obneq"/></g><g><use fill="#2700c3" xlink:href="#obner"/></g><g><use fill="#2700c3" xlink:href="#obnes"/></g><g><use fill="#2700c3" xlink:href="#obnet"/></g><g><use fill="#2700c3" xlink:href="#obneu"/></g><g><use fill="#2700c3" xlink:href="#obnev"/></g><g><use fill="#2700c3" xlink:href="#obnew"/></g><g><use fill="#2700c3" xlink:href="#obnex"/></g><g><use fill="#2700c3" xlink:href="#obney"/></g><g><use fill="#2700c3" xlink:href="#obnez"/></g><g><use fill="#2700c3" xlink:href="#obneA"/></g><g><use fill="#2700c3" xlink:href="#obneB"/></g><g><use fill="#2700c3" xlink:href="#obneC"/></g><g><use fill="#2700c3" xlink:href="#obneD"/></g><g><use fill="#2700c3" xlink:href="#obneE"/></g><g><use fill="#2700c3" xlink:href="#obneF"/></g><g><use fill="#2700c3" xlink:href="#obneG"/></g><g><use fill="#2700c3" xlink:href="#obneH"/></g><g><use fill="#2700c3" xlink:href="#obneI"/></g><g><use fill="#2700c3" xlink:href="#obneJ"/></g></g><g><g><use fill="#fff" xlink:href="#obneK"/></g><g><use fill="#fff" xlink:href="#obneL"/></g><g><use fill="#fff" xlink:href="#obneM"/></g><g><use fill="#fff" xlink:href="#obneN"/></g><g><use fill="#fff" xlink:href="#obneO"/></g><g><use fill="#fff" xlink:href="#obneP"/></g><g><use fill="#fff" xlink:href="#obneQ"/></g><g><use fill="#fff" xlink:href="#obneR"/></g><g><use fill="#fff" xlink:href="#obneS"/></g><g><use fill="#fff" xlink:href="#obneT"/></g><g><use fill="#fff" xlink:href="#obneU"/></g><g><use fill="#fff" xlink:href="#obneV"/></g></g></g></g></svg>