<svg xmlns="http://www.w3.org/2000/svg" xmlns:xlink="http://www.w3.org/1999/xlink" width="163" height="63" viewBox="0 0 163 63"><defs><path id="26m6a" d="M1262 959v-3h3v3z"/><path id="26m6b" d="M1282 959v-3h3v3z"/><path id="26m6c" d="M1262 939v-3h3v3z"/><path id="26m6d" d="M1282 939v-3h3v3z"/><path id="26m6e" d="M1262 979v-3h3v3z"/><path id="26m6f" d="M1282 979v-3h3v3z"/><path id="26m6g" d="M1262 999v-3h3v3z"/><path id="26m6h" d="M1282 999v-3h3v3z"/><path id="26m6i" d="M1302 959v-3h3v3z"/><path id="26m6j" d="M1322 959v-3h3v3z"/><path id="26m6k" d="M1302 939v-3h3v3z"/><path id="26m6l" d="M1322 939v-3h3v3z"/><path id="26m6m" d="M1302 979v-3h3v3z"/><path id="26m6n" d="M1322 979v-3h3v3z"/><path id="26m6o" d="M1302 999v-3h3v3z"/><path id="26m6p" d="M1322 999v-3h3v3z"/><path id="26m6q" d="M1342 959v-3h3v3z"/><path id="26m6r" d="M1362 959v-3h3v3z"/><path id="26m6s" d="M1342 939v-3h3v3z"/><path id="26m6t" d="M1362 939v-3h3v3z"/><path id="26m6u" d="M1342 979v-3h3v3z"/><path id="26m6v" d="M1362 979v-3h3v3z"/><path id="26m6w" d="M1342 999v-3h3v3z"/><path id="26m6x" d="M1362 999v-3h3v3z"/><path id="26m6y" d="M1382 959v-3h3v3z"/><path id="26m6z" d="M1402 959v-3h3v3z"/><path id="26m6A" d="M1382 939v-3h3v3z"/><path id="26m6B" d="M1402 939v-3h3v3z"/><path id="26m6C" d="M1382 979v-3h3v3z"/><path id="26m6D" d="M1402 979v-3h3v3z"/><path id="26m6E" d="M1382 999v-3h3v3z"/><path id="26m6F" d="M1402 999v-3h3v3z"/><path id="26m6G" d="M1422 959v-3h3v3z"/><path id="26m6H" d="M1422 939v-3h3v3z"/><path id="26m6I" d="M1422 979v-3h3v3z"/><path id="26m6J" d="M1422 999v-3h3v3z"/></defs><g><g transform="translate(-1262 -936)"><g><use fill="#230cea" xlink:href="#26m6a"/></g><g><use fill="#230cea" xlink:href="#26m6b"/></g><g><use fill="#230cea" xlink:href="#26m6c"/></g><g><use fill="#230cea" xlink:href="#26m6d"/></g><g><use fill="#230cea" xlink:href="#26m6e"/></g><g><use fill="#230cea" xlink:href="#26m6f"/></g><g><use fill="#230cea" xlink:href="#26m6g"/></g><g><use fill="#230cea" xlink:href="#26m6h"/></g><g opacity=".2"><use fill="#023753" xlink:href="#26m6i"/></g><g opacity=".2"><use fill="#023753" xlink:href="#26m6j"/></g><g opacity=".2"><use fill="#023753" xlink:href="#26m6k"/></g><g opacity=".2"><use fill="#023753" xlink:href="#26m6l"/></g><g opacity=".2"><use fill="#023753" xlink:href="#26m6m"/></g><g opacity=".2"><use fill="#023753" xlink:href="#26m6n"/></g><g opacity=".2"><use fill="#023753" xlink:href="#26m6o"/></g><g opacity=".2"><use fill="#023753" xlink:href="#26m6p"/></g><g opacity=".2"><use fill="#023753" xlink:href="#26m6q"/></g><g opacity=".2"><use fill="#023753" xlink:href="#26m6r"/></g><g opacity=".2"><use fill="#023753" xlink:href="#26m6s"/></g><g opacity=".2"><use fill="#023753" xlink:href="#26m6t"/></g><g opacity=".2"><use fill="#023753" xlink:href="#26m6u"/></g><g opacity=".2"><use fill="#023753" xlink:href="#26m6v"/></g><g opacity=".2"><use fill="#023753" xlink:href="#26m6w"/></g><g opacity=".2"><use fill="#023753" xlink:href="#26m6x"/></g><g opacity=".2"><use fill="#023753" xlink:href="#26m6y"/></g><g opacity=".2"><use fill="#023753" xlink:href="#26m6z"/></g><g opacity=".2"><use fill="#023753" xlink:href="#26m6A"/></g><g opacity=".2"><use fill="#023753" xlink:href="#26m6B"/></g><g opacity=".2"><use fill="#023753" xlink:href="#26m6C"/></g><g opacity=".2"><use fill="#023753" xlink:href="#26m6D"/></g><g opacity=".2"><use fill="#023753" xlink:href="#26m6E"/></g><g opacity=".2"><use fill="#023753" xlink:href="#26m6F"/></g><g opacity=".2"><use fill="#023753" xlink:href="#26m6G"/></g><g opacity=".2"><use fill="#023753" xlink:href="#26m6H"/></g><g opacity=".2"><use fill="#023753" xlink:href="#26m6I"/></g><g opacity=".2"><use fill="#023753" xlink:href="#26m6J"/></g></g></g></svg>