<svg id="SVGDoc" width="63" height="63" xmlns="http://www.w3.org/2000/svg" version="1.1" xmlns:xlink="http://www.w3.org/1999/xlink" xmlns:avocode="https://avocode.com/" viewBox="0 0 63 63"><defs><path d="M1247,6093v-3h-3v3z" id="Path-0"/><path d="M1227,6093v-3h-3v3z" id="Path-1"/><path d="M1207,6093v-3h-3v3z" id="Path-2"/><path d="M1187,6093v-3h-3v3z" id="Path-3"/><path d="M1247,6113v-3h-3v3z" id="Path-4"/><path d="M1227,6113v-3h-3v3z" id="Path-5"/><path d="M1207,6113v-3h-3v3z" id="Path-6"/><path d="M1187,6113v-3h-3v3z" id="Path-7"/><path d="M1247,6133v-3h-3v3z" id="Path-8"/><path d="M1227,6133v-3h-3v3z" id="Path-9"/><path d="M1207,6133v-3h-3v3z" id="Path-10"/><path d="M1187,6133v-3h-3v3z" id="Path-11"/><path d="M1247,6153v-3h-3v3z" id="Path-12"/><path d="M1227,6153v-3h-3v3z" id="Path-13"/><path d="M1207,6153v-3h-3v3z" id="Path-14"/><path d="M1187,6153v-3h-3v3z" id="Path-15"/></defs><desc>Generated with Avocode.</desc><g transform="matrix(1,0,0,1,-1184,-6090)"><g><title>Group 36</title><g><title>Rectangle</title><use xlink:href="#Path-0" fill="#0024ff" fill-opacity="1"/></g><g><title>Rectangle</title><use xlink:href="#Path-1" fill="#0024ff" fill-opacity="1"/></g><g><title>Rectangle</title><use xlink:href="#Path-2" fill="#0024ff" fill-opacity="1"/></g><g><title>Rectangle</title><use xlink:href="#Path-3" fill="#0024ff" fill-opacity="1"/></g><g><title>Rectangle</title><use xlink:href="#Path-4" fill="#0024ff" fill-opacity="1"/></g><g><title>Rectangle</title><use xlink:href="#Path-5" fill="#0024ff" fill-opacity="1"/></g><g><title>Rectangle</title><use xlink:href="#Path-6" fill="#0024ff" fill-opacity="1"/></g><g><title>Rectangle</title><use xlink:href="#Path-7" fill="#0024ff" fill-opacity="1"/></g><g><title>Rectangle</title><use xlink:href="#Path-8" fill="#0024ff" fill-opacity="1"/></g><g><title>Rectangle</title><use xlink:href="#Path-9" fill="#0024ff" fill-opacity="1"/></g><g><title>Rectangle</title><use xlink:href="#Path-10" fill="#0024ff" fill-opacity="1"/></g><g><title>Rectangle</title><use xlink:href="#Path-11" fill="#0024ff" fill-opacity="1"/></g><g><title>Rectangle</title><use xlink:href="#Path-12" fill="#0024ff" fill-opacity="1"/></g><g><title>Rectangle</title><use xlink:href="#Path-13" fill="#0024ff" fill-opacity="1"/></g><g><title>Rectangle</title><use xlink:href="#Path-14" fill="#0024ff" fill-opacity="1"/></g><g><title>Rectangle</title><use xlink:href="#Path-15" fill="#0024ff" fill-opacity="1"/></g></g></g></svg>