<svg id="SVGDoc" width="22" height="42" xmlns="http://www.w3.org/2000/svg" version="1.1" xmlns:xlink="http://www.w3.org/1999/xlink" xmlns:avocode="https://avocode.com/" viewBox="0 0 22 42"><defs><path d="M-16.74,260v-1.5h1.5v1.5z" id="Path-0"/><path d="M-6.72,260v-1.5h1.49993v1.5z" id="Path-1"/><path d="M-16.74,270v-1.5h1.5v1.5z" id="Path-2"/><path d="M-6.72,270v-1.5h1.49993v1.5z" id="Path-3"/><path d="M3.31,230v-1.5h1.5v1.5z" id="Path-4"/><path d="M-6.72,230v-1.5h1.49993v1.5z" id="Path-5"/><path d="M3.31,240v-1.5h1.5v1.5z" id="Path-6"/><path d="M-6.72,240v-1.5h1.49993v1.5z" id="Path-7"/><path d="M13.33,250v-1.5h1.5v1.5z" id="Path-8"/><path d="M23.35,250v-1.5h1.5v1.5z" id="Path-9"/><path d="M13.33,260v-1.5h1.5v1.5z" id="Path-10"/><path d="M23.35,260v-1.5h1.5v1.5z" id="Path-11"/><path d="M23.35,230v-1.5h1.5v1.5z" id="Path-12"/><path d="M13.33,230v-1.5h1.5v1.5z" id="Path-13"/><path d="M23.35,240v-1.5h1.5v1.5z" id="Path-14"/><path d="M13.33,240v-1.5h1.5v1.5z" id="Path-15"/><path d="M3.31,250v-1.5h1.5v1.5z" id="Path-16"/><path d="M3.31,260v-1.5h1.5v1.5z" id="Path-17"/><path d="M-6.72,250v-1.5h1.49993v1.5z" id="Path-18"/></defs><desc>Generated with Avocode.</desc><g transform="matrix(1,0,0,1,-3,-228)"><g clip-path="url(#clip-1CF5969C-88E1-4980-8D40-86486856A7E1)" transform="matrix(-1,0,0,1,8,0)"><title>Group 18</title><g><title>Rectangle</title><use xlink:href="#Path-0" fill="#ffffff" fill-opacity="1"/></g><g><title>Rectangle</title><use xlink:href="#Path-1" fill="#ffffff" fill-opacity="1"/></g><g><title>Rectangle</title><use xlink:href="#Path-2" fill="#ffffff" fill-opacity="1"/></g><g><title>Rectangle</title><use xlink:href="#Path-3" fill="#ffffff" fill-opacity="1"/></g><g><title>Rectangle</title><use xlink:href="#Path-4" fill="#2700c3" fill-opacity="1"/></g><g><title>Rectangle</title><use xlink:href="#Path-5" fill="#2700c3" fill-opacity="1"/></g><g><title>Rectangle</title><use xlink:href="#Path-6" fill="#2700c3" fill-opacity="1"/></g><g><title>Rectangle</title><use xlink:href="#Path-7" fill="#2700c3" fill-opacity="1"/></g><g><title>Rectangle</title><use xlink:href="#Path-8" fill="#2700c3" fill-opacity="1"/></g><g><title>Rectangle</title><use xlink:href="#Path-9" fill="#2700c3" fill-opacity="1"/></g><g><title>Rectangle</title><use xlink:href="#Path-10" fill="#2700c3" fill-opacity="1"/></g><g><title>Rectangle</title><use xlink:href="#Path-11" fill="#2700c3" fill-opacity="1"/></g><g><title>Rectangle</title><use xlink:href="#Path-12" fill="#2700c3" fill-opacity="1"/></g><g><title>Rectangle</title><use xlink:href="#Path-13" fill="#2700c3" fill-opacity="1"/></g><g><title>Rectangle</title><use xlink:href="#Path-14" fill="#2700c3" fill-opacity="1"/></g><g><title>Rectangle</title><use xlink:href="#Path-15" fill="#2700c3" fill-opacity="1"/></g><g><title>Rectangle</title><use xlink:href="#Path-16" fill="#2700c3" fill-opacity="1"/></g><g><title>Rectangle</title><use xlink:href="#Path-17" fill="#2700c3" fill-opacity="1"/></g><g><title>Rectangle</title><use xlink:href="#Path-18" fill="#2700c3" fill-opacity="1"/></g></g></g></svg>