<svg xmlns="http://www.w3.org/2000/svg" xmlns:xlink="http://www.w3.org/1999/xlink" width="40" height="42" viewBox="0 0 40 42"><defs><path id="2n1xa" d="M58.4 32.52c0-1.37-2.18-3.15-5.77-4.35-.37-.13-.75-.25-1.15-.36-.47 1.5-1.1 3.1-1.88 4.72a37.34 37.34 0 0 1 1.96 4.8 20 20 0 0 0 .65-.2c3.83-1.25 6.19-3.15 6.19-4.6zM35.8 48.47c-2.45 1.52-4.73 1.97-6.25 1.07-2-1.18-2.62-4.61-1.82-8.93.09-.47.19-.94.3-1.4-.35-.1-.69-.22-1.03-.34-4.22-1.48-7-3.92-7-6.35 0-2.35 2.59-4.62 6.64-6.07.45-.16.92-.32 1.41-.46-.1-.43-.2-.86-.28-1.3-.84-4.4-.25-7.92 1.75-9.1 1.73-1.03 4.43-.28 7.28 1.83l-.07 2.05c-2.72-2.27-5.22-3.13-6.4-2.43-1.2.71-1.67 3.56-.96 7.33l.27 1.2c1.58-.36 3.3-.64 5.1-.8.62-.9 1.25-1.74 1.89-2.54l-.04 1.02a2.3 2.3 0 0 0-.3 2.44c-.09.2-.14.42-.18.64l-.46.03a47.34 47.34 0 0 0-3.49 6.2 47.18 47.18 0 0 0 3.5 6.2l.4.03-.1 3.23c-.4-.53-.8-1.08-1.19-1.64a37.1 37.1 0 0 1-5.15-.77c-.11.43-.2.87-.28 1.3-.69 3.7-.19 6.46 1.02 7.17.57.34 1.5.33 2.69-.1.87-.32 1.82-.84 2.8-1.55zm-4-13.53a34.8 34.8 0 0 0-1.4 3.4c1.24.24 2.58.44 4 .58a47.66 47.66 0 0 1-2.6-3.98zm-1.4-7.32c.3 1.09.68 2.22 1.12 3.36a52.63 52.63 0 0 1 2.08-3.96c-1.12.15-2.2.35-3.2.6zm0 4.91c-.76-1.6-1.4-3.2-1.88-4.72-.45.12-.9.26-1.33.4-3.5 1.19-5.59 2.92-5.59 4.28 0 .64.48 1.43 1.44 2.23 1.07.88 2.62 1.69 4.5 2.31l.96.3a38.15 38.15 0 0 1 1.9-4.8zm7.2 1.62c0-1.2.8-2.21 1.93-2.57v-.32h-.46a.3.3 0 0 1-.3-.3v-.32c0-.16.14-.29.3-.29h.18v-2.23c0-.35.17-.67.44-.87l.04-.94h-.2a.27.27 0 0 1-.28-.26c0-.15.12-.26.27-.26h.23L40.4 8l.64 17.79h.24c.15 0 .27.12.27.26 0 .15-.12.27-.27.27h-.22l.03.91.08.06c.23.2.38.5.38.83v2.23h.18c.16 0 .3.13.3.3v.32a.3.3 0 0 1-.3.3h-.48v.3a2.71 2.71 0 0 1 1.95 2.58 2.7 2.7 0 0 1-1.75 2.5l.02.62h.26c.16 0 .3.13.3.3v.32a.3.3 0 0 1-.3.29h-.22l.28 10.24a7.73 7.73 0 0 0-2.8 0l.29-10.24h-.2a.3.3 0 0 1-.31-.3v-.32c0-.16.14-.3.3-.3h.24l.02-.61a2.7 2.7 0 0 1-1.73-2.5zm12.8 4.16c-.38-1.08-.87-2.2-1.44-3.37a51.22 51.22 0 0 1-2.56 3.98c1.42-.16 2.76-.36 4-.61zm-1.92-7.33c.44-1.15.82-2.27 1.12-3.34-1-.26-2.08-.47-3.2-.62a51.55 51.55 0 0 1 2.08 3.96zM60 32.53c0 2.46-2.85 4.87-7.23 6.36l-.72.22c.09.36.17.71.23 1.05.87 4.48.2 8.17-1.85 9.38-1.53.91-3.79.43-6.23-1.15l-.06-2.07c2.35 1.78 4.43 2.4 5.47 1.78.57-.34 1.03-1.18 1.26-2.44.25-1.4.2-3.19-.19-5.17l-.2-.95c-1.59.38-3.33.65-5.18.82-.42.62-.84 1.22-1.27 1.78l-.08-3.35.44-.03a55.6 55.6 0 0 0 3.48-6.21 55.22 55.22 0 0 0-3.5-6.16 29.5 29.5 0 0 0-.46-.04c-.04-.21-.1-.43-.18-.63a2.3 2.3 0 0 0-.32-2.46l-.04-1.05c.64.8 1.28 1.67 1.91 2.58 1.8.17 3.52.45 5.11.83l.17-.78c.8-4 .3-7.06-.97-7.81-1.15-.69-3.63.2-6.32 2.5l-.07-2.07c2.82-2.12 5.48-2.9 7.2-1.88 2.08 1.23 2.7 4.96 1.76 9.6-.05.28-.12.57-.19.86.41.12.83.25 1.23.4 4.13 1.45 6.8 3.73 6.8 6.09z"/></defs><g><g transform="translate(-20 -8)"><use fill="#fff" xlink:href="#2n1xa"/></g></g></svg>