<svg xmlns="http://www.w3.org/2000/svg" width="154.375" height="39.97" viewBox="0 0 154.375 39.97">
  <defs>
    <style>
      .cls-1 {
        fill: #fff;
        fill-rule: evenodd;
      }
    </style>
  </defs>
  <path class="cls-1" d="M646.17,9595.73c7.765-2.48,10.738-3.99,12.07-4.74,1.331,0.75,4.3,2.3,12.069,4.74,0,0.88.488,27.68-12.069,27.68S646.17,9596.61,646.17,9595.73Zm12.07,31.23c16.24,0.04,15.619-32.7,15.619-33.8-10.073-3.24-13.889-5.19-15.619-6.16-1.731.97-5.547,2.92-15.62,6.16C642.62,9594.26,642,9627,658.24,9626.96Zm0.618-10.59a2.671,2.671,0,0,1-2.663-2.66v-0.35h-3.106v0.09a5.651,5.651,0,0,0,2.929,5,5.8,5.8,0,0,0,8.608-4.87v-0.22H661.52v0.22a2.626,2.626,0,0,1-2.529,2.74A0.152,0.152,0,0,1,658.858,9616.37Zm8.874-12.36-7.543.04v-2.65l7.543-.05v2.66Zm-10.561-2.75a3.933,3.933,0,0,0-3.727-2.43,4.05,4.05,0,0,0-4.038,4.16A4.046,4.046,0,1,0,657.171,9601.26Zm-3.771,2.84a1.294,1.294,0,1,1,.221-2.57A1.3,1.3,0,0,1,653.4,9604.1Zm41.4,7.84h6.227v7.38a9.006,9.006,0,0,1-2.867,1.43,11.144,11.144,0,0,1-3.179.45,10.986,10.986,0,0,1-3.937-.68,9.128,9.128,0,0,1-3.035-1.87,8.19,8.19,0,0,1-1.947-2.84,9.127,9.127,0,0,1-.686-3.56,9.673,9.673,0,0,1,.649-3.59,8.2,8.2,0,0,1,1.858-2.83,8.435,8.435,0,0,1,2.921-1.84,10.574,10.574,0,0,1,3.828-.66,11.184,11.184,0,0,1,2.056.18,9.96,9.96,0,0,1,1.773.49,8.155,8.155,0,0,1,1.484.74,7.843,7.843,0,0,1,1.2.94l-1.178,1.79a1.107,1.107,0,0,1-.715.51,1.268,1.268,0,0,1-.944-0.21,10.155,10.155,0,0,0-.907-0.5,4.857,4.857,0,0,0-.872-0.34,5.515,5.515,0,0,0-.937-0.2,9.219,9.219,0,0,0-1.106-.06,5.024,5.024,0,0,0-2.056.41,4.27,4.27,0,0,0-1.556,1.13,5.089,5.089,0,0,0-.992,1.76,7.031,7.031,0,0,0-.349,2.28,7.4,7.4,0,0,0,.385,2.48,5.134,5.134,0,0,0,1.088,1.82,4.619,4.619,0,0,0,1.683,1.14,5.815,5.815,0,0,0,2.169.39,5.446,5.446,0,0,0,1.329-.15,6.87,6.87,0,0,0,1.16-.38v-2.66h-1.731a0.821,0.821,0,0,1-.6-0.2,0.688,0.688,0,0,1-.217-0.52v-2.23Zm12.333-3.38V9621H703.4v-12.44h3.726Zm0.385-3.41a1.935,1.935,0,0,1-.18.83,2.288,2.288,0,0,1-.493.69,2.642,2.642,0,0,1-.727.47,2.374,2.374,0,0,1-.884.17,2.2,2.2,0,0,1-.853-0.17,2.626,2.626,0,0,1-.7-0.47,2.231,2.231,0,0,1-.48-0.69,1.977,1.977,0,0,1-.175-0.83,2.069,2.069,0,0,1,.175-0.85,2.162,2.162,0,0,1,.48-0.7,2.411,2.411,0,0,1,.7-0.47,2.2,2.2,0,0,1,.853-0.16,2.367,2.367,0,0,1,.884.16,2.431,2.431,0,0,1,.727.47,2.214,2.214,0,0,1,.493.7A2.025,2.025,0,0,1,707.515,9605.15Zm6.683,16.05a4.438,4.438,0,0,1-1.568-.26,3.007,3.007,0,0,1-1.845-1.88,4.428,4.428,0,0,1-.241-1.5v-6.43h-1.058a0.726,0.726,0,0,1-.492-0.19,0.7,0.7,0,0,1-.205-0.55v-1.45l1.984-.38,0.733-3.04a0.739,0.739,0,0,1,.817-0.57h1.947v3.63h3.09v2.55h-3.09v6.18a1.151,1.151,0,0,0,.211.71,0.7,0.7,0,0,0,.607.28,1.13,1.13,0,0,0,.342-0.04,2.512,2.512,0,0,0,.241-0.09c0.068-.04.132-0.07,0.192-0.1a0.465,0.465,0,0,1,.211-0.04,0.389,0.389,0,0,1,.27.08,0.924,0.924,0,0,1,.21.24l1.13,1.77a5.144,5.144,0,0,1-1.622.81A6.47,6.47,0,0,1,714.2,9621.2Zm26.049-17.68V9621h-2.116a1.841,1.841,0,0,1-.787-0.15,1.883,1.883,0,0,1-.631-0.52l-8.258-10.43c0.032,0.31.054,0.62,0.066,0.91s0.018,0.56.018,0.82V9621h-3.582v-17.48H727.1c0.177,0,.325.01,0.445,0.02a1.494,1.494,0,0,1,.325.09,1.284,1.284,0,0,1,.276.19,3.978,3.978,0,0,1,.3.32l8.33,10.5c-0.04-.33-0.068-0.66-0.084-0.98s-0.024-.61-0.024-0.89v-9.25h3.582Zm9.388,12.42a11.668,11.668,0,0,0-1.84.19,4.811,4.811,0,0,0-1.141.36,1.448,1.448,0,0,0-.583.49,1.187,1.187,0,0,0-.163.6,1.043,1.043,0,0,0,.349.9,1.716,1.716,0,0,0,1.022.26,2.934,2.934,0,0,0,1.262-.26,3.79,3.79,0,0,0,1.094-.81v-1.73Zm-6.708-5.65a7.6,7.6,0,0,1,2.506-1.49,8.9,8.9,0,0,1,2.951-.48,5.485,5.485,0,0,1,2.038.36,4.308,4.308,0,0,1,2.506,2.58,5.542,5.542,0,0,1,.337,1.97V9621h-1.707a1.7,1.7,0,0,1-.8-0.14,1.127,1.127,0,0,1-.451-0.6l-0.265-.68q-0.468.39-.9,0.69a5.722,5.722,0,0,1-.9.51,4.041,4.041,0,0,1-.985.31,5.9,5.9,0,0,1-1.16.11,5.031,5.031,0,0,1-1.551-.23,3.086,3.086,0,0,1-1.184-.65,2.933,2.933,0,0,1-.751-1.07,3.9,3.9,0,0,1-.265-1.49,3.1,3.1,0,0,1,.337-1.36,3.36,3.36,0,0,1,1.166-1.26,7.269,7.269,0,0,1,2.236-.95,15.184,15.184,0,0,1,3.546-.44v-0.52a2.277,2.277,0,0,0-.451-1.58,1.641,1.641,0,0,0-1.28-.49,3.273,3.273,0,0,0-1.082.15,4.315,4.315,0,0,0-.751.32c-0.221.12-.435,0.23-0.644,0.32a1.7,1.7,0,0,1-.745.15,1.131,1.131,0,0,1-.649-0.19,1.675,1.675,0,0,1-.433-0.46ZM769.12,9621h-3.727v-9.87h-5.216v6.18a1.151,1.151,0,0,0,.21.71,0.7,0.7,0,0,0,.607.28,1.141,1.141,0,0,0,.343-0.04q0.138-.045.24-0.09c0.068-.04.132-0.07,0.192-0.1a0.465,0.465,0,0,1,.211-0.04,0.389,0.389,0,0,1,.27.08,0.924,0.924,0,0,1,.21.24l1.13,1.77a5.133,5.133,0,0,1-1.622.81,6.465,6.465,0,0,1-1.864.27,4.442,4.442,0,0,1-1.568-.26,3.007,3.007,0,0,1-1.845-1.88,4.428,4.428,0,0,1-.241-1.5v-6.43h-1.058a0.726,0.726,0,0,1-.492-0.19,0.7,0.7,0,0,1-.2-0.55v-1.45l1.984-.39,0.733-3.03a0.739,0.739,0,0,1,.817-0.57h1.948v3.63h8.943V9621Zm0.517-15.86a2.032,2.032,0,0,1-.181.84,2.254,2.254,0,0,1-.493.69,2.366,2.366,0,0,1-1.61.63,2.206,2.206,0,0,1-.854-0.17,2.376,2.376,0,0,1-.7-0.46,2.234,2.234,0,0,1-.481-0.69,2.139,2.139,0,0,1,0-1.69,2.021,2.021,0,0,1,.481-0.69,2.224,2.224,0,0,1,.7-0.47,2.044,2.044,0,0,1,.854-0.18,2.193,2.193,0,0,1,.883.18,2.231,2.231,0,0,1,.727.47A2.106,2.106,0,0,1,769.637,9605.14Zm7.837,3.23a7.119,7.119,0,0,1,2.584.44,5.555,5.555,0,0,1,3.3,3.28,7.93,7.93,0,0,1,0,5.34,5.621,5.621,0,0,1-3.3,3.32,7.119,7.119,0,0,1-2.584.45,7.2,7.2,0,0,1-2.6-.45,5.762,5.762,0,0,1-2.02-1.29,5.6,5.6,0,0,1-1.31-2.03,7.93,7.93,0,0,1,0-5.34,5.6,5.6,0,0,1,1.31-2.01,5.861,5.861,0,0,1,2.02-1.27A7.2,7.2,0,0,1,777.474,9608.37Zm0,10.07a2.13,2.13,0,0,0,1.893-.91,5,5,0,0,0,.607-2.76,4.943,4.943,0,0,0-.607-2.74,2.123,2.123,0,0,0-1.893-.9,2.173,2.173,0,0,0-1.935.9,4.9,4.9,0,0,0-.613,2.74,4.957,4.957,0,0,0,.613,2.76A2.18,2.18,0,0,0,777.474,9618.44Zm11.66-8.54a9.411,9.411,0,0,1,.745-0.62,4.384,4.384,0,0,1,.823-0.49,5.341,5.341,0,0,1,.95-0.31,4.877,4.877,0,0,1,1.112-.11,4.308,4.308,0,0,1,1.809.35,3.785,3.785,0,0,1,1.328.98,4.251,4.251,0,0,1,.818,1.5,6.22,6.22,0,0,1,.276,1.89V9621h-3.726v-7.91a2.179,2.179,0,0,0-.421-1.42,1.511,1.511,0,0,0-1.238-.51,2.638,2.638,0,0,0-1.148.26,4.748,4.748,0,0,0-1.04.7V9621H785.7v-12.44H788a0.879,0.879,0,0,1,.913.62Z" transform="translate(-642.625 -9587)"/>
</svg>
