<svg xmlns="http://www.w3.org/2000/svg" xmlns:xlink="http://www.w3.org/1999/xlink" width="63" height="63" viewBox="0 0 63 63"><defs><path id="ohlaa" d="M228 7538v-3h-3v3z"/><path id="ohlab" d="M208 7538v-3h-3v3z"/><path id="ohlac" d="M188 7538v-3h-3v3z"/><path id="ohlad" d="M168 7538v-3h-3v3z"/><path id="ohlae" d="M228 7558v-3h-3v3z"/><path id="ohlaf" d="M208 7558v-3h-3v3z"/><path id="ohlag" d="M188 7558v-3h-3v3z"/><path id="ohlah" d="M168 7558v-3h-3v3z"/><path id="ohlai" d="M228 7578v-3h-3v3z"/><path id="ohlaj" d="M208 7578v-3h-3v3z"/><path id="ohlak" d="M188 7578v-3h-3v3z"/><path id="ohlal" d="M168 7578v-3h-3v3z"/><path id="ohlam" d="M228 7598v-3h-3v3z"/><path id="ohlan" d="M208 7598v-3h-3v3z"/><path id="ohlao" d="M188 7598v-3h-3v3z"/><path id="ohlap" d="M168 7598v-3h-3v3z"/></defs><g><g transform="translate(-165 -7535)"><g><use fill="#0024ff" xlink:href="#ohlaa"/></g><g><use fill="#0024ff" xlink:href="#ohlab"/></g><g><use fill="#0024ff" xlink:href="#ohlac"/></g><g><use fill="#0024ff" xlink:href="#ohlad"/></g><g><use fill="#0024ff" xlink:href="#ohlae"/></g><g><use fill="#0024ff" xlink:href="#ohlaf"/></g><g><use fill="#0024ff" xlink:href="#ohlag"/></g><g><use fill="#0024ff" xlink:href="#ohlah"/></g><g><use fill="#0024ff" xlink:href="#ohlai"/></g><g><use fill="#0024ff" xlink:href="#ohlaj"/></g><g><use fill="#0024ff" xlink:href="#ohlak"/></g><g><use fill="#0024ff" xlink:href="#ohlal"/></g><g><use fill="#0024ff" xlink:href="#ohlam"/></g><g><use fill="#0024ff" xlink:href="#ohlan"/></g><g><use fill="#0024ff" xlink:href="#ohlao"/></g><g><use fill="#0024ff" xlink:href="#ohlap"/></g></g></g></svg>