<svg xmlns="http://www.w3.org/2000/svg" xmlns:xlink="http://www.w3.org/1999/xlink" width="88" height="116" viewBox="0 0 88 116"><defs><path id="57l4a" d="M1247 6093v-3h-3v3z"/><path id="57l4b" d="M1227 6093v-3h-3v3z"/><path id="57l4c" d="M1207 6093v-3h-3v3z"/><path id="57l4d" d="M1187 6093v-3h-3v3z"/><path id="57l4e" d="M1247 6113v-3h-3v3z"/><path id="57l4f" d="M1227 6113v-3h-3v3z"/><path id="57l4g" d="M1207 6113v-3h-3v3z"/><path id="57l4h" d="M1187 6113v-3h-3v3z"/><path id="57l4i" d="M1247 6133v-3h-3v3z"/><path id="57l4j" d="M1227 6133v-3h-3v3z"/><path id="57l4k" d="M1207 6133v-3h-3v3z"/><path id="57l4l" d="M1187 6133v-3h-3v3z"/><path id="57l4m" d="M1247 6153v-3h-3v3z"/><path id="57l4n" d="M1227 6153v-3h-3v3z"/><path id="57l4o" d="M1207 6153v-3h-3v3z"/><path id="57l4p" d="M1187 6153v-3h-3v3z"/><path id="57l4q" d="M1224 6167.64c0-20.79 10.75-37.64 24-37.64s24 16.85 24 37.63c0 20.79-10.75 37.64-24 37.64s-24-16.85-24-37.63z"/><path id="57l4r" d="M1262.72 6156.65c0-1.12-1.76-2.57-4.65-3.55l-.93-.3c-.39 1.23-.9 2.53-1.52 3.86a30.68 30.68 0 0 1 1.58 3.9 16 16 0 0 0 .52-.15c3.1-1.02 5-2.57 5-3.76zm-17.81 12.55c-2 1.19-3.87 1.54-5.11.84-1.63-.93-2.14-3.63-1.48-7.04.07-.37.15-.73.24-1.1l-.84-.26c-3.45-1.17-5.72-3.09-5.72-5 0-1.86 2.11-3.64 5.42-4.78.37-.13.76-.25 1.16-.36a21.3 21.3 0 0 1-.23-1.03c-.69-3.46-.2-6.23 1.43-7.16 1.41-.81 3.61-.22 5.95 1.44l-.06 1.61c-2.22-1.78-4.26-2.46-5.23-1.91-.98.56-1.37 2.8-.78 5.77.06.32.13.63.21.95 1.3-.3 2.7-.5 4.18-.64.5-.7 1.01-1.37 1.54-2l-.03.81a1.77 1.77 0 0 0-.26 1.92c-.06.16-.1.33-.14.5l-.38.03a37.05 37.05 0 0 0-2.84 4.88 36.67 36.67 0 0 0 2.86 4.88l.32.02-.07 2.55c-.33-.42-.66-.85-.98-1.3a31.38 31.38 0 0 1-4.21-.6c-.09.34-.17.68-.23 1.03-.56 2.9-.15 5.08.84 5.64.46.26 1.23.25 2.19-.08.71-.25 1.5-.66 2.3-1.22zm-3.73-10.98c-.4.94-.74 1.85-1.02 2.73.9.2 1.86.35 2.88.46a38.65 38.65 0 0 1-1.86-3.19zm-1-5.77c.27.86.6 1.76 1 2.67a40.33 40.33 0 0 1 1.85-3.16c-1 .13-1.95.29-2.85.49zm.23 4.22a31.42 31.42 0 0 1-1.53-3.9c-.36.1-.72.21-1.07.33-2.83.98-4.53 2.42-4.53 3.54 0 .53.39 1.18 1.17 1.84.86.73 2.12 1.4 3.64 1.91l.78.24c.39-1.27.91-2.6 1.54-3.96zm5.53 1.05c0-.95.62-1.75 1.47-2.03v-.26h-.35a.23.23 0 0 1-.23-.23v-.26c0-.12.1-.23.23-.23h.14v-1.76c0-.29.13-.54.34-.7l.02-.74h-.15a.2.2 0 0 1 0-.42h.17l.5-14.09.48 14.1h.19a.2.2 0 0 1 0 .42h-.17l.02.72a.88.88 0 0 1 .35.7v1.77h.14c.13 0 .23.1.23.24v.25c0 .13-.1.23-.23.23h-.37l.01.25a2.14 2.14 0 0 1 .15 4.03l.01.48h.2c.13 0 .23.1.23.24v.25c0 .13-.1.24-.23.24h-.17l.22 8.1a5.68 5.68 0 0 0-2.14 0l.22-8.1h-.16a.23.23 0 0 1-.23-.24v-.25c0-.13.1-.24.23-.24h.19l.01-.49a2.14 2.14 0 0 1-1.32-1.98zm9.98 3.18c-.29-.87-.64-1.77-1.06-2.71a42.3 42.3 0 0 1-1.87 3.2c1.04-.12 2.02-.29 2.93-.49zm-1.08-5.77c.4-.9.73-1.8 1-2.65a29 29 0 0 0-2.84-.5 39.9 39.9 0 0 1 1.84 3.15zm9.16 1.52c0 1.93-2.33 3.83-5.91 5l-.58.18.19.82c.7 3.53.16 6.43-1.52 7.39-1.25.72-3.1.34-5.09-.9l-.04-1.64c1.91 1.4 3.61 1.89 4.46 1.4.47-.26.84-.92 1.03-1.91.2-1.1.16-2.52-.15-4.08-.05-.24-.1-.49-.17-.74-1.3.3-2.72.5-4.23.64-.34.49-.69.96-1.03 1.4l-.08-2.64.37-.02a43.5 43.5 0 0 0 2.84-4.89 42.94 42.94 0 0 0-2.86-4.85l-.38-.03a2.43 2.43 0 0 0-.14-.5 1.76 1.76 0 0 0-.27-1.93l-.03-.83c.53.63 1.05 1.31 1.56 2.03 1.48.14 2.88.36 4.18.65l.14-.61c.66-3.15.25-5.56-.8-6.15-.94-.54-2.96.16-5.16 1.97l-.06-1.63c2.3-1.67 4.48-2.28 5.89-1.48 1.7.97 2.2 3.9 1.44 7.56l-.16.67c.34.1.67.2 1 .32 3.38 1.14 5.56 2.94 5.56 4.8z"/></defs><g><g transform="translate(-1184 -6090)"><g><use fill="#0024ff" xlink:href="#57l4a"/></g><g><use fill="#0024ff" xlink:href="#57l4b"/></g><g><use fill="#0024ff" xlink:href="#57l4c"/></g><g><use fill="#0024ff" xlink:href="#57l4d"/></g><g><use fill="#0024ff" xlink:href="#57l4e"/></g><g><use fill="#0024ff" xlink:href="#57l4f"/></g><g><use fill="#0024ff" xlink:href="#57l4g"/></g><g><use fill="#0024ff" xlink:href="#57l4h"/></g><g><use fill="#0024ff" xlink:href="#57l4i"/></g><g><use fill="#0024ff" xlink:href="#57l4j"/></g><g><use fill="#0024ff" xlink:href="#57l4k"/></g><g><use fill="#0024ff" xlink:href="#57l4l"/></g><g><use fill="#0024ff" xlink:href="#57l4m"/></g><g><use fill="#0024ff" xlink:href="#57l4n"/></g><g><use fill="#0024ff" xlink:href="#57l4o"/></g><g><use fill="#0024ff" xlink:href="#57l4p"/></g></g><g transform="matrix(-1 0 0 1 1312 -6090)"><g><use fill="#230cea" xlink:href="#57l4q"/></g><g><use fill="#fff" xlink:href="#57l4r"/></g></g></g></svg>