<?xml version="1.0" encoding="utf-8"?>
<!-- Generator: Adobe Illustrator 19.0.0, SVG Export Plug-In . SVG Version: 6.00 Build 0)  -->
<svg version="1.1" id="Capa_1" xmlns="http://www.w3.org/2000/svg" xmlns:xlink="http://www.w3.org/1999/xlink" x="0px" y="0px"
	 viewBox="-242 380.9 50 80" style="enable-background:new -242 380.9 50 80;" xml:space="preserve"  width="50" height="78">
<style type="text/css">
	.st0{fill:#230CEA;}
	.st1{fill:#FFFFFF;}
</style>
<g>
	<g>
		<path class="st0" d="M-217,380.9c-13.8,0-25,11.2-25,25c0,23.9,25,55,25,55s25-31.1,25-55C-192,392.1-203.2,380.9-217,380.9z"/>
	</g>
</g>
<g id="RDB-Web-Design">
	<g id="_x31_.1_x5F_ReactDay---Page-ALL" transform="translate(-950.000000, -5617.000000)">
		<g id="Group-26" transform="translate(942.000000, 5610.000000)">
			<path id="Combined-Shape" class="st1" d="M-197.3,409.3c-0.4-0.1-0.8-0.2-1.1-0.4c0.1-0.3,0.1-0.5,0.2-0.8
				c0.9-4.1,0.3-7.4-1.6-8.5c-1.6-0.9-4-0.2-6.6,1.7l0.1,1.8c2.5-2,4.7-2.8,5.8-2.2c1.2,0.7,1.6,3.4,0.9,6.9c0,0.2-0.1,0.5-0.2,0.7
				c-1.5-0.3-3-0.6-4.7-0.7c-0.6-0.8-1.2-1.6-1.8-2.3l0,0.9c0.3,0.4,0.5,0.8,0.5,1.3c0,0.3-0.1,0.6-0.2,0.9c0.1,0.2,0.1,0.4,0.2,0.6
				c0.1,0,0.3,0,0.4,0c0.6,0.9,1.2,1.8,1.7,2.7c0.5,0.9,1,1.8,1.5,2.8c-0.5,1-1,1.9-1.5,2.8c-0.5,0.9-1.1,1.8-1.7,2.7
				c-0.1,0-0.3,0-0.4,0l0.1,3c0.4-0.5,0.8-1,1.2-1.6c1.7-0.1,3.3-0.4,4.8-0.7c0.1,0.3,0.1,0.6,0.2,0.8c0.4,1.8,0.4,3.3,0.2,4.6
				c-0.2,1.1-0.6,1.9-1.2,2.2c-1,0.5-2.9,0-5-1.6l0.1,1.8c2.2,1.4,4.3,1.8,5.7,1c1.9-1.1,2.5-4.3,1.7-8.3c-0.1-0.3-0.1-0.6-0.2-0.9
				c0.2-0.1,0.4-0.1,0.7-0.2c4-1.3,6.6-3.4,6.6-5.6C-191,412.6-193.5,410.6-197.3,409.3z M-202.3,411.2c-0.3-0.6-0.7-1.2-1.1-1.7
				c1.1,0.1,2.2,0.3,3.2,0.6c-0.3,1-0.7,2-1.1,3C-201.6,412.4-202,411.8-202.3,411.2z M-203.4,420.1c0.4-0.6,0.7-1.2,1.1-1.8
				c0.4-0.6,0.7-1.2,1-1.8c0.5,1.1,0.9,2.1,1.2,3.1C-201.1,419.7-202.2,419.9-203.4,420.1z M-198.1,419c-0.2,0.1-0.4,0.1-0.6,0.2
				c-0.4-1.4-1-2.9-1.8-4.4c0.7-1.5,1.3-2.9,1.7-4.3c0.4,0.1,0.7,0.2,1,0.3c3.2,1.1,5.2,2.7,5.2,4
				C-192.5,416.1-194.6,417.8-198.1,419z M-212.4,427l0,1.8c-2.2,1.3-4.3,1.7-5.7,0.9c-1.8-1-2.4-4.1-1.7-7.9
				c0.1-0.4,0.2-0.8,0.3-1.2c-0.3-0.1-0.6-0.2-0.9-0.3c-3.9-1.3-6.4-3.5-6.4-5.6c0-2.1,2.4-4.1,6.1-5.4c0.4-0.1,0.9-0.3,1.3-0.4
				c-0.1-0.4-0.2-0.8-0.3-1.2c-0.8-3.9-0.2-7,1.6-8.1c1.6-0.9,4.1-0.2,6.7,1.6l-0.1,1.8c-2.5-2-4.8-2.8-5.9-2.1
				c-1.1,0.6-1.5,3.1-0.9,6.5c0.1,0.4,0.2,0.7,0.2,1.1c1.5-0.3,3-0.6,4.7-0.7c0.6-0.8,1.1-1.5,1.7-2.2l0,0.9
				c-0.3,0.4-0.5,0.8-0.5,1.3c0,0.3,0.1,0.6,0.2,0.9c-0.1,0.2-0.1,0.4-0.2,0.6c-0.1,0-0.3,0-0.4,0c-0.6,0.9-1.2,1.8-1.7,2.7
				c-0.5,0.9-1,1.8-1.5,2.8c0.5,1,1,1.9,1.5,2.8c0.5,0.9,1.1,1.8,1.7,2.7c0.1,0,0.2,0,0.4,0l-0.1,2.9c-0.4-0.5-0.7-1-1.1-1.5
				c-1.7-0.1-3.3-0.4-4.7-0.7c-0.1,0.4-0.2,0.8-0.3,1.2c-0.6,3.3-0.2,5.7,0.9,6.3c0.5,0.3,1.4,0.3,2.5-0.1
				C-214.2,428.1-213.3,427.7-212.4,427z M-215.7,418.3c-0.3-0.6-0.7-1.2-1-1.8c-0.4,1-0.8,2.1-1.1,3.1c1,0.2,2.1,0.4,3.2,0.5
				C-215,419.5-215.3,418.9-215.7,418.3z M-214.6,409.5c-1.1,0.1-2.2,0.3-3.2,0.5c0.3,1,0.7,2,1.1,3c0.3-0.6,0.6-1.2,1-1.8
				C-215.3,410.6-215,410-214.6,409.5z M-219.3,419.2c0.4-1.4,1-2.9,1.7-4.4c-0.7-1.5-1.3-3-1.7-4.4c-0.4,0.1-0.8,0.2-1.2,0.4
				c-3.2,1.1-5.1,2.7-5.1,4c0,0.6,0.4,1.3,1.3,2.1c1,0.8,2.4,1.6,4.1,2.2C-219.8,419-219.6,419.1-219.3,419.2z M-209.8,418.2
				c-0.9-0.4-1.5-1.2-1.5-2.2c0-1.1,0.7-2,1.7-2.3l0-0.3h-0.4c-0.1,0-0.3-0.1-0.3-0.3v-0.3c0-0.1,0.1-0.3,0.3-0.3h0.1v-0.2v-0.5
				v-0.5V411v-0.5c0-0.3,0.1-0.6,0.4-0.8l0-0.8h-0.2c-0.1,0-0.2-0.1-0.2-0.2c0-0.1,0.1-0.2,0.2-0.2h0.2l0.6-15.8l0.5,15.8h0.2
				c0.1,0,0.2,0.1,0.2,0.2s-0.1,0.2-0.2,0.2h-0.2l0,0.8c0,0,0,0,0.1,0.1c0.2,0.2,0.3,0.4,0.3,0.7v0.8v1v0.2h0.1
				c0.1,0,0.3,0.1,0.3,0.3v0.3c0,0.1-0.1,0.3-0.3,0.3h-0.4l0,0.3c1,0.3,1.7,1.2,1.7,2.3c0,1-0.6,1.9-1.5,2.2l0,0.5h0.2
				c0.1,0,0.3,0.1,0.3,0.3v0.3c0,0.1-0.1,0.3-0.3,0.3h-0.2l0.2,9.1c-0.4-0.1-0.8-0.1-1.2-0.1c-0.4,0-0.8,0-1.2,0.1l0.2-9.1h-0.2
				c-0.1,0-0.3-0.1-0.3-0.3V419c0-0.1,0.1-0.3,0.3-0.3h0.2L-209.8,418.2z"/>
		</g>
	</g>
</g>
</svg>
